<?xml version="1.0" encoding="UTF-8" standalone="no"?>
<!-- Created with Inkscape (http://www.inkscape.org/) -->

<svg
   width="450mm"
   height="450mm"
   viewBox="0 0 450 450"
   version="1.1"
   id="svg5"
   inkscape:version="1.2.2 (b0a8486541, 2022-12-01)"
   sodipodi:docname="ai.svg"
   xmlns:inkscape="http://www.inkscape.org/namespaces/inkscape"
   xmlns:sodipodi="http://sodipodi.sourceforge.net/DTD/sodipodi-0.dtd"
   xmlns="http://www.w3.org/2000/svg"
   xmlns:svg="http://www.w3.org/2000/svg">
  <sodipodi:namedview
     id="namedview7"
     pagecolor="#ffffff"
     bordercolor="#000000"
     borderopacity="0.25"
     inkscape:showpageshadow="2"
     inkscape:pageopacity="0.0"
     inkscape:pagecheckerboard="0"
     inkscape:deskcolor="#d1d1d1"
     inkscape:document-units="mm"
     showgrid="false"
     inkscape:zoom="0.21880237"
     inkscape:cx="109.68802"
     inkscape:cy="690.12048"
     inkscape:window-width="1920"
     inkscape:window-height="1135"
     inkscape:window-x="0"
     inkscape:window-y="0"
     inkscape:window-maximized="1"
     inkscape:current-layer="layer1" />
  <defs
     id="defs2" />
  <g
     inkscape:label="Réteg 1"
     inkscape:groupmode="layer"
     id="layer1">
    <path
       sodipodi:type="star"
       style="fill:#f0b690;fill-opacity:1;stroke:none;stroke-width:7;stroke-dasharray:none;stroke-opacity:1;stop-color:#000000"
       id="path2133-7-5"
       inkscape:flatsided="false"
       sodipodi:sides="4"
       sodipodi:cx="35.063988"
       sodipodi:cy="146.90115"
       sodipodi:r1="78.006241"
       sodipodi:r2="32.884911"
       sodipodi:arg1="0"
       sodipodi:arg2="0.69078137"
       inkscape:rounded="0.10894248"
       inkscape:randomized="0"
       d="m 113.07023,146.90115 c 0.58378,6.1467 -48.294184,16.58649 -52.66025,20.95228 -4.809422,4.80913 -18.575122,56.4109 -25.345992,57.05396 -6.146698,0.58378 -16.586485,-48.29418 -20.95228,-52.66024 -4.8091233,-4.80943 -56.410901,-18.57513 -57.053961,-25.346 -0.58378,-6.14669 48.2941826,-16.58648 52.6602482,-20.95228 4.8094228,-4.80912 18.5751218,-56.410897 25.3459928,-57.053957 6.146697,-0.58378 16.586485,48.294187 20.952279,52.660247 4.809124,4.80942 56.410903,18.57512 57.053963,25.34599 z"
       inkscape:transform-center-y="2.3518117e-05"
       transform="matrix(0.70497932,0,0,0.70497932,240.31149,165.0952)"
       inkscape:transform-center-x="2.9985903e-06" />
    <path
       id="rect358"
       style="fill:none;stroke:#a68cc8;stroke-width:21.4011;stroke-opacity:1;stop-color:#000000"
       d="M 69.211208,21.58283 H 378.87243 V 218.42656 H 69.211208 Z"
       sodipodi:nodetypes="ccccc" />
    <path
       sodipodi:type="star"
       style="fill:#f0d44f;fill-opacity:1;stroke:none;stroke-width:7;stroke-dasharray:none;stroke-opacity:1;stop-color:#000000"
       id="path2133"
       inkscape:flatsided="false"
       sodipodi:sides="4"
       sodipodi:cx="35.063988"
       sodipodi:cy="146.90115"
       sodipodi:r1="78.006241"
       sodipodi:r2="32.884911"
       sodipodi:arg1="0"
       sodipodi:arg2="0.69078137"
       inkscape:rounded="0.10894248"
       inkscape:randomized="0"
       d="m 113.07023,146.90115 c 0.58378,6.1467 -48.294184,16.58649 -52.66025,20.95228 -4.809422,4.80913 -18.575122,56.4109 -25.345992,57.05396 -6.146698,0.58378 -16.586485,-48.29418 -20.95228,-52.66024 -4.8091233,-4.80943 -56.410901,-18.57513 -57.053961,-25.346 -0.58378,-6.14669 48.2941826,-16.58648 52.6602482,-20.95228 4.8094228,-4.80912 18.5751218,-56.410897 25.3459928,-57.053957 6.146697,-0.58378 16.586485,48.294187 20.952279,52.660247 4.809124,4.80942 56.410903,18.57512 57.053963,25.34599 z"
       transform="matrix(1.0417127,0,0,1.0417127,64.106442,162.87233)" />
    <path
       sodipodi:type="star"
       style="fill:#e8a853;fill-opacity:1;stroke:none;stroke-width:7;stroke-dasharray:none;stroke-opacity:1;stop-color:#000000"
       id="path2133-7"
       inkscape:flatsided="false"
       sodipodi:sides="4"
       sodipodi:cx="35.063988"
       sodipodi:cy="146.90115"
       sodipodi:r1="78.006241"
       sodipodi:r2="32.884911"
       sodipodi:arg1="0"
       sodipodi:arg2="0.69078137"
       inkscape:rounded="0.10894248"
       inkscape:randomized="0"
       d="m 113.07023,146.90115 c 0.58378,6.1467 -48.294184,16.58649 -52.66025,20.95228 -4.809422,4.80913 -18.575122,56.4109 -25.345992,57.05396 -6.146698,0.58378 -16.586485,-48.29418 -20.95228,-52.66024 -4.8091233,-4.80943 -56.410901,-18.57513 -57.053961,-25.346 -0.58378,-6.14669 48.2941826,-16.58648 52.6602482,-20.95228 4.8094228,-4.80912 18.5751218,-56.410897 25.3459928,-57.053957 6.146697,-0.58378 16.586485,48.294187 20.952279,52.660247 4.809124,4.80942 56.410903,18.57512 57.053963,25.34599 z"
       inkscape:transform-center-y="2.716226e-06"
       transform="matrix(0.8259414,0,0,0.8259414,321.83071,221.59435)" />
    <text
       xml:space="preserve"
       style="font-style:normal;font-variant:normal;font-weight:bold;font-stretch:normal;font-size:230.877px;font-family:'Latin Modern Sans';-inkscape-font-specification:'Latin Modern Sans, Bold';font-variant-ligatures:normal;font-variant-caps:normal;font-variant-numeric:normal;font-variant-east-asian:normal;fill:#ca95e0;fill-opacity:1;stroke-width:1.99999999;stop-color:#000000;stroke:#572d7e;stroke-opacity:1;stroke-dasharray:none"
       x="99.333153"
       y="451.07236"
       id="text522"
       transform="scale(1.0231575,0.97736664)"><tspan
         sodipodi:role="line"
         id="tspan520"
         style="font-style:normal;font-variant:normal;font-weight:bold;font-stretch:normal;font-size:230.877px;font-family:'Latin Modern Sans';-inkscape-font-specification:'Latin Modern Sans, Bold';font-variant-ligatures:normal;font-variant-caps:normal;font-variant-numeric:normal;font-variant-east-asian:normal;fill:#ca95e0;fill-opacity:1;stroke-width:1.99999999;stroke:#572d7e;stroke-opacity:1;stroke-dasharray:none"
         x="99.333153"
         y="451.07236">AI</tspan></text>
    <ellipse
       style="fill:none;stroke:#9561c6;stroke-width:12.1419;stroke-dasharray:none;stroke-opacity:1;stop-color:#000000"
       id="path1329"
       cx="153.54408"
       cy="115.32691"
       rx="43.896439"
       ry="38.43755" />
    <ellipse
       style="fill:none;stroke:#9561c6;stroke-width:12.1419;stroke-dasharray:none;stroke-opacity:1;stop-color:#000000"
       id="path1329-9"
       cx="287.82315"
       cy="115.32691"
       rx="43.896439"
       ry="38.43755" />
    <path
       id="rect2305"
       style="fill:#b55e9d;stroke-width:10.7005;stop-color:#000000;fill-opacity:1"
       d="m 181.22927,180.31902 h 85.80213 c 0,0 -0.24423,10.54732 -2.53713,13.72277 -2.2929,3.17543 -8.36356,4.59992 -8.36356,4.59992 h -63.08464 c 0,0 -5.69529,-1.28858 -8.13545,-4.38567 -2.44015,-3.09709 -3.68135,-13.93702 -3.68135,-13.93702 z"
       sodipodi:nodetypes="cczcczc" />
  </g>
</svg>
