<?xml version="1.0" encoding="UTF-8" standalone="no"?>
<!-- Created with Inkscape (http://www.inkscape.org/) -->

<svg
   width="200mm"
   height="200mm"
   viewBox="0 0 200 200"
   version="1.1"
   id="svg1284"
   inkscape:version="1.2.2 (b0a8486541, 2022-12-01)"
   sodipodi:docname="logo.svg"
   xmlns:inkscape="http://www.inkscape.org/namespaces/inkscape"
   xmlns:sodipodi="http://sodipodi.sourceforge.net/DTD/sodipodi-0.dtd"
   xmlns:xlink="http://www.w3.org/1999/xlink"
   xmlns="http://www.w3.org/2000/svg"
   xmlns:svg="http://www.w3.org/2000/svg">
  <sodipodi:namedview
     id="namedview1286"
     pagecolor="#ffffff"
     bordercolor="#000000"
     borderopacity="0.25"
     inkscape:showpageshadow="2"
     inkscape:pageopacity="0.0"
     inkscape:pagecheckerboard="0"
     inkscape:deskcolor="#d1d1d1"
     inkscape:document-units="mm"
     showgrid="false"
     inkscape:zoom="0.64758733"
     inkscape:cx="-111.18192"
     inkscape:cy="535.83507"
     inkscape:window-width="1920"
     inkscape:window-height="1135"
     inkscape:window-x="0"
     inkscape:window-y="0"
     inkscape:window-maximized="1"
     inkscape:current-layer="layer1" />
  <defs
     id="defs1281">
    <linearGradient
       inkscape:collect="always"
       xlink:href="#linearGradient73463"
       id="linearGradient73465"
       x1="735.51099"
       y1="925.21588"
       x2="983.07788"
       y2="314.52869"
       gradientUnits="userSpaceOnUse"
       gradientTransform="matrix(0.22399119,0,0,0.22399119,-77.753429,-25.961199)" />
    <linearGradient
       inkscape:collect="always"
       id="linearGradient73463">
      <stop
         style="stop-color:#7feaff;stop-opacity:1;"
         offset="0"
         id="stop73461" />
      <stop
         style="stop-color:#00dcb1;stop-opacity:1;"
         offset="1"
         id="stop73459" />
    </linearGradient>
  </defs>
  <g
     inkscape:label="Réteg 1"
     inkscape:groupmode="layer"
     id="layer1">
    <rect
       style="display:none;fill:#476683;fill-opacity:1;stroke-width:1.3184;-inkscape-stroke:none;paint-order:markers fill stroke;stop-color:#000000"
       id="rect2313"
       width="200"
       height="250"
       x="0"
       y="0"
       inkscape:label="kokek" />
    <rect
       style="display:none;fill:#0f1829;fill-opacity:1;stroke-width:1.3184;-inkscape-stroke:none;paint-order:markers fill stroke;stop-color:#000000"
       id="rect2313-1"
       width="200"
       height="250"
       x="0"
       y="0"
       inkscape:label="navy" />
    <path
       id="path68081"
       style="fill:url(#linearGradient73465);fill-opacity:1;stroke-width:1.26365"
       d="m 110.43724,11.496956 c -0.0704,4.75e-4 -0.13881,0.0018 -0.20867,0.0027 -0.21821,0.0018 -0.43861,0.0063 -0.65841,0.01137 -0.08,0.0018 -0.1593,0.0027 -0.24062,0.0054 -0.24272,0.0071 -0.48495,0.01629 -0.72752,0.02758 -0.0412,0.0018 -0.0825,0.0035 -0.12382,0.0046 -0.28342,0.01396 -0.56725,0.03045 -0.8496,0.05031 -0.0654,0.0046 -0.13051,0.01028 -0.19597,0.01486 -0.21812,0.01576 -0.4383,0.03393 -0.65799,0.05292 -0.082,0.0081 -0.16434,0.01513 -0.2463,0.02319 -0.22771,0.02122 -0.45456,0.04467 -0.68292,0.07135 -0.0544,0.0063 -0.10886,0.01083 -0.16273,0.01791 -0.27972,0.03268 -0.56047,0.06732 -0.83909,0.105869 -0.0593,0.0081 -0.11823,0.01773 -0.17806,0.02498 -0.22052,0.0308 -0.43985,0.06329 -0.66149,0.09844 -0.0843,0.01289 -0.16723,0.02668 -0.25111,0.04065 -0.2144,0.03447 -0.43146,0.07244 -0.64571,0.110685 -0.0639,0.01155 -0.12944,0.02257 -0.19338,0.03411 -0.27474,0.05076 -0.55145,0.104826 -0.82683,0.160992 -0.0507,0.01093 -0.10239,0.02239 -0.15312,0.03321 -0.22371,0.04745 -0.44842,0.09669 -0.67197,0.147868 -0.0833,0.0188 -0.16611,0.0385 -0.24937,0.0573 -0.20661,0.0488 -0.41384,0.09935 -0.61904,0.151368 -0.0706,0.01701 -0.14081,0.03492 -0.21261,0.05246 -0.272312,0.07001 -0.542462,0.141627 -0.812422,0.216993 -0.0401,0.01128 -0.082,0.02463 -0.12205,0.0359 -0.22942,0.06518 -0.45984,0.132012 -0.68992,0.202552 -0.0822,0.02472 -0.16419,0.04942 -0.24718,0.07566 -0.19926,0.06213 -0.39793,0.125198 -0.59628,0.189427 -0.0757,0.02561 -0.15129,0.0487 -0.22706,0.07439 -0.26686,0.08926 -0.53301,0.180689 -0.79928,0.27474 -0.0243,0.0094 -0.0487,0.01871 -0.0748,0.02758 -0.24095,0.08676 -0.48106,0.175748 -0.72141,0.267309 -0.0794,0.03108 -0.16041,0.0616 -0.24104,0.09318 -0.0706,0.02722 -0.13898,0.05595 -0.20956,0.08308 -0.072,0.03419 -0.1424,0.06849 -0.21568,0.103243 l 0.20037,-0.08746 c 0.0701,-0.02829 0.13372,-0.05372 0.2043,-0.08093 0.0172,-0.0063 0.0326,-0.01235 0.0485,-0.01836 0.005,-0.0027 0.01,-0.0046 0.0153,-0.0071 0.0588,-0.02328 0.1188,-0.04737 0.17806,-0.06956 0.24035,-0.09156 0.47999,-0.181612 0.72141,-0.267301 0.0256,-0.01002 0.0504,-0.01836 0.0753,-0.02668 0.0168,-0.0063 0.0313,-0.01093 0.0481,-0.0171 -0.0526,0.02694 -0.10747,0.05336 -0.15969,0.08138 -0.35826,0.185228 -0.71208,0.376043 -1.06439,0.571352 8.183922,-2.630931 16.969232,-2.555027 25.707802,-0.14699 20.58143,5.670954 40.90424,24.235852 52.49354,50.631634 11.58933,26.395791 11.50333,53.921353 1.74952,72.911293 -4.15745,8.09427 -10.07559,14.63177 -17.59208,18.87519 0.3907,-0.12838 0.77913,-0.26172 1.16723,-0.40292 0.0572,-0.02 0.11389,-0.0412 0.17016,-0.0635 0.0137,-0.006 0.0259,-0.0125 0.0393,-0.0197 0.24984,-0.1313 0.49696,-0.26534 0.7428,-0.40248 0.0702,-0.0384 0.13816,-0.0786 0.20788,-0.11812 0.18197,-0.10145 0.3632,-0.20506 0.54371,-0.30975 0.0738,-0.0438 0.1489,-0.0881 0.22317,-0.1308 0.20761,-0.12162 0.41229,-0.24576 0.6155,-0.37056 0.0353,-0.0219 0.074,-0.0439 0.10896,-0.0669 0.23865,-0.14667 0.47417,-0.29709 0.71004,-0.45017 0.062,-0.04 0.12216,-0.0805 0.18288,-0.11986 0.17715,-0.11587 0.35494,-0.23423 0.53021,-0.35435 0.0706,-0.0475 0.14113,-0.095 0.21128,-0.14351 0.18899,-0.12995 0.37719,-0.26202 0.56352,-0.39462 0.0418,-0.0311 0.0853,-0.0616 0.12814,-0.0905 0.22648,-0.16417 0.45305,-0.33117 0.67768,-0.49959 0.0517,-0.0392 0.1048,-0.0789 0.15659,-0.11813 0.17315,-0.13188 0.34837,-0.26622 0.51885,-0.40073 0.0666,-0.0534 0.13247,-0.10502 0.19908,-0.15838 0.17457,-0.13885 0.34739,-0.27812 0.52105,-0.4191 0.0459,-0.0391 0.0928,-0.075 0.13869,-0.11419 0.21691,-0.17903 0.43235,-0.36259 0.64568,-0.54641 0.0413,-0.0358 0.0821,-0.0718 0.12338,-0.10762 0.17245,-0.15061 0.34349,-0.30163 0.51452,-0.45542 0.0614,-0.0549 0.12231,-0.11091 0.18374,-0.1658 0.16266,-0.14888 0.32508,-0.29791 0.48385,-0.44886 0.0477,-0.0451 0.0962,-0.0888 0.1439,-0.13388 0.20571,-0.19442 0.40998,-0.39229 0.61205,-0.59147 0.0292,-0.0293 0.0579,-0.0582 0.0871,-0.0875 0.17251,-0.17094 0.34333,-0.34264 0.51317,-0.51623 0.0571,-0.058 0.11138,-0.11608 0.16845,-0.17412 0.15168,-0.15675 0.30287,-0.31703 0.45192,-0.47642 0.0471,-0.0498 0.0952,-0.10133 0.14348,-0.15181 0.19396,-0.21085 0.38791,-0.42198 0.57877,-0.63654 0.0143,-0.0178 0.0296,-0.0354 0.045,-0.0512 0.17497,-0.19615 0.34626,-0.39338 0.51804,-0.59324 0.0505,-0.0589 0.10085,-0.11902 0.15134,-0.17805 0.1436,-0.16842 0.2852,-0.33861 0.42608,-0.50966 0.0465,-0.0547 0.0926,-0.11049 0.1387,-0.16625 0.36354,-0.44652 0.72077,-0.90045 1.07013,-1.36231 0.0459,-0.0595 0.091,-0.12005 0.1347,-0.18113 0.13468,-0.17847 0.26743,-0.35831 0.39942,-0.53943 0.0449,-0.0616 0.089,-0.12165 0.13388,-0.1833 0.33867,-0.4724 0.67263,-0.95286 0.99704,-1.44062 0.0412,-0.0601 0.0804,-0.12063 0.11985,-0.18113 0.12531,-0.18957 0.24836,-0.38051 0.37274,-0.57221 0.0418,-0.0653 0.0838,-0.13098 0.12685,-0.19687 0.14712,-0.23218 0.2935,-0.46649 0.43796,-0.70128 0.008,-0.0151 0.018,-0.0296 0.0262,-0.0419 0.15649,-0.25533 0.30771,-0.51215 0.46022,-0.76954 0.0339,-0.0593 0.0679,-0.11879 0.10365,-0.17762 0.1172,-0.20124 0.23149,-0.40221 0.34653,-0.60503 0.0394,-0.0706 0.0791,-0.14022 0.11853,-0.21087 0.12637,-0.22814 0.25292,-0.45626 0.37709,-0.68597 0.0173,-0.0328 0.0345,-0.0646 0.0517,-0.0976 0.14282,-0.26582 0.28371,-0.53335 0.42214,-0.80233 0.008,-0.0162 0.0175,-0.0317 0.0259,-0.0468 0.019,-0.0388 0.0392,-0.081 0.0595,-0.12032 0.11095,-0.21882 0.22032,-0.43807 0.33078,-0.65796 0.0355,-0.0728 0.0725,-0.14624 0.10759,-0.22007 0.11778,-0.24086 0.23477,-0.48388 0.34911,-0.72577 0.0166,-0.0339 0.032,-0.0671 0.0486,-0.10105 0.13081,-0.27961 0.25905,-0.56092 0.38589,-0.8426 0.0279,-0.0631 0.0557,-0.12598 0.0835,-0.18899 0.0996,-0.22403 0.19696,-0.44723 0.29443,-0.67285 0.0332,-0.0781 0.0657,-0.15442 0.0992,-0.23143 0.10747,-0.2541 0.2155,-0.51082 0.31984,-0.76864 0.0124,-0.0308 0.0238,-0.0585 0.0358,-0.0893 0.11764,-0.28905 0.23281,-0.5797 0.34605,-0.87191 0.0267,-0.0688 0.0534,-0.13872 0.0796,-0.20867 0.0876,-0.22763 0.17276,-0.45678 0.25812,-0.68598 0.0293,-0.0801 0.0601,-0.16103 0.0901,-0.24279 0.098,-0.26898 0.19398,-0.53849 0.29052,-0.81066 0.009,-0.0253 0.0175,-0.0495 0.0258,-0.0748 0.10448,-0.2985 0.20529,-0.59911 0.30534,-0.90077 0.0253,-0.0758 0.05,-0.15266 0.0739,-0.22792 0.0767,-0.23176 0.1503,-0.4634 0.22439,-0.6978 0.0269,-0.0855 0.0543,-0.17012 0.08,-0.25504 0.0883,-0.28384 0.17492,-0.56892 0.2594,-0.85484 0.006,-0.0204 0.0132,-0.039 0.0173,-0.0573 0.0905,-0.30635 0.17852,-0.61501 0.26336,-0.92396 0.0237,-0.0827 0.0459,-0.16522 0.0677,-0.2485 0.0646,-0.23534 0.12901,-0.47147 0.19031,-0.70784 0.0238,-0.0892 0.0474,-0.17585 0.0696,-0.26555 0.0788,-0.30244 0.15535,-0.60656 0.2297,-0.91215 0.003,-0.009 0.004,-0.0172 0.006,-0.0258 0.0766,-0.31418 0.15094,-0.6298 0.22312,-0.94715 0.0216,-0.0881 0.0407,-0.17784 0.0603,-0.26643 0.0531,-0.23786 0.10619,-0.47827 0.15666,-0.71878 0.0205,-0.0902 0.04,-0.1827 0.0586,-0.27343 0.13401,-0.63776 0.2609,-1.28116 0.37707,-1.92885 0.0175,-0.0939 0.0344,-0.18894 0.0512,-0.28393 0.0435,-0.24254 0.0854,-0.48546 0.126,-0.72796 0.0162,-0.0934 0.0313,-0.18776 0.0467,-0.28219 0.0542,-0.3246 0.10574,-0.65176 0.15533,-0.97952 0.003,-0.0204 0.005,-0.041 0.007,-0.0607 0.0462,-0.30842 0.0917,-0.61894 0.13348,-0.93052 0.0136,-0.0987 0.0266,-0.19843 0.0393,-0.29924 0.0327,-0.24668 0.0647,-0.49182 0.0945,-0.73846 0.0118,-0.0965 0.023,-0.19418 0.035,-0.28961 0.0392,-0.33082 0.0775,-0.66367 0.11284,-0.99658 0.005,-0.0363 0.006,-0.074 0.0109,-0.11156 0.0306,-0.29913 0.0612,-0.59834 0.0897,-0.89903 0.009,-0.10558 0.0186,-0.20984 0.0281,-0.31543 0.0228,-0.2487 0.044,-0.49802 0.0651,-0.74722 0.006,-0.0981 0.0158,-0.19607 0.0232,-0.29573 0.0262,-0.33654 0.0494,-0.67293 0.0735,-1.01104 0.003,-0.052 0.005,-0.10291 0.009,-0.15486 0.019,-0.29147 0.0357,-0.58185 0.0507,-0.87539 0.005,-0.10929 0.0105,-0.21908 0.0156,-0.32943 0.0126,-0.25177 0.023,-0.505 0.0337,-0.75729 0.003,-0.099 0.007,-0.19874 0.0117,-0.29836 0.012,-0.3417 0.0235,-0.68212 0.0315,-1.0259 0.003,-0.0643 0.003,-0.12973 0.003,-0.19292 0.007,-0.28489 0.0116,-0.5687 0.0151,-0.85352 0,-0.11458 0.003,-0.22931 0.003,-0.34388 0.003,-0.25483 0.003,-0.51093 0.003,-0.76734 0,-0.10116 0.003,-0.20222 0,-0.3023 -0.003,-0.34474 -0.006,-0.69041 -0.0105,-1.03509 -0.003,-0.0765 -0.003,-0.15184 -0.005,-0.22836 -0.005,-0.27935 -0.0125,-0.55748 -0.0197,-0.83735 -0.003,-0.11772 -0.009,-0.23453 -0.0105,-0.35173 -0.009,-0.25898 -0.0175,-0.51811 -0.0271,-0.77654 -0.005,-0.10164 -0.008,-0.20317 -0.0128,-0.30536 -0.0143,-0.34776 -0.0326,-0.69648 -0.0521,-1.044707 -0.005,-0.085 -0.0113,-0.17176 -0.0173,-0.256797 -0.0156,-0.27494 -0.0316,-0.547127 -0.0503,-0.822027 -0.009,-0.12138 -0.0162,-0.242167 -0.0258,-0.363557 -0.019,-0.26204 -0.0388,-0.524897 -0.0596,-0.787467 -0.008,-0.100517 -0.0154,-0.20275 -0.0249,-0.302728 -0.0285,-0.351853 -0.059,-0.702443 -0.0924,-1.054778 -0.009,-0.09249 -0.0186,-0.186195 -0.0281,-0.278679 -0.0262,-0.27159 -0.0529,-0.541619 -0.081,-0.81372 -0.0136,-0.12347 -0.0269,-0.245759 -0.0406,-0.369237 -0.029,-0.267802 -0.0589,-0.534136 -0.0909,-0.801901 -0.012,-0.09887 -0.0228,-0.197986 -0.035,-0.297928 -0.0438,-0.352712 -0.0887,-0.707725 -0.13521,-1.063077 -0.0126,-0.09994 -0.0279,-0.199992 -0.0407,-0.30099 -0.035,-0.267721 -0.0736,-0.533599 -0.11202,-0.802349 -0.0175,-0.125565 -0.0353,-0.251221 -0.0543,-0.376231 -0.0404,-0.273003 -0.0826,-0.543704 -0.12469,-0.817218 -0.0151,-0.09615 -0.0308,-0.192588 -0.046,-0.288744 -0.0572,-0.355747 -0.11524,-0.713311 -0.17586,-1.070086 -0.0175,-0.105225 -0.037,-0.211335 -0.0552,-0.317615 -0.0461,-0.265429 -0.0936,-0.530079 -0.1417,-0.797093 -0.0237,-0.125476 -0.0468,-0.253628 -0.0709,-0.38018 -0.0506,-0.276073 -0.10459,-0.553302 -0.15707,-0.829896 -0.019,-0.09449 -0.0375,-0.186697 -0.0552,-0.281741 -0.0705,-0.358782 -0.14397,-0.71477 -0.2192,-1.074017 -0.0221,-0.112118 -0.0461,-0.221363 -0.0696,-0.332926 -0.0571,-0.263146 -0.11361,-0.525128 -0.17236,-0.788783 -0.0266,-0.129192 -0.0565,-0.258097 -0.0845,-0.386734 -0.0638,-0.281796 -0.12924,-0.564038 -0.19512,-0.847408 -0.0211,-0.08855 -0.0413,-0.176285 -0.0617,-0.2638 -0.0847,-0.360205 -0.17231,-0.720536 -0.26115,-1.080142 -0.028,-0.114723 -0.0571,-0.228632 -0.0867,-0.343865 -0.0654,-0.261956 -0.13224,-0.523249 -0.19947,-0.785724 -0.0335,-0.127481 -0.0675,-0.256171 -0.10105,-0.38367 -0.0768,-0.291244 -0.15461,-0.581894 -0.23319,-0.873655 -0.0224,-0.08156 -0.0434,-0.163696 -0.0665,-0.24368 -0.0995,-0.359992 -0.20198,-0.72273 -0.30623,-1.083204 -0.0323,-0.117866 -0.0688,-0.235106 -0.1028,-0.353482 -0.0748,-0.259161 -0.15149,-0.520043 -0.22923,-0.779159 -0.0382,-0.127966 -0.0768,-0.257085 -0.11596,-0.387172 -0.0915,-0.297481 -0.18231,-0.595356 -0.27563,-0.893335 -0.0232,-0.0736 -0.0459,-0.148684 -0.0692,-0.22225 -0.11364,-0.361413 -0.22899,-0.723615 -0.34864,-1.084948 -0.0379,-0.12048 -0.0791,-0.242 -0.11946,-0.361369 -0.085,-0.258482 -0.17186,-0.517215 -0.25986,-0.775659 -0.0429,-0.128432 -0.086,-0.256772 -0.13124,-0.38411 -0.10569,-0.309057 -0.21244,-0.617559 -0.32111,-0.92658 -0.0235,-0.06339 -0.0436,-0.126918 -0.0669,-0.190304 -0.1273,-0.361773 -0.25912,-0.723026 -0.39195,-1.083652 -0.0447,-0.122512 -0.0904,-0.247263 -0.13653,-0.369229 -0.0947,-0.256754 -0.19269,-0.514278 -0.2896,-0.772598 -0.0479,-0.126228 -0.0964,-0.253763 -0.14484,-0.381047 -0.1232,-0.321672 -0.24877,-0.642261 -0.3762,-0.96334 -0.0209,-0.05435 -0.0413,-0.10749 -0.0613,-0.159678 -0.14216,-0.357824 -0.28725,-0.715486 -0.43355,-1.072709 -0.0512,-0.123507 -0.1027,-0.247103 -0.1549,-0.372732 -0.1049,-0.256081 -0.21185,-0.513945 -0.31977,-0.769973 -0.0534,-0.125082 -0.10575,-0.250335 -0.16012,-0.377547 -0.14248,-0.334797 -0.28809,-0.671016 -0.43356,-1.005779 -0.0128,-0.02875 -0.0263,-0.05918 -0.0389,-0.08792 -0.007,-0.02991 -0.0198,-0.05874 -0.0324,-0.08747 v 0 c -0.1485,-0.334716 -0.29752,-0.670605 -0.44799,-1.003156 -0.0551,-0.121839 -0.11168,-0.244129 -0.16712,-0.367044 -0.1169,-0.255913 -0.23503,-0.511224 -0.35442,-0.766035 -0.0553,-0.119164 -0.11086,-0.238248 -0.1662,-0.357421 -0.16757,-0.354268 -0.33482,-0.708359 -0.50442,-1.060454 -0.0194,-0.04091 -0.0401,-0.08067 -0.0594,-0.121626 -0.15509,-0.319092 -0.31042,-0.63516 -0.4668,-0.953707 -0.0582,-0.115386 -0.11727,-0.233108 -0.1759,-0.34955 -0.1274,-0.252565 -0.2541,-0.506587 -0.38278,-0.758596 -0.0565,-0.108439 -0.11265,-0.219563 -0.16797,-0.328547 -0.1792,-0.346625 -0.35828,-0.692263 -0.54033,-1.035091 -0.0253,-0.04727 -0.0503,-0.09488 -0.0756,-0.142172 -0.16126,-0.302431 -0.32192,-0.603781 -0.48475,-0.902971 -0.0609,-0.111591 -0.12234,-0.222831 -0.18282,-0.333364 -0.1367,-0.249762 -0.27341,-0.499872 -0.41262,-0.748532 -0.0567,-0.102015 -0.11289,-0.20291 -0.16967,-0.30493 -0.18867,-0.337385 -0.37998,-0.673595 -0.57273,-1.006646 -0.0294,-0.05309 -0.0605,-0.103966 -0.0901,-0.154429 -0.1654,-0.28792 -0.33299,-0.573833 -0.50221,-0.860087 -0.0612,-0.10517 -0.1244,-0.211684 -0.18684,-0.316299 -0.14589,-0.246959 -0.29385,-0.491931 -0.44184,-0.736723 -0.0577,-0.09398 -0.11459,-0.188273 -0.17062,-0.281741 -0.20061,-0.327061 -0.40065,-0.653326 -0.60328,-0.978212 -0.0345,-0.05471 -0.0677,-0.107195 -0.10238,-0.161871 -0.17257,-0.27337 -0.34561,-0.54777 -0.52017,-0.818964 -0.064,-0.101385 -0.12898,-0.20103 -0.19426,-0.301867 -0.15646,-0.243601 -0.31316,-0.484464 -0.47289,-0.725344 -0.0565,-0.08433 -0.11102,-0.170949 -0.16798,-0.256359 -0.20962,-0.316766 -0.42062,-0.632869 -0.63306,-0.945848 -0.0406,-0.05837 -0.0805,-0.114856 -0.11811,-0.17324 -0.17713,-0.259922 -0.35451,-0.516918 -0.53245,-0.775219 -0.0675,-0.09598 -0.13403,-0.19275 -0.20168,-0.288744 -0.16606,-0.238121 -0.33282,-0.474704 -0.50048,-0.709595 -0.0566,-0.07788 -0.11034,-0.155763 -0.16534,-0.233179 -0.21941,-0.304858 -0.4393,-0.61064 -0.6615,-0.911709 -0.0441,-0.05936 -0.0871,-0.120248 -0.1317,-0.180681 -0.18124,-0.24541 -0.36433,-0.491617 -0.54639,-0.735407 -0.0689,-0.09168 -0.1364,-0.181306 -0.20518,-0.272994 -0.17691,-0.232088 -0.35424,-0.464131 -0.5307,-0.695153 -0.0529,-0.06938 -0.10623,-0.139882 -0.1614,-0.21087 -0.22711,-0.295118 -0.45685,-0.586143 -0.68555,-0.878028 -0.0487,-0.0598 -0.0965,-0.120409 -0.14522,-0.18025 -0.18507,-0.233575 -0.37117,-0.466477 -0.55956,-0.697339 -0.07,-0.08738 -0.14105,-0.174422 -0.21041,-0.260747 -0.1853,-0.227154 -0.37092,-0.451354 -0.55822,-0.676342 -0.0515,-0.06248 -0.10396,-0.127508 -0.15665,-0.189428 -0.23515,-0.282699 -0.47165,-0.56205 -0.7109,-0.840406 -0.0523,-0.06088 -0.1049,-0.122558 -0.15836,-0.182875 -0.19017,-0.221201 -0.38011,-0.44131 -0.5718,-0.659279 -0.071,-0.08308 -0.14434,-0.165271 -0.21611,-0.246743 -0.19361,-0.222222 -0.3906,-0.441848 -0.58624,-0.661912 -0.0494,-0.05443 -0.098,-0.110381 -0.14916,-0.16537 -0.24273,-0.269207 -0.48679,-0.537787 -0.73234,-0.803216 -0.057,-0.06133 -0.11373,-0.12296 -0.17195,-0.183743 -0.19173,-0.207798 -0.38583,-0.414281 -0.57967,-0.619911 -0.0737,-0.07932 -0.1485,-0.156803 -0.22312,-0.234488 -0.20223,-0.214621 -0.40744,-0.429322 -0.61375,-0.639601 -0.0471,-0.04916 -0.0934,-0.09609 -0.14046,-0.145245 -0.25031,-0.255723 -0.50183,-0.511233 -0.75248,-0.76428 -0.0594,-0.06026 -0.12248,-0.121142 -0.18244,-0.182434 -0.19679,-0.195416 -0.39304,-0.38992 -0.59188,-0.583161 -0.0744,-0.07396 -0.15041,-0.147428 -0.22486,-0.221372 -0.21561,-0.207476 -0.43148,-0.416117 -0.64661,-0.622536 -0.0429,-0.03957 -0.083,-0.08004 -0.12556,-0.118556 -0.25711,-0.243852 -0.51524,-0.486039 -0.77389,-0.726658 -0.0632,-0.05855 -0.12752,-0.116864 -0.19075,-0.175425 -0.19986,-0.185211 -0.40056,-0.368379 -0.60196,-0.550358 -0.0769,-0.06912 -0.15324,-0.137402 -0.23013,-0.206492 -0.22565,-0.203062 -0.45386,-0.405095 -0.67982,-0.605471 -0.0363,-0.03107 -0.0699,-0.06312 -0.10546,-0.09319 -0.26297,-0.229859 -0.52811,-0.45748 -0.79141,-0.684661 -0.0674,-0.05802 -0.13553,-0.114393 -0.203,-0.172372 -0.20317,-0.172309 -0.40637,-0.34452 -0.61115,-0.513606 -0.0762,-0.06429 -0.15225,-0.128869 -0.23101,-0.19205 -0.23996,-0.198048 -0.47978,-0.394979 -0.71962,-0.589286 -0.0277,-0.02211 -0.054,-0.04485 -0.0818,-0.06697 -0.26878,-0.215857 -0.53727,-0.430585 -0.80889,-0.642663 -0.0691,-0.05471 -0.14103,-0.109235 -0.21178,-0.164492 -0.20574,-0.161037 -0.41384,-0.320929 -0.62035,-0.480355 -0.0768,-0.05891 -0.15244,-0.118556 -0.23013,-0.175864 -0.25253,-0.192533 -0.50666,-0.381818 -0.76034,-0.570045 -0.0197,-0.01424 -0.038,-0.02775 -0.0547,-0.04199 -0.27467,-0.201862 -0.54838,-0.401666 -0.8229,-0.599787 -0.0724,-0.05202 -0.14424,-0.102959 -0.21787,-0.154429 -0.21,-0.150277 -0.41926,-0.299631 -0.63084,-0.446673 -0.0762,-0.05408 -0.15386,-0.107759 -0.23012,-0.161871 -0.26985,-0.187475 -0.54008,-0.371862 -0.80977,-0.555595 -0.006,-0.0035 -0.0122,-0.0071 -0.0171,-0.01183 -0.27879,-0.18735 -0.55784,-0.371916 -0.83822,-0.556034 -0.0739,-0.04879 -0.14792,-0.09745 -0.22312,-0.145682 -0.21381,-0.138449 -0.42589,-0.276791 -0.64002,-0.412553 -0.0769,-0.0487 -0.15281,-0.09798 -0.22925,-0.145683 -0.56018,-0.353269 -1.12228,-0.69777 -1.68518,-1.033336 -0.0767,-0.04504 -0.15247,-0.09061 -0.22925,-0.13562 -0.21682,-0.128234 -0.43384,-0.253925 -0.65053,-0.378425 -0.0746,-0.04342 -0.14903,-0.08657 -0.22487,-0.129487 -0.28422,-0.162129 -0.57,-0.323954 -0.85659,-0.481233 0,0 -4.8e-4,-8.95e-4 -0.002,-0.0018 -0.28267,-0.155182 -0.56452,-0.308224 -0.84784,-0.458043 -0.0772,-0.04234 -0.15484,-0.08291 -0.23319,-0.124688 -0.2189,-0.115887 -0.4405,-0.231006 -0.66147,-0.344735 -0.0723,-0.03814 -0.14612,-0.07664 -0.21961,-0.114187 -0.28789,-0.146542 -0.5763,-0.291607 -0.86403,-0.434417 -0.013,-0.0054 -0.0267,-0.01218 -0.0399,-0.01791 -0.27333,-0.1339 -0.54542,-0.265814 -0.82159,-0.395919 -0.0778,-0.03698 -0.1555,-0.07387 -0.23449,-0.110247 -0.22367,-0.1062 -0.44764,-0.209598 -0.67242,-0.311491 -0.0711,-0.03224 -0.14105,-0.06509 -0.21174,-0.09624 -0.29029,-0.131529 -0.5818,-0.258706 -0.87147,-0.385427 -0.0222,-0.0093 -0.0438,-0.01764 -0.0647,-0.02758 -0.2679,-0.114697 -0.53505,-0.228283 -0.80234,-0.338173 -0.0789,-0.03267 -0.15738,-0.06446 -0.23624,-0.09711 -0.22872,-0.09382 -0.45652,-0.185551 -0.6851,-0.275618 -0.0675,-0.02748 -0.13501,-0.05497 -0.20212,-0.08138 -0.293,-0.113819 -0.58559,-0.22634 -0.87845,-0.336417 -0.0298,-0.0097 -0.0572,-0.02104 -0.0863,-0.03241 -0.26168,-0.09712 -0.52548,-0.191684 -0.78747,-0.28612 -0.0783,-0.02785 -0.15628,-0.05587 -0.23406,-0.08272 -0.23379,-0.08148 -0.4654,-0.161502 -0.69778,-0.239742 -0.0652,-0.02211 -0.129,-0.0436 -0.19251,-0.06518 -0.29494,-0.09773 -0.58889,-0.193429 -0.8837,-0.287427 -0.0363,-0.01074 -0.0705,-0.02104 -0.10543,-0.03241 -0.25719,-0.08004 -0.51561,-0.159613 -0.77392,-0.235364 -0.0763,-0.02363 -0.15425,-0.04628 -0.23142,-0.06821 -0.23761,-0.06956 -0.47433,-0.137132 -0.71179,-0.202991 -0.0426,-0.01172 -0.0855,-0.02444 -0.12687,-0.0367 -0.0185,-0.0046 -0.0356,-0.0089 -0.0529,-0.01405 -0.29173,-0.08013 -0.58391,-0.158415 -0.87628,-0.233173 -0.0352,-0.0089 -0.0689,-0.01675 -0.10417,-0.02533 -0.25488,-0.06456 -0.51033,-0.126568 -0.76429,-0.188997 -0.0788,-0.0188 -0.15703,-0.03644 -0.23404,-0.05471 -0.22887,-0.05309 -0.4542,-0.105046 -0.68291,-0.154429 -0.0662,-0.01405 -0.13283,-0.02946 -0.19949,-0.04458 -0.29319,-0.06294 -0.58546,-0.123827 -0.87804,-0.181986 -0.0163,-0.0027 -0.0326,-0.0063 -0.0477,-0.0096 -0.27106,-0.05362 -0.54371,-0.103967 -0.81545,-0.152245 -0.0763,-0.01343 -0.15285,-0.02685 -0.22925,-0.04029 -0.22529,-0.03814 -0.44935,-0.07682 -0.67374,-0.112871 -0.0712,-0.01191 -0.1418,-0.02274 -0.21304,-0.03456 -0.5799,-0.0907 -1.15942,-0.170339 -1.73768,-0.240181 -0.0746,-0.0091 -0.14861,-0.01727 -0.22267,-0.02533 -0.22442,-0.02588 -0.44679,-0.04995 -0.66979,-0.07261 -0.0753,-0.0071 -0.14911,-0.01477 -0.22443,-0.02229 -0.57642,-0.05542 -1.15288,-0.100808 -1.72719,-0.134312 -0.0723,-0.0035 -0.14438,-0.0081 -0.21612,-0.01049 -0.22131,-0.012 -0.44205,-0.02282 -0.66322,-0.03107 -0.079,-0.0018 -0.15717,-0.0063 -0.23361,-0.0091 -0.2634,-0.0089 -0.52554,-0.01558 -0.78878,-0.0206 -0.0227,-2.05e-4 -0.0443,-8.95e-4 -0.0669,-0.0018 -0.28712,-0.0046 -0.57407,-0.0054 -0.8601,-0.0046 z m -14.759782,2.757446 c -0.0846,0.03939 -0.16719,0.07834 -0.24981,0.116818 0.0871,-0.04082 0.17535,-0.08191 0.26293,-0.121626 -0.005,0.0018 -0.009,0.0035 -0.0132,0.0046 z m 10.706512,-0.635213 c -4.1018,-0.05192 -8.144552,0.46217 -12.058774,1.582806 -0.04423,0.02579 -0.08792,0.05281 -0.13169,0.07959 -0.359139,0.217362 -0.713292,0.438885 -1.063524,0.666292 7.451028,-1.867351 15.332098,-1.582817 23.176538,0.579221 20.58144,5.670965 40.90421,24.23585 52.49353,50.631643 11.58938,26.395792 11.50333,53.921339 1.74949,72.911279 -3.7266,7.25767 -8.87028,13.26357 -15.31097,17.48664 0.41465,-0.10458 0.82385,-0.21794 1.2354,-0.33642 0.0358,-0.0107 0.0731,-0.0222 0.10897,-0.0328 6.98036,-4.24799 12.51112,-10.52917 16.4581,-18.2111 9.75209,-18.99046 9.83759,-46.517429 -1.75125,-72.912155 -11.58931,-26.395792 -31.91168,-44.960678 -52.49311,-50.631633 -4.14996,-1.143538 -8.31091,-1.761436 -12.41271,-1.813363 z m -11.426182,0.915648 c -0.03572,0.01441 -0.07414,0.02981 -0.109801,0.04423 -0.261445,0.108439 -0.523176,0.219483 -0.783538,0.333804 -0.03143,0.01378 -0.06258,0.02775 -0.09407,0.04154 l -2.392594,1.05041 c -9.242201,4.057871 -16.38205,11.334961 -21.181599,20.679803 -9.754299,18.988883 -9.840238,46.515725 1.748615,72.910436 11.589327,26.39576 31.912609,44.96172 52.493559,50.63161 10.12785,2.79083 20.31762,2.45932 29.55979,-1.59855 l 2.4526,-1.07664 c -0.0869,0.0381 -0.17431,0.0743 -0.26029,0.11067 0.0972,-0.0414 0.19584,-0.0838 0.29397,-0.12687 0.0943,-0.0414 0.18659,-0.0842 0.28172,-0.12731 l -0.28702,0.126 c -0.38985,0.17119 -0.78121,0.33267 -1.17419,0.48998 -0.0248,0.012 -0.0478,0.0239 -0.0713,0.0354 0.17767,-0.0704 0.35316,-0.14256 0.52939,-0.21612 -0.0407,0.0166 -0.081,0.0343 -0.12248,0.0524 -0.018,0.006 -0.0345,0.0138 -0.0539,0.0211 -0.13095,0.0538 -0.26013,0.10794 -0.39152,0.16055 0.0158,-0.008 0.0305,-0.0158 0.048,-0.0236 -0.40355,0.16068 -0.8078,0.31662 -1.21314,0.46285 0.008,-0.004 0.0166,-0.0105 0.0254,-0.0141 -0.43049,0.15729 -0.86394,0.30477 -1.29797,0.44711 -0.005,0.002 -0.009,0.005 -0.0143,0.007 -0.003,4.6e-4 -0.003,0.002 -0.005,0.002 -0.40673,0.13288 -0.81286,0.25647 -1.22143,0.37493 0.003,-0.002 0.007,-0.004 0.009,-0.007 -0.44185,0.12798 -0.88436,0.25123 -1.32904,0.36267 -0.003,0.002 -0.004,0.003 -0.007,0.004 -0.004,7.1e-4 -0.009,0.003 -0.0136,0.003 -0.25375,0.0644 -0.50935,0.12441 -0.76294,0.18242 -0.035,0.009 -0.0707,0.0157 -0.10498,0.0232 -0.12684,0.0291 -0.25333,0.0592 -0.37932,0.0867 0.003,-4.9e-4 0.003,-0.003 0.004,-0.003 -0.45277,0.0997 -0.90811,0.19422 -1.36537,0.27693 0,0.002 -0.003,0.002 -0.003,0.003 -0.005,0.002 -0.0106,0.002 -0.0177,0.003 -0.27394,0.0492 -0.54921,0.0954 -0.8242,0.13868 -0.0729,0.0116 -0.14441,0.0237 -0.21524,0.0332 -0.0814,0.0129 -0.15965,0.0258 -0.24149,0.0376 0.003,-4.8e-4 0.003,-0.002 0.003,-0.002 -0.46589,0.0701 -0.93135,0.13365 -1.39953,0.18813 0.19868,-0.0225 0.39602,-0.0473 0.59455,-0.0735 -0.207,0.0273 -0.41279,0.0545 -0.61946,0.0791 -0.27719,0.0316 -0.55602,0.0587 -0.83429,0.0845 -0.10663,0.0105 -0.21362,0.0189 -0.32199,0.0284 -0.0535,0.004 -0.10658,0.009 -0.16012,0.0144 0,0 9e-4,-4.8e-4 0.002,-0.002 -0.48021,0.0407 -0.96027,0.0751 -1.44326,0.0993 0,0 -0.002,1.8e-4 -8.9e-4,0.002 -0.006,7e-5 -0.0129,7e-4 -0.0187,8.9e-4 -0.27148,0.0139 -0.54114,0.0218 -0.81197,0.0302 -0.14523,0.004 -0.28823,0.007 -0.43267,0.009 -0.0371,0.002 -0.0735,0.003 -0.10981,0.003 l 0.002,-4.7e-4 c -0.4942,0.009 -0.98775,0.0122 -1.48349,0.003 l -0.002,4.8e-4 c -0.006,8e-5 -0.0138,-2e-4 -0.0197,0 -0.25508,-0.003 -0.50896,-0.0117 -0.7634,-0.0206 -0.19294,-0.005 -0.3862,-0.0147 -0.5788,-0.0228 -0.0172,-0.002 -0.0341,-0.003 -0.0507,-0.003 -0.5117,-0.0242 -1.02499,-0.055 -1.5382,-0.0962 h -0.009 c -0.0351,-0.004 -0.0722,-0.006 -0.10807,-0.009 -2.68983,-0.22183 -5.39459,-0.6799 -8.10043,-1.36187 -0.3879,-0.0976 -0.77631,-0.19957 -1.16371,-0.30626 -20.57332,-5.66396 -40.887635,-24.22406 -52.472289,-50.60916 -6.336265,-14.431464 -9.18103,-29.20013 -8.863395,-42.725448 0.07457,-3.158307 0.321035,-6.249512 0.735407,-9.252323 1.056101,-7.664431 3.207234,-14.758879 6.384181,-20.944928 0.0018,-4.75e-4 0.0027,-4.6e-5 0.0046,4.74e-4 0.264561,-0.514787 0.537672,-1.022931 0.81678,-1.525058 -0.0018,-4.75e-4 -0.0027,4.4e-5 -0.0046,-4.75e-4 0.257164,-0.463299 0.520167,-0.920411 0.789222,-1.373693 0.0018,4.74e-4 0.0035,0.0018 0.0054,0.0018 0.283569,-0.474892 0.571997,-0.945944 0.868404,-1.408689 -0.0027,3.7e-5 -0.0046,-4.75e-4 -0.0063,-8.95e-4 0,0 8.96e-4,-0.0018 0.0018,-0.0018 0.272261,-0.425498 0.550967,-0.845974 0.835592,-1.260392 0.0018,4.76e-4 0.0046,4.76e-4 0.0063,8.96e-4 0.299933,-0.437629 0.605544,-0.869243 0.917833,-1.295817 -0.0027,4.4e-5 -0.0054,8.9e-5 -0.0071,-4.76e-4 0.0018,-4.73e-4 0.0018,-0.0018 0.0027,-0.0035 0.288474,-0.391979 0.578917,-0.779653 0.878027,-1.161085 0.0027,-3.6e-5 0.0054,-8.1e-5 0.0071,4.75e-4 0.316614,-0.403072 0.638169,-0.799251 0.965087,-1.189082 h -0.0091 c 8.95e-4,-0.0018 0.0018,-0.0027 0.0027,-0.0035 0.302029,-0.361127 0.607307,-0.717447 0.918719,-1.067464 0.0046,-7.08e-4 0.0071,-7.08e-4 0.01091,4.75e-4 0.3311,-0.370072 0.667016,-0.732309 1.007964,-1.090204 -0.0027,3.6e-5 -0.0071,8.95e-4 -0.01183,4.74e-4 0.0018,-4.74e-4 0.0035,-0.0027 0.0046,-0.0035 0.316362,-0.331869 0.636271,-0.656147 0.962014,-0.976904 0.0027,-3.7e-5 0.0063,-1.97e-4 0.01002,-8.96e-4 0.343857,-0.337599 0.694993,-0.669316 1.04996,-0.995277 -0.0054,0.0018 -0.01056,7.08e-4 -0.01486,0.0018 0.0018,-4.75e-4 0.0018,-0.0018 0.0035,-0.0027 0.329452,-0.302063 0.660793,-0.599678 0.9979,-0.891151 0.0046,-7.09e-4 0.01028,-7.09e-4 0.01575,-0.0018 0.358199,-0.308351 0.722595,-0.609422 1.090652,-0.905587 -0.0071,0.0018 -0.01244,0.0018 -0.01925,0.0035 0.0027,-0.0018 0.0035,-0.0027 0.0046,-0.0035 0.342398,-0.276019 0.688072,-0.544555 1.03858,-0.80891 0.0054,-0.0018 0.0111,-0.0018 0.01665,-0.0027 0.370815,-0.279602 0.749316,-0.551289 1.130454,-0.81765 -0.0081,0.0018 -0.01781,0.0035 -0.02623,0.0046 0.0018,-4.74e-4 0.0035,-0.0018 0.0063,-0.0035 0.352031,-0.247237 0.706435,-0.489344 1.066577,-0.724914 0.01056,-0.0035 0.02006,-0.0054 0.02927,-0.0081 0.385954,-0.251974 0.778409,-0.496489 1.174202,-0.736286 -0.01307,0.0046 -0.02668,0.0081 -0.03895,0.01049 0.0027,-0.0018 0.0046,-0.0018 0.0071,-0.0046 0.363715,-0.220621 0.729758,-0.435885 1.101583,-0.644848 0.01684,-0.0063 0.03303,-0.01066 0.05032,-0.01575 0.405183,-0.228687 0.816896,-0.448662 1.232395,-0.664097 -0.02685,0.01056 -0.05488,0.01889 -0.08049,0.02883 0.0027,-0.0018 0.0063,-0.0035 0.0089,-0.0046 0.382463,-0.19839 0.771362,-0.392062 1.161954,-0.578784 0.0035,-0.0018 0.0089,-0.0035 0.01405,-0.0063 0.04575,-0.0188 0.09206,-0.03546 0.137803,-0.05425 0.346723,-0.163651 0.695594,-0.325727 1.047777,-0.480354 z m 5.184182,1.207014 c -2.735052,0.05265 -5.440069,0.360689 -8.094323,0.936215 -0.03197,0.02292 -0.06562,0.0453 -0.09756,0.06823 -0.352032,0.247227 -0.699882,0.496737 -1.042521,0.755094 6.671692,-1.212879 13.635764,-0.768264 20.573514,1.143144 20.58143,5.670954 40.90299,24.236404 52.49352,50.631632 11.58938,26.39579 11.50335,53.921344 1.74957,72.911284 -3.29441,6.41408 -7.69373,11.85313 -13.11751,15.94581 0.42882,-0.0791 0.85392,-0.16676 1.28089,-0.26029 0.0289,-0.006 0.0601,-0.0135 0.0888,-0.0198 5.94165,-4.17406 10.72022,-9.91088 14.23919,-16.75998 9.75255,-18.98938 9.83717,-46.515246 -1.75171,-72.909972 -11.58928,-26.395743 -31.91074,-44.961076 -52.49217,-50.632031 -4.62939,-1.275334 -9.2713,-1.897191 -13.82971,-1.809434 z m -10.8999,1.288389 -2.490147,1.093267 c -9.24221,4.057885 -16.382489,11.335406 -21.182038,20.680245 -9.754298,18.988884 -9.839808,46.515297 1.749055,72.910018 11.589327,26.39575 31.912598,44.96171 52.49357,50.6316 10.12784,2.79083 20.31719,2.45975 29.55942,-1.59813 l 2.49054,-1.0937 c -9.2422,4.05788 -19.43203,4.38928 -29.56112,1.599 C 101.72037,155.58265 81.397947,137.01519 69.809094,110.6205 58.220233,84.225783 58.304865,56.69937 68.059163,37.710485 72.859965,28.365091 79.999868,21.088117 89.24207,17.03024 Z m 7.767948,0.829906 c -2.407146,-0.04556 -4.794646,0.103283 -7.148473,0.454543 -0.02515,0.02122 -0.05443,0.04288 -0.08004,0.06303 -0.343651,0.276565 -0.681098,0.556857 -1.015831,0.843468 5.845023,-0.669646 11.877866,-0.115376 17.890426,1.540818 7.19072,1.981878 14.34877,5.539603 21.11641,10.453213 12.59979,9.148715 23.83623,23.006701 31.37582,40.178857 7.53958,17.172163 10.13508,34.825485 8.34501,50.293435 -0.96068,8.30552 -3.18726,15.98234 -6.59464,22.61743 -2.85408,5.55804 -6.53864,10.38249 -10.9996,14.23525 0,0 0.003,-4.8e-4 0.003,4.8e-4 0.44304,-0.0536 0.88267,-0.11179 1.32381,-0.17981 0.0284,-0.003 0.0552,-0.007 0.0831,-0.0121 4.95106,-3.99051 9.00022,-9.13673 12.08157,-15.13736 9.75303,-18.98833 9.8385,-46.514801 -1.7504,-72.909537 v 0 C 150.04988,43.905938 129.7271,25.341051 109.14566,19.670091 105.08883,18.551997 101.02225,17.936219 97.010318,17.860227 Z m -12.592499,1.288388 -2.490593,1.093267 c -9.24346,4.058431 -16.383363,11.335842 -21.18292,20.680681 -9.75429,18.988886 -9.838922,46.515289 1.749931,72.910018 11.589327,26.39574 31.911289,44.96214 52.492263,50.63203 10.12782,2.79083 20.3177,2.45945 29.56115,-1.599 l 2.49016,-1.0937 c -9.24346,4.05843 -19.43288,4.38983 -29.56072,1.599 C 96.895808,157.70094 76.573384,139.13348 64.984531,112.73879 53.395677,86.344067 53.479862,58.818101 63.234161,39.829217 68.033719,30.484378 75.17405,23.206966 84.417519,19.148534 Z m 6.407366,0.827713 c -1.027328,0.01218 -2.050438,0.06034 -3.068499,0.144814 -0.0222,0.02112 -0.04602,0.04181 -0.06821,0.06303 -0.333552,0.306406 -0.661922,0.618248 -0.986091,0.935773 4.974177,-0.24412 10.058833,0.364702 15.128145,1.76218 3.49987,0.963054 6.99202,2.301346 10.43399,3.986789 1.99594,-0.0054 3.85377,0.186778 5.56083,0.507472 -4.42662,-2.455354 -8.95804,-4.336428 -13.5029,-5.588404 -4.516552,-1.244492 -9.045462,-1.864531 -13.497227,-1.811618 z m -11.233676,1.291019 -2.347095,1.030703 c -0.153455,0.06732 -0.305968,0.13699 -0.458482,0.206491 -0.05157,0.02265 -0.103788,0.04683 -0.156624,0.07001 -9.012194,4.096544 -15.993369,11.281239 -20.710435,20.465443 -8.425962,16.403632 -9.635017,39.178035 -2.336593,62.091507 1.149008,3.6113 2.509322,7.22615 4.086963,10.81938 1.621573,3.69326 3.413852,7.23159 5.353479,10.60368 l 0.157053,-0.0692 c 18.597434,32.32862 50.772565,49.30177 76.076515,38.6971 0.0403,-0.0176 0.0797,-0.0339 0.12118,-0.052 0.16822,-0.0713 0.33621,-0.14279 0.50223,-0.21568 l 2.33354,-1.02416 c -9.24221,4.05789 -19.43201,4.38896 -29.55984,1.59813 C 92.070862,159.81941 71.747074,141.25272 60.158221,114.85803 48.569358,88.463304 48.655298,60.936466 58.409605,41.947581 63.209154,32.602741 70.349004,25.325214 79.591209,21.267338 Z m 6.996223,0.825967 c -0.284193,-4.74e-4 -0.568189,0.0018 -0.851775,0.0071 -0.0205,0.02166 -0.03984,0.04154 -0.06079,0.06213 -0.320463,0.33621 -0.63738,0.677256 -0.948469,1.024587 -0.0018,4.66e-4 -8.96e-4,0.0018 -0.0018,0.0018 4.059134,0.06365 8.173897,0.678304 12.27882,1.809863 2.62565,0.724815 5.245432,1.657903 7.844082,2.78939 1.19158,-0.289584 2.35089,-0.505494 3.47668,-0.654472 -2.92183,-1.331093 -5.871,-2.414037 -8.827092,-3.228624 -4.31817,-1.189018 -8.646337,-1.805797 -12.909254,-1.812056 z m -2.785449,2.165968 c -0.01871,0.0222 -0.03679,0.04297 -0.0556,0.06518 -0.306443,0.368147 -0.60986,0.739902 -0.908656,1.118649 -8.96e-4,0.0018 -0.0018,0.0027 -0.0035,0.0054 3.101044,0.249485 6.22521,0.81133 9.343317,1.670305 2.395396,0.658331 4.783604,1.494977 7.154594,2.494094 0.912622,-0.381647 1.808202,-0.716264 2.690522,-1.009707 -2.437272,-1.037303 -4.892642,-1.90063 -7.352338,-2.578969 C 91.040293,25.02432 87.401685,24.428257 83.801937,24.25935 Z m -1.848807,2.370292 c -0.01701,0.02274 -0.03419,0.04539 -0.05076,0.06912 -0.292888,0.399008 -0.578737,0.803816 -0.860524,1.214453 -0.0027,0.0035 -0.0063,0.0093 -0.0091,0.01316 2.103359,0.304133 4.215286,0.743858 6.321624,1.324702 20.581454,5.670951 40.903814,24.235837 52.493134,50.631631 11.58926,26.395791 11.5033,53.921781 1.74949,72.911721 -1.00151,1.94918 -2.10895,3.80752 -3.31436,5.56566 0.009,8.9e-4 0.0176,0.003 0.0258,0.003 0.49302,0.0705 0.98407,0.13308 1.4765,0.18855 0.0253,0.003 0.0487,0.005 0.0739,0.008 1.56525,-2.1345 2.97943,-4.42583 4.23002,-6.86017 1.19782,-2.34261 2.24722,-4.80068 3.14943,-7.36896 h -0.003 c 0.03,-0.0855 0.0597,-0.17084 0.0897,-0.25636 0.0833,-0.24095 0.1656,-0.4812 0.24541,-0.72317 0.0253,-0.0758 0.0509,-0.15065 0.0752,-0.22485 0.0904,-0.27585 0.17908,-0.55242 0.26557,-0.83034 0.0136,-0.0413 0.0264,-0.0825 0.0385,-0.12338 0.20538,-0.65639 0.40059,-1.31987 0.58748,-1.99099 0.008,-0.029 0.0147,-0.0572 0.0232,-0.0863 0.0815,-0.29607 0.16133,-0.59401 0.23975,-0.89378 0.0204,-0.0762 0.0395,-0.152 0.0582,-0.22881 0.0657,-0.25354 0.12991,-0.5074 0.19338,-0.76253 0.0237,-0.093 0.0458,-0.1863 0.0682,-0.27868 0.0572,-0.24219 0.11528,-0.48627 0.17151,-0.7306 0.0217,-0.0971 0.0443,-0.19592 0.0661,-0.2931 0.0546,-0.24484 0.10996,-0.49119 0.16232,-0.7376 0.0209,-0.093 0.0397,-0.18622 0.0603,-0.27911 0.0551,-0.26414 0.10943,-0.53053 0.16231,-0.79622 0.0136,-0.0746 0.0296,-0.14754 0.0447,-0.22268 0.065,-0.32689 0.12485,-0.65518 0.18545,-0.98521 0.003,-0.0123 0.004,-0.0263 0.007,-0.0376 0.12723,-0.70458 0.24411,-1.41246 0.35172,-2.12748 0.009,-0.0675 0.0199,-0.1356 0.0298,-0.20211 0.0416,-0.28106 0.0826,-0.56338 0.12031,-0.84654 0.0138,-0.095 0.0255,-0.19109 0.0377,-0.28654 0.0345,-0.25636 0.067,-0.51424 0.0993,-0.77217 0.0136,-0.10617 0.0263,-0.21374 0.0385,-0.31935 0.0303,-0.25202 0.0587,-0.50445 0.0862,-0.75642 0.0113,-0.10774 0.023,-0.21423 0.0341,-0.32197 0.0285,-0.26002 0.0535,-0.52119 0.0784,-0.78223 0.008,-0.0976 0.018,-0.1944 0.0271,-0.29356 0.0263,-0.29209 0.0503,-0.58215 0.0744,-0.87584 0.005,-0.0669 0.0116,-0.13469 0.0168,-0.20167 0.0573,-0.73737 0.10479,-1.47674 0.1435,-2.22241 0.003,-0.0391 0.003,-0.0786 0.005,-0.11769 0.0151,-0.32408 0.0303,-0.64943 0.0415,-0.97558 0.003,-0.0926 0.007,-0.18823 0.0105,-0.28087 0.009,-0.27314 0.0175,-0.54731 0.0245,-0.82202 0.003,-0.11139 0.005,-0.22476 0.008,-0.33775 0.004,-0.25862 0.009,-0.5172 0.0125,-0.7774 0,-0.11831 0.003,-0.23536 0.003,-0.35262 0.003,-0.25964 0.003,-0.51942 0.003,-0.77958 0,-0.11401 -0.003,-0.22885 0,-0.34343 -0.003,-0.2762 -0.004,-0.5513 -0.009,-0.82639 0,-0.0974 1e-4,-0.1965 -0.003,-0.29443 -0.005,-0.32646 -0.0136,-0.65319 -0.0232,-0.97908 -0.003,-0.0476 -0.003,-0.0952 -0.003,-0.14175 -0.022,-0.76465 -0.0552,-1.53351 -0.0993,-2.30376 -0.004,-0.0818 -0.009,-0.16577 -0.014,-0.24762 -0.0184,-0.29524 -0.0364,-0.59203 -0.0559,-0.8894 -0.007,-0.11338 -0.0162,-0.22772 -0.0244,-0.33948 -0.0187,-0.26848 -0.039,-0.5363 -0.0605,-0.80367 -0.009,-0.12513 -0.0199,-0.25034 -0.0311,-0.37492 -0.0216,-0.26094 -0.045,-0.52251 -0.0682,-0.78397 -0.0123,-0.12671 -0.0238,-0.25215 -0.0358,-0.37885 -0.0256,-0.26678 -0.0532,-0.53419 -0.0805,-0.80146 -0.0132,-0.11866 -0.0238,-0.23601 -0.0377,-0.35306 -0.0317,-0.2908 -0.065,-0.58208 -0.10065,-0.87497 -0.009,-0.0936 -0.0206,-0.18655 -0.0315,-0.27954 -0.0944,-0.78244 -0.199,-1.56777 -0.31453,-2.35367 -0.006,-0.0492 -0.0147,-0.0988 -0.0228,-0.14742 -0.05,-0.33604 -0.10054,-0.67334 -0.15448,-1.01147 -0.0169,-0.10951 -0.0358,-0.21791 -0.052,-0.32636 -0.0444,-0.27884 -0.0912,-0.5601 -0.13913,-0.83996 -0.0225,-0.12604 -0.0441,-0.25395 -0.0669,-0.38105 -0.0456,-0.26437 -0.0919,-0.52708 -0.14042,-0.79141 -0.0243,-0.13404 -0.0492,-0.269 -0.0748,-0.40248 -0.0489,-0.26165 -0.0986,-0.52268 -0.14921,-0.78485 -0.026,-0.13081 -0.0511,-0.26329 -0.0787,-0.39462 -0.0542,-0.27335 -0.11051,-0.54815 -0.16622,-0.82203 -0.0251,-0.11849 -0.049,-0.234977 -0.0739,-0.353477 -0.0658,-0.313877 -0.13421,-0.626557 -0.20344,-0.941454 -0.0156,-0.0769 -0.0337,-0.15536 -0.0511,-0.23274 -0.17768,-0.794154 -0.36443,-1.588339 -0.56213,-2.383838 -0.0228,-0.09284 -0.0474,-0.185953 -0.0713,-0.278241 -0.0747,-0.299853 -0.15118,-0.597477 -0.22881,-0.897284 -0.0325,-0.125361 -0.0668,-0.251311 -0.0993,-0.376671 -0.0712,-0.268302 -0.14309,-0.537904 -0.21611,-0.806717 -0.0373,-0.136005 -0.076,-0.272412 -0.11378,-0.409482 -0.0719,-0.259198 -0.14438,-0.520436 -0.21917,-0.779599 -0.0386,-0.139201 -0.0799,-0.277399 -0.11987,-0.416045 -0.0761,-0.262349 -0.15309,-0.526901 -0.23226,-0.789214 -0.0387,-0.132773 -0.0789,-0.264829 -0.11946,-0.398112 -0.086,-0.280963 -0.17236,-0.562981 -0.26119,-0.843899 -0.0346,-0.113022 -0.0692,-0.226152 -0.10498,-0.33862 -0.11214,-0.354474 -0.22575,-0.709631 -0.3421,-1.063534 -0.0128,-0.03895 -0.0237,-0.07699 -0.0363,-0.115922 -0.13315,-0.402371 -0.26727,-0.806795 -0.40514,-1.209642 -0.0186,-0.05649 -0.0394,-0.113444 -0.0577,-0.168863 -0.11611,-0.336229 -0.23217,-0.672458 -0.35174,-1.009716 -0.0416,-0.118817 -0.0847,-0.238169 -0.12644,-0.356983 -0.0984,-0.275439 -0.19908,-0.548898 -0.29879,-0.823782 -0.05,-0.137974 -0.10175,-0.276441 -0.1531,-0.41386 -0.0952,-0.25781 -0.19314,-0.514707 -0.29006,-0.773027 -0.0542,-0.143812 -0.11001,-0.287856 -0.16493,-0.430047 -0.0968,-0.254588 -0.19647,-0.508987 -0.29748,-0.762973 -0.0562,-0.141636 -0.1109,-0.283837 -0.16757,-0.426547 -0.10478,-0.262501 -0.21071,-0.524646 -0.31673,-0.78659 -0.0537,-0.132577 -0.10693,-0.264097 -0.16143,-0.395042 -0.11909,-0.291761 -0.24112,-0.583565 -0.36398,-0.873669 -0.0431,-0.101647 -0.0841,-0.201505 -0.12731,-0.303166 -0.1674,-0.394965 -0.33805,-0.789835 -0.51142,-1.184706 -0.17337,-0.394881 -0.34927,-0.788919 -0.52674,-1.179457 -0.0446,-0.09843 -0.09,-0.195309 -0.1343,-0.292682 -0.13182,-0.289968 -0.26474,-0.579391 -0.39986,-0.866648 -0.0585,-0.126613 -0.11907,-0.253665 -0.17894,-0.379732 -0.12249,-0.258517 -0.24461,-0.5157 -0.36792,-0.772596 -0.0652,-0.135091 -0.13241,-0.270891 -0.19774,-0.405981 -0.12081,-0.247836 -0.24194,-0.49663 -0.36355,-0.742847 -0.067,-0.135601 -0.13424,-0.271373 -0.20255,-0.40642 -0.12598,-0.249368 -0.24986,-0.497965 -0.3771,-0.746786 -0.065,-0.127598 -0.12972,-0.254435 -0.19601,-0.381486 -0.13724,-0.26474 -0.27406,-0.52828 -0.4121,-0.791408 -0.0561,-0.107374 -0.11278,-0.216036 -0.17018,-0.322863 -0.1719,-0.323158 -0.3436,-0.646279 -0.51754,-0.967271 -0.0239,-0.04414 -0.0474,-0.08711 -0.0713,-0.131242 -0.20421,-0.376258 -0.41202,-0.750903 -0.62079,-1.123894 -0.0138,-0.02444 -0.0288,-0.05076 -0.0425,-0.0752 -0.18817,-0.336328 -0.37899,-0.668743 -0.56872,-1.001839 -0.0561,-0.0972 -0.11267,-0.192041 -0.16712,-0.288733 -0.15123,-0.262413 -0.30436,-0.522605 -0.45718,-0.781783 -0.0678,-0.11364 -0.13508,-0.228902 -0.20298,-0.342551 -0.14361,-0.241631 -0.28834,-0.481499 -0.43399,-0.720965 -0.072,-0.119487 -0.1438,-0.239126 -0.21655,-0.356991 -0.14425,-0.23627 -0.28947,-0.471742 -0.43531,-0.704789 -0.0719,-0.115725 -0.14391,-0.231738 -0.21698,-0.346917 -0.1513,-0.242072 -0.30467,-0.481761 -0.45848,-0.722721 -0.0662,-0.10297 -0.13203,-0.20865 -0.1995,-0.311054 -0.17192,-0.268562 -0.34625,-0.536068 -0.52148,-0.80191 -0.0462,-0.07109 -0.0946,-0.143936 -0.14131,-0.216115 -0.45447,-0.686586 -0.91363,-1.365777 -1.38025,-2.035604 -0.0388,-0.05783 -0.0788,-0.111482 -0.11769,-0.169309 -0.18996,-0.272063 -0.38158,-0.544816 -0.57484,-0.814157 -0.0663,-0.09278 -0.13107,-0.18239 -0.19731,-0.275179 -0.16842,-0.233269 -0.33647,-0.465492 -0.50617,-0.698216 -0.0751,-0.102844 -0.15064,-0.206581 -0.22705,-0.308869 -0.16235,-0.219428 -0.32636,-0.43952 -0.48998,-0.658411 -0.0769,-0.103348 -0.1563,-0.20813 -0.23318,-0.311482 -0.16659,-0.218848 -0.33313,-0.437873 -0.50004,-0.654034 -0.075,-0.0991 -0.15077,-0.196402 -0.2253,-0.294428 -0.17897,-0.229921 -0.35745,-0.458795 -0.53767,-0.688161 -0.0641,-0.08102 -0.12715,-0.163634 -0.1925,-0.244121 -0.21821,-0.274884 -0.43905,-0.548612 -0.65884,-0.820272 -0.026,-0.03178 -0.0501,-0.06303 -0.0749,-0.09537 -0.50258,-0.618481 -1.01032,-1.22826 -1.52507,-1.829989 -0.058,-0.06724 -0.11609,-0.134475 -0.1741,-0.201684 -0.19421,-0.227029 -0.39089,-0.452976 -0.58667,-0.676783 -0.0746,-0.08784 -0.15212,-0.171871 -0.22748,-0.258115 -0.18142,-0.204728 -0.36073,-0.408049 -0.54293,-0.611156 -0.0828,-0.0931 -0.16607,-0.183582 -0.24849,-0.275617 -0.17939,-0.196724 -0.35708,-0.393064 -0.53679,-0.587102 -0.0832,-0.09042 -0.16616,-0.180824 -0.24937,-0.271238 -0.18502,-0.199331 -0.37066,-0.395964 -0.55646,-0.593665 -0.076,-0.08093 -0.15288,-0.163982 -0.22969,-0.243243 -0.20491,-0.217261 -0.41175,-0.432178 -0.62123,-0.646163 -0.0567,-0.05757 -0.11165,-0.11741 -0.16843,-0.174995 -0.53845,-0.553232 -1.08209,-1.097788 -1.63049,-1.632683 -0.0341,-0.0333 -0.0683,-0.06643 -0.10417,-0.100181 -0.23344,-0.227584 -0.4681,-0.454498 -0.7039,-0.677221 -0.0722,-0.06858 -0.14528,-0.135763 -0.2157,-0.203868 -0.19997,-0.188953 -0.39955,-0.377951 -0.60066,-0.562605 -0.0845,-0.07968 -0.16852,-0.158468 -0.25461,-0.234927 -0.18967,-0.175711 -0.38017,-0.34956 -0.57265,-0.521484 -0.0892,-0.08013 -0.17724,-0.160885 -0.26644,-0.241051 -0.19078,-0.171413 -0.38286,-0.342424 -0.57617,-0.512727 -0.0861,-0.07647 -0.17206,-0.152971 -0.25768,-0.228364 -0.20425,-0.178191 -0.40788,-0.354288 -0.61247,-0.529792 l -0.2231,-0.190975 c -0.24371,-0.206564 -0.48658,-0.410969 -0.73015,-0.61379 -0.0371,-0.02945 -0.0716,-0.06026 -0.1085,-0.08968 -0.57169,-0.47517 -1.14771,-0.939516 -1.72543,-1.394256 -0.0593,-0.04629 -0.12003,-0.09194 -0.17937,-0.138252 -0.22547,-0.175228 -0.44881,-0.349802 -0.6746,-0.522353 -0.0834,-0.06365 -0.16678,-0.126657 -0.25025,-0.190304 -0.20416,-0.154099 -0.4079,-0.306944 -0.61116,-0.45892 -0.0917,-0.06884 -0.18431,-0.136041 -0.27561,-0.203859 -0.19918,-0.146149 -0.39934,-0.291733 -0.5976,-0.435733 -0.0921,-0.06625 -0.18438,-0.132657 -0.27693,-0.199929 -0.20515,-0.146059 -0.4096,-0.290855 -0.61553,-0.435303 -0.0851,-0.06043 -0.17133,-0.120256 -0.25637,-0.180679 -0.22474,-0.156498 -0.45128,-0.309907 -0.67634,-0.463729 -0.0648,-0.04521 -0.13078,-0.0897 -0.19688,-0.134303 -0.59438,-0.400448 -1.1911,-0.792186 -1.79105,-1.171147 -0.0288,-0.01781 -0.056,-0.03509 -0.0849,-0.05291 -0.26567,-0.167734 -0.53161,-0.333122 -0.7984,-0.49655 -0.0755,-0.04557 -0.15023,-0.09268 -0.22575,-0.138244 -0.21963,-0.134617 -0.44107,-0.26704 -0.66103,-0.398979 -0.0911,-0.0539 -0.18356,-0.107087 -0.27475,-0.160994 -0.20805,-0.12193 -0.41458,-0.24343 -0.62297,-0.362675 -0.0964,-0.05542 -0.19241,-0.109674 -0.28829,-0.164054 -0.20793,-0.118189 -0.41472,-0.234559 -0.62123,-0.349552 -0.0933,-0.05175 -0.18807,-0.103998 -0.28131,-0.155746 -0.21733,-0.11912 -0.4355,-0.2366 -0.65315,-0.353051 -0.0822,-0.04387 -0.16317,-0.08827 -0.24543,-0.13211 -0.25417,-0.13469 -0.50901,-0.266406 -0.7643,-0.396798 -0.0436,-0.02409 -0.0896,-0.04691 -0.1343,-0.07046 -0.61195,-0.314026 -1.22732,-0.615311 -1.843102,-0.907339 -0.0574,-0.02812 -0.11637,-0.05301 -0.17326,-0.08004 -0.24529,-0.114464 -0.4902,-0.227775 -0.73409,-0.339049 -0.0859,-0.0385 -0.17178,-0.07709 -0.25768,-0.115495 -0.21819,-0.09716 -0.43641,-0.194609 -0.65666,-0.28961 -0.095,-0.04207 -0.19071,-0.08237 -0.28524,-0.123372 -2.493528,-1.069739 -5.007248,-1.956531 -7.523402,-2.650709 -2.63206,-0.72581 -5.26913,-1.23484 -7.892621,-1.527691 z m -1.756925,2.545708 c -0.01611,0.02489 -0.03151,0.04808 -0.04683,0.07135 -0.277479,0.43413 -0.547358,0.875002 -0.813717,1.320762 -0.0035,0.0054 -0.0063,0.01039 -0.0096,0.01575 1.067213,0.223314 2.135016,0.479065 3.203241,0.773025 20.581435,5.670961 40.902985,24.236404 52.493565,50.631644 11.58933,26.395778 11.50331,53.921348 1.7495,72.911278 -0.50889,0.99023 -1.04716,1.95523 -1.60862,2.89745 0.009,0.002 0.018,0.003 0.028,0.005 0.50842,0.10557 1.01461,0.20577 1.52199,0.29531 0.0257,0.003 0.0498,0.007 0.0744,0.0118 0.88448,-1.37857 1.7106,-2.81423 2.47614,-4.30309 9.75336,-18.99099 9.83939,-46.51786 -1.74948,-72.912583 C 125.92418,54.497964 105.60264,35.932521 85.021193,30.261563 83.413444,29.81855 81.802453,29.457307 80.1962,29.174859 Z m -19.905911,0.566536 -2.490147,1.093275 c -9.242213,4.057874 -16.382492,11.335399 -21.18205,20.680251 -9.754299,18.988876 -9.8398,46.515299 1.749054,72.909967 11.589328,26.39579 31.9126,44.96176 52.493572,50.63164 10.127831,2.79082 20.317181,2.45975 29.559401,-1.59811 l 2.49058,-1.09373 c -0.0578,0.0254 -0.11669,0.049 -0.17455,0.0744 -0.14763,0.0636 -0.29509,0.12703 -0.44492,0.18898 -9.07713,3.80513 -19.03921,4.0642 -28.941682,1.33564 C 72.768636,168.29417 52.446679,149.72778 40.857352,123.332 29.26849,96.937318 29.353122,69.411329 39.10742,50.422454 43.908232,41.077055 51.048135,33.799649 60.29034,29.741763 Z m -4.824563,2.118292 -2.490585,1.093274 c -9.243469,4.058431 -16.382118,11.335285 -21.18292,20.680682 -9.754298,18.988885 -9.838931,46.515295 1.749922,72.909975 11.589328,26.39578 31.911294,44.96219 52.49226,50.63208 10.129104,2.79028 20.317696,2.45942 29.561146,-1.599 l 2.49015,-1.09371 c -9.24345,4.05843 -19.432862,4.39026 -29.560706,1.59944 C 67.944073,170.41288 47.621641,151.84497 36.032788,125.45026 24.443934,99.055566 24.528119,71.529596 34.282418,52.540711 39.081976,43.195868 46.222309,35.918459 55.465777,31.860029 Z m 23.071532,0.09362 c -0.01441,0.02533 -0.02892,0.0505 -0.04378,0.07485 -0.261113,0.471383 -0.515969,0.946794 -0.764718,1.429252 -0.0046,0.0071 -0.0081,0.01324 -0.01092,0.0197 20.575627,5.674771 40.891719,24.237663 52.478699,50.628132 11.58932,26.395777 11.5042,53.920897 1.75037,72.910847 -0.002,4.8e-4 -0.002,7.1e-4 -8.9e-4,0.002 0.009,0.002 0.019,0.005 0.0289,0.007 0.52354,0.14339 1.04646,0.2782 1.571,0.40336 0.0254,0.006 0.0498,0.0113 0.0753,0.0179 0.27958,-0.50107 0.5526,-1.00951 0.8159,-1.52376 9.75422,-18.98896 9.84016,-46.51575 -1.74869,-72.910467 C 121.0993,56.616683 100.77649,38.051794 80.195048,32.380838 79.643447,32.228197 79.090815,32.08622 78.537432,31.953412 Z m -27.897842,2.02511 -2.489277,1.093264 c -9.24346,4.058438 -16.383362,11.33541 -21.182921,20.680252 -9.754289,18.988885 -9.838536,46.515175 1.749063,72.910425 11.589319,26.39578 31.912153,44.96173 52.493127,50.63162 10.127832,2.79084 20.317691,2.45944 29.561151,-1.59899 l 2.48928,-1.09284 c -9.24221,4.05788 -19.432005,4.38939 -29.559845,1.59856 C 63.120332,172.53061 42.795332,153.96415 31.206479,127.56942 19.617626,101.17474 19.703565,73.647897 29.457863,54.659004 34.257411,45.314161 41.397261,38.036643 50.639467,33.978763 Z m 26.341716,0.991334 c -0.01343,0.02748 -0.02632,0.05336 -0.03895,0.07915 -0.246841,0.520975 -0.487785,1.04851 -0.720534,1.581069 19.415049,6.670559 38.189941,24.627747 49.151201,49.593052 0.39208,0.892989 0.77002,1.788234 1.13569,2.68265 0.64686,1.586002 1.25309,3.174682 1.81688,4.762878 0.0234,0.06339 0.0436,0.126908 0.0669,0.190304 7.95732,22.541644 7.62175,45.228014 0.22488,62.126884 0.5513,0.18958 1.10357,0.37131 1.65542,0.54161 0.0263,0.009 0.0498,0.0147 0.0756,0.0223 9.01292,-18.92109 8.8044,-45.70657 -2.4849,-71.419033 C 116.57647,59.423799 97.005568,41.145809 76.981116,34.970054 Z m -31.244582,1.161514 -2.412283,1.059147 c -0.262878,0.115421 -0.524278,0.233985 -0.783099,0.355236 -0.07127,0.03259 -0.139667,0.06527 -0.210431,0.09887 -0.19513,0.09202 -0.390358,0.1864 -0.585346,0.282171 -0.07153,0.03519 -0.14194,0.07019 -0.213492,0.10543 -0.241391,0.119952 -0.483264,0.242473 -0.721844,0.3688 -0.01209,0.0063 -0.02463,0.01191 -0.03546,0.01799 -0.253209,0.134027 -0.504169,0.269816 -0.753787,0.408614 -0.06429,0.03456 -0.125127,0.07019 -0.188988,0.10587 -0.189061,0.105859 -0.37719,0.213689 -0.566106,0.323299 -0.0692,0.04055 -0.137241,0.08085 -0.206931,0.120301 -0.216761,0.128189 -0.430772,0.256163 -0.644409,0.38805 -0.02579,0.01638 -0.05435,0.03295 -0.08138,0.04987 -0.241498,0.150455 -0.480856,0.302565 -0.719228,0.456736 -0.05614,0.03608 -0.11186,0.07306 -0.167556,0.110239 -0.182981,0.119701 -0.366221,0.242104 -0.548603,0.366605 -0.06688,0.04584 -0.131743,0.08975 -0.198621,0.13563 -0.195587,0.135386 -0.389401,0.270898 -0.5836,0.409481 -0.03652,0.02623 -0.07244,0.05111 -0.110247,0.07788 -0.230235,0.165826 -0.459324,0.333811 -0.685968,0.504419 -0.04727,0.03599 -0.09322,0.07117 -0.140427,0.107176 -0.180225,0.136255 -0.358362,0.274086 -0.535917,0.412993 -0.06375,0.04959 -0.126094,0.09866 -0.18812,0.148735 -0.179141,0.142129 -0.357341,0.286289 -0.534601,0.432671 -0.04172,0.03483 -0.08433,0.06732 -0.125566,0.103242 -0.218989,0.181209 -0.435598,0.365327 -0.652725,0.550797 -0.0367,0.03259 -0.07315,0.06527 -0.111116,0.09843 -0.176974,0.153876 -0.353284,0.309845 -0.527608,0.466361 -0.0581,0.0522 -0.115627,0.105207 -0.174987,0.157931 -0.165987,0.151592 -0.3315,0.304331 -0.496549,0.458043 -0.04315,0.04181 -0.08819,0.08318 -0.132558,0.125557 -0.207736,0.196581 -0.414397,0.395051 -0.61728,0.595848 -0.02632,0.02552 -0.05203,0.0522 -0.07789,0.07879 -0.1758,0.17367 -0.349228,0.349981 -0.522361,0.526292 -0.05497,0.05587 -0.108609,0.111169 -0.16187,0.167556 -0.154546,0.160534 -0.30877,0.321993 -0.460666,0.485169 -0.04629,0.04826 -0.09108,0.09635 -0.136937,0.145683 -0.195228,0.211398 -0.390179,0.42362 -0.582283,0.638724 -0.01307,0.01459 -0.02498,0.02864 -0.03805,0.04334 -0.176974,0.1983 -0.351074,0.399195 -0.523669,0.600655 -0.04978,0.05739 -0.100191,0.117696 -0.148745,0.174566 -0.144851,0.16896 -0.287444,0.339612 -0.42917,0.512289 -0.04477,0.05524 -0.09128,0.109718 -0.136058,0.164931 -0.364799,0.447077 -0.722085,0.900895 -1.071395,1.36276 -0.04584,0.05954 -0.08976,0.119676 -0.135181,0.180243 -0.134214,0.179524 -0.267434,0.358557 -0.398981,0.540723 -0.04494,0.06159 -0.08881,0.121787 -0.132557,0.182873 -0.340401,0.471913 -0.674338,0.951998 -0.998777,1.439756 -0.04073,0.06107 -0.08004,0.121636 -0.12031,0.183743 -0.125763,0.188513 -0.247871,0.378002 -0.370983,0.569167 -0.04306,0.0659 -0.08604,0.132969 -0.128619,0.199928 -0.145066,0.229993 -0.289397,0.460766 -0.431793,0.693409 -0.01164,0.01782 -0.02104,0.03457 -0.03197,0.05076 -0.155655,0.253692 -0.307211,0.509622 -0.458481,0.766474 -0.03474,0.06096 -0.07064,0.122531 -0.105878,0.182426 -0.116379,0.199634 -0.231309,0.399688 -0.34298,0.599787 -0.04199,0.0718 -0.08264,0.142969 -0.122934,0.215238 -0.124786,0.224909 -0.249733,0.452743 -0.371852,0.680292 -0.01781,0.03447 -0.03814,0.06741 -0.05595,0.101931 -0.141574,0.265286 -0.281517,0.530921 -0.420423,0.798847 -0.02847,0.0582 -0.0581,0.116989 -0.08703,0.174118 -0.111894,0.216707 -0.218801,0.433683 -0.32724,0.65141 -0.03761,0.07494 -0.07431,0.149631 -0.110685,0.223994 -0.115727,0.238705 -0.232098,0.478753 -0.345173,0.720097 -0.01611,0.035 -0.03465,0.07109 -0.05032,0.107177 -0.129998,0.277982 -0.258554,0.559168 -0.385427,0.840846 -0.0274,0.0641 -0.05614,0.128618 -0.08398,0.191621 -0.09887,0.222419 -0.196454,0.444291 -0.292672,0.669342 -0.03321,0.07807 -0.06697,0.155111 -0.10018,0.23318 -0.107463,0.254113 -0.214532,0.50947 -0.319802,0.765158 -0.01281,0.03232 -0.02525,0.06196 -0.0385,0.09318 -0.116371,0.288502 -0.231927,0.578838 -0.345174,0.871035 -0.02677,0.06884 -0.05238,0.140232 -0.07915,0.209116 -0.08756,0.22762 -0.173626,0.455716 -0.258553,0.685968 -0.02928,0.08013 -0.05998,0.160706 -0.08881,0.241927 -0.1,0.27115 -0.197071,0.542488 -0.29268,0.816781 -0.0089,0.02417 -0.01557,0.04602 -0.02498,0.06912 -0.102749,0.299021 -0.204826,0.599116 -0.30492,0.900777 -0.02569,0.07476 -0.04951,0.1511 -0.07396,0.225302 -0.07628,0.232822 -0.152094,0.4667 -0.225741,0.702156 -0.02542,0.08227 -0.05211,0.165074 -0.07834,0.248937 -0.08908,0.28919 -0.176527,0.577869 -0.262931,0.86971 -0.0046,0.01451 -0.0097,0.02936 -0.01272,0.04334 -0.09006,0.307409 -0.178559,0.618212 -0.264239,0.928772 -0.02292,0.08113 -0.04486,0.160904 -0.06651,0.24149 -0.06499,0.238023 -0.130535,0.478313 -0.193367,0.717913 -0.02104,0.08541 -0.04378,0.17041 -0.06608,0.256359 -0.08021,0.309432 -0.158664,0.619457 -0.234925,0.930966 -8.97e-4,0.0018 -8.97e-4,0.0046 -0.0027,0.0063 -0.0769,0.316872 -0.150616,0.634641 -0.224864,0.954154 -0.01978,0.08487 -0.03751,0.170205 -0.0573,0.255053 -0.05371,0.243225 -0.108197,0.487866 -0.160993,0.733222 -0.01755,0.0864 -0.03635,0.173571 -0.05471,0.261605 -0.133909,0.641517 -0.262842,1.288442 -0.380609,1.939367 -0.01666,0.08855 -0.03108,0.178559 -0.04727,0.268177 -0.04494,0.249528 -0.08667,0.498933 -0.129935,0.748971 -0.01405,0.08747 -0.02964,0.175729 -0.04334,0.264238 -0.05471,0.329962 -0.107598,0.660094 -0.156623,0.992653 -0.0018,0.0071 -0.0027,0.01424 -0.0035,0.0223 -0.04898,0.322396 -0.09405,0.646746 -0.139119,0.971219 -0.01173,0.09277 -0.02453,0.186159 -0.0359,0.279987 -0.03411,0.253664 -0.06608,0.50861 -0.09798,0.763852 -0.01066,0.08846 -0.0222,0.178523 -0.03367,0.268609 -0.04038,0.335118 -0.0786,0.671884 -0.114624,1.010156 -0.0027,0.02409 -0.0054,0.04843 -0.0063,0.07046 -0.03313,0.314142 -0.0657,0.629359 -0.09536,0.944521 -0.0071,0.09592 -0.01629,0.192347 -0.02668,0.288305 -0.02363,0.260485 -0.04628,0.522898 -0.06651,0.784406 -0.0063,0.08792 -0.0154,0.17692 -0.0206,0.264237 -0.02642,0.342963 -0.05094,0.686543 -0.0735,1.03159 -0.0035,0.0359 -0.0046,0.0718 -0.0071,0.107176 -0.0205,0.308618 -0.0367,0.616511 -0.05381,0.92615 -0.0054,0.10018 -0.0093,0.200816 -0.01486,0.30099 -0.01405,0.265179 -0.02525,0.530464 -0.0359,0.796655 -0.0027,0.0889 -0.0071,0.178405 -0.01049,0.267309 -0.01209,0.348119 -0.0223,0.696622 -0.03151,1.044705 -2.05e-4,0.04709 -8.95e-4,0.09428 -0.0027,0.140875 -0.0063,0.302535 -0.01164,0.608253 -0.01361,0.911275 -0.0018,0.102267 -0.0027,0.205838 -0.0027,0.307553 -0.0027,0.271437 -0.0035,0.54333 -0.0035,0.816342 1.96e-4,0.08622 8e-5,0.173929 8.95e-4,0.261177 0.0018,0.352219 0.0054,0.705905 0.01056,1.059146 1.16e-4,0.05837 0.0027,0.115449 0.0035,0.173248 0.0054,0.298636 0.012,0.598051 0.0206,0.897708 l 0.0081,0.316298 c 0.01018,0.276084 0.01907,0.55257 0.03017,0.830784 0.0046,0.08452 0.0063,0.171404 0.01056,0.255929 0.01585,0.357376 0.03277,0.713982 0.05336,1.071833 0.0035,0.06689 0.0089,0.132075 0.01137,0.199491 0.01692,0.294731 0.03733,0.590798 0.05514,0.887661 0.0081,0.106952 0.01396,0.213403 0.02319,0.3198 0.01943,0.28346 0.04055,0.567054 0.06303,0.850471 0.0063,0.08237 0.01262,0.166134 0.01879,0.248494 0.03097,0.360917 0.06187,0.721687 0.09624,1.083634 0.0063,0.0748 0.01513,0.14694 0.02104,0.22181 0.02918,0.291877 0.05757,0.585547 0.09012,0.878454 0.01191,0.10905 0.02274,0.21874 0.0359,0.327237 0.03197,0.28811 0.06429,0.57716 0.09798,0.86578 0.0081,0.0802 0.01808,0.1608 0.02802,0.24149 0.04432,0.36396 0.08968,0.7276 0.136937,1.09151 0.01039,0.0817 0.02328,0.16236 0.03367,0.24413 0.03841,0.28908 0.07888,0.57872 0.120748,0.86884 0.0171,0.11058 0.03286,0.22141 0.04898,0.32985 0.04298,0.29599 0.08836,0.59084 0.134305,0.88678 0.01183,0.0748 0.02409,0.15095 0.03589,0.22575 0.05936,0.36749 0.117956,0.7336 0.181997,1.10157 0.01405,0.0866 0.03062,0.17227 0.04504,0.25987 0.04942,0.28681 0.100728,0.57421 0.153114,0.86097 0.02095,0.11266 0.04118,0.22418 0.06213,0.33686 0.0555,0.30063 0.113058,0.60185 0.17324,0.90296 0.01388,0.0726 0.02766,0.14219 0.04154,0.2148 0.07171,0.36841 0.148432,0.73752 0.224873,1.1064 0.01879,0.0907 0.03974,0.18293 0.05909,0.27473 0.06044,0.28453 0.121224,0.57038 0.18462,0.85485 0.02444,0.1137 0.04959,0.22546 0.0752,0.33861 0.06939,0.30848 0.139766,0.61553 0.212177,0.92396 0.01451,0.0672 0.02936,0.13178 0.04593,0.19687 0.08586,0.36982 0.176356,0.74016 0.268178,1.10989 0.02337,0.0976 0.04969,0.19503 0.07306,0.29269 0.07091,0.28115 0.143811,0.56281 0.215677,0.84608 0.0291,0.11417 0.06016,0.2262 0.08926,0.34036 0.08335,0.31632 0.169129,0.63437 0.25549,0.95064 0.01629,0.0576 0.03097,0.11453 0.04683,0.17106 0.101244,0.37068 0.206411,0.74091 0.312361,1.11207 0.02945,0.10134 0.05846,0.20417 0.08925,0.30494 0.08192,0.27886 0.162264,0.55849 0.247183,0.83732 0.03384,0.11464 0.06894,0.22879 0.102812,0.34343 0.09811,0.32254 0.19727,0.64695 0.298367,0.96945 0.01638,0.0512 0.03169,0.10301 0.04772,0.15312 0.116146,0.37048 0.235329,0.74099 0.356982,1.11033 0.03357,0.10715 0.06939,0.21288 0.10543,0.31893 0.08995,0.27661 0.183589,0.55177 0.276047,0.82727 0.0385,0.11512 0.07799,0.23117 0.119003,0.34518 0.11518,0.33409 0.229196,0.66604 0.347357,1.00008 0.01433,0.0393 0.02758,0.0797 0.0411,0.12075 0.130606,0.36921 0.265868,0.73888 0.401174,1.10858 0.04091,0.11027 0.08156,0.22048 0.122495,0.33073 0.100008,0.27222 0.203215,0.54443 0.306675,0.81766 0.0445,0.11503 0.08801,0.23172 0.132997,0.34781 0.130858,0.34245 0.265178,0.6856 0.400735,1.02852 0.01092,0.0282 0.02282,0.0588 0.03366,0.0871 0.145047,0.36796 0.294374,0.73521 0.444919,1.10201 0.047,0.11395 0.09427,0.22887 0.141743,0.34388 0.110077,0.26777 0.222061,0.53589 0.33512,0.80364 0.04969,0.11658 0.09819,0.23387 0.147867,0.35042 0.150902,0.35396 0.302896,0.70754 0.458044,1.06091 0.0063,0.0149 0.01272,0.0284 0.01925,0.0433 0.0071,0.0161 0.01316,0.0302 0.0197,0.045 0.155145,0.35336 0.311868,0.70344 0.469852,1.05302 0.05309,0.1176 0.107015,0.23346 0.159685,0.34998 0.120132,0.26337 0.240952,0.52516 0.362667,0.78529 0.05301,0.11384 0.106703,0.22869 0.159687,0.34255 0.168951,0.35746 0.337795,0.71478 0.508788,1.07008 0.01621,0.0335 0.03232,0.0668 0.04898,0.10155 0.157911,0.32548 0.316433,0.64944 0.476861,0.97382 0.05721,0.11326 0.115575,0.22886 0.172802,0.34211 0.12707,0.25524 0.255437,0.5099 0.384548,0.76297 0.05704,0.10952 0.11305,0.21938 0.168871,0.32944 0.179186,0.3466 0.357358,0.69118 0.539847,1.03508 0.02525,0.0473 0.0504,0.0947 0.0761,0.14305 0.160357,0.3003 0.320983,0.60072 0.483856,0.8999 0.06097,0.1116 0.122718,0.22509 0.184181,0.33773 0.135726,0.24764 0.2708,0.49413 0.409051,0.74067 0.0582,0.10521 0.115952,0.20952 0.17368,0.31367 0.187708,0.33526 0.378174,0.66949 0.568729,1.00096 0.03465,0.0583 0.06858,0.11559 0.101931,0.17457 0.161683,0.2794 0.325379,0.55922 0.48911,0.83645 0.06599,0.10938 0.129926,0.22116 0.196429,0.33162 0.142657,0.23951 0.287024,0.47957 0.430477,0.71747 0.06052,0.10035 0.11886,0.19899 0.18068,0.2988 0.197485,0.32336 0.396376,0.64621 0.597164,0.96685 0.03993,0.0638 0.07995,0.12721 0.119433,0.18985 0.165343,0.26383 0.330086,0.5268 0.498735,0.78791 0.0693,0.10667 0.138028,0.2149 0.207369,0.32155 0.150061,0.23245 0.301957,0.46556 0.454542,0.69691 0.06205,0.0933 0.122621,0.18704 0.184619,0.28044 0.207254,0.31144 0.414577,0.62319 0.623414,0.93139 0.04781,0.0678 0.0935,0.13775 0.141306,0.20562 0.168539,0.24718 0.336892,0.49433 0.507481,0.73935 0.07216,0.10291 0.143937,0.20728 0.216116,0.31017 0.15794,0.22646 0.318126,0.45194 0.476854,0.6768 0.06393,0.0875 0.125494,0.17595 0.187681,0.26291 0.215767,0.30009 0.430558,0.59824 0.647909,0.89509 0.05309,0.0731 0.106997,0.14471 0.160125,0.21786 0.172201,0.23163 0.3428,0.46254 0.515789,0.69255 0.07547,0.10014 0.151135,0.20126 0.226618,0.30141 0.165335,0.21941 0.331779,0.43726 0.499164,0.65449 0.06286,0.0815 0.124062,0.1637 0.187682,0.24367 0.223027,0.28928 0.447828,0.57555 0.671974,0.86053 0.05909,0.073 0.116336,0.14565 0.175426,0.21874 0.174288,0.21927 0.348673,0.43844 0.524546,0.65448 0.07834,0.0964 0.156614,0.1928 0.234926,0.28917 0.173213,0.2134 0.346686,0.42418 0.521475,0.63436 0.06303,0.0751 0.125172,0.15199 0.189436,0.22661 0.229348,0.27635 0.460863,0.55022 0.693847,0.82115 0.06429,0.0746 0.128171,0.14838 0.191182,0.22355 0.177619,0.2064 0.35443,0.41078 0.532855,0.61554 0.08067,0.0915 0.161234,0.18278 0.241927,0.27431 0.182335,0.20685 0.364252,0.41279 0.548163,0.61641 0.06142,0.0682 0.121404,0.13696 0.182865,0.20517 0.237407,0.26394 0.475485,0.52515 0.715729,0.7853 0.06679,0.0735 0.135332,0.14478 0.202113,0.2183 0.18018,0.19511 0.362855,0.38942 0.543357,0.58185 0.08228,0.0882 0.166659,0.17419 0.248927,0.26249 0.189733,0.19979 0.381694,0.39723 0.57223,0.5954 0.0582,0.0609 0.118548,0.12342 0.176733,0.18419 0.244989,0.25044 0.490105,0.49815 0.735415,0.74592 0.071,0.0729 0.144304,0.14348 0.216116,0.21479 0.18273,0.18383 0.367358,0.36583 0.551666,0.54641 0.0846,0.0835 0.168252,0.16481 0.252428,0.24718 0.201057,0.19483 0.40147,0.38753 0.60285,0.57966 0.05488,0.0534 0.109145,0.10549 0.164053,0.15882 0.251311,0.23751 0.502245,0.47374 0.754665,0.70696 0.07431,0.0702 0.150616,0.13835 0.22574,0.20693 0.187001,0.17307 0.374862,0.34446 0.563913,0.51537 0.08533,0.0781 0.170339,0.15508 0.257676,0.23098 0.210663,0.18934 0.421631,0.37595 0.632608,0.56261 0.05121,0.0448 0.09975,0.0882 0.150929,0.13299 0.256369,0.22514 0.514644,0.44702 0.772599,0.66891 0.07717,0.0664 0.15519,0.13101 0.233609,0.19686 0.191289,0.16231 0.381943,0.32381 0.573545,0.48343 0.08551,0.0717 0.172641,0.14358 0.258107,0.21523 0.223242,0.18383 0.444542,0.36716 0.66936,0.54773 0.04351,0.0342 0.08505,0.0708 0.12861,0.105 0.262698,0.21219 0.52716,0.42121 0.790976,0.62909 0.0788,0.0633 0.159687,0.12408 0.238428,0.18726 0.19555,0.15153 0.39026,0.30188 0.585354,0.45235 0.08738,0.0658 0.172516,0.13263 0.259422,0.19731 0.235025,0.17992 0.469969,0.35637 0.706103,0.53198 0.03509,0.0253 0.06902,0.052 0.104554,0.0784 0.266827,0.19768 0.53572,0.39328 0.803656,0.58666 0.08282,0.0588 0.166051,0.1177 0.249368,0.17762 0.197314,0.14188 0.394709,0.28079 0.592347,0.41999 0.08675,0.061 0.173133,0.12081 0.25943,0.18068 0.249322,0.17489 0.5004,0.34671 0.753349,0.51622 0.02363,0.0163 0.04593,0.0329 0.06912,0.0482 0.27268,0.18369 0.546068,0.36589 0.819403,0.54422 0.08398,0.0546 0.168495,0.11014 0.251991,0.16362 0.202059,0.13218 0.40309,0.26248 0.605471,0.39198 0.08524,0.0541 0.170716,0.10875 0.25593,0.16274 0.271321,0.17034 0.540411,0.33927 0.812841,0.50531 0.01092,0.008 0.02149,0.0145 0.03278,0.0197 0.27337,0.16818 0.547993,0.33226 0.822465,0.49612 0.08335,0.0497 0.168701,0.10095 0.253307,0.15004 0.206339,0.12143 0.411944,0.24089 0.618597,0.35963 0.08416,0.048 0.168737,0.0971 0.252868,0.14524 0.279834,0.15896 0.55683,0.31518 0.837775,0.46985 0.0196,0.0105 0.03895,0.02 0.0573,0.0311 0.263083,0.14474 0.526713,0.28774 0.789653,0.42875 0.08568,0.0448 0.172407,0.0919 0.258122,0.13693 0.208883,0.11013 0.418526,0.21877 0.626477,0.32678 0.08353,0.0433 0.167179,0.0865 0.250236,0.12863 0.282243,0.14396 0.56359,0.28565 0.845224,0.42479 0.02991,0.0136 0.05801,0.0294 0.08792,0.0429 0.256396,0.12609 0.512406,0.24863 0.768658,0.37098 0.08684,0.0406 0.173876,0.0809 0.261176,0.12249 0.2119,0.0999 0.426144,0.19881 0.639162,0.29444 0.0795,0.0376 0.159892,0.0733 0.24062,0.11024 0.284177,0.12786 0.570342,0.25368 0.854841,0.37886 0.03814,0.015 0.07342,0.031 0.109808,0.0456 0.251901,0.10902 0.502486,0.21517 0.753778,0.31936 0.08792,0.0362 0.175415,0.0713 0.263361,0.10764 0.216187,0.0892 0.431443,0.17619 0.647479,0.2616 0.07834,0.0316 0.156606,0.0633 0.234057,0.0928 0.286586,0.11282 0.573734,0.2228 0.860964,0.33028 0.04324,0.0165 0.08711,0.0316 0.130374,0.0482 0.24694,0.0908 0.492511,0.18127 0.739775,0.26949 0.08729,0.0315 0.174673,0.0602 0.260747,0.0924 0.219983,0.0773 0.439,0.15257 0.658849,0.22618 0.07556,0.0252 0.150598,0.0522 0.22618,0.0773 0.288053,0.0957 0.576984,0.18937 0.864902,0.28131 0.04826,0.0143 0.09823,0.0292 0.14699,0.0446 0.242125,0.0765 0.484275,0.14941 0.727976,0.22268 0.08622,0.0256 0.174072,0.0516 0.25986,0.076 0.223797,0.0656 0.446547,0.12922 0.670658,0.19207 0.07154,0.0192 0.143696,0.0394 0.215678,0.0599 0.286083,0.0776 0.571541,0.15416 0.857471,0.22794 0.04906,0.0126 0.102309,0.0248 0.153114,0.0381 0.236377,0.06 0.472503,0.11874 0.708727,0.17499 0.09035,0.0213 0.177861,0.0428 0.267739,0.0631 0.212544,0.0501 0.424631,0.099 0.638285,0.14482 0.0795,0.0171 0.158073,0.0359 0.238865,0.0525 0.285036,0.0615 0.570914,0.12151 0.856595,0.17761 0.03528,0.009 0.07198,0.0139 0.108492,0.022 0.2496,0.0492 0.500838,0.0951 0.750287,0.14043 0.08801,0.0158 0.174564,0.0316 0.263369,0.046 0.210385,0.0384 0.420629,0.0727 0.630406,0.1063 0.08407,0.0139 0.167431,0.0269 0.249806,0.0403 0.285251,0.0448 0.570288,0.0884 0.855717,0.12686 0.01325,0.003 0.02864,0.004 0.04029,0.006 0.271776,0.0381 0.543033,0.0715 0.813727,0.10364 0.08693,0.0105 0.171996,0.0195 0.257675,0.0302 0.209805,0.0235 0.41798,0.0464 0.625599,0.0682 0.08603,0.008 0.171235,0.0175 0.257237,0.0254 0.269145,0.0253 0.537743,0.0495 0.806278,0.07 0.01719,0.002 0.03313,0.003 0.04898,0.005 0.283917,0.0214 0.566732,0.0404 0.850028,0.0569 0.08291,0.004 0.164305,0.009 0.247183,0.0137 0.208908,0.0111 0.416395,0.0215 0.62516,0.0289 0.08836,0.003 0.174117,0.007 0.262491,0.0105 0.245491,0.009 0.491403,0.0154 0.736286,0.0198 0.03796,0.002 0.07708,0.002 0.115053,0.003 0.282404,0.004 0.562141,0.005 0.84347,0.004 0.07923,0 0.157429,-1.9e-4 0.236233,-0.002 0.208811,-0.003 0.417737,-0.005 0.625608,-0.0105 0.08898,-0.002 0.176991,-0.003 0.265544,-0.006 0.2308,-0.007 0.460927,-0.0167 0.690795,-0.0262 0.05319,-0.002 0.10468,-0.004 0.156175,-0.006 0.279172,-0.0133 0.55838,-0.0293 0.836468,-0.0486 0.07396,-0.005 0.14648,-0.0123 0.219178,-0.0174 0.210888,-0.015 0.420603,-0.0321 0.6326,-0.0517 0.08792,-0.008 0.175067,-0.0146 0.263809,-0.0245 0.219222,-0.0202 0.438399,-0.0441 0.656216,-0.0673 0.06286,-0.007 0.12443,-0.0137 0.187252,-0.021 0.275932,-0.031 0.552919,-0.0667 0.829026,-0.10417 0.0653,-0.008 0.13112,-0.0195 0.196,-0.029 0.21375,-0.0291 0.42907,-0.0614 0.64222,-0.0954 0.0869,-0.0141 0.17349,-0.0279 0.2616,-0.0425 0.21017,-0.0339 0.42085,-0.0705 0.63086,-0.10806 0.0686,-0.0111 0.13787,-0.0237 0.20606,-0.0358 0.27348,-0.0502 0.54699,-0.10438 0.8194,-0.16055 0.055,-0.0114 0.11134,-0.0232 0.16712,-0.0362 0.21822,-0.0463 0.43903,-0.0939 0.6571,-0.14393 0.0858,-0.0198 0.17139,-0.0398 0.25593,-0.059 0.20236,-0.0483 0.4067,-0.0985 0.60985,-0.14833 0.073,-0.018 0.14573,-0.0374 0.22005,-0.0559 0.269792,-0.069 0.539392,-0.14161 0.809352,-0.217 0.0426,-0.0123 0.0865,-0.0253 0.13081,-0.0372 0.22769,-0.0658 0.45398,-0.13107 0.68028,-0.19994 0.0834,-0.0253 0.16813,-0.0507 0.25111,-0.0769 0.19676,-0.061 0.39523,-0.12544 0.59104,-0.18855 0.0774,-0.0252 0.15351,-0.0497 0.231,-0.0748 0.26514,-0.0898 0.53165,-0.17994 0.79665,-0.27343 0.0268,-0.0105 0.0532,-0.0197 0.08,-0.0302 0.24017,-0.0851 0.47833,-0.17421 0.71615,-0.26466 0.0811,-0.0305 0.16299,-0.0631 0.24237,-0.0941 0.19242,-0.0743 0.38648,-0.15174 0.57749,-0.22926 0.0789,-0.0321 0.15823,-0.0631 0.23667,-0.0962 0.26145,-0.10844 0.5236,-0.21861 0.78397,-0.33292 l 2.41229,-1.05915 c -9.242222,4.05789 -19.431572,4.38938 -29.559411,1.59856 C 58.216937,174.6847 37.893055,156.1175 26.304202,129.72278 14.715341,103.32809 14.80129,75.801679 24.555579,56.812795 29.355137,47.467952 36.494985,40.190424 45.737191,36.132551 Z m 5.508337,70.025703 -2.490584,1.09326 c 1.15027,3.61075 2.511069,7.22572 4.088719,10.81892 1.621563,3.69328 3.413404,7.23204 5.35304,10.60414 l 2.490584,-1.09371 c -1.939627,-3.3721 -3.731906,-6.91043 -5.353478,-10.60369 -1.577642,-3.59321 -2.937545,-7.2071 -4.088281,-10.81892 z m -4.824993,2.11828 -2.490154,1.0937 c 1.15027,3.61077 2.510639,7.22571 4.088279,10.81892 1.621573,3.69328 3.412589,7.23218 5.353479,10.6037 l 2.490155,-1.09369 c -1.940891,-3.37155 -3.731477,-6.91043 -5.353041,-10.6037 -1.577648,-3.59323 -2.937991,-7.20711 -4.088718,-10.81893 z m -4.825002,2.11873 -2.490155,1.09328 c 1.149016,3.6113 2.509761,7.22612 4.087401,10.81935 1.621574,3.69328 3.413477,7.23173 5.354357,10.60327 l 2.489287,-1.09284 c -1.939636,-3.37208 -3.731915,-6.91042 -5.353488,-10.6037 -1.57764,-3.59322 -2.93792,-7.20699 -4.087402,-10.81936 z m 121.993437,21.21264 c -0.91921,1.47378 -2.03439,2.97271 -3.38968,4.43738 -1.08978,3.67517 -2.46723,7.15031 -4.12633,10.37972 -2.40761,4.68539 -5.40568,8.84914 -8.96225,12.34926 0.004,4.7e-4 0.009,-4.7e-4 0.0136,-8.9e-4 0.45361,-0.0228 0.90493,-0.0531 1.3575,-0.0918 l 0.078,-0.007 c 4.01628,-3.6969 7.36692,-8.20597 10.0048,-13.34411 2.15331,-4.1916 3.83383,-8.8004 5.0245,-13.72208 z m -6.25251,7.1594 c -0.87079,0.72636 -1.81407,1.43473 -2.83495,2.11654 -0.9244,2.67832 -2.00967,5.23949 -3.25267,7.66033 -1.94943,3.79486 -4.28801,7.2467 -6.99358,10.28303 0.004,4.8e-4 0.0107,2.1e-4 0.0167,0 0.46498,0.006 0.92851,0.003 1.39339,-0.003 0.0256,2e-4 0.0492,-4.6e-4 0.0738,-0.002 3.13702,-3.29052 5.81364,-7.11388 8.00154,-11.37019 1.39919,-2.72807 2.60082,-5.63325 3.59574,-8.68403 z m -5.34476,3.6438 c -0.81316,0.45097 -1.66718,0.88434 -2.56408,1.29844 -0.86905,2.42169 -1.87061,4.74662 -3.00375,6.95291 -1.481,2.88334 -3.18677,5.5699 -5.10587,8.02607 0.004,4.8e-4 0.0111,0.002 0.0171,0.002 0.47978,0.037 0.95837,0.0669 1.43755,0.0888 0.0243,7.1e-4 0.0474,0.002 0.0731,0.002 2.31595,-2.76877 4.34504,-5.85597 6.07008,-9.21207 1.16397,-2.26935 2.19015,-4.66134 3.07593,-7.15766 z"
       inkscape:label="logo" />
  </g>
</svg>
