<?xml version="1.0" encoding="UTF-8" standalone="no"?>
<svg
   version="1.1"
   width="170mm"
   height="170mm"
   viewBox="0 0 642.51969 642.51966"
   enable-background="new 0 0 1000 1000"
   xml:space="preserve"
   id="svg17435"
   sodipodi:docname="back.svg"
   inkscape:version="1.2.2 (b0a8486541, 2022-12-01)"
   xmlns:inkscape="http://www.inkscape.org/namespaces/inkscape"
   xmlns:sodipodi="http://sodipodi.sourceforge.net/DTD/sodipodi-0.dtd"
   xmlns="http://www.w3.org/2000/svg"
   xmlns:svg="http://www.w3.org/2000/svg"><defs
     id="defs17439" /><sodipodi:namedview
     id="namedview17437"
     pagecolor="#ffffff"
     bordercolor="#000000"
     borderopacity="0.25"
     inkscape:showpageshadow="2"
     inkscape:pageopacity="0.0"
     inkscape:pagecheckerboard="0"
     inkscape:deskcolor="#d1d1d1"
     showgrid="false"
     inkscape:zoom="0.87166067"
     inkscape:cx="274.18927"
     inkscape:cy="411.85752"
     inkscape:window-width="1920"
     inkscape:window-height="1135"
     inkscape:window-x="0"
     inkscape:window-y="0"
     inkscape:window-maximized="1"
     inkscape:current-layer="svg17435"
     inkscape:document-units="mm" /><rect
     x="0"
     y="0"
     width="642.51971"
     height="642.51971"
     fill="#ffffff"
     opacity="1"
     id="rect16345-0"
     style="display:none;fill:#0f1829;fill-opacity:1;stroke-width:0.71391"
     inkscape:label="navy" /><path
     id="rect16345-0-6"
     style="fill:#ffffff;fill-opacity:1;stroke-width:0.71391"
     d="M 0,0 V 642.51969 H 642.51969 V 0 Z m 57.11272,57.112722 h 99.9482 v 99.948198 h -99.9482 z m 171.33817,0 h 14.27849 v 14.278495 h 14.27849 v 14.27849 h 14.2785 v -14.27849 h 14.27849 V 57.112722 h 14.27724 v 14.278495 14.27849 14.277243 h 14.27849 V 85.669707 71.391217 h 14.2785 14.27849 V 57.112722 h 14.27724 14.27849 14.2785 14.2785 14.27849 14.27724 v 14.278495 h 14.27849 14.2785 v 14.27849 h -14.2785 v 14.277243 14.27849 h -14.27849 v 14.2785 H 414.0688 v 14.27849 14.27849 14.27725 h 14.27724 v -14.27725 -14.27849 h 14.27849 v -14.27849 h 14.2785 v -14.2785 h 14.27849 v 14.2785 14.27849 14.27849 h -14.27849 v 14.27725 h 14.27849 14.27724 v 14.27849 h -14.27724 v 14.27849 14.27849 h 14.27724 v -14.27849 h 14.27849 v -14.27849 -14.27849 h 14.2785 14.27849 14.27849 14.27725 14.27849 v 14.27849 14.27849 14.27849 h 14.27849 v 14.27725 14.27849 h -14.27849 v 14.27849 14.2785 h 14.27849 v 14.27849 14.27724 h -14.27849 v -14.27724 -14.27849 h -14.27849 v -14.2785 -14.27849 h 14.27849 v -14.27849 -14.27725 h -14.27849 v 14.27725 h -14.27725 -14.27849 v -14.27725 -14.27849 -14.27849 h -14.27849 v 14.27849 14.27849 14.27725 h -14.2785 v 14.27849 h -14.27849 v -14.27849 h -14.27724 v 14.27849 14.27849 14.2785 14.27849 h 14.27724 v -14.27849 -14.2785 h 14.27849 14.2785 v 14.2785 14.27849 h 14.27849 v -14.27849 -14.2785 h 14.27849 v 14.2785 14.27849 h 14.27725 v 14.27724 h -14.27725 v 14.27849 H 528.29424 V 299.8421 h -14.27849 v 14.27849 h -14.2785 v 14.2785 h 14.2785 v 14.27849 h 14.27849 v -14.27849 h 14.27849 v 14.27849 h 14.27725 14.27849 v -14.27849 -14.2785 h 14.27849 v 14.2785 14.27849 h -14.27849 v 14.27724 h -14.27849 -14.27725 v 14.27849 14.2785 h 14.27725 v -14.2785 h 14.27849 v 14.2785 h 14.27849 v 14.2785 14.27849 h -14.27849 v 14.27724 H 556.84998 V 414.0688 h 14.27849 v -14.27849 -14.2785 h -14.27849 v 14.2785 h -14.27725 v 14.27849 14.27724 14.27849 h 14.27725 v 14.2785 14.27849 h 14.27849 v -14.27849 -14.2785 h 14.27849 v 14.2785 14.27849 14.27724 14.27849 14.2785 14.27849 h -14.27849 v 14.27849 h 14.27849 v 14.27725 14.27849 14.27849 h -14.27849 v -14.27849 h -14.27849 v 14.27849 h -14.27725 -14.27849 -14.27849 v -14.27849 -14.27849 h -14.2785 -14.27849 -14.27724 v 14.27849 h 14.27724 v 14.27849 h -14.27724 v -14.27849 h -14.27849 v -14.27849 -14.27725 -14.27849 -14.27849 h -14.2785 v -14.2785 h -14.27849 v 14.2785 H 414.0688 v -14.2785 h -14.27849 v 14.2785 14.27849 h -14.2785 v -14.27849 -14.2785 h -14.2785 v 14.2785 h -14.27849 v 14.27849 14.27849 h -14.27724 v -14.27849 h -14.27849 v 14.27849 14.27725 h 14.27849 v 14.27849 h 14.27724 v -14.27849 h 14.27849 v 14.27849 h 14.2785 14.2785 14.27849 14.27724 v -14.27849 h 14.27849 v 14.27849 h -14.27849 v 14.27849 h -14.27724 -14.27849 -14.2785 -14.2785 v -14.27849 h -14.27849 v 14.27849 h -14.27724 -14.27849 v -14.27849 -14.27849 h -14.2785 V 542.57273 528.29424 H 299.8421 v 14.27849 h -14.27724 v 14.27725 14.27849 14.27849 h -14.27849 v -14.27849 -14.27849 h -14.2785 v 14.27849 h -14.27849 -14.27849 v 14.27849 h -14.27725 -14.27849 v -14.27849 -14.27849 h -14.27849 -14.27849 v -14.27725 h 14.27849 14.27849 14.27849 v -14.27849 h -14.27849 -14.27849 v -14.27849 h -14.27849 v -14.2785 -14.27849 -14.27724 h -14.27725 -14.27849 v -14.27849 h -14.27849 -14.2785 v -14.2785 H 99.94695 v 14.2785 H 85.669707 v 14.27849 H 71.391217 57.11272 v -14.27849 h 14.278497 14.27849 v -14.2785 H 71.391217 57.11272 v -14.27849 h 14.278497 14.27849 14.277243 14.27849 V 414.0688 h 14.2785 v 14.27724 h -14.2785 v 14.27849 h 14.2785 14.27849 v -14.27849 h 14.27849 v 14.27849 h -14.27849 v 14.2785 h 14.27849 14.27725 14.27849 v -14.2785 H 171.33817 V 428.34604 414.0688 h -14.27725 -14.27849 v -14.27849 h 14.27849 14.27725 v 14.27849 h 14.27849 v -14.27849 h 14.27849 14.27849 v -14.2785 h -14.27849 -14.27849 v -14.2785 h -14.27849 v -14.27849 h -14.27725 -14.27849 -14.27849 v 14.27849 14.2785 14.2785 h -14.2785 -14.27849 v -14.2785 -14.2785 H 85.669707 71.391217 v 14.2785 14.2785 h 14.27849 V 414.0688 H 71.391217 57.11272 v -14.27849 -14.2785 -14.2785 H 71.391217 V 356.95482 H 57.11272 v -14.27724 -14.27849 h 14.278497 v -14.2785 H 57.11272 V 299.8421 h 14.278497 14.27849 v -14.27724 h -14.27849 v -14.27849 -14.2785 -14.27849 H 57.11272 v -14.27849 h 14.278497 v 14.27849 h 14.27849 V 228.45089 214.17364 199.89515 185.61666 171.33817 H 99.94695 v 14.27849 14.27849 h 14.27849 v -14.27849 h 14.2785 v -14.27849 h 14.27849 14.27849 14.27725 14.27849 V 157.06092 H 171.33817 V 142.78243 128.50394 114.22544 99.94695 85.669707 71.391217 h 14.27849 14.27849 v 14.27849 14.277243 14.27849 h 14.27849 14.27725 v 14.2785 h -14.27725 v 14.27849 14.27849 14.27725 h -14.27849 -14.27849 v 14.27849 h 14.27849 14.27849 v 14.27849 h 14.27725 14.27849 14.27849 v -14.27849 h -14.27849 -14.27849 v -14.27849 -14.27725 -14.27849 h 14.27849 v 14.27849 14.27725 h 14.27849 14.2785 v -14.27725 h -14.2785 v -14.27849 h 14.2785 v -14.27849 h -14.2785 -14.27849 v -14.2785 h 14.27849 14.2785 V 99.94695 h -14.2785 -14.27849 -14.27849 -14.27725 V 85.669707 71.391217 h 14.27725 z m 0,14.278495 v 14.27849 h 14.27849 v -14.27849 z m 42.83548,42.834223 v 14.2785 h 14.27849 v 14.27849 h 14.27724 v 14.27849 14.27725 14.27849 h 14.27849 v -14.27849 h 14.2785 14.27849 14.27724 v 14.27849 h 14.27849 v 14.27849 h -14.27849 -14.27724 v -14.27849 h -14.27849 v 14.27849 14.27849 h 14.27849 14.27724 v 14.27725 h 14.27849 v -14.27725 h 14.2785 14.2785 14.27849 14.27724 V 199.89515 185.61666 H 414.0688 v 14.27849 h -14.27849 -14.2785 v -14.27849 -14.27849 h -14.2785 v -14.27725 -14.27849 h -14.27849 v 14.27849 h -14.27724 v -14.27849 -14.27849 h -14.27849 -14.2785 v -14.2785 H 299.8421 285.56486 Z m 99.94694,28.55699 h 14.2785 v 14.27849 14.27725 h 14.2785 V 157.06092 142.78243 128.50394 114.22544 99.94695 85.669707 h -14.2785 v -14.27849 h -14.2785 -14.27849 v 14.27849 14.277243 h 14.27849 14.2785 v 14.27849 h -14.2785 -14.27849 v 14.2785 h 14.27849 z M 356.95482,114.22544 V 99.94695 h -14.27724 -14.27849 v 14.27849 h 14.27849 z m 42.83549,-28.555733 h 14.27849 v -14.27849 h -14.27849 z m 28.55573,128.503933 v 14.27725 H 414.0688 v 14.27849 14.27849 h -14.27849 v -14.27849 -14.27849 h -14.2785 -14.2785 v 14.27849 h -14.27849 v -14.27849 h -14.27724 -14.27849 v 14.27849 h -14.2785 V 228.45089 H 299.8421 v -14.27725 h -14.27724 v -14.27849 h 14.27724 v -14.27849 h -14.27724 -14.27849 v 14.27849 14.27849 14.27725 14.27849 h -14.2785 v -14.27849 -14.27725 h -14.27849 -14.27849 v 14.27725 h 14.27849 v 14.27849 h -14.27849 -14.27725 v -14.27849 h -14.27849 v 14.27849 h -14.27849 v 14.27849 h 14.27849 14.27849 14.27725 14.27849 v 14.2785 h -14.27849 -14.27725 v 14.27849 h -14.27849 v 14.27724 h 14.27849 v 14.27849 h 14.27725 V 299.8421 285.56486 h 14.27849 v 14.27724 14.27849 h -14.27849 v 14.2785 14.27849 14.27724 h 14.27849 v 14.27849 14.2785 14.2785 h 14.27849 v 14.27849 h -14.27849 v 14.27724 14.27849 h 14.27849 v -14.27849 h 14.2785 V 414.0688 399.79031 h 14.27849 v 14.27849 h 14.27724 v -14.27849 h 14.27849 v 14.27849 14.27724 14.27849 14.2785 H 299.8421 285.56486 v 14.27849 14.27724 h -14.27849 v 14.27849 h 14.27849 v 14.2785 h 14.27724 14.27849 14.2785 v -14.2785 h 14.27849 14.27724 v -14.27849 h 14.27849 14.2785 v -14.27724 h -14.2785 v -14.27849 h 14.2785 v -14.2785 h -14.2785 -14.27849 V 428.34604 H 342.67758 V 414.0688 h -14.27849 v -14.27849 h 14.27849 v 14.27849 h 14.27724 v -14.27849 h 14.27849 14.2785 v 14.27849 14.27724 14.27849 h 14.2785 V 428.34604 414.0688 399.79031 h 14.27849 v -14.2785 h 14.27724 v 14.2785 14.27849 H 414.0688 v 14.27724 14.27849 h 14.27724 v -14.27849 h 14.27849 14.2785 14.27849 v 14.27849 h 14.27724 V 428.34604 414.0688 h -14.27724 -14.27849 -14.2785 v -14.27849 -14.2785 -14.2785 H 428.34604 414.0688 v -14.27849 h 14.27724 v -14.27724 h 14.27849 v -14.27849 -14.2785 H 428.34604 V 299.8421 H 414.0688 v -14.27724 h -14.27849 v -14.27849 h 14.27849 14.27724 v 14.27849 14.27724 h 14.27849 v -14.27724 -14.27849 h 14.2785 v -14.2785 h -14.2785 -14.27849 v -14.27849 h 14.27849 14.2785 v -14.27849 h -14.2785 v -14.27725 z m 14.27849,0 h 14.2785 v -14.27849 -14.27849 h -14.2785 v 14.27849 z m 28.55699,228.45089 h -14.27849 -14.2785 -14.27849 v 14.2785 h -14.27724 -14.27849 -14.2785 v 14.27849 h 14.2785 14.27849 v 14.27724 14.27849 h 14.27724 v -14.27849 -14.27724 h 14.27849 v -14.27849 h 14.2785 14.27849 z m -28.55699,28.55699 v 14.27724 14.27849 h 14.2785 V 485.45876 471.18152 Z M 356.95482,414.0688 v 14.27724 h 14.27849 V 414.0688 Z m 28.55699,71.38996 v 14.27849 h 14.2785 V 485.45876 Z M 257.00787,442.62453 v 14.2785 h 14.2785 v -14.2785 z m 0,14.2785 h -14.27849 v 14.27849 h 14.27849 z m -14.27849,14.27849 h -14.27849 v -14.27849 h -14.27725 v 14.27849 14.27724 h 14.27725 14.27849 z m 0,14.27724 v 14.27849 h -14.27849 v 14.2785 14.27849 14.27849 h 14.27849 v -14.27849 h 14.27849 v -14.27849 -14.2785 -14.27849 z m 0,57.11397 v 14.27725 h 14.27849 v -14.27725 z m -28.55574,-57.11397 h -14.27849 v -14.27724 -14.27849 h -14.27849 v 14.27849 14.27724 14.27849 14.2785 h 14.27849 14.27849 v -14.2785 z m -14.27849,-28.55573 h 14.27849 v -14.2785 h 14.27725 V 428.34604 414.0688 h -14.27725 -14.27849 -14.27849 v 14.27724 14.27849 h 14.27849 z m 0,-157.06093 h -14.27849 v 14.27849 H 171.33817 V 299.8421 h 14.27849 v -14.27724 h -14.27849 -14.27725 v 14.27724 h -14.27849 -14.27849 v 14.27849 14.2785 h -14.2785 v 14.27849 H 99.94695 v 14.27724 14.27849 h 14.27849 v -14.27849 h 14.2785 v -14.27724 h 14.27849 14.27849 v -14.27849 h -14.27849 v -14.2785 h 14.27849 v 14.2785 h 14.27725 v 14.27849 h 14.27849 v -14.27849 h 14.27849 v -14.2785 z m -14.27849,42.83548 v 14.27724 h 14.27849 v -14.27724 z m 14.27849,14.27724 v 14.27849 h 14.27849 v -14.27849 z m 14.27849,14.27849 v 14.2785 h 14.27725 v -14.2785 z m -85.6697,-71.39121 v -14.27724 -14.27849 -14.2785 H 114.22544 99.94695 V 242.72938 H 85.669707 v 14.27849 14.2785 h 14.277243 14.27849 v 14.27849 14.27724 z m -14.2785,0 H 99.94695 v 14.27849 h 14.27849 z M 99.94695,314.12059 H 85.669707 v 14.2785 H 99.94695 Z m -14.277243,14.2785 h -14.27849 v 14.27849 h 14.27849 z M 99.94695,242.72938 h 14.27849 14.2785 v 14.27849 h 14.27849 14.27849 v 14.2785 h 14.27725 14.27849 v -14.2785 h -14.27849 v -14.27849 h -14.27725 -14.27849 v -14.27849 h -14.27849 v -14.27725 h 14.27849 v -14.27849 h -14.27849 -14.2785 v 14.27849 H 99.94695 v 14.27725 z m 42.83548,-42.83423 h 14.27849 v -14.27849 h -14.27849 z m 0,14.27849 v 14.27725 h 14.27849 v -14.27725 z m 28.55574,28.55574 h 14.27849 v -14.27849 h -14.27849 z m 14.27849,28.55699 v 14.27849 h 14.27849 v -14.27849 z m -28.55574,0 h -14.27849 v 14.27849 h 14.27849 z M 299.8421,199.89515 v 14.27849 h 14.27849 v -14.27849 z m -14.27724,-57.11272 h -14.27849 v 14.27849 h 14.27849 z m -71.39122,57.11272 h -14.27849 v 14.27849 h 14.27849 z m -14.27849,-85.66971 h -14.27849 v 14.2785 14.27849 14.27849 h 14.27849 v -14.27849 -14.27849 z m 28.55574,456.90303 v -14.27849 h -14.27725 v 14.27849 z m 57.11397,-28.55574 v -14.27849 h -14.27849 v 14.27849 z m 228.45089,14.27725 h 14.27849 v -14.27725 -14.27849 h -14.27849 v 14.27849 z m 14.27849,0 v 14.27849 h 14.27849 v -14.27849 z m 14.27849,0 h 14.27725 v -14.27725 -14.27849 h -14.27725 v 14.27849 z m 14.27725,-28.55574 h 14.27849 v -14.27849 -14.2785 -14.27849 h -14.27849 v -14.27724 h -14.27725 v 14.27724 14.27849 h 14.27725 v 14.2785 z m -14.27725,-28.55699 h -14.27849 v 14.2785 h 14.27849 z M 514.01575,299.8421 v -14.27724 h -14.2785 v 14.27724 z m 14.27849,0 h 14.27849 v -14.27724 h -14.27849 z m -57.11272,-14.27724 h -14.27849 v 14.27724 14.27849 h 14.27849 v 14.2785 14.27849 h -14.27849 v 14.27724 14.27849 14.2785 h 14.27849 v 14.2785 h 14.27724 v -14.2785 -14.2785 h -14.27724 v -14.27849 h 14.27724 14.27849 v -14.27724 h -14.27849 v -14.27849 -14.2785 -14.27849 h -14.27724 z m 85.66846,-71.39122 v -14.27849 -14.27849 h -14.27725 v 14.27849 14.27849 z m -99.94695,-57.11272 v -14.27849 h -14.2785 v 14.27849 z M 428.34604,114.22544 V 99.94695 H 414.0688 v 14.27849 z m 57.11272,-57.112718 h 99.9482 v 99.948198 h -99.9482 z M 71.387452,71.388705 v 71.391215 h 19.368454 32.654304 19.36846 V 71.388705 H 123.41021 90.755906 Z m 428.346038,0 v 71.391215 h 19.36846 32.6543 19.36845 V 71.388705 h -19.36845 -32.6543 z M 85.665942,85.667201 H 128.50017 V 128.50142 H 85.665942 Z m 428.346038,0 h 42.83423 V 128.50142 H 514.01198 Z M 314.12059,142.78243 h 14.2785 v 14.27849 h -14.2785 z M 57.11272,185.61666 h 14.278497 v 14.27849 14.27849 H 57.11272 v -14.27849 z m 114.22545,14.27849 v 14.27849 h 14.27849 v -14.27849 z m 157.62438,56.02847 c 1.86349,-0.01 3.72678,0.1373 5.56809,0.41914 7.87514,1.21611 15.22007,4.85968 21.53946,9.64659 8.82927,6.71392 15.81558,15.67749 20.81664,25.53513 5.42543,10.75432 8.64027,22.71091 8.70413,34.79019 0.0132,8.00653 -1.36808,16.11346 -4.79254,23.38796 -2.69116,5.72981 -6.7537,10.90924 -12.05729,14.43411 -0.96324,0.6286 -1.94081,1.25531 -2.98546,1.73555 -0.29054,0.10489 -0.6317,0.3171 -0.68644,-0.11419 -0.15579,0.12976 -0.48342,0.25932 -0.51953,0.384 -0.0142,0.0332 -0.0195,0.15211 -0.25977,0.44299 -0.78322,0.41185 -1.6367,0.73162 -2.44961,1.09931 -0.29158,0.18493 -0.53475,0.23495 -0.58981,-0.17444 0.0592,-0.54057 -0.67202,0.19189 -0.22087,0.0678 -0.45126,0.34435 0.0445,0.281 0.35263,0.29867 -0.30763,0.14986 -0.67228,0.21778 -0.94997,0.40534 -0.831,0.42081 -1.71787,0.7692 -2.57635,1.14825 -0.21853,0.0719 -0.16453,-0.48272 -0.48315,-0.23968 -0.44442,0.33999 0.0799,0.26103 0.36769,0.28487 -0.30843,0.14964 -0.67351,0.21868 -0.95248,0.40534 -0.83081,0.42083 -1.71715,0.77079 -2.57635,1.14824 -0.21974,0.0785 -0.16243,-0.48369 -0.48064,-0.23843 -0.44545,0.3389 0.0744,0.26148 0.36267,0.28487 -0.30777,0.14949 -0.67241,0.21743 -0.94997,0.40534 -0.69912,0.36191 -1.45356,0.65248 -2.17855,0.97632 -5.35686,2.28417 -11.34542,2.91719 -17.09328,2.10074 -7.2129,-1.00686 -14.01726,-4.07883 -19.97458,-8.20091 -8.325,-5.77444 -15.12298,-13.57848 -20.28455,-22.25979 -0.19351,-0.1852 -0.26129,-0.75468 -0.54338,-0.66762 -1.48915,-2.58 -2.8448,-5.23624 -4.05089,-7.95997 -4.42358,-9.98624 -6.96472,-20.87625 -6.86191,-31.8248 0.0855,-7.83461 1.54432,-15.74336 4.96071,-22.83329 2.7041,-5.63324 6.7591,-10.70096 12.00332,-14.15677 1.97416,-1.33295 4.13785,-2.33897 6.32481,-3.26655 0.34997,-0.0677 0.6623,-0.26534 0.99389,-0.41664 0.43245,-0.21623 -0.55274,0.50131 -0.0477,0.38401 0.32263,0.0574 0.43643,-0.22944 0.21458,-0.46307 0.82073,-0.38449 1.65594,-0.73695 2.48475,-1.10433 0.35073,-0.0673 0.66336,-0.26446 0.99515,-0.41663 0.43171,-0.21603 -0.55286,0.50123 -0.0502,0.38525 0.32189,0.0566 0.4379,-0.23031 0.21459,-0.46431 0.82015,-0.38516 1.65637,-0.73642 2.48475,-1.10433 0.28382,-0.0576 0.54187,-0.1889 0.80691,-0.32503 0.51802,-0.3199 0.16892,0.0385 -0.0402,0.28737 0.35048,-0.0344 0.43647,0.0536 0.42542,0.14432 0.49799,0.0456 0.007,-0.3361 -0.0326,-0.60236 1.06571,-0.49066 2.14281,-0.95738 3.22138,-1.41932 0.2372,-0.0223 0.40671,-0.19387 0.6488,-0.26102 0.31026,-0.17954 0.45906,-0.0565 0.46683,-0.17569 2.9188,-1.07931 6.00592,-1.69703 9.1145,-1.86356 0.20069,-0.0276 0.58622,-0.003 0.62996,-0.0276 0.32871,-0.0148 0.65747,-0.0143 0.98637,-0.0213 z m -1.69916,1.35281 c -1.7124,0.006 -3.41048,0.13932 -5.10753,0.41914 2.63403,-0.27297 5.29934,-0.21326 7.92357,0.13051 7.64015,1.00766 14.82482,4.34106 21.0513,8.80202 8.15408,5.86084 14.807,13.66383 19.84533,22.31752 5.56296,9.60699 9.27502,20.32838 10.53004,31.37303 0.97085,8.65296 0.42618,17.56588 -2.3078,25.86769 -2.1005,6.36476 -5.59665,12.37489 -10.63043,16.86238 3.54157,-2.78957 6.43637,-6.36311 8.63134,-10.30416 3.9891,-7.18029 5.75433,-15.4188 5.98849,-23.56491 0.25683,-9.38662 -1.47729,-18.74059 -4.6909,-27.5518 -2.59036,-7.08264 -6.14318,-13.85675 -10.59906,-19.97834 -5.45402,-7.47746 -12.27172,-14.03648 -20.33977,-18.61174 -6.18097,-3.49541 -13.16495,-5.77291 -20.29458,-5.76134 z m -8.54727,0.50322 c -0.11763,0.0944 -0.12384,0.44556 0.24847,0.2924 -0.0346,-0.0909 -0.0696,-0.18141 -0.10416,-0.27232 -0.0541,-0.0537 -0.10512,-0.0515 -0.14431,-0.0201 z m -1.80583,0.82197 c -0.28708,-0.0507 -0.65854,0.0552 -0.37146,0.24973 0.18466,-0.20529 0.15815,0.34384 0.27733,0.18448 0.1696,-0.14885 0.13641,-0.29074 0.21836,-0.43169 -0.0414,-6.5e-4 -0.0829,-10e-4 -0.12423,-0.003 z m 6.56198,0.30119 c -1.56328,0.009 -3.11678,0.12548 -4.65325,0.36016 2.20043,-0.20079 4.42009,-0.18345 6.6172,0.0477 7.73818,0.80036 15.05846,4.04407 21.40143,8.45817 8.2367,5.758 14.97638,13.49603 20.09881,22.10669 5.69294,9.6171 9.509,20.38359 10.8626,31.48974 1.03452,8.67092 0.56587,17.61316 -2.09822,25.96432 -2.06841,6.48728 -5.57312,12.62837 -10.66181,17.21501 0.91743,-0.73205 1.78918,-1.5206 2.61902,-2.35047 5.7856,-5.80133 9.19397,-13.60558 10.75844,-21.56582 1.51565,-7.74306 1.39647,-15.73204 0.0866,-23.4846 -1.74457,-10.22462 -5.5472,-20.08864 -10.9881,-28.93221 -5.39957,-8.73356 -12.55958,-16.57071 -21.25711,-22.11171 -6.79646,-4.31769 -14.68895,-7.23045 -22.7856,-7.19697 z m -7.64749,0.0803 c -0.016,-0.005 -0.0346,0.0109 -0.0577,0.0577 -0.41363,0.28126 -0.1579,0.44457 0.17318,0.18573 -0.0442,-0.0359 -0.0676,-0.22881 -0.11545,-0.24345 z m -0.44299,0.69146 c -0.0921,0.0197 -0.55468,0.27674 -0.12549,0.12675 l 0.009,-0.008 0.0389,-0.0351 c 0.0983,-0.0701 0.10852,-0.0906 0.0778,-0.0841 z m -0.5233,0.27483 c -0.52468,0.28482 -1.07898,0.55978 -1.58873,0.89602 -3.8185,2.29918 -7.08486,5.4667 -9.63654,9.11448 -3.58692,5.09256 -5.81269,11.00993 -7.01752,17.09454 -1.80492,9.25342 -1.29712,18.83996 0.81444,27.98977 2.06778,8.84858 5.6337,17.35853 10.48111,25.06078 5.0721,8.03323 11.61675,15.23676 19.51025,20.58824 5.91516,3.99335 12.69193,6.94431 19.79764,7.81564 4.87709,0.60712 9.95074,0.16327 14.58344,-1.49963 -0.29901,0.0664 -0.59881,0.12498 -0.89977,0.18197 -0.60985,0.0895 -1.10679,0.18955 -1.69917,0.26479 -0.30346,0.0871 -0.58459,0.0444 -0.84205,-0.14056 0.0429,-0.18948 0.45897,-0.42825 0.64503,-0.63624 2.31014,-2.06129 4.27057,-4.41036 5.93828,-6.99744 2.74618,-4.25511 4.6303,-9.07897 5.77766,-13.99614 0.95863,-4.10175 1.42378,-8.24776 1.49336,-12.44003 0.12262,-7.3874 -0.99622,-14.75261 -3.06828,-21.82685 -2.58063,-8.7286 -6.57443,-17.024 -11.86654,-24.43457 -6.04362,-8.42837 -13.86868,-15.80091 -23.21855,-20.4502 -4.38869,-2.16352 -9.13289,-3.70238 -14.02375,-4.23034 -2.75285,-0.31457 -5.53541,-0.23941 -8.28248,0.0954 0.47522,-0.39378 0.94941,-0.78795 1.42434,-1.18213 0.36622,-0.2707 0.86128,-0.68604 1.29759,-0.99641 0.12688,-0.0901 0.25337,-0.18092 0.38024,-0.27106 z m 5.1389,0.55091 c -1.63046,0.005 -3.26136,0.11852 -4.87286,0.36895 2.35481,-0.22588 4.73362,-0.18459 7.08278,0.0841 7.56926,0.87409 14.72307,4.06377 20.94212,8.38539 8.21436,5.72789 14.93999,13.43177 20.06368,22.00128 5.73754,9.6523 9.58301,20.46663 10.94166,31.62527 1.036,8.67086 0.56461,17.61332 -2.09823,25.96432 -2.07231,6.49724 -5.58312,12.64636 -10.6869,17.23509 3.87475,-3.09509 6.95343,-7.1135 9.19731,-11.52018 3.27755,-6.44682 4.85503,-13.63129 5.22675,-20.82165 0.38778,-7.85261 -0.65372,-15.75022 -2.79847,-23.30013 -2.85591,-9.99648 -7.58338,-19.48555 -13.97355,-27.68481 -5.69118,-7.27171 -12.74285,-13.58092 -21.01492,-17.75337 -5.57381,-2.80666 -11.75478,-4.576 -18.00937,-4.58423 z m -7.58725,0.74417 c -0.091,0.04 -0.24498,0.3468 0.0515,0.0803 0.003,-0.0771 -0.0211,-0.0936 -0.0515,-0.0803 z m 1.77446,1.08174 c 6.39077,-0.0761 12.69696,1.67921 18.39463,4.50391 0.88324,0.47628 1.84283,0.84675 2.61401,1.50089 0.38462,0.24908 -0.42099,0.0829 -0.6099,0.13176 -1.41207,-0.24466 -2.82443,-0.38923 -4.26799,-0.38023 -3.4106,-1.66804 -7.01725,-2.95868 -10.74589,-3.69449 -3.04143,-0.60769 -6.11971,-0.7986 -9.21237,-0.61868 0.46362,-0.4433 0.92021,-0.8929 1.39421,-1.3252 0.80928,-0.0676 1.62113,-0.10781 2.4333,-0.11796 z m -3.84634,1.60379 c 2.09395,-0.0372 4.19019,0.1225 6.25704,0.45553 4.0939,0.64416 8.04461,2.00809 11.7925,3.75724 -1.22568,0.17094 -2.45068,0.35046 -3.63677,0.64754 -1.34088,-0.58192 -2.70418,-1.10993 -4.0948,-1.56112 -3.80296,-1.25275 -7.74162,-1.92398 -11.7285,-1.94011 0.27602,-0.27102 0.54726,-0.54689 0.8019,-0.83829 0.2096,-0.15626 0.3383,-0.49682 0.60863,-0.52079 z m -4.0057,0.81319 c -3.17226,2.53696 -5.82736,5.72596 -7.90225,9.22116 -4.20643,7.0987 -6.13546,15.35565 -6.49421,23.52852 -0.39806,9.36773 1.2097,18.70935 4.30187,27.5405 3.83903,10.90068 9.92383,21.11614 18.08216,29.3639 5.76165,5.80399 12.58151,10.65367 20.28329,13.50672 5.70143,2.11443 11.97663,3.03865 17.99055,2.10576 -2.20925,0.20492 -4.43853,0.18369 -6.64481,-0.0464 -7.71733,-0.80311 -15.01992,-4.03088 -21.34997,-8.42931 -8.25652,-5.759 -15.01031,-13.51122 -20.144,-22.13555 -5.70548,-9.64304 -9.52931,-20.43912 -10.87013,-31.57633 -1.02892,-8.69548 -0.54176,-17.6626 2.15596,-26.02833 2.07219,-6.42281 5.55279,-12.49845 10.59154,-17.05061 z m 2.42827,0.80817 c 0.45188,0.0327 0.90524,0.0504 1.35656,0.0904 4.60013,0.36614 9.08717,1.65747 13.30594,3.49872 -0.94699,0.32014 -1.89267,0.64741 -2.81354,1.03782 -4.11767,-1.75303 -8.50749,-2.89439 -12.97713,-3.21385 0.32576,-0.45172 0.68709,-0.87551 1.03781,-1.30763 0.0298,-0.035 0.0603,-0.0703 0.0904,-0.10541 z m -6.07508,0.79311 c -4.17942,3.34329 -7.41989,7.77769 -9.6905,12.5856 -3.06912,6.50501 -4.48954,13.67801 -4.7298,20.82291 -0.29965,9.355 1.38397,18.68026 4.54031,27.47274 3.84958,10.67868 9.87121,20.68646 17.87133,28.77158 5.7746,5.81471 12.60993,10.67454 20.33224,13.52303 5.70236,2.10511 11.93194,3.01949 17.94161,2.08944 -2.22713,0.20825 -4.47493,0.18317 -6.69877,-0.0527 -7.71616,-0.81398 -15.01524,-4.04869 -21.3412,-8.45315 -8.16494,-5.70604 -14.85944,-13.3627 -19.96579,-21.88207 -5.61746,-9.41984 -9.42554,-19.95164 -10.88393,-30.83216 -1.14424,-8.68936 -0.78846,-17.66518 1.75061,-26.0873 1.97027,-6.54037 5.36187,-12.76016 10.35812,-17.4798 0.17212,-0.1592 0.34365,-0.31894 0.51577,-0.47812 z m 4.82769,0.99766 c 0.11222,0.0169 0.23796,0.0619 0.33255,0.049 7.21686,0.87068 14.05132,3.85149 20.04485,7.88718 8.47686,5.74044 15.41544,13.58834 20.66856,22.34387 5.70182,9.54716 9.53761,20.2401 10.95672,31.28268 1.05385,8.35925 0.71097,16.97284 -1.63391,25.09215 -1.39092,4.82008 -3.52969,9.48442 -6.53187,13.5406 -0.60303,-0.0666 -1.20301,-0.16218 -1.80708,-0.21962 3.41275,-4.86626 5.62528,-10.52786 6.85312,-16.33656 1.75944,-8.36344 1.57817,-17.09354 0.0188,-25.46486 -1.73026,-9.21889 -5.11041,-18.07407 -9.8436,-26.16135 -5.20176,-8.84463 -12.09684,-16.77389 -20.58447,-22.59485 -5.88073,-4.02274 -12.61294,-7.00423 -19.70478,-7.95244 0.35261,-0.42807 0.64404,-0.90335 0.97884,-1.34402 0.0416,-0.12751 0.14001,-0.13863 0.25224,-0.12173 z m -8.47198,0.60236 c -3.72553,2.98501 -6.7137,6.83101 -8.92249,11.04958 -3.80883,7.27606 -5.42027,15.53842 -5.52793,23.70296 -0.1169,10.34896 2.14653,20.64011 6.14033,30.16579 4.77771,11.37247 12.09981,21.86417 21.7503,29.65881 4.46943,3.59439 9.46958,6.60909 14.88462,8.59747 5.69213,2.10089 11.90973,3.01705 17.90898,2.09447 -2.40675,0.22084 -4.83608,0.17072 -7.23462,-0.11922 -7.68885,-0.93653 -14.935,-4.24081 -21.21068,-8.69786 -8.04026,-5.72428 -14.63151,-13.34192 -19.66462,-21.79924 -5.53428,-9.35132 -9.29366,-19.7878 -10.74212,-30.56863 -1.15056,-8.68399 -0.80009,-17.65517 1.72802,-26.07601 1.96919,-6.55874 5.36331,-12.79819 10.37318,-17.53 0.17211,-0.15917 0.34492,-0.31894 0.51703,-0.47812 z m 6.98866,1.3001 c 2.21656,0.387 4.40163,0.95138 6.52559,1.69414 7.58863,2.64685 14.38435,7.25691 20.15027,12.80773 8.4842,8.19084 14.8373,18.46321 18.91543,29.49693 3.73413,10.17093 5.53501,21.14294 4.55285,31.96786 -0.7179,7.72703 -2.90336,15.43223 -7.13548,21.9925 -0.31368,-0.049 -0.62565,-0.10986 -0.93743,-0.16942 -0.25885,-0.0866 -0.69121,-0.0803 -0.84958,-0.192 4.26738,-7.05221 6.26086,-15.28634 6.67367,-23.44695 0.55478,-11.44029 -1.88302,-22.8924 -6.40261,-33.3784 -4.65611,-10.77205 -11.59785,-20.69763 -20.65098,-28.24576 -6.28812,-5.22333 -13.71529,-9.33776 -21.80175,-10.97052 0.27476,-0.47519 0.56103,-0.94419 0.85837,-1.40552 0.034,-0.0504 0.0676,-0.10028 0.10165,-0.15059 z m -14.76164,0.48942 c 0.57576,-0.0969 0.16989,0.24385 -0.0326,0.49444 -1.92375,0.84304 -3.77413,1.90409 -5.46267,3.11722 -4.97736,3.56214 -8.79048,8.65393 -11.29805,14.22454 -3.06361,6.77627 -4.37887,14.23415 -4.46626,21.62982 -0.0805,8.36928 1.3944,16.67404 4.07347,24.59394 3.76424,11.06246 9.82678,21.43275 18.00435,29.82948 5.7445,5.87246 12.55178,10.79761 20.26823,13.73512 5.60157,2.13485 11.74964,3.13175 17.71196,2.34293 2.42967,-0.31505 4.9189,-0.95272 7.19697,-1.85477 0.42269,-0.11969 0.80733,-0.4372 1.25116,-0.42416 0.55441,-0.0809 0.32148,0.1798 0.0502,0.45679 -0.83049,0.42113 -1.71849,0.76948 -2.57761,1.147 -0.25378,0.12255 -0.20896,-0.75904 -0.46056,-0.26228 -0.45481,0.34832 0.0206,0.29667 0.34385,0.30997 -0.30776,0.14949 -0.67244,0.21742 -0.94997,0.40534 -0.83101,0.42081 -1.71916,0.76919 -2.57761,1.14825 -0.21985,0.0781 -0.16251,-0.48455 -0.48064,-0.23969 -0.44543,0.33893 0.0744,0.26279 0.36268,0.28612 -0.30764,0.14985 -0.67229,0.21778 -0.94998,0.40534 -0.83085,0.42049 -1.71776,0.76846 -2.57636,1.147 -0.28864,0.23664 -0.17886,-0.43621 -0.4731,-0.24095 -0.4727,0.28152 -0.10542,0.34835 0.27232,0.32001 -0.30757,0.17025 -0.71686,0.19191 -0.96127,0.44675 -1.46246,0.64142 -2.91409,1.31059 -4.43489,1.80457 -5.6353,1.89886 -11.78089,2.02888 -17.57016,0.77806 -7.72237,-1.65213 -14.82559,-5.53383 -20.93083,-10.47107 -8.05976,-6.54364 -14.48649,-14.95694 -19.189,-24.18233 -5.46195,-10.76701 -8.7049,-22.75361 -8.77315,-34.86171 -0.026,-8.00063 1.35266,-16.10018 4.75866,-23.37793 2.67672,-5.73357 6.72703,-10.91937 12.01336,-14.45795 2.00861,-1.38225 4.22185,-2.42757 6.4641,-3.37197 0.35041,-0.0636 0.66088,-0.26083 0.99139,-0.41287 0.43007,-0.21418 -0.5682,0.5148 -0.0276,0.38275 0.33936,0.0601 0.39995,-0.23801 0.19702,-0.46432 0.8384,-0.39628 1.69488,-0.75458 2.54248,-1.13194 0.35126,-0.0671 0.66419,-0.2643 0.9964,-0.41663 0.43135,-0.21511 -0.55528,0.50177 -0.0527,0.38651 0.32253,0.0559 0.43914,-0.2319 0.21584,-0.46683 0.82131,-0.38306 1.65734,-0.73544 2.486,-1.10308 0.35001,-0.0676 0.66231,-0.26408 0.9939,-0.41537 0.43056,-0.21448 -0.56347,0.51137 -0.0364,0.38526 0.50043,0.13832 0.40023,-0.13072 0.20204,-0.46558 0.24636,-0.11839 0.49832,-0.22639 0.74668,-0.34008 0.26012,-0.11418 0.52045,-0.22841 0.78056,-0.34259 0.4552,-0.145 0.86865,-0.50748 1.35783,-0.47311 z m 13.55064,1.6063 c 8.15695,1.95288 15.57362,6.33038 21.8557,11.81258 8.37086,7.33336 14.8603,16.68271 19.34086,26.83774 4.73536,10.76289 7.29395,22.58763 6.68998,34.36978 -0.41158,7.75915 -2.24007,15.54107 -6.05374,22.35643 -0.66241,-0.13816 -1.30499,-0.35956 -1.97525,-0.46056 0.47953,-0.38103 0.63572,-0.99635 0.91861,-1.51594 3.15949,-6.69051 4.56943,-14.09475 4.74861,-21.45163 0.20787,-9.37667 -1.55421,-18.69247 -4.78877,-27.48403 -4.29755,-11.60723 -11.16006,-22.41641 -20.38745,-30.75436 -6.10147,-5.49356 -13.32794,-9.93221 -21.28723,-12.08112 0.2624,-0.48573 0.51021,-0.98021 0.78433,-1.45948 0.0543,-0.0337 0.0602,-0.23404 0.15435,-0.16941 z m -1.23359,2.24757 c 5.676,1.729 10.96589,4.59663 15.70785,8.14318 8.64031,6.47438 15.5318,15.10884 20.55436,24.62783 5.54453,10.57355 8.9338,22.35484 9.27888,34.31833 0.23117,8.67548 -1.16463,17.51591 -4.94062,25.38329 -0.61377,-0.18526 -1.2213,-0.38999 -1.82842,-0.59608 0.19674,-0.4591 0.39678,-0.91588 0.58354,-1.37917 2.31699,-5.72169 3.45885,-11.8571 3.71833,-17.99682 0.4191,-10.16422 -1.52702,-20.33038 -5.17279,-29.80815 -4.45092,-11.52683 -11.46253,-22.22583 -20.80534,-30.37411 -5.24473,-4.56485 -11.28183,-8.32733 -17.9002,-10.56644 0.23089,-0.51393 0.45545,-1.03116 0.70025,-1.53853 0.035,-0.0711 0.0691,-0.14225 0.10416,-0.21333 z m -22.76678,2.35548 c -3.37462,2.70125 -6.1632,6.13264 -8.29378,9.89505 -4.05145,7.15873 -5.85867,15.40001 -6.12778,23.56492 -0.29353,9.35869 1.39556,18.6719 4.55788,27.46897 3.84739,10.65415 9.86471,20.64914 17.85376,28.72263 5.77418,5.81562 12.61018,10.67474 20.33224,13.52429 5.69205,2.10069 11.90983,3.01512 17.90898,2.09196 -2.16487,0.19572 -4.34836,0.18041 -6.51053,-0.0402 -7.7196,-0.78161 -15.02934,-3.99184 -21.36754,-8.37911 -8.25214,-5.73481 -15.00846,-13.46139 -20.14902,-22.06152 -5.75185,-9.67636 -9.60197,-20.52171 -10.95045,-31.7106 -1.02834,-8.695 -0.54239,-17.66187 2.15596,-26.02707 2.07148,-6.4223 5.55305,-12.49675 10.59028,-17.04936 z m -3.64806,1.60128 c -3.72414,2.98514 -6.70941,6.82883 -8.91872,11.04582 -3.82745,7.31421 -5.43466,15.61555 -5.53044,23.80962 -0.0911,9.33855 1.75749,18.6267 5.06235,27.35603 4.38709,11.53782 11.31256,22.25031 20.5895,30.47199 5.04655,4.45664 10.81787,8.1785 17.17234,10.50746 5.68613,2.09262 11.90258,3.00029 17.89392,2.07188 -2.19242,0.20532 -4.40588,0.18291 -6.59587,-0.0414 -7.71893,-0.79176 -15.02502,-4.01175 -21.36001,-8.40421 -8.30434,-5.7827 -15.0903,-13.58165 -20.23937,-22.25728 -5.47701,-9.28416 -9.21098,-19.63052 -10.66808,-30.32267 -1.17362,-8.69879 -0.83717,-17.68824 1.67657,-26.13122 1.9661,-6.5957 5.36864,-12.87475 10.40455,-17.63039 0.17076,-0.15849 0.3425,-0.31711 0.51326,-0.47562 z m -3.63801,1.59375 c -3.50724,2.80229 -6.36124,6.32716 -8.53598,10.24518 -3.99148,7.21352 -5.74438,15.48635 -5.96087,23.66279 -0.28041,11.42265 2.36751,22.80479 7.06018,33.18765 4.25753,9.38461 10.2624,18.06992 17.92279,25.03694 5.32537,4.83584 11.50531,8.85897 18.29048,11.26668 5.72481,2.03049 11.9152,2.84376 17.89392,1.82716 -2.36048,0.25299 -4.74773,0.23898 -7.10787,-0.01 -7.71582,-0.81479 -15.01538,-4.04854 -21.3412,-8.45315 -8.22357,-5.74602 -14.95224,-13.47022 -20.07372,-22.06152 -5.70691,-9.62969 -9.5326,-20.41276 -10.8877,-31.53742 -1.03644,-8.6877 -0.56477,-17.64747 2.11455,-26.01201 2.06776,-6.46187 5.56009,-12.57525 10.62542,-17.15227 z m 126.25763,34.98218 h 14.27849 v 14.2785 14.27849 H 399.79031 V 328.39909 Z M 284.389,327.32487 c 0.0635,-0.0241 0.11095,-0.0131 0.11545,0.11546 1.82574,5.75194 4.28579,11.31355 7.30992,16.54112 -0.79747,0.34822 -1.59464,0.69911 -2.39188,1.04786 -3.04674,-5.27215 -5.51387,-10.87638 -7.35384,-16.68042 0.70327,-0.30924 1.40611,-0.61848 2.10952,-0.92739 0.0672,-0.0138 0.14735,-0.0725 0.21083,-0.0966 z m -3.57527,1.57368 c 1.83135,5.79367 4.30464,11.41259 7.35635,16.68041 -0.7968,0.35082 -1.59409,0.70025 -2.39062,1.05163 -3.04555,-5.27273 -5.51566,-10.87703 -7.3551,-16.68167 0.70336,-0.30939 1.40736,-0.61816 2.11078,-0.92739 0.0932,-0.0408 0.18539,-0.0821 0.27859,-0.12298 z m -3.64304,1.60003 c 1.83506,5.80909 4.29962,11.40402 7.35384,16.6804 -0.79648,0.35007 -1.59251,0.69991 -2.38937,1.04912 -3.04735,-5.27181 -5.5177,-10.8756 -7.35509,-16.68041 0.70327,-0.30924 1.40735,-0.61723 2.11077,-0.92614 0.0932,-0.0409 0.18664,-0.0821 0.27985,-0.12297 z m 91.99075,16.01404 c 0.0781,0.0522 0.16319,0.19176 0.28989,0.29491 -0.31136,1.27833 -0.66067,2.54784 -1.06543,3.7999 -2.04913,6.391 -5.49371,12.43371 -10.47483,16.99163 -0.67508,0.0528 -1.28991,0.078 -1.95265,0.15687 0.29722,-0.29887 0.59391,-0.59828 0.89099,-0.89727 4.57531,-4.6333 7.65192,-10.54338 9.48846,-16.75696 0.9609,-1.03589 1.82461,-2.16142 2.57384,-3.35942 0.10063,-0.24662 0.1716,-0.28183 0.24973,-0.22966 z m -4.49889,5.24055 c 0.0946,0.0231 0.007,0.42929 0.0364,0.58982 -1.84165,5.67227 -4.76724,11.05228 -8.91371,15.37153 -0.618,0.008 -1.23671,0.004 -1.85477,0.006 0.29211,-0.33694 0.59053,-0.66826 0.8797,-1.0077 3.23974,-3.78715 5.62625,-8.28654 7.23964,-12.99471 0.75876,-0.50922 1.49504,-1.05153 2.19737,-1.63642 0.0828,-0.0672 0.16576,-0.13357 0.24847,-0.20079 0.0831,-0.10063 0.13535,-0.13571 0.1669,-0.128 z m -3.78987,2.73824 c 0.0236,0.0174 0.009,0.078 -0.0665,0.20958 -1.62736,4.69886 -3.98814,9.17305 -7.19949,12.98592 -0.60537,-0.0117 -1.20956,-0.0686 -1.81336,-0.11169 0.27755,-0.36345 0.58085,-0.756 0.84205,-1.10182 2.38689,-3.21262 4.2496,-6.87045 5.59319,-10.64675 0.68703,-0.31654 1.36332,-0.65567 2.02544,-1.02151 0.13527,-0.0231 0.54794,-0.36571 0.61867,-0.31373 z m 153.14307,2.46341 v 14.27849 h -14.2785 v 14.2785 h 14.2785 v 14.2785 h -14.2785 v 14.27849 h 14.2785 14.27849 v -14.27849 -14.2785 -14.2785 -14.27849 z m -151.96846,9.88251 c -0.0494,-0.0485 -0.46452,0.0996 -0.1142,0.12549 0.10675,-0.0718 0.13065,-0.10936 0.1142,-0.12549 z m -0.16063,0.28737 c 0.0697,0.45042 0.44727,0.43273 0.17695,0 z m -2.6918,0.73665 c -0.10469,0.002 -0.23688,0.22161 0.0778,0.0916 -0.0113,-0.0689 -0.0429,-0.0922 -0.0778,-0.0916 z m -1.97274,0.44298 c -0.14624,-0.0263 -0.40351,0.24542 0.0778,0.15059 0.007,-0.0994 -0.029,-0.14185 -0.0778,-0.15059 z m -3.17746,0.39405 c -0.0577,0.0174 0.0296,0.19017 0.0163,0.28235 -0.026,0.51436 0.44551,-0.004 0.0991,-0.23969 -0.0606,-0.0369 -0.0962,-0.0484 -0.11545,-0.0427 z m -211.26223,2.53493 h 14.27849 v 14.2785 h -14.27849 z m 371.23332,57.11273 v 14.27849 14.2785 h 14.27849 v -14.2785 -14.27849 z M 299.8421,471.18152 h 14.27849 14.2785 v 14.27724 h -14.2785 v 14.27849 H 299.8421 v -14.27849 z m 171.33942,0 v 14.27724 14.27849 14.2785 h 14.27724 14.27849 14.2785 v -14.2785 -14.27849 -14.27724 h -14.2785 -14.27849 z m -414.0688,14.27724 h 99.9482 v 99.9482 h -99.9482 z m 428.34604,0 h 14.27849 v 14.27849 H 485.45876 Z M 71.387452,499.73475 v 71.39121 h 19.368454 32.654304 19.36846 V 499.73475 H 123.41021 90.755906 Z m 14.27849,14.27849 h 42.834228 v 42.83423 H 85.665942 Z m 342.680098,14.281 h 14.27849 v 14.27849 h -14.27849 z m 42.83548,0 v 14.27849 h 14.27724 14.27849 v -14.27849 h -14.27849 z m -85.66971,14.27849 h 14.2785 v 14.27725 h -14.2785 z m -85.66971,28.55574 h 14.27849 v 14.27849 H 299.8421 Z"
     inkscape:label="qr" /></svg>
