<?xml version="1.0" encoding="UTF-8" standalone="no"?>
<!-- Created with Inkscape (http://www.inkscape.org/) -->

<svg
   width="126mm"
   height="126mm"
   viewBox="0 0 126 126"
   version="1.1"
   id="svg2523"
   inkscape:version="1.2.2 (b0a8486541, 2022-12-01)"
   sodipodi:docname="holodb-qr.svg"
   xmlns:inkscape="http://www.inkscape.org/namespaces/inkscape"
   xmlns:sodipodi="http://sodipodi.sourceforge.net/DTD/sodipodi-0.dtd"
   xmlns="http://www.w3.org/2000/svg"
   xmlns:svg="http://www.w3.org/2000/svg">
  <sodipodi:namedview
     id="namedview2525"
     pagecolor="#ffffff"
     bordercolor="#000000"
     borderopacity="0.25"
     inkscape:showpageshadow="2"
     inkscape:pageopacity="0.0"
     inkscape:pagecheckerboard="0"
     inkscape:deskcolor="#d1d1d1"
     inkscape:document-units="mm"
     showgrid="false"
     inkscape:zoom="0.63844121"
     inkscape:cx="-34.458928"
     inkscape:cy="407.24188"
     inkscape:window-width="1920"
     inkscape:window-height="1135"
     inkscape:window-x="0"
     inkscape:window-y="0"
     inkscape:window-maximized="1"
     inkscape:current-layer="layer1" />
  <defs
     id="defs2520" />
  <g
     inkscape:label="Réteg 1"
     inkscape:groupmode="layer"
     id="layer1">
    <g
       id="path7712-5"
       transform="matrix(0.63499999,0,0,0.63499999,-1298.1256,-1124.2799)"
       style="fill:#0f242b;fill-opacity:1">
      <path
         style="color:#000000;fill:#0f242b;fill-opacity:1;stroke-width:6.8418;-inkscape-stroke:none"
         d="m 2044.2923,1773.9398 h 47.8925 m 13.6836,0 h 13.6836 m 6.8418,0 h 6.8417 m 20.5254,0 h 34.209 m 6.8417,0 h 47.8926 m -198.4119,6.8418 h 6.8418 m 34.2089,0 h 6.8418 m 20.5254,0 h 6.8418 m 13.6835,0 h 6.8418 m 6.8418,0 h 6.8418 m 13.6836,0 h 6.8418 m 20.5253,0 h 6.8418 m 34.209,0 h 6.8418 m -198.4119,6.8418 h 6.8418 m 6.8417,0 h 20.5254 m 6.8418,0 h 6.8418 m 6.8418,0 h 6.8418 m 20.5254,0 h 6.8417 m 13.6836,0 h 13.6836 m 13.6836,0 h 13.6836 m 6.8417,0 h 6.8418 m 6.8418,0 h 20.5254 m 6.8418,0 h 6.8418 m -198.4119,6.8418 h 6.8418 m 6.8417,0 h 20.5254 m 6.8418,0 h 6.8418 m 6.8418,0 h 34.2089 m 13.6836,0 h 6.8418 m 6.8418,0 h 6.8418 m 6.8418,0 h 6.8418 m 13.6835,0 h 6.8418 m 6.8418,0 h 20.5254 m 6.8418,0 h 6.8418 m -198.4119,6.8418 h 6.8418 m 6.8417,0 h 20.5254 m 6.8418,0 h 6.8418 m 6.8418,0 h 6.8418 m 13.6836,0 h 20.5253 m 13.6836,0 h 6.8418 m 6.8418,0 h 20.5254 m 6.8417,0 h 6.8418 m 6.8418,0 h 20.5254 m 6.8418,0 h 6.8418 m -198.4119,6.8418 h 6.8418 m 34.2089,0 h 6.8418 m 6.8418,0 h 6.8418 m 6.8418,0 h 6.8418 m 13.6835,0 h 41.0508 m 6.8418,0 h 6.8418 m 6.8417,0 h 6.8418 m 34.209,0 h 6.8418 m -198.4119,6.8417 h 47.8925 m 6.8418,0 h 6.8418 m 6.8418,0 h 6.8418 m 6.8418,0 h 6.8417 m 6.8418,0 h 6.8418 m 6.8418,0 h 6.8418 m 6.8418,0 h 6.8418 m 6.8418,0 h 6.8418 m 6.8417,0 h 47.8926 m -143.6776,6.8418 h 6.8418 m 6.8418,0 h 27.3671 m 13.6836,0 h 6.8418 m -116.3104,6.8418 h 6.8418 m 6.8417,0 h 34.209 m 13.6836,0 h 6.8418 m 13.6836,0 h 6.8417 m 6.8418,0 h 6.8418 m 13.6836,0 h 6.8418 m 6.8418,0 h 6.8418 m 13.6835,0 h 34.209 m -184.7283,6.8418 h 6.8418 m 6.8417,0 h 13.6836 m 6.8418,0 h 6.8418 m 6.8418,0 h 20.5254 m 41.0507,0 h 34.209 m 6.8417,0 h 20.5254 m 20.5254,0 h 6.8418 m -198.4119,6.8418 h 6.8418 m 34.2089,0 h 6.8418 m 20.5254,0 h 20.5253 m 13.6836,0 h 6.8418 m 6.8418,0 h 6.8418 m 13.6836,0 h 6.8418 m 20.5253,0 h 6.8418 m -171.0447,6.8418 h 6.8418 m 6.8417,0 h 20.5254 m 20.5254,0 h 13.6836 m 13.6836,0 h 6.8417 m 6.8418,0 h 20.5254 m 20.5254,0 h 6.8418 m 27.3671,0 h 6.8418 m 6.8418,0 h 6.8418 m -184.7283,6.8418 h 27.3671 m 6.8418,0 h 13.6836 m 6.8418,0 h 13.6836 m 6.8418,0 h 6.8417 m 27.3672,0 h 6.8418 m 6.8418,0 h 6.8418 m 34.2089,0 h 13.6836 m -184.7283,6.8418 h 6.8418 m 6.8417,0 h 27.3672 m 20.5254,0 h 6.8418 m 20.5253,0 h 13.6836 m 6.8418,0 h 61.5761 m 20.5254,0 h 6.8418 m -184.7284,6.8418 h 20.5254 m 6.8418,0 h 6.8418 m 13.6836,0 h 6.8418 m 20.5253,0 h 34.209 m 13.6836,0 h 13.6835 m 13.6836,0 h 20.5254 m -184.7283,6.8418 h 6.8418 m 6.8417,0 h 6.8418 m 27.3672,0 h 13.6836 m 13.6836,0 h 20.5253 m 13.6836,0 h 6.8418 m 6.8418,0 h 47.8925 m 13.6836,0 h 6.8418 m -191.5701,6.8417 h 6.8418 m 6.8417,0 h 6.8418 m 20.5254,0 h 6.8418 m 20.5254,0 h 6.8418 m 6.8418,0 h 6.8417 m 6.8418,0 h 6.8418 m 13.6836,0 h 6.8418 m 6.8418,0 h 6.8418 m 6.8418,0 h 6.8417 m 6.8418,0 h 6.8418 m 6.8418,0 h 13.6836 m -184.7283,6.8418 h 27.3671 m 6.8418,0 h 6.8418 m 27.3672,0 h 13.6836 m 27.3671,0 h 27.3672 m 6.8418,0 h 27.3671 m 6.8418,0 h 6.8418 m 6.8418,0 h 6.8418 m -198.4119,6.8418 h 6.8418 m 27.3671,0 h 20.5254 m 6.8418,0 h 6.8418 m 6.8418,0 h 6.8418 m 20.5253,0 h 6.8418 m 6.8418,0 h 6.8418 m 13.6836,0 h 6.8418 m 6.8417,0 h 20.5254 m 6.8418,0 h 6.8418 m -184.7283,6.8418 h 6.8418 m 6.8417,0 h 13.6836 m 20.5254,0 h 20.5254 m 6.8418,0 h 6.8418 m 13.6835,0 h 13.6836 m 13.6836,0 h 6.8418 m 6.8418,0 h 20.5253 m 27.3672,0 h 6.8418 m -191.5701,6.8418 h 6.8418 m 6.8417,0 h 34.209 m 13.6836,0 h 6.8418 m 13.6836,0 h 6.8417 m 27.3672,0 h 6.8418 m 6.8418,0 h 41.0507 m 6.8418,0 h 20.5254 m -143.6776,6.8418 h 13.6836 m 20.5253,0 h 13.6836 m 6.8418,0 h 6.8418 m 6.8418,0 h 6.8418 m 6.8418,0 h 6.8418 m 20.5253,0 h 34.209 m -198.4119,6.8418 h 47.8925 m 20.5254,0 h 6.8418 m 13.6835,0 h 27.3672 m 13.6836,0 h 13.6836 m 6.8417,0 h 6.8418 m 6.8418,0 h 20.5254 m -184.7283,6.8418 h 6.8418 m 34.2089,0 h 6.8418 m 6.8418,0 h 6.8418 m 13.6836,0 h 20.5253 m 13.6836,0 h 6.8418 m 13.6836,0 h 13.6836 m 20.5253,0 h 6.8418 m -171.0447,6.8418 h 6.8418 m 6.8417,0 h 20.5254 m 6.8418,0 h 6.8418 m 6.8418,0 h 20.5254 m 6.8418,0 h 6.8417 m 6.8418,0 h 6.8418 m 13.6836,0 h 6.8418 m 13.6836,0 h 34.2089 m 6.8418,0 h 6.8418 m -184.7283,6.8418 h 6.8418 m 6.8417,0 h 20.5254 m 6.8418,0 h 6.8418 m 6.8418,0 h 13.6836 m 13.6836,0 h 6.8417 m 34.209,0 h 20.5254 m 27.3671,0 h 27.3672 m -198.4119,6.8418 h 6.8418 m 6.8417,0 h 20.5254 m 6.8418,0 h 6.8418 m 6.8418,0 h 6.8418 m 6.8418,0 h 41.0507 m 6.8418,0 h 75.2597 m -191.5701,6.8417 h 6.8418 m 34.2089,0 h 6.8418 m 20.5254,0 h 6.8418 m 6.8418,0 h 6.8417 m 13.6836,0 h 13.6836 m 20.5254,0 h 13.6835 m 6.8418,0 h 6.8418 m 6.8418,0 h 6.8418 m 6.8418,0 h 6.8418 m -191.5701,6.8418 h 47.8925 m 6.8418,0 h 6.8418 m 13.6836,0 h 6.8418 m 6.8417,0 h 34.209 m 6.8418,0 h 6.8418 m 13.6835,0 h 20.5254 m 6.8418,0 h 6.8418"
         id="path8891" />
      <path
         style="color:#000000;fill:#0f242b;fill-opacity:1;-inkscape-stroke:none"
         d="m 2044.293,1770.5195 v 6.8418 6.8418 6.8418 6.8418 6.8418 6.8418 6.8418 h 47.8925 v -6.8418 -6.8418 -6.8418 -6.8418 -6.8418 -6.8418 -6.8418 z m 61.5761,0 v 6.8418 h 6.8418 v 6.8418 h 6.8418 v -6.8418 -6.8418 z m 20.5254,0 v 6.8418 h 6.8418 v -6.8418 z m 6.8418,6.8418 v 6.8418 h 6.8418 v -6.8418 z m 0,6.8418 h -6.8418 v 6.8418 h -20.5254 v -6.8418 h -6.8418 v 6.8418 6.8418 6.8418 6.8418 6.8418 6.8418 h 6.8418 v -6.8418 -6.8418 -6.8418 -6.8418 h 13.6836 v 6.8418 h 13.6836 v 6.8418 h 6.8418 v 6.8418 h 6.8418 v -6.8418 h 6.8418 v 6.8418 6.8418 h 6.8418 v -6.8418 -6.8418 h 6.8418 v 6.8418 h 6.8418 v -6.8418 -6.8418 h 6.8418 v 6.8418 6.8418 h 6.8418 v -6.8418 -6.8418 -6.8418 h -6.8418 v -6.8418 h 6.8418 v -6.8418 h -13.6836 v 6.8418 6.8418 h -6.8418 v 6.8418 h -6.8418 v -6.8418 h -6.8418 v 6.8418 h -13.6836 v -6.8418 h -6.8418 v -6.8418 z m 20.5254,13.6836 v -6.8418 h 6.8418 v -6.8418 h -6.8418 v -6.8418 h -6.8418 v 6.8418 6.8418 6.8418 z m 0,-20.5254 h 13.6836 v 6.8418 h 6.8418 v -6.8418 h 13.6836 v -6.8418 h -34.209 z m 6.8418,13.6836 v 6.8418 h 6.8418 v -6.8418 z m 0,34.209 v 6.8418 h -6.8418 v 6.8418 h 6.8418 v 6.8418 h 6.8418 v -6.8418 h 13.6836 v 6.8418 6.8418 h 6.8418 v -6.8418 -6.8418 -6.8418 h -6.8418 v -6.8418 h -6.8418 v 6.8418 h -6.8418 v -6.8418 z m 20.5254,27.3672 h -6.8418 v 6.8418 h -6.8418 v -6.8418 h -6.8418 v 6.8418 h -6.8418 v 6.8418 h -6.8418 v -6.8418 h -13.6836 v 6.8418 6.8418 h -13.6836 v 6.8418 h 6.8418 v 6.8418 h 6.8418 v -6.8418 h 6.8418 v -6.8418 h 13.6836 v 6.8418 h 6.8418 v -6.8418 h 6.8418 v -6.8418 h 13.6836 v 6.8418 h -13.6836 v 6.8418 h 6.8418 v 6.8418 h -6.8418 v -6.8418 h -6.8418 v 6.8418 h -6.8418 v 6.8418 h 6.8418 v 6.8418 h 6.8418 v -6.8418 h 13.6836 v -6.8418 -6.8418 h 6.8418 v 6.8418 6.8418 h 6.8418 v 6.8418 h -6.8418 v -6.8418 h -6.8418 v 6.8418 6.8418 h -6.8418 v 6.8418 h 6.8418 v 6.8418 h -6.8418 v 6.8418 6.8418 h 6.8418 v 6.8418 h -13.6836 v 6.8418 h -6.8418 v 6.8417 h 20.5254 v 6.8418 h 13.6836 v -6.8418 h 6.8418 v 6.8418 h -6.8418 v 6.8418 h 20.5254 v -6.8418 h -6.8418 v -6.8418 h 6.8418 v 6.8418 h 6.8418 v -6.8418 h 6.8418 v 6.8418 h 6.8418 v -6.8418 -6.8417 h 6.8418 v -6.8418 h -13.6836 v -6.8418 h -6.8418 v 6.8418 h -6.8418 v 6.8418 h -27.3672 v -6.8418 h 27.3672 v -6.8418 -6.8418 h 13.6836 v -6.8418 h 13.6836 v -6.8418 -6.8418 h -6.8418 v -6.8418 h -6.8418 v 6.8418 h -6.8418 v 6.8418 h -6.8418 v -6.8418 h -13.6836 v -6.8418 h 13.6836 v -6.8418 -6.8418 h -6.8418 v -6.8418 h 6.8418 v -6.8418 h 13.6836 v -6.8418 h -13.6836 v -6.8418 h -34.209 z m 34.209,6.8418 h 13.6836 v -6.8418 h -6.8418 v -6.8418 h -6.8418 v 6.8418 z m 0,-13.6836 v -6.8418 -6.8418 h 13.6836 v -6.8418 h -34.209 v 6.8418 6.8418 h 13.6836 v 6.8418 z m 13.6836,6.8418 h 6.8418 v -6.8418 h -6.8418 z m 0,20.5254 v 6.8418 h 6.8418 v -6.8418 z m 0,6.8418 h -13.6836 v 6.8418 h 6.8418 v 6.8418 6.8418 h 6.8418 v -6.8418 -6.8418 z m 0,82.1015 h -6.8418 v 6.8418 h 6.8418 z m -47.8926,0 h -6.8418 v 6.8418 h 6.8418 z m -20.5254,-6.8418 h -6.8418 v -6.8417 h -20.5254 v -6.8418 -6.8418 h 6.8418 v -6.8418 h 13.6836 v 6.8418 h 6.8418 v -6.8418 -6.8418 -6.8418 h -6.8418 v 6.8418 h -6.8418 v -6.8418 h -13.6836 v 6.8418 6.8418 h -13.6836 v 6.8418 h 6.8418 v 6.8418 6.8418 h -13.6836 v 6.8417 6.8418 h 6.8418 v -6.8418 h 6.8418 v 6.8418 h 6.8418 v -6.8418 h 13.6836 v 6.8418 h -13.6836 v 6.8418 h 34.209 v -6.8418 h -6.8418 z m -34.209,6.8418 h -6.8418 v 6.8418 h 6.8418 z m -13.6836,-13.6835 v -6.8418 h 6.8418 v -6.8418 h -13.6836 v -6.8418 h -6.8418 v 6.8418 6.8418 6.8418 6.8417 h 6.8418 v -6.8417 z m 6.8418,-20.5254 v -6.8418 h -6.8418 v 6.8418 z m -6.8418,-6.8418 v -6.8418 -6.8418 -6.8418 -6.8418 h -6.8418 v 6.8418 h -6.8418 v -6.8418 h -13.6835 v -6.8418 h -6.8418 v 6.8418 6.8418 h 13.6835 v 6.8418 h 13.6836 v 6.8418 h -6.8418 v 6.8418 z m -20.5254,-13.6836 h -20.5253 v -6.8418 h -13.6836 v 6.8418 6.8418 h 34.2089 z m -6.8417,-20.5254 h 6.8417 v -6.8418 h -6.8417 z m 6.8417,-6.8418 h 13.6836 v -6.8418 h -13.6836 z m 0,-6.8418 v -6.8418 h -6.8417 v 6.8418 z m -6.8417,-6.8418 v -6.8418 h -6.8418 v -6.8418 -6.8418 h -20.5254 v 6.8418 h -6.8418 v 6.8418 h 6.8418 v 6.8418 6.8418 6.8418 6.8418 h -6.8418 v -6.8418 -6.8418 h -6.8418 v 6.8418 6.8418 6.8418 6.8418 6.8418 6.8418 h 6.8418 v -6.8418 -6.8418 -6.8418 h 20.5254 v -6.8418 h -6.8418 v -6.8418 -6.8418 h 13.6836 v -6.8418 z m -34.209,-6.8418 h -6.8418 v 6.8418 h 6.8418 z m 0,-6.8418 v -6.8418 -6.8418 -6.8418 -6.8418 h -6.8418 v 6.8418 6.8418 6.8418 6.8418 z m 34.209,6.8418 h 13.6835 v -6.8418 h -13.6835 z m 13.6835,-6.8418 h 6.8418 v 6.8418 6.8418 6.8418 h 6.8418 v -6.8418 -6.8418 h 6.8418 v -6.8418 h -6.8418 v -6.8418 h -13.6836 z m 13.6836,-6.8418 h 13.6836 v 6.8418 6.8418 h 6.8418 v -6.8418 -6.8418 -6.8418 h -20.5254 z m 0,-6.8418 v -6.8418 -6.8418 h -6.8418 v 6.8418 h -13.6836 v 6.8418 z m -20.5254,0 h -6.8417 v 6.8418 h 6.8417 z m -6.8417,0 v -6.8418 h 6.8417 v -6.8418 h -34.2089 v 6.8418 6.8418 h 13.6836 v -6.8418 h 6.8418 v 6.8418 z m 27.3671,-13.6836 h 13.6836 v 6.8418 h 6.8418 v -6.8418 h 6.8418 v -6.8418 h -6.8418 v -6.8418 h -6.8418 v 6.8418 h -6.8418 v -6.8418 -6.8418 h -6.8418 v 6.8418 6.8418 z m 27.3672,0 v 6.8418 h 6.8418 v -6.8418 z m -27.3672,68.418 h 6.8418 v 6.8418 6.8418 h 6.8418 v -6.8418 -6.8418 -6.8418 h -6.8418 v -6.8418 h -6.8418 v 6.8418 z m 13.6836,13.6836 v 6.8418 h 6.8418 v -6.8418 z m 34.209,6.8418 h 6.8418 v -6.8418 h -6.8418 z m 6.8418,-6.8418 h 6.8418 v -6.8418 h -6.8418 z m 0,6.8418 v 6.8418 h 6.8418 v -6.8418 z m -6.8418,20.5254 v 6.8418 h 6.8418 v -6.8418 z m -20.5254,0 v 6.8418 h 6.8418 v -6.8418 z m 13.6836,-41.0508 h -6.8418 v 6.8418 h -6.8418 v 6.8418 h 13.6836 v -6.8418 z m -13.6836,-13.6836 v 6.8418 h 6.8418 v -6.8418 z m 20.5254,-27.3672 v -6.8418 h -6.8418 v -6.8418 h -6.8418 v 6.8418 h -6.8418 v 6.8418 z m 34.209,-82.1016 v 6.8418 6.8418 6.8418 6.8418 6.8418 6.8418 6.8418 h 47.8926 v -6.8418 -6.8418 -6.8418 -6.8418 -6.8418 -6.8418 -6.8418 z m -143.6777,6.8418 h 34.209 v 6.8418 6.8418 6.8418 6.8418 6.8418 h -34.209 v -6.8418 -6.8418 -6.8418 -6.8418 z m 150.5195,0 h 34.209 v 6.8418 6.8418 6.8418 6.8418 6.8418 h -34.209 v -6.8418 -6.8418 -6.8418 -6.8418 z m -143.6777,6.8418 v 6.8418 6.8418 6.8418 h 20.5254 v -6.8418 -6.8418 -6.8418 z m 150.5195,0 v 6.8418 6.8418 6.8418 h 20.5254 v -6.8418 -6.8418 -6.8418 z m 27.3672,47.8926 v 6.8418 h 6.8418 v -6.8418 z m 0,27.3672 v 6.8418 h 6.8418 v -6.8418 z m -41.0508,6.8418 h 13.6836 v 6.8418 h -13.6836 z m 0,13.6836 h 6.8418 v 6.8418 h -6.8418 z m 41.0508,6.8418 v 6.8418 h 6.8418 v -6.8418 z m -47.8926,27.3672 h 20.5254 v 6.8418 6.8418 6.8418 h -20.5254 v -6.8418 -6.8418 z m -143.6777,6.8418 v 6.8418 6.8418 6.8418 6.8418 6.8417 6.8418 6.8418 h 47.8925 v -6.8418 -6.8418 -6.8417 -6.8418 -6.8418 -6.8418 -6.8418 z m 150.5195,0 v 6.8418 h 6.8418 v -6.8418 z m -143.6777,6.8418 h 34.209 v 6.8418 6.8418 6.8418 6.8417 6.8418 h -34.209 v -6.8418 -6.8417 -6.8418 -6.8418 z m 6.8418,6.8418 v 6.8418 6.8418 6.8417 h 20.5254 v -6.8417 -6.8418 -6.8418 z m 41.0507,27.3671 v 6.8418 h 6.8418 v -6.8418 z"
         id="path8888" />
    </g>
  </g>
</svg>
