<?xml version="1.0" encoding="UTF-8" standalone="no"?>
<!-- Created with Inkscape (http://www.inkscape.org/) -->

<svg
   width="80mm"
   height="80mm"
   viewBox="0 0 80 80"
   version="1.1"
   id="svg5"
   xml:space="preserve"
   inkscape:version="1.2.2 (b0a8486541, 2022-12-01)"
   sodipodi:docname="alembic.svg"
   xmlns:inkscape="http://www.inkscape.org/namespaces/inkscape"
   xmlns:sodipodi="http://sodipodi.sourceforge.net/DTD/sodipodi-0.dtd"
   xmlns="http://www.w3.org/2000/svg"
   xmlns:svg="http://www.w3.org/2000/svg"><sodipodi:namedview
     id="namedview7"
     pagecolor="#ffffff"
     bordercolor="#000000"
     borderopacity="0.25"
     inkscape:showpageshadow="2"
     inkscape:pageopacity="0.0"
     inkscape:pagecheckerboard="0"
     inkscape:deskcolor="#d1d1d1"
     inkscape:document-units="mm"
     showgrid="false"
     showguides="true"
     inkscape:zoom="0.94384549"
     inkscape:cx="-95.884338"
     inkscape:cy="103.83055"
     inkscape:window-width="1920"
     inkscape:window-height="1135"
     inkscape:window-x="0"
     inkscape:window-y="0"
     inkscape:window-maximized="1"
     inkscape:current-layer="text4500"><sodipodi:guide
       position="149.58401,97.417326"
       orientation="0,-1"
       id="guide351"
       inkscape:locked="false" /></sodipodi:namedview><defs
     id="defs2" /><g
     inkscape:label="Réteg 1"
     inkscape:groupmode="layer"
     id="layer1"><path
       opacity="0.393"
       fill="url(#logo-full_svg__linearGradient6295)"
       d="m -86.134718,194.21601 16.594402,16.82538 a 2.1664083,2.1664083 0 0 0 1.554427,0.65326 2.1849292,2.1849292 0 0 0 1.562629,-0.65326 l 21.687632,-21.99349 c -10.195984,12.63518 -27.951113,17.32492 -41.39909,5.16758 z"
       id="path2957"
       style="stroke-width:0.264583" /><g
       aria-label="{:}"
       transform="rotate(-90)"
       id="text4500"
       style="font-weight:bold;font-size:55.0448px;font-family:'Latin Modern Sans';-inkscape-font-specification:'Latin Modern Sans, Bold';fill:#c7ff00;stroke-width:0.810439;paint-order:markers stroke fill;stop-color:#000000"><path
         style="fill:#000000;stroke-width:0.214429"
         d="m -35.809363,21.67389 c 0.111696,-0.363802 0.637243,-1.521689 1.167884,-2.573082 1.047826,-2.076129 1.194174,-3.084921 0.550689,-3.795963 -0.691508,-0.764108 0.03566,-0.836357 0.920875,-0.0915 1.11702,0.939911 1.056595,1.655646 -0.408122,4.834231 -1.289294,2.797897 -1.32297,3.327786 -0.237714,3.740399 0.839819,0.319299 0.902624,0.920858 0.07293,0.698508 -0.327422,-0.08775 -0.800614,-0.161163 -1.051539,-0.16315 -0.250924,-0.002 -0.637877,-0.354888 -0.859896,-0.784224 -0.443979,-0.858561 -0.448283,-0.910313 -0.155103,-1.865223 z m 0.872936,49.846905 c 0.505902,0.101179 1.353479,0.660477 2.069144,1.365382 1.212226,1.193996 1.212226,1.193996 3.536669,-0.04254 2.496461,-1.328044 2.364674,-1.336781 3.204242,0.212424 0.584273,1.078124 0.331254,2.249659 -0.274265,1.26991 -0.361649,-0.585161 -3.836459,0.642704 -3.836459,1.355659 0,0.898731 1.787832,0.921567 2.713564,0.03466 1.037745,-0.994225 2.075666,0.01926 1.323589,1.292421 -1.133043,1.918089 -2.626203,1.732401 -4.868684,-0.605462 -1.814302,-1.891472 -1.814302,-1.891472 -1.814302,-0.588039 0,2.32393 -0.951978,3.039517 -2.246314,1.68852 -0.736132,-0.768355 -0.776896,-1.439082 -0.05084,-0.836509 0.514235,0.426778 0.710588,0.111712 0.703342,-1.128578 -0.0091,-1.563055 -0.423861,-3.120612 -0.9022,-3.388304 -0.746236,-0.417616 -0.469109,-0.811871 0.442514,-0.629547 z M -31.768952,5.49146 c 0.257671,-1.2334716 0.257671,-1.2334716 1.174441,-0.692564 0.91677,0.5409075 0.91677,0.5409075 1.638852,-0.1508908 2.463352,-2.3600409 6.37547,1.5836677 4.951566,4.99155 -0.354987,0.8496028 -0.344413,0.9392868 0.151723,1.2867938 1.038442,0.727354 -0.191444,0.74698 -1.952954,0.03116 -0.564573,-0.229422 -0.603895,-1.008165 -0.07315,-1.4486457 1.046165,-0.8682397 0.526342,-3.7099775 -0.678645,-3.7099775 -1.602523,0 -1.886236,0.7876683 -0.758809,2.1066723 1.405944,1.6448477 0.409034,3.7243579 -1.776338,3.7053589 -2.460359,-0.02139 -3.468903,-2.3271281 -2.676688,-6.1194609 z m 0.18507,9.951557 c 0.501976,-1.1212 2.003473,-2.601823 2.939904,-2.899035 2.854506,-0.905985 6.213912,3.871129 4.790317,6.811885 -2.20129,4.547258 -9.796652,0.702671 -7.730221,-3.91285 z m 2.024625,3.487811 c 2.003894,1.313002 4.349245,0.155071 4.349245,-2.14728 0,-2.327851 -2.218214,-3.007866 -3.999878,-1.226202 -1.293666,1.293667 -1.435365,2.661909 -0.349367,3.373482 z m -2.241655,3.1253 c 0.151858,-0.09385 0.29795,-0.128955 0.324649,-0.078 0.616633,1.176796 0.533644,1.148425 3.585733,1.225815 2.944373,0.07466 2.952209,0.0732 3.206379,-0.595312 0.494727,-1.301231 0.797056,-0.70238 0.797056,1.578804 0,2.343064 -0.294214,2.84502 -1.002657,1.710624 -0.613927,-0.983054 -5.713347,-0.657845 -5.831024,0.371866 -0.14833,1.297945 0.180947,2.02787 1.088212,2.412299 1.062217,0.450083 0.528624,0.737976 -1.140115,0.615133 -1.106482,-0.08145 -2.034812,-6.619126 -1.028233,-7.241226 z m 0.02163,7.819846 c 0.170442,0 0.536685,0.205242 0.813873,0.456094 0.277188,0.250851 1.953438,1.135364 3.725001,1.965584 4.365486,2.045832 4.361661,2.156481 -0.15408,4.457488 -5.467096,2.785772 -5.444972,3.240151 0.152037,3.122483 3.794541,-0.07977 3.794541,-0.07977 4.418112,1.171681 0.605899,1.215991 0.571601,1.943944 -0.06175,1.310592 -0.396499,-0.396496 -8.034315,-0.441258 -8.277049,-0.04851 -0.664214,1.074719 -0.904028,0.167291 -0.909007,-3.439583 -0.0043,-3.09341 0.05934,-3.704167 0.3858,-3.704167 0.215003,0 0.390915,0.171567 0.390915,0.38126 0,0.582673 0.41852,0.716142 1.170798,0.373382 1.050758,-0.478758 1.027401,-3.157836 -0.03174,-3.64041 -0.629239,-0.286702 -0.762561,-0.259201 -1.134608,0.234032 -0.231872,0.307401 -0.506324,0.474171 -0.609894,0.370599 -0.326655,-0.326654 -0.218261,-3.010529 0.121588,-3.010529 z m 0.322821,14.211223 c 1.641827,-1.77156 4.634394,-0.822531 5.549008,1.759752 0.265678,0.750107 -0.809467,2.334278 -1.515854,2.233535 -0.796414,-0.11358 -0.886223,-1.168072 -0.164879,-1.935908 1.068221,-1.137068 -1.147435,-1.687915 -2.502365,-0.622126 -0.693912,0.545831 -0.730271,0.78976 -0.280546,1.88217 0.303487,0.737187 -0.538194,0.568724 -1.169711,-0.23412 -0.742351,-0.943745 -0.707185,-2.229225 0.08435,-3.083303 z m -0.455751,4.220837 c 0.09733,-0.09733 0.384739,0.01106 0.638683,0.240882 0.384947,0.348374 1.077699,0.40346 4.166457,0.331309 3.70474,-0.08654 3.70474,-0.08654 4.385526,1.30252 0.604174,1.232744 0.405087,2.167453 -0.239506,1.124479 -0.468293,-0.757714 -3.823098,-0.284187 -3.385726,0.47789 1.018219,1.774145 -0.461617,3.129717 -3.13171,2.868737 -1.241655,-0.121362 -1.583634,-0.06875 -1.774914,0.273045 -0.61784,1.104019 -1.156751,-1.254297 -0.606282,-2.653136 0.174613,-0.443722 0.224557,-0.449808 0.542967,-0.06615 0.471692,0.568354 3.598528,0.605758 3.813474,0.04562 0.369021,-0.961651 -3.03893,-1.972265 -3.682561,-1.092046 -0.18645,0.254987 -0.465984,0.38513 -0.621187,0.289208 -0.305814,-0.189002 -0.395003,-2.852576 -0.105221,-3.142361 z m 0.356338,8.477983 c 1.621425,-2.061308 5.816696,-0.661183 5.816696,1.941256 0,1.927077 -2.048402,2.327685 -2.645833,0.517451 -0.453733,-1.374823 -0.854865,-1.715011 -1.570588,-1.331968 -0.59696,0.319484 -0.752487,1.548894 -0.258442,2.042937 0.207127,0.20713 0.195072,0.344848 -0.04307,0.492025 -1.143459,0.706697 -2.259618,-2.440173 -1.298763,-3.661701 z m -0.28868,4.598609 c 0.198966,-0.314312 0.309655,-0.300503 0.697123,0.08696 0.476039,0.476039 3.135046,0.514723 4.113668,0.05985 0.315242,-0.146529 0.510002,0.0071 0.753089,0.593937 0.357409,0.862862 0.205983,1.352682 -0.418177,1.352682 -0.322029,0 -0.293415,0.148669 0.147907,0.768448 0.726897,1.020834 0.690174,1.726501 -0.12314,2.366256 -0.431749,0.339611 -0.565368,0.59214 -0.37543,0.70953 2.372728,1.466424 1.116,3.564099 -2.135272,3.564099 -0.998156,0 -1.888413,0.119063 -1.97835,0.264584 -0.681075,1.102002 -1.27441,-1.004597 -0.696548,-2.473048 0.174613,-0.443722 0.224557,-0.449807 0.542967,-0.06615 0.483945,0.583118 3.599027,0.604459 3.820934,0.02617 0.362956,-0.945848 -3.075512,-1.931387 -3.779398,-1.083257 -0.498785,0.601001 -0.814529,0.269385 -0.810384,-0.851114 0.0064,-1.733402 0.244799,-2.263847 0.79402,-1.766809 0.662761,0.59979 3.525907,0.455282 3.647529,-0.184099 0.169759,-0.892443 -3.129016,-1.59071 -3.636406,-0.769737 -0.121235,0.196162 -0.352801,0.274847 -0.514591,0.174855 -0.350331,-0.216516 -0.386495,-2.240875 -0.04954,-2.773172 z"
         id="path9907" /><text
         xml:space="preserve"
         style="font-weight:bold;font-size:20.2211px;font-family:'Latin Modern Sans';-inkscape-font-specification:'Latin Modern Sans, Bold';fill:#da3c03;fill-opacity:1;stroke-width:0.29772;paint-order:markers stroke fill;stop-color:#000000"
         x="3.3878832"
         y="67.808922"
         id="text9963"
         transform="rotate(90)"><tspan
           sodipodi:role="line"
           id="tspan9961"
           style="stroke-width:0.29772;fill:#da3c03;fill-opacity:1"
           x="3.3878832"
           y="67.808922">Alembic</tspan></text></g></g></svg>
