<?xml version="1.0" encoding="UTF-8" standalone="no"?>
<!-- Created with Inkscape (http://www.inkscape.org/) -->

<svg
   width="80mm"
   height="80mm"
   viewBox="0 0 80 80"
   version="1.1"
   id="svg5"
   xml:space="preserve"
   inkscape:version="1.2.2 (b0a8486541, 2022-12-01)"
   sodipodi:docname="ca-tdm.svg"
   xmlns:inkscape="http://www.inkscape.org/namespaces/inkscape"
   xmlns:sodipodi="http://sodipodi.sourceforge.net/DTD/sodipodi-0.dtd"
   xmlns="http://www.w3.org/2000/svg"
   xmlns:svg="http://www.w3.org/2000/svg"><sodipodi:namedview
     id="namedview7"
     pagecolor="#ffffff"
     bordercolor="#000000"
     borderopacity="0.25"
     inkscape:showpageshadow="2"
     inkscape:pageopacity="0.0"
     inkscape:pagecheckerboard="0"
     inkscape:deskcolor="#d1d1d1"
     inkscape:document-units="mm"
     showgrid="false"
     showguides="true"
     inkscape:zoom="0.77473187"
     inkscape:cx="435.63459"
     inkscape:cy="527.92459"
     inkscape:window-width="1920"
     inkscape:window-height="1135"
     inkscape:window-x="0"
     inkscape:window-y="0"
     inkscape:window-maximized="1"
     inkscape:current-layer="layer1"><sodipodi:guide
       position="149.58401,97.417326"
       orientation="0,-1"
       id="guide351"
       inkscape:locked="false" /></sodipodi:namedview><defs
     id="defs2" /><g
     inkscape:label="Réteg 1"
     inkscape:groupmode="layer"
     id="layer1"><path
       style="fill:#000000;stroke-width:0.264583"
       d="m 55.819656,74.007754 c -1.2485,-0.68287 -1.481,-1.52077 -0.65201,-2.34976 0.48434,-0.48434 0.49767,-0.57956 0.13229,-0.94494 -0.54657,-0.54657 -0.51146,-0.98512 0.12498,-1.56109 0.50267,-0.4549 0.50694,-0.50776 0.0794,-0.98021 -0.24888,-0.27501 -0.45193,-0.92459 -0.45193,-1.44578 0,-1.82268 2.40689,-3.0948 4.12038,-2.17777 0.39066,0.20907 0.6202,0.20907 0.82928,0 0.37974,-0.37975 1.16065,-0.36952 1.40036,0.0183 0.10562,0.17088 -0.0433,0.49635 -0.33525,0.73276 -0.39579,0.32049 -0.49808,0.6581 -0.415,1.36973 0.16869,1.44493 -0.76149,2.38229 -2.53294,2.55251 -1.96899,0.18919 -1.80919,0.75675 0.28015,0.99503 1.98168,0.22601 2.52573,0.48075 2.85039,1.33466 0.34163,0.89855 -0.0822,1.8572 -1.03995,2.35249 -0.91447,0.47289 -3.59942,0.53651 -4.39013,0.10403 z m 3.15777,-1.01084 c 1.48603,-0.56499 0.4559,-1.46679 -1.46535,-1.28282 -1.10022,0.10536 -1.38313,0.88876 -0.45529,1.26075 0.81338,0.32612 1.11191,0.32955 1.92064,0.0221 z m -0.26626,-5.44941 c 0.22868,-0.22868 0.41578,-0.57736 0.41578,-0.77485 0,-0.5039 -0.74341,-1.19063 -1.2889,-1.19063 -1.04641,0 -1.51995,1.57674 -0.62933,2.09548 0.65316,0.38043 1.02412,0.34833 1.50245,-0.13 z m -54.088392,4.20706 c -0.855752,-0.3191 -1.058333,-0.97852 -1.058333,-3.44498 0,-2.28658 -0.0379,-2.46297 -0.529167,-2.46297 -0.411574,0 -0.529167,-0.17639 -0.529167,-0.79375 0,-0.61736 0.117593,-0.79375 0.529167,-0.79375 0.450772,0 0.529167,-0.17639 0.529167,-1.19063 0,-1.18432 0.0049,-1.19062 0.926041,-1.19062 0.921142,0 0.926042,0.006 0.926042,1.19062 0,1.09361 0.0539,1.19063 0.661459,1.19063 0.558564,0 0.661458,0.12347 0.661458,0.79375 0,0.67027 -0.102894,0.79375 -0.661458,0.79375 -0.653677,0 -0.661459,0.0264 -0.661459,2.24895 0,2.23803 0.0033,2.24896 0.679033,2.24896 0.58467,0 0.667398,0.10112 0.595312,0.72761 -0.06895,0.59927 -0.223722,0.73667 -0.87747,0.77901 -0.436562,0.0283 -0.972344,-0.0152 -1.190625,-0.0966 z m 4.8946902,-0.17662 C 8.483718,71.110994 8.177086,70.712434 7.817882,69.368814 c -0.704448,-2.63502 0.69097,-5.1097 2.881245,-5.1097 0.606202,0 1.331251,0.12259 1.61122,0.27242 0.723306,0.38711 1.308157,1.64865 1.308877,2.82329 l 5.3e-4,1.00533 -1.985271,-0.0871 c -2.2356778,-0.098 -2.6569948,0.21917 -1.8754128,1.41202 0.5018078,0.76585 1.5877938,0.88169 2.2919178,0.24447 0.386611,-0.34988 0.545569,-0.36058 1.013711,-0.0682 0.660989,0.4128 0.607543,0.68405 -0.262815,1.33387 -0.874582,0.65297 -2.314722,0.82077 -3.2845078,0.38271 z m 2.5136438,-4.88467 c 0,-1.11545 -1.421463,-1.49645 -2.2338698,-0.59875 -0.653716,0.72235 -0.306355,1.075 1.0588598,1.075 0.955102,0 1.17501,-0.0891 1.17501,-0.47625 z m 4.581184,4.85149 c -2.094849,-0.91111 -2.473304,-4.89937 -0.622305,-6.55805 1.113237,-0.99757 2.801826,-1.01575 3.95832,-0.0426 0.9853,0.82908 1.035132,1.31884 0.156623,1.53933 -0.464355,0.11655 -0.81402,0.008 -1.190625,-0.36819 -1.084959,-1.08496 -2.14131,-0.4081 -2.29874,1.47291 -0.194763,2.3271 1.08721,3.48589 2.445139,2.21019 0.545507,-0.51248 0.689523,-0.54249 1.098584,-0.22896 0.25893,0.19846 0.510191,0.38434 0.558361,0.41305 0.3024,0.18026 -0.675793,1.26281 -1.423297,1.57514 -1.101587,0.46027 -1.599859,0.45789 -2.68206,-0.0128 z m 22.517034,0.14324 c -0.30291,-0.12931 -0.8803,-0.62677 -1.28309,-1.10545 -0.68241,-0.811 -0.72559,-1.00399 -0.63335,-2.83068 0.0919,-1.82041 0.16021,-2.01504 0.95654,-2.72655 1.92844,-1.72307 4.81998,-0.52247 5.20257,2.16015 0.21667,1.51928 -0.33018,3.35939 -1.18889,4.00051 -0.78527,0.58629 -2.28058,0.83211 -3.05378,0.50202 z m 2.12324,-1.93152 c 0.72605,-1.03657 0.41943,-3.6473 -0.46838,-3.98798 -0.21539,-0.0827 -0.64031,-0.0853 -0.94427,-0.006 -1.01333,0.26499 -1.3525,3.18507 -0.49377,4.25105 0.42254,0.52453 1.45655,0.38497 1.90642,-0.25731 z m 8.4343,1.74869 c -1.07143,-0.52838 -1.67242,-1.79649 -1.67242,-3.52888 0,-2.38783 1.10193,-3.71718 3.08128,-3.71718 2.10639,0 3.50629,1.96646 3.16621,4.44765 -0.21145,1.5427 -0.76773,2.37992 -1.89395,2.85049 -1.13537,0.47439 -1.63319,0.46472 -2.68112,-0.0521 z m 2.41362,-1.74869 c 0.80526,-1.14967 0.39316,-3.71221 -0.65026,-4.04337 -0.9759,-0.30974 -1.5837,0.52548 -1.5837,2.17627 0,0.78738 0.12325,1.6619 0.27389,1.94337 0.37155,0.69425 1.44976,0.6523 1.96007,-0.0763 z m 15.27877,1.65448 c -2.15715,-1.35184 -2.17477,-5.65634 -0.0277,-6.76663 1.31316,-0.67907 2.56201,-0.49942 3.57579,0.51436 0.73051,0.73051 0.89958,1.10347 0.89958,1.98437 v 1.0848 h -2.11666 c -1.85196,0 -2.11667,0.0588 -2.11667,0.47029 0,0.74769 0.77039,1.64637 1.41134,1.64637 0.32317,0 0.84786,-0.18231 1.16599,-0.40513 0.47851,-0.33516 0.67158,-0.34694 1.1179,-0.0682 0.64805,0.40471 0.58787,0.67719 -0.29524,1.33652 -1.03116,0.76987 -2.57193,0.85652 -3.61435,0.20326 z m 2.86019,-4.61941 c 0,-0.53301 -0.73994,-1.20953 -1.32292,-1.20953 -0.58298,0 -1.32291,0.67652 -1.32291,1.20953 0,0.27718 0.35277,0.37797 1.32291,0.37797 0.97014,0 1.32292,-0.10079 1.32292,-0.37797 z m 3.83646,4.7413 c -1.45953,-0.78093 -1.60725,-1.07651 -0.80174,-1.6043 0.49438,-0.32392 0.77047,-0.37785 0.89585,-0.17497 0.30842,0.49903 1.4787,0.82653 1.97034,0.55139 0.80623,-0.45119 0.47645,-1.01336 -0.9696,-1.65287 -2.26952,-1.00368 -2.87105,-2.36096 -1.63665,-3.6929 0.76293,-0.82321 2.32938,-0.95228 3.59765,-0.29642 0.95207,0.49233 0.98762,0.83627 0.12699,1.2284 -0.49876,0.22725 -0.7487,0.2189 -1.0549,-0.0352 -0.48235,-0.40032 -1.81478,-0.13567 -1.66713,0.33113 0.0558,0.17654 0.78321,0.67816 1.61638,1.11472 1.71844,0.90043 2.01408,1.2519 2.0198,2.40128 0.008,1.67663 -2.38525,2.74563 -4.09699,1.82976 z m -51.930197,-4.95864 0.07186,-5.09323 h 0.79375 c 0.790101,0 0.794115,0.008 0.873125,1.67688 0.06937,1.46561 0.136041,1.65161 0.529167,1.47635 0.247385,-0.11029 0.92847,-0.24962 1.513525,-0.30963 0.84407,-0.0866 1.17189,0.0102 1.5875,0.46883 0.44753,0.4938 0.53662,1.03616 0.61207,3.72598 l 0.0883,3.14805 h -0.9482 -0.9482 v -2.74573 c 0,-3.18691 -0.232077,-3.63654 -1.587262,-3.0752 l -0.793988,0.32888 v 2.74602 2.74603 h -0.931754 -0.931757 z m 7.671167,1.45521 c 0.0732,-3.61897 0.077,-3.63849 0.71115,-3.7281 0.38454,-0.0543 0.73193,0.0786 0.87538,0.33489 0.21376,0.38198 0.29575,0.3844 0.81038,0.0239 0.94422,-0.66135 2.44149,-0.51748 3.08145,0.2961 0.48171,0.6124 0.54837,1.06267 0.54837,3.70417 v 3.00702 h -0.76966 -0.76967 l -0.0902,-2.78818 c -0.0958,-2.96061 -0.31904,-3.45451 -1.41314,-3.12652 -1.08963,0.32664 -1.19063,0.60669 -1.19063,3.30126 v 2.61344 h -0.93351 -0.93351 z m 15.08294,-1.43801 0.0719,-5.11043 0.7276,-0.0837 0.72761,-0.0837 v 4.91237 c 0,2.7018 0.0298,5.00166 0.0661,5.1108 0.0364,0.10914 -0.32341,0.23594 -0.79952,0.28178 l -0.86567,0.0833 z m 17.66671,1.37186 v -3.70416 h 0.92604 0.92605 v 3.70416 3.70417 h -0.92605 -0.92604 z m 0.0486,-5.75468 c 0.0698,-0.60628 0.2271,-0.74143 0.94362,-0.81052 0.80105,-0.0772 0.85989,-0.0274 0.85989,0.72761 0,0.75278 -0.0672,0.81051 -0.94361,0.81051 -0.87331,0 -0.93738,-0.0542 -0.8599,-0.7276 z m -41.455865,-7.39896 c -1.865577,-0.258 -4.116205,-0.97494 -6.193941,-1.9731 -1.794557,-0.86211 -2.66918,-1.51159 -4.519371,-3.35602 C 8.511516,47.552104 7.96141,46.799344 6.937789,44.679944 5.034444,40.739082 4.752796,39.29624 4.768582,33.567442 c 0.01162,-4.217864 0.09474,-5.187517 0.60097,-7.011459 2.031385,-7.318995 7.015895,-12.362963 13.963555,-14.130128 7.907529,-2.011309 16.515199,0.171166 20.672519,5.241514 1.39719,1.704049 2.79028,4.556715 3.21651,6.586532 0.55986,2.666188 1.07072,2.434374 -5.36468,2.434374 h -5.65909 l -0.18383,-0.979882 c -0.61683,-3.287967 -3.38545,-5.125623 -7.136458,-4.73677 -3.200596,0.331796 -5.034537,1.865858 -6.043385,5.055193 -0.5192,1.641388 -0.585848,2.423975 -0.585848,6.879167 0,4.509802 0.0627,5.226643 0.609348,6.966454 1.095791,3.487557 3.322135,5.160507 6.906827,5.190017 1.355546,0.0112 2.047786,-0.1356 3.103576,-0.65796 l 1.35889,-0.67232 0.27473,1.65796 c 0.34294,2.06958 1.58478,4.62306 2.98185,6.13128 0.58737,0.63411 1.02465,1.19623 0.97171,1.24916 -0.32143,0.32144 -4.07789,1.54136 -5.71302,1.85532 -1.79932,0.3455 -5.725918,0.44063 -7.583495,0.18374 z m 20.005625,-0.22916 c -6.99947,-1.88239 -10.58936,-7.45875 -9.2886,-14.428481 1.21133,-6.490542 7.26303,-10.185126 18.79283,-11.473102 1.95969,-0.218913 4.14557,-0.399169 4.85753,-0.400568 l 1.29446,-0.0026 -0.17082,-1.653646 c -0.41852,-4.051689 -2.87323,-6.018247 -7.079,-5.67126 -2.02016,0.166672 -3.51008,0.719755 -4.50435,1.672096 -0.78212,0.749131 -0.78064,0.750321 -1.39138,-1.121847 -0.56876,-1.74349 -1.69805,-3.50937 -3.38484,-5.292898 l -1.34816,-1.425476 1.95627,-0.895258 c 6.22943,-2.850805 15.74655,-2.953354 21.34446,-0.229989 1.79335,0.872458 4.25505,3.200345 5.06667,4.791255 1.22662,2.404378 1.33216,3.79021 1.34274,17.632232 0.009,11.851702 0.0985,14.162062 0.66324,17.131772 l 0.18868,0.99219 h -5.81942 c -6.6822,0 -5.99784,0.31635 -6.30899,-2.91632 l -0.16611,-1.7257 -1.59467,1.53635 c -1.8888,1.81972 -4.57471,3.18576 -7.09346,3.6077 -2.35855,0.39509 -5.62652,0.3389 -7.35708,-0.1265 z m 11.17593,-8.40832 c 1.43263,-0.83957 2.59239,-2.18662 3.53733,-4.108573 0.637,-1.295604 0.70254,-1.718215 0.71813,-4.630209 0.0163,-3.045436 -0.009,-3.202673 -0.51201,-3.168221 -1.06486,0.07295 -5.59168,0.929457 -6.83176,1.292614 -2.6638,0.780095 -5.35938,2.796072 -6.00626,4.491969 -0.6799,1.782471 -0.16264,4.4461 1.08218,5.57264 1.70705,1.54487 5.8315,1.82787 8.01239,0.54978 z"
       id="path349"
       sodipodi:nodetypes="cssssssssssssssccsssssssssscsssssssssssssccccssscccssssccsssssssscsssssssssssssscccsccssssssscsssccsssscsssssssssssssssssssssscscssccsssscscccssccccccscccsscccssscccsccccscccccccccccccccsscssssscsssscssssscscsscsscssccssssscssscscsscssccssssssss" /></g></svg>
