<?xml version="1.0" encoding="UTF-8" standalone="no"?>
<svg
   id="Layer_1"
   version="1.1"
   viewBox="0 0 230 210"
   sodipodi:docname="delphix.svg"
   width="230"
   height="210"
   inkscape:version="1.2.2 (b0a8486541, 2022-12-01)"
   xmlns:inkscape="http://www.inkscape.org/namespaces/inkscape"
   xmlns:sodipodi="http://sodipodi.sourceforge.net/DTD/sodipodi-0.dtd"
   xmlns="http://www.w3.org/2000/svg"
   xmlns:svg="http://www.w3.org/2000/svg">
  <sodipodi:namedview
     id="namedview20297"
     pagecolor="#ffffff"
     bordercolor="#000000"
     borderopacity="0.25"
     inkscape:showpageshadow="2"
     inkscape:pageopacity="0.0"
     inkscape:pagecheckerboard="0"
     inkscape:deskcolor="#d1d1d1"
     showgrid="false"
     inkscape:zoom="2.3982499"
     inkscape:cx="188.47077"
     inkscape:cy="181.79924"
     inkscape:window-width="1920"
     inkscape:window-height="1135"
     inkscape:window-x="0"
     inkscape:window-y="0"
     inkscape:window-maximized="1"
     inkscape:current-layer="Layer_1" />
  <!-- Generator: Adobe Illustrator 29.0.0, SVG Export Plug-In . SVG Version: 2.1.0 Build 186)  -->
  <defs
     id="defs20268">
    <style
       id="style20266">
      .st0 {
        fill: #00001c;
      }

      .st1 {
        fill: #4c00ff;
      }
    </style>
  </defs>
  <g
     id="g20294"
     transform="matrix(0.77051303,0,0,0.77051303,33.68193,5.2284858)">
    <path
       class="st1"
       d="m 200.37,4.78 c -11.04,-6.37 -24.22,-6.37 -35.26,0 L 72.25,58.39 c -11.04,6.37 -17.63,17.79 -17.63,30.54 0,10.73 4.68,20.5 12.73,27.13 l 20.85,-12.04 -5.28,-3.04 c -6.28,-3.62 -6.95,-9.62 -6.95,-12.04 0,-2.42 0.68,-8.41 6.95,-12.04 l 92.86,-53.61 c 6.28,-3.62 11.81,-1.21 13.9,0 2.09,1.21 6.95,4.8 6.95,12.04 v 107.21 c 0,7.25 -4.86,10.83 -6.95,12.04 -2.09,1.21 -7.63,3.62 -13.9,0 l -24.69,-14.25 -21.36,12.33 35.37,20.42 c 11.04,6.37 24.22,6.37 35.26,0 11.04,-6.37 17.63,-17.79 17.63,-30.54 V 35.32 c 0,-12.75 -6.59,-24.17 -17.63,-30.54 v 0 z"
       id="path20290" />
    <path
       class="st1"
       d="m 150.64,61.79 -20.85,12.04 5.29,3.05 c 6.28,3.62 6.95,9.62 6.95,12.04 0,2.42 -0.68,8.41 -6.95,12.04 l -92.86,53.61 c -6.28,3.62 -11.81,1.21 -13.9,0 -2.09,-1.21 -6.95,-4.8 -6.95,-12.04 V 35.32 c 0,-7.25 4.86,-10.83 6.95,-12.04 2.1,-1.21 7.63,-3.62 13.9,0 L 66.79,37.47 88.14,25.14 52.89,4.78 C 41.85,-1.59 28.67,-1.59 17.63,4.78 6.59,11.15 0,22.57 0,35.32 v 107.21 c 0,12.75 6.59,24.16 17.63,30.54 11.04,6.37 24.22,6.37 35.26,0 l 92.86,-53.61 c 11.04,-6.37 17.63,-17.78 17.63,-30.54 0,-10.73 -4.68,-20.5 -12.74,-27.13 h 0.01 z"
       id="path20292" />
  </g>
  <text
     xml:space="preserve"
     style="font-weight:bold;font-size:67.2318px;font-family:'Latin Modern Sans';-inkscape-font-specification:'Latin Modern Sans, Bold';fill:#00e9e9;fill-opacity:1;stroke-width:0.989869;-inkscape-stroke:none;paint-order:markers stroke fill;stop-color:#000000"
     x="7.8827863"
     y="195.1805"
     id="text20608"><tspan
       sodipodi:role="line"
       id="tspan20606"
       x="7.8827863"
       y="195.1805"
       style="fill:#00e9e9;fill-opacity:1;stroke-width:0.989869">delphix</tspan></text>
</svg>
