<?xml version="1.0" encoding="UTF-8" standalone="no"?>
<!-- Created with Inkscape (http://www.inkscape.org/) -->

<svg
   width="80mm"
   height="80mm"
   viewBox="0 0 80 80"
   version="1.1"
   id="svg5"
   xml:space="preserve"
   inkscape:version="1.2.2 (b0a8486541, 2022-12-01)"
   sodipodi:docname="faker.svg"
   xmlns:inkscape="http://www.inkscape.org/namespaces/inkscape"
   xmlns:sodipodi="http://sodipodi.sourceforge.net/DTD/sodipodi-0.dtd"
   xmlns:xlink="http://www.w3.org/1999/xlink"
   xmlns="http://www.w3.org/2000/svg"
   xmlns:svg="http://www.w3.org/2000/svg"><sodipodi:namedview
     id="namedview7"
     pagecolor="#ffffff"
     bordercolor="#000000"
     borderopacity="0.25"
     inkscape:showpageshadow="2"
     inkscape:pageopacity="0.0"
     inkscape:pagecheckerboard="0"
     inkscape:deskcolor="#d1d1d1"
     inkscape:document-units="mm"
     showgrid="false"
     showguides="true"
     inkscape:zoom="0.94384549"
     inkscape:cx="-95.35459"
     inkscape:cy="103.83055"
     inkscape:window-width="1920"
     inkscape:window-height="1135"
     inkscape:window-x="0"
     inkscape:window-y="0"
     inkscape:window-maximized="1"
     inkscape:current-layer="text4500"><sodipodi:guide
       position="149.58401,97.417326"
       orientation="0,-1"
       id="guide351"
       inkscape:locked="false" /></sodipodi:namedview><defs
     id="defs2"><linearGradient
       inkscape:collect="always"
       id="linearGradient13720"><stop
         style="stop-color:#df1a23;stop-opacity:1;"
         offset="0"
         id="stop13716" /><stop
         style="stop-color:#a2121e;stop-opacity:1;"
         offset="1"
         id="stop13718" /></linearGradient><linearGradient
       inkscape:collect="always"
       xlink:href="#linearGradient13720"
       id="linearGradient13722"
       x1="-36.274139"
       y1="-47.110931"
       x2="-88.660393"
       y2="90.537498"
       gradientUnits="userSpaceOnUse"
       gradientTransform="matrix(0.4849534,0,0,0.4849534,-16.913026,28.787742)" /></defs><g
     inkscape:label="Réteg 1"
     inkscape:groupmode="layer"
     id="layer1"><path
       opacity="0.393"
       fill="url(#logo-full_svg__linearGradient6295)"
       d="m -86.134718,194.21601 16.594402,16.82538 a 2.1664083,2.1664083 0 0 0 1.554427,0.65326 2.1849292,2.1849292 0 0 0 1.562629,-0.65326 l 21.687632,-21.99349 c -10.195984,12.63518 -27.951113,17.32492 -41.39909,5.16758 z"
       id="path2957"
       style="stroke-width:0.264583" /><g
       aria-label="{:}"
       transform="rotate(-90)"
       id="text4500"
       style="font-weight:bold;font-size:55.0448px;font-family:'Latin Modern Sans';-inkscape-font-specification:'Latin Modern Sans, Bold';fill:#c7ff00;stroke-width:0.810439;paint-order:markers stroke fill;stop-color:#000000"><path
         style="fill:url(#linearGradient13722);fill-opacity:1;stroke-width:0.103988"
         d="m -77.393969,10.273893 c 0.57816,-2.8804434 2.84359,-5.1722324 5.70699,-5.7734134 1.35356,-0.284183 59.850603,-0.284183 61.204157,0 2.7312281,0.57343 5.0075421,2.779125 5.6408621,5.465867 0.294721,1.2502974 0.296671,60.4910344 0.002,61.6451294 -0.669041,2.620597 -2.760553,4.71211 -5.3811511,5.381151 -1.187683,0.303219 -60.655078,0.295494 -61.832308,-0.008 -2.48841,-0.641585 -4.62362,-2.815907 -5.27648,-5.373123 -0.21645,-0.847838 -0.27856,-60.269172 -0.0641,-61.337583 z m 16.98229,30.473766 c 6.05381,0 5.59755,-0.09899 5.59755,1.214465 0,3.945781 3.840126,8.179496 11.187433,12.334066 1.080421,0.610929 2.16649,1.22565 2.413488,1.366045 0.449087,0.255265 0.449087,0.255265 0,-0.09881 -3.398344,-2.679371 -5.865326,-6.687458 -6.730118,-10.934376 -0.252393,-1.239481 -0.466855,-3.645694 -0.33746,-3.786209 1.011469,-1.098388 14.974569,0.176034 15.124161,1.380392 1.075514,8.658882 6.846089,16.417435 15.405515,20.712757 1.58901,0.797403 1.627132,0.800511 0.697363,0.05688 -12.869213,-10.292849 -12.708983,-35.433202 0.284756,-44.678385 0.643109,-0.457578 0.621588,-0.45725 -2.260139,0.03447 -26.521337,4.525414 -46.598729,13.953882 -46.808799,21.981701 -0.0109,0.417009 -0.0109,0.417009 5.42625,0.417009 z m 21.945403,-9.51902 c 0.313146,-6.560957 0.22054,-6.161543 1.164447,-5.022327 2.905863,3.507132 2.839253,7.0692 -0.189498,10.133603 -0.962779,0.974113 -1.29289,1.196126 -1.2663,0.851639 0.0097,-0.125982 0.140833,-2.809294 0.291351,-5.962915 z m 0.02065,19.20647 c 0.25438,6.41448 0.184135,6.079725 1.057819,5.04101 3.073461,-3.654007 2.979513,-7.338603 -0.268395,-10.526288 -1.037568,-1.01833 -1.158486,-1.054701 -1.066442,-0.320776 0.03761,0.299925 0.162273,2.91265 0.277018,5.806054 z"
         id="path13683" /></g></g></svg>
