<?xml version="1.0" encoding="UTF-8" standalone="no"?>
<!-- Created with Inkscape (http://www.inkscape.org/) -->

<svg
   width="80mm"
   height="80mm"
   viewBox="0 0 80 80"
   version="1.1"
   id="svg5"
   xml:space="preserve"
   inkscape:version="1.2.2 (b0a8486541, 2022-12-01)"
   sodipodi:docname="json-placeholder.svg"
   xmlns:inkscape="http://www.inkscape.org/namespaces/inkscape"
   xmlns:sodipodi="http://sodipodi.sourceforge.net/DTD/sodipodi-0.dtd"
   xmlns="http://www.w3.org/2000/svg"
   xmlns:svg="http://www.w3.org/2000/svg"><sodipodi:namedview
     id="namedview7"
     pagecolor="#ffffff"
     bordercolor="#000000"
     borderopacity="0.25"
     inkscape:showpageshadow="2"
     inkscape:pageopacity="0.0"
     inkscape:pagecheckerboard="0"
     inkscape:deskcolor="#d1d1d1"
     inkscape:document-units="mm"
     showgrid="false"
     showguides="true"
     inkscape:zoom="2.5925143"
     inkscape:cx="194.213"
     inkscape:cy="126.5181"
     inkscape:window-width="1920"
     inkscape:window-height="1135"
     inkscape:window-x="0"
     inkscape:window-y="0"
     inkscape:window-maximized="1"
     inkscape:current-layer="text4500"><sodipodi:guide
       position="149.58401,97.417326"
       orientation="0,-1"
       id="guide351"
       inkscape:locked="false" /></sodipodi:namedview><defs
     id="defs2" /><g
     inkscape:label="Réteg 1"
     inkscape:groupmode="layer"
     id="layer1"><path
       opacity="0.393"
       fill="url(#logo-full_svg__linearGradient6295)"
       d="m -86.134718,194.21601 16.594402,16.82538 a 2.1664083,2.1664083 0 0 0 1.554427,0.65326 2.1849292,2.1849292 0 0 0 1.562629,-0.65326 l 21.687632,-21.99349 c -10.195984,12.63518 -27.951113,17.32492 -41.39909,5.16758 z"
       id="path2957"
       style="stroke-width:0.264583" /><g
       aria-label="{:}"
       transform="rotate(-90)"
       id="text4500"
       style="font-weight:bold;font-size:55.0448px;font-family:'Latin Modern Sans';-inkscape-font-specification:'Latin Modern Sans, Bold';fill:#c7ff00;stroke-width:0.810439;paint-order:markers stroke fill;stop-color:#000000"><path
         d="m -53.084025,73.845397 c 0,-0.910821 -0.275224,-1.191073 -0.935762,-1.261136 -4.623763,-0.350316 -6.660421,-2.802526 -7.320958,-5.3248 -0.165135,-0.700632 -0.165135,-1.261136 -0.165135,-2.45221 V 48.202285 c -0.05504,-2.942653 -1.816478,-6.515874 -6.550331,-8.127326 6.550331,-2.242021 6.550331,-7.076378 6.550331,-10.22922 V 15.132477 c 0,-1.54139 0,-3.573221 2.146748,-5.6050519 0.605492,-0.4904426 2.201792,-1.7515788 5.064121,-1.9617677 0.770627,-0.070057 1.210986,-0.070057 1.210986,-1.2611375 0,-1.2611362 -0.495403,-1.2611362 -1.706389,-1.2611362 -7.816362,0 -12.770394,3.5031575 -12.825438,8.8980193 v 14.433009 c 0,4.343916 0,5.815243 -1.816479,7.847074 -1.26603,1.471326 -3.192598,2.45221 -5.449435,2.592336 -0.770627,0.07006 -1.210986,0.07006 -1.210986,1.261137 0,0.91082 0.275224,1.191073 0.935762,1.261136 4.954032,0.350316 6.935645,3.503158 7.431048,6.025431 0.11009,0.560505 0.11009,0.700632 0.11009,3.292969 v 14.713262 c 0,8.968082 9.137436,9.738777 12.825438,9.738777 1.210986,0 1.706389,0 1.706389,-1.261137 z"
         id="path4552"
         style="fill:#4e5535;fill-opacity:1;stroke-width:0.914339"
         sodipodi:nodetypes="sccsccssccsscsccscsssss" /><path
         d="m -31.44401,27.496725 v -5.394864 c 0,-1.821642 -0.05505,-1.891705 -1.48621,-1.891705 h -14.821783 c -1.431165,0 -1.48621,0.07006 -1.48621,1.891705 v 5.394864 c 0,1.82164 0.05504,1.891704 1.48621,1.891704 h 14.821783 c 1.431165,0 1.48621,-0.07006 1.48621,-1.891704 z m 0,33.493983 v -5.394862 c 0,-1.821642 -0.05505,-1.891705 -1.48621,-1.891705 h -14.821783 c -1.431165,0 -1.48621,0.07006 -1.48621,1.891705 v 5.394862 c 0,1.821642 0.05504,1.891706 1.48621,1.891706 h 14.821783 c 1.431165,0 1.48621,-0.07006 1.48621,-1.891706 z"
         id="path4554"
         style="fill:#4e5535;fill-opacity:1;stroke-width:0.914339"
         sodipodi:nodetypes="ssssssssssssssssss" /><path
         d="m -4.5895263,40.074959 c 0,-0.910822 -0.275224,-1.191074 -0.9357616,-1.261137 -3.5228672,-0.210189 -6.3851961,-2.031832 -7.3209581,-5.885305 -0.165134,-0.560505 -0.165134,-0.700631 -0.165134,-3.433094 V 14.782161 c 0,-8.6177666 -8.36681,-9.7387773 -12.880484,-9.7387773 -1.15594,0 -1.706388,0 -1.706388,1.2611362 0,0.9108217 0.275224,1.1910741 0.935761,1.2611375 4.458629,0.2802523 6.715466,2.5923356 7.376003,5.3247986 0.165135,0.700631 0.165135,1.261137 0.165135,2.45221 v 16.604967 c 0.05504,2.942653 1.761433,6.445811 6.550331,8.127326 -6.550331,2.24202 -6.550331,7.006315 -6.550331,10.22922 v 14.713262 c 0,1.611452 0,3.433094 -2.036658,5.464925 -0.550448,0.490443 -2.256837,1.891706 -5.229256,2.101895 -0.770627,0.07006 -1.210985,0.07006 -1.210985,1.261136 0,1.261137 0.550448,1.261137 1.706388,1.261137 8.25672,0 12.825439,-3.78341 12.880484,-8.89802 v -14.43301 c 0,-4.554104 0,-5.745177 1.871523,-7.917135 0.605493,-0.770695 2.4219707,-2.312084 5.3393451,-2.522274 0.7706272,-0.07006 1.2109856,-0.07006 1.2109856,-1.261136 z"
         id="path4556"
         style="fill:#4e5535;fill-opacity:1;stroke-width:0.914339"
         sodipodi:nodetypes="sccssssccsccssccsscsccs" /></g></g></svg>
