<?xml version="1.0" encoding="UTF-8" standalone="no"?>
<!-- Created with Inkscape (http://www.inkscape.org/) -->

<svg
   width="80mm"
   height="80mm"
   viewBox="0 0 80 80"
   version="1.1"
   id="svg5"
   xml:space="preserve"
   inkscape:version="1.2.2 (b0a8486541, 2022-12-01)"
   sodipodi:docname="laravel-seeder.svg"
   xmlns:inkscape="http://www.inkscape.org/namespaces/inkscape"
   xmlns:sodipodi="http://sodipodi.sourceforge.net/DTD/sodipodi-0.dtd"
   xmlns="http://www.w3.org/2000/svg"
   xmlns:svg="http://www.w3.org/2000/svg"><sodipodi:namedview
     id="namedview7"
     pagecolor="#ffffff"
     bordercolor="#000000"
     borderopacity="0.25"
     inkscape:showpageshadow="2"
     inkscape:pageopacity="0.0"
     inkscape:pagecheckerboard="0"
     inkscape:deskcolor="#d1d1d1"
     inkscape:document-units="mm"
     showgrid="false"
     showguides="true"
     inkscape:zoom="0.96641498"
     inkscape:cx="46.046472"
     inkscape:cy="201.77667"
     inkscape:window-width="1920"
     inkscape:window-height="1135"
     inkscape:window-x="0"
     inkscape:window-y="0"
     inkscape:window-maximized="1"
     inkscape:current-layer="text4500"><sodipodi:guide
       position="149.58401,97.417326"
       orientation="0,-1"
       id="guide351"
       inkscape:locked="false" /></sodipodi:namedview><defs
     id="defs2" /><g
     inkscape:label="Réteg 1"
     inkscape:groupmode="layer"
     id="layer1"><path
       opacity="0.393"
       fill="url(#logo-full_svg__linearGradient6295)"
       d="m -86.134718,194.21601 16.594402,16.82538 a 2.1664083,2.1664083 0 0 0 1.554427,0.65326 2.1849292,2.1849292 0 0 0 1.562629,-0.65326 l 21.687632,-21.99349 c -10.195984,12.63518 -27.951113,17.32492 -41.39909,5.16758 z"
       id="path2957"
       style="stroke-width:0.264583" /><g
       aria-label="{:}"
       transform="rotate(-90)"
       id="text4500"
       style="font-weight:bold;font-size:55.0448px;font-family:'Latin Modern Sans';-inkscape-font-specification:'Latin Modern Sans, Bold';fill:#c7ff00;stroke-width:0.810439;paint-order:markers stroke fill;stop-color:#000000"><path
         d="m -17.680419,5.4761391 v -2.977647 h -18.282672 v 8.5708949 h 2.690023 V 5.4761391 Z"
         fill="currentColor"
         id="path6812"
         style="stroke-width:0.0479999;fill:#f53003;fill-opacity:1" /><path
         d="m -25.437536,21.581909 c 0.609385,-0.379821 1.088057,-0.91926 1.436547,-1.618432 0.348136,-0.698993 0.522446,-1.40261 0.522446,-2.110251 0,-0.91535 -0.169809,-1.752407 -0.509298,-2.511814 -0.339488,-0.759819 -0.805662,-1.41125 -1.397457,-1.955014 -0.59209,-0.543705 -1.275568,-0.966822 -2.050135,-1.268757 -0.775044,-0.302298 -1.589294,-0.453147 -2.442161,-0.453147 -0.87093,0 -1.688971,0.150849 -2.454951,0.453147 -0.766514,0.301821 -1.44549,0.724937 -2.037285,1.268757 -0.592091,0.543764 -1.057732,1.195373 -1.39722,1.955014 -0.339488,0.759407 -0.509292,1.596464 -0.509292,2.511814 0,0.707641 0.174127,1.411258 0.522322,2.110251 0.348076,0.699172 0.826925,1.238611 1.436546,1.618432 h -1.64538 v 2.822517 h 12.171055 v -2.822517 z m -5.928783,-0.258938 c -0.470261,-0.172648 -0.879459,-0.414355 -1.227654,-0.72488 -0.348431,-0.310825 -0.626916,-0.686379 -0.835868,-1.126433 -0.208952,-0.440234 -0.31337,-0.928322 -0.31337,-1.463138 0,-0.535294 0.104418,-1.018644 0.31337,-1.450116 0.208952,-0.431585 0.487437,-0.802637 0.835868,-1.113341 0.348195,-0.310824 0.757393,-0.548322 1.227654,-0.712086 0.470142,-0.164413 0.966405,-0.245967 1.488607,-0.245967 0.522499,0 1.018702,0.08155 1.488844,0.245967 0.470143,0.163764 0.879104,0.401262 1.227535,0.712086 0.348076,0.310704 0.626916,0.681642 0.835869,1.113341 0.208952,0.431472 0.313369,0.914822 0.313369,1.450116 0,0.534995 -0.104417,1.022904 -0.313369,1.463138 -0.208953,0.440054 -0.487674,0.815608 -0.835869,1.126433 -0.348431,0.310704 -0.757392,0.552232 -1.227535,0.72488 -0.470142,0.172411 -0.966345,0.258938 -1.488844,0.258938 -0.522202,0 -1.018465,-0.08653 -1.488607,-0.258938 z"
         fill="currentColor"
         id="path6814"
         style="stroke-width:0.0479999;fill:#f53003;fill-opacity:1" /><path
         d="m -25.437536,44.523952 c 0.609385,-0.379821 1.088057,-0.91926 1.436547,-1.618432 0.348136,-0.698994 0.522446,-1.40261 0.522446,-2.110251 0,-0.91535 -0.169809,-1.752401 -0.509298,-2.511807 -0.339488,-0.759819 -0.805662,-1.411257 -1.397457,-1.955021 -0.59209,-0.543698 -1.275568,-0.966814 -2.050135,-1.268757 -0.775044,-0.302348 -1.589294,-0.45314 -2.442161,-0.45314 -0.87093,0 -1.688971,0.150792 -2.454951,0.45314 -0.766514,0.301821 -1.44549,0.72488 -2.037285,1.268757 -0.592091,0.543764 -1.057732,1.195316 -1.39722,1.955021 -0.339488,0.759406 -0.509292,1.596457 -0.509292,2.511807 0,0.707641 0.174127,1.411257 0.522322,2.110251 0.348076,0.699172 0.826925,1.238611 1.436546,1.618432 h -1.64538 v 2.822517 h 12.171055 v -2.822517 z m -5.928783,-0.258818 c -0.470261,-0.172646 -0.879459,-0.414354 -1.227654,-0.724879 -0.348431,-0.310824 -0.626916,-0.686378 -0.835868,-1.126434 -0.208952,-0.440233 -0.31337,-0.928321 -0.31337,-1.463143 0,-0.535287 0.104418,-1.018638 0.31337,-1.450102 0.208952,-0.431593 0.487437,-0.802645 0.835868,-1.113348 0.348195,-0.310825 0.757393,-0.548323 1.227654,-0.712087 0.470142,-0.164413 0.966405,-0.245967 1.488607,-0.245967 0.522499,0 1.018702,0.08155 1.488844,0.245967 0.470143,0.163764 0.879104,0.401262 1.227535,0.712087 0.348076,0.310703 0.626916,0.681641 0.835869,1.113348 0.208952,0.431464 0.313369,0.914815 0.313369,1.450102 0,0.535 -0.104417,1.02291 -0.313369,1.463143 -0.208953,0.440056 -0.487674,0.81561 -0.835869,1.126434 -0.348431,0.310704 -0.757392,0.552233 -1.227535,0.724879 -0.470142,0.172406 -0.966345,0.25894 -1.488844,0.25894 -0.522202,-1.22e-4 -1.018465,-0.08665 -1.488607,-0.25894 z"
         fill="currentColor"
         id="path6816"
         style="stroke-width:0.0479999;fill:#f53003;fill-opacity:1" /><path
         d="m -17.68042,78.308836 v -2.822162 h -18.282671 v 2.822162 z"
         fill="currentColor"
         id="path6818"
         style="stroke-width:0.0479999;fill:#f53003;fill-opacity:1" /><path
         d="m -35.963091,26.631414 v 2.822217 h 9.369862 v 4.842323 h 2.801074 v -7.66454 z"
         fill="currentColor"
         id="path6820"
         style="stroke-width:0.0479999;fill:#f53003;fill-opacity:1" /><path
         d="m -23.792155,58.66217 -9.320231,-3.547388 9.320231,-3.547511 v -2.858583 l -12.170936,4.632545 v 3.547096 l 12.170936,4.632425 z"
         fill="currentColor"
         id="path6822"
         style="stroke-width:0.0479999;fill:#f53003;fill-opacity:1" /><path
         d="m -23.479201,67.676436 c 0,-3.455888 -2.86486,-6.191756 -6.39863,-6.191756 -3.906364,0 -6.398629,2.647621 -6.398629,6.553632 0,2.186061 0.843094,3.581442 2.679066,5.286585 l 1.488074,-1.906513 c -0.0015,-0.0018 -1.905978,-1.439214 -1.905978,-3.586774 0,-2.495824 2.029644,-3.546505 3.079736,-3.546505 v 9.363766 c 4.020909,0.491575 7.456361,-2.129207 7.456361,-5.972435 z m -5.340897,-3.383631 c 0.234242,0.02133 3.079736,0.346478 3.079736,3.36112 0,3.01524 -2.84508,3.381265 -3.079736,3.40258 z"
         fill="currentColor"
         id="path6824"
         style="stroke-width:0.0479999;fill:#f53003;fill-opacity:1" /><text
         xml:space="preserve"
         style="font-weight:bold;font-size:23.3168px;font-family:'Latin Modern Sans';-inkscape-font-specification:'Latin Modern Sans, Bold';fill:#f53003;fill-opacity:1;stroke-width:0.343298;paint-order:markers stroke fill;stop-color:#000000"
         x="7.0900912"
         y="64.696495"
         id="text6893"
         transform="matrix(0,1.0052058,-0.99482119,0,0,0)"><tspan
           sodipodi:role="line"
           id="tspan6891"
           style="stroke-width:0.343298;fill:#f53003;fill-opacity:1"
           x="7.0900912"
           y="64.696495">seeder</tspan></text></g></g></svg>
