<?xml version="1.0" encoding="UTF-8" standalone="no"?>
<!-- Created with Inkscape (http://www.inkscape.org/) -->

<svg
   width="80mm"
   height="80mm"
   viewBox="0 0 80 80"
   version="1.1"
   id="svg5"
   xml:space="preserve"
   inkscape:version="1.2.2 (b0a8486541, 2022-12-01)"
   sodipodi:docname="mimesis.svg"
   xmlns:inkscape="http://www.inkscape.org/namespaces/inkscape"
   xmlns:sodipodi="http://sodipodi.sourceforge.net/DTD/sodipodi-0.dtd"
   xmlns="http://www.w3.org/2000/svg"
   xmlns:svg="http://www.w3.org/2000/svg"><sodipodi:namedview
     id="namedview7"
     pagecolor="#ffffff"
     bordercolor="#000000"
     borderopacity="0.25"
     inkscape:showpageshadow="2"
     inkscape:pageopacity="0.0"
     inkscape:pagecheckerboard="0"
     inkscape:deskcolor="#d1d1d1"
     inkscape:document-units="mm"
     showgrid="false"
     showguides="true"
     inkscape:zoom="1.9565861"
     inkscape:cx="26.576904"
     inkscape:cy="74.619769"
     inkscape:window-width="1920"
     inkscape:window-height="1135"
     inkscape:window-x="0"
     inkscape:window-y="0"
     inkscape:window-maximized="1"
     inkscape:current-layer="text4500"><sodipodi:guide
       position="149.58401,97.417326"
       orientation="0,-1"
       id="guide351"
       inkscape:locked="false" /></sodipodi:namedview><defs
     id="defs2" /><g
     inkscape:label="Réteg 1"
     inkscape:groupmode="layer"
     id="layer1"><path
       opacity="0.393"
       fill="url(#logo-full_svg__linearGradient6295)"
       d="m -86.134718,194.21601 16.594402,16.82538 a 2.1664083,2.1664083 0 0 0 1.554427,0.65326 2.1849292,2.1849292 0 0 0 1.562629,-0.65326 l 21.687632,-21.99349 c -10.195984,12.63518 -27.951113,17.32492 -41.39909,5.16758 z"
       id="path2957"
       style="stroke-width:0.264583" /><g
       aria-label="{:}"
       transform="rotate(-90)"
       id="text4500"
       style="font-weight:bold;font-size:55.0448px;font-family:'Latin Modern Sans';-inkscape-font-specification:'Latin Modern Sans, Bold';fill:#c7ff00;stroke-width:0.810439;paint-order:markers stroke fill;stop-color:#000000"><path
         style="fill:#6c3e11;stroke-width:0.0651566;fill-opacity:1"
         d="m -77.957021,41.730544 c 0.0227,-4.065675 6.75641,-2.949449 4.22397,-0.277944 -4.03225,0.126891 2.2684,3.20673 2.19478,-0.561659 1.85436,-3.326329 5.45558,-6.597906 9.62632,-6.58929 3.33339,-1.26257 2.397,-6.672905 6.0661,-8.474176 1.26289,-1.597699 8.22371,-1.098286 3.82437,-2.73432 -3.20989,-1.001912 -6.40019,-2.070211 -9.64683,-2.952649 -3.26693,-1.613031 -6.6681,-5.622209 -3.96839,-9.234323 2.15013,-4.5533634 9.70278,0.952507 4.77963,3.278059 -1.24767,-0.373133 0.18611,-4.2264488 -1.93045,-1.43149 0.20288,2.564435 4.80013,4.428039 6.64741,3.21275 -1.24173,-2.744366 -1.41543,-6.1959238 -0.0456,-8.9897974 0.33406,-2.839353 5.09451,-6.73493998 6.5783,-5.283472 -3.01137,0.05572 -5.72239,3.706303 -5.56177,4.63774 -1.47877,1.868444 0.20449,1.477439 -0.26378,2.4125076 -1.46535,-0.1144496 -1.2545,2.9012158 -0.15806,1.244189 1.63642,2.0268708 -2.23953,1.1993448 -0.0447,3.0010828 -1.16499,0.314658 -0.17342,1.607878 0.2533,3.133041 0.36225,-2.103982 2.24624,0.959074 0.78549,1.08091 0.84475,1.16349 1.39184,2.410204 2.78468,1.533301 -0.56411,1.136 3.57567,4.653647 4.01728,3.682508 0.49188,1.443279 5.89115,1.375323 5.58969,2.838107 -1.03313,-1.125732 -5.07581,-1.268207 -2.16395,0.117215 0.59732,-0.337767 1.83291,1.614905 2.99902,2.010404 0.27754,1.083457 1.37185,4.32418 -1.24113,4.920574 -2.4911,1.996339 -6.53616,1.931511 -9.78757,2.541517 -4.10979,-0.02362 -8.23412,-0.60473 -12.31667,0.545896 -3.20029,1.115164 -5.61067,4.056027 -6.80413,7.064622 -1.63943,2.837188 -6.65782,-0.945489 -3.09128,-2.08851 2.78606,2.051563 -0.88148,-3.279405 -1.97774,0.06073 -2.369,3.295577 3.59713,7.509026 6.30347,4.220989 2.30337,-2.651064 5.24669,-4.916564 9.05317,-4.457337 5.0587,0.05278 10.1558,0.730147 15.18548,0.285798 1.43352,-1.999265 5.49508,-1.195571 7.70528,-3.091832 -1.7781,1.562766 3.18663,0.03673 0.008,1.161438 -2.22611,0.810335 -6.78938,1.964959 -6.82831,2.989012 1.2412,-1.294732 0.14194,2.294114 -0.79944,-0.03499 -2.37395,0.337533 -2.01008,2.220218 -3.97471,1.722571 -0.88747,2.314771 -3.10214,1.394086 -5.27749,3.230629 -1.00364,0.910791 3.66075,-0.852913 0.78248,1.034821 -1.25694,0.01648 -2.01016,-1.28252 -2.03158,0.808513 -1.13422,-1.205463 -3.19924,2.090927 -4.44822,2.869829 1.95344,-0.182017 -1.48039,2.675671 1.02325,2.081014 -2.04038,-0.840241 -2.29968,3.838939 -2.16753,0.362364 0.40129,-1.360799 2.46998,-2.995629 0.0504,-1.392029 -0.15163,1.437629 -1.57971,2.391761 -0.78593,3.57399 -2.14492,0.893332 -2.18425,4.550592 -0.52998,4.005808 -0.0521,1.371979 -1.20243,1.607009 0.3382,3.518872 0.57904,-1.39931 1.70602,2.8215 2.77568,3.419129 -0.0142,2.198294 6.25886,2.11707 7.06558,-0.429207 2.35211,-3.350714 -4.40773,-6.459359 -3.77958,-3.476247 4.02986,-2.076732 2.58521,6.669773 -0.86724,3.234998 -2.71417,-1.680262 -3.92954,-5.552109 -2.29922,-8.163448 1.32434,-3.248338 4.63222,-5.056942 7.30452,-7.075282 3.04045,-1.582404 5.96265,-3.444519 9.17274,-4.890009 2.47977,-1.27973 5.03315,-3.367083 7.35009,-4.541588 1.48633,-0.229029 3.0402,-3.161603 5.74972,-1.786801 1.15221,-0.30709 -2.91097,-0.858828 -0.11288,-1.567524 1.45854,-0.488672 3.23764,4.344764 1.92892,1.062501 2.338028,-1.15321 -2.07586,-1.67973 0.66196,-2.376872 0.86786,-0.733175 -0.85417,-0.846602 0.0665,-1.105199 -0.20382,-2.168121 -0.0504,-0.654621 0.84692,0.174652 0.959945,-1.324147 0.276802,-0.754471 1.672551,-0.06154 -3.473791,2.014739 2.230238,-0.904956 3.397813,0.718636 3.974188,1.018871 1.886285,5.764856 0.218179,6.817454 3.541595,0.446279 5.634511,-5.865169 2.099312,-7.505306 -0.903909,-3.033132 -5.966857,-0.136487 -5.968873,-1.589309 3.034626,-1.611104 7.988613,0.54593 8.618694,4.044437 2.18003,2.162897 -3.192405,4.278052 -0.04366,5.702015 -2.556023,-2.389717 -2.541337,2.424046 -2.878537,1.586996 -2.190578,-1.807588 -0.496994,6.641474 -2.157195,2.635548 -1.949338,-0.547216 1.694855,1.845226 -1.447072,1.018235 -0.04684,-2.870502 -3.535192,-0.85493 -1.329706,0.780568 2.203744,-0.63001 2.134524,4.773162 1.029339,1.816479 -1.822407,-0.236895 2.092167,2.808226 -0.625951,2.990737 -2.078805,0.871901 0.220173,1.875085 -0.87572,3.608969 1.315098,2.258327 3.149042,1.002377 2.948099,1.063065 -1.612362,1.679485 -0.860585,6.214397 2.230594,5.296894 0.289851,1.39029 -0.997654,2.429808 1.46545,1.423738 1.013001,1.750662 2.061611,-0.994874 -0.291327,-0.48868 -1.038038,-2.265659 -1.464974,-1.274892 -2.907393,-2.944969 -2.02155,2.341096 -0.266672,-3.862517 0.1521,-1.350055 0.697111,1.531383 2.754308,2.23636 3.514896,1.0969 0.940939,0.284922 -1.014135,3.070912 1.689137,2.315379 -1.992965,-1.15988 -0.0479,-1.275867 1.143749,-0.981621 1.071178,0.616479 0.07073,1.957344 -1.083243,2.854478 2.225948,0.248984 1.576692,-2.320015 2.914389,-1.619136 1.903198,0.223766 2.263147,-1.686001 3.9256375,-0.764918 2.07649,-0.680327 1.772262,-1.738759 0.683074,-2.430038 0.408641,-0.423769 0.0076,-1.195332 1.491232,-0.136629 1.363931,1.683659 3.352488,-3.463829 3.864659,-4.898824 0.776931,-3.287079 1.351484,-6.760184 0.483647,-9.886694 0.127422,-3.826101 -2.324262,-7.488518 -4.411122,-10.724298 -1.911404,-3.210225 -5.4579615,-4.357107 -8.1618555,-6.493978 -2.317531,-1.274575 -0.688345,-6.673979 -4.916168,-4.786408 -1.407129,0.82949 -4.307377,0.987486 -4.066397,1.89408 -3.169582,-1.651145 -6.471402,-2.542869 -9.398152,-4.681194 -3.35526,-2.10676 -6.92745,-2.990734 -10.58615,-4.274649 -3.54399,-0.635622 -6.55206,-3.161126 -7.72322,-6.340853 -0.57807,-3.0849544 1.10782,-7.4647034 4.84622,-8.0561084 3.38232,-0.255514 5.68105,3.426218 2.18425,5.051462 -2.62509,1.1415356 -1.11065,-4.661572 -2.76771,-1.293035 1.20018,5.4861274 8.25534,-1.173533 5.7749,-1.871535 0.38963,-0.396724 -2.34114,-4.87534398 -5.07161,-4.168688 -2.28152,0.235055 -2.61423,-0.79472998 -0.0983,-0.53893698 3.89283,-0.437979 8.43485,5.21287598 4.74127,8.20416258 -2.82979,1.8844908 3.74471,0.458085 4.58885,2.5924868 2.87595,1.959986 5.23425,-4.3254334 1.69308,-2.7928524 0.008,4.9159964 -4.79198,-2.237809 -0.2696,-2.736652 4.26114,-1.530602 7.1723,4.5719534 3.66342,7.2176474 -2.49259,4.103904 -8.39867,-0.790783 -9.83097,3.999412 2.56717,2.09556 7.70179,2.935449 10.83639,5.277593 2.32404,2.084494 5.231058,2.587933 7.418179,0.114356 4.667103,-1.125656 8.393949,2.377519 9.233298,6.436305 2.456115,2.162309 5.8225095,3.489722 7.8655375,6.232739 2.774178,3.304355 4.6081,7.374603 5.447604,11.591746 0.449997,3.914091 -0.17771,7.989258 -1.384301,11.724614 -1.813333,4.31893 -5.685508,8.032797 -10.3088815,8.983887 -4.270231,0.660671 -8.831946,-0.496847 -12.306829,-2.892811 -3.186207,-2.828622 -5.852917,-6.69931 -5.743747,-11.107516 -0.932,-2.337653 1.46288,-7.191601 -0.41426,-7.974838 -2.92196,2.400942 -5.91546,4.902501 -8.30859,7.928191 -2.83505,3.439087 -5.02104,7.484245 -5.46576,11.962541 -0.45618,4.119373 2.15526,10.046864 7.12895,8.939864 4.37143,-0.729631 0.10394,-7.432129 -1.45566,-3.484973 3.98092,2.535503 -3.6583,2.218604 -1.99737,-1.250129 2.01341,-5.039531 9.80811,-1.468143 8.28798,3.353354 -0.80117,4.217643 -5.67902,6.932615 -9.61596,5.113549 -4.66159,-1.594645 -7.58135,-6.504921 -7.9236,-11.251994 -0.46139,-3.810647 0.12276,-7.697698 1.43114,-11.228417 0.29999,-2.537913 2.7415,-4.834414 3.19621,-6.805849 -3.6216,1.36622 -6.82794,3.819037 -9.97298,5.980687 -3.0538,2.653014 -4.83665,8.193544 -0.55825,10.670628 3.26197,2.69603 3.2872,-5.067102 0.28999,-1.514021 -2.34623,-4.21119 5.36151,-3.561906 4.88662,0.414434 0.56089,5.212007 -6.37062,6.057863 -9.44735,3.147748 -2.63994,-2.234647 -3.46349,-6.060322 -3.20921,-9.358458 0.70515,-3.603639 2.522,-6.951255 5.50951,-9.117049 0.9624,-2.049392 8.74924,-4.455022 3.54155,-5.113559 -3.13478,-0.03759 -6.63028,-1.524089 -9.46454,0.487679 -3.38011,2.030571 2.60301,5.376891 2.07287,2.295224 -1.01844,0.808038 -3.00472,-0.490582 -1.19092,-1.936021 4.62116,-2.112511 5.27309,6.300972 0.52066,6.317451 -3.36257,0.325443 -5.63336,-2.828651 -6.13062,-5.826792 -2.90132,2.936629 -7.50509,0.04895 -7.73122,-3.489115 z m 9.25747,4.755691 c 1.1594,-0.165706 0.31158,2.120693 -0.0181,0.240101 -0.90527,1.907682 1.97868,1.028176 1.37887,2.152671 1.86712,3.037507 7.76084,0.470936 5.8115,-2.770196 0.0772,-1.915105 -4.49888,-1.045613 -1.95384,-7.27e-4 3.46603,2.165467 -2.66162,3.899239 -3.24403,1.20105 -0.59643,0.922889 -0.96635,-2.828991 -0.25058,-0.753813 0.19993,-1.79156 -0.30905,-5.000496 -1.56692,-1.822358 0.0915,0.259432 -0.94141,1.736744 -0.15686,1.753273 z m 1.91977,-3.553167 c -0.87273,3.488418 3.69422,-1.855588 0.0724,-0.397026 l -0.21716,0.182841 z m 0.64317,-29.063356 c 0.25202,2.39616 1.6723,2.707824 0.81677,0.402582 1.12717,-0.759136 -1.3341,-1.133079 -0.81677,-0.402582 z m 0.56468,-1.163848 c 1.54196,-1.682178 0.25027,4.426647 3.468,4.496328 -2.33271,1.831742 4.35,4.40603 3.53346,1.529802 2.01377,-0.222753 4.41758,1.929253 6.24893,1.792006 -2.69657,-2.35862 -5.76648,-3.930903 -9.15169,-4.758727 -3.28005,-0.716386 -1.67473,-6.5658648 0.88767,-3.691729 1.04195,1.013674 -1.6735,1.553201 0.40717,1.151196 2.20422,-5.1316044 -5.78682,-3.7407478 -5.39354,-0.518876 z m 0.84052,30.287501 c 2.85913,0.05301 -0.91807,-2.813389 0,0 z m 0.57162,-25.921641 c 0.64147,2.026976 1.0837,-1.712379 -0.48451,-0.124495 l 0.17549,0.178348 z m 4.94641,25.605383 c -0.34731,-1.666565 -2.00166,0.409114 -3.05234,0.07232 0.96451,0.261985 2.05502,-0.07798 3.05234,-0.07232 z m -0.0895,-9.31123 c 0.9025,0.314174 0.94317,-1.965384 2.57494,-0.823229 2.81167,0.654381 -1.46855,-2.989197 1.35352,-1.383504 4.77429,0.401555 -3.51224,-2.018346 0.14632,-1.787526 -0.7579,-2.268453 3.81879,3.17777 2.38043,-0.549442 1.8073,0.353535 1.88188,-0.899158 3.71644,0.435391 1.73847,-0.423235 0.13941,-2.921462 -0.11712,-0.883834 -1.5014,-2.345163 -3.40073,1.47195 -2.5705,-1.723183 -0.9846,0.187991 -3.00034,-1.270109 -0.54984,-0.685507 0.37382,-1.931988 -4.8361,1.037183 -1.19876,0.763324 -0.831,1.034196 -3.78282,-0.647581 -1.12288,0.857195 -2.23546,-0.678858 -3.35608,1.217933 -2.86803,2.887242 -2.15496,-0.907264 -0.30094,1.431235 0.93276,0.807709 -0.57604,1.421137 -3.17308,-0.535363 -2.67728,2.085364 z m 1.26764,-12.846723 c 2.20086,1.006474 7.04018,0.928433 6.87442,2.107368 4.01435,2.05693 -0.19907,-2.777822 -1.22796,-1.316269 -2.00016,0.448756 -5.78476,-3.788296 -5.98312,-0.85038 z m 0.43313,22.699251 c 2.36624,0.394417 1.99428,-0.590371 0.30054,-1.184978 -0.44319,0.361309 1.11983,0.980391 -0.30054,1.184978 z m 5.05114,-9.131899 c 2.17108,-0.351767 8.41403,-0.04027 7.36905,-2.690087 -2.77715,-2.248025 -10.98972,-0.481106 -9.36339,2.700321 0.66479,-0.0065 1.32969,-0.06151 1.99434,-0.01023 z m 0.90586,-22.783101 c 0.42167,3.246749 3.2679,4.553622 4.30856,0.949587 1.80189,-0.983224 3.59625,-2.6467718 0.32458,-2.5647748 -3.39816,-0.418517 -0.70332,-6.2195456 0.43053,-2.8400916 0.25406,3.1745844 4.31147,-2.081925 0.70416,-2.411946 -4.02176,-1.890769 -6.78976,3.5935 -5.76783,6.8672254 z m -0.0624,13.982618 c -0.23201,1.771408 4.37043,-1.278622 1.39379,-0.548491 -0.46865,0.04585 -1.16971,0.0022 -1.39379,0.548491 z m 0.32557,1.547689 c 1.59627,-0.08785 5.94853,0.673512 3.31216,1.807486 0.39148,1.50665 -0.43091,1.523848 1.73927,1.073928 0.49588,-1.104776 -0.91751,-1.963975 1.02713,-1.455893 -1.58803,-1.426751 -3.71601,-2.088174 -4.54448,-2.569286 -0.28297,-0.0506 -2.24687,0.920023 -1.53408,1.143765 z m 0.0871,34.704583 c 2.50679,1.657285 -0.80748,2.40683 0.99635,4.156489 0.24272,1.099916 1.13786,2.157426 -0.37551,3.104102 0.87445,2.317859 1.87242,5.166877 3.61863,6.246062 1.54614,1.421711 4.97026,4.712232 7.20939,1.902015 3.32542,1.662757 7.41534,-5.481523 4.04804,-8.064454 -1.42469,-2.303898 -7.3801,-0.87599 -5.25735,1.835394 2.35218,-5.129714 7.44601,2.595856 2.4947,4.109306 -4.3948,1.189031 -7.95377,-3.272782 -7.90884,-7.334263 -0.79853,-5.46465 1.89739,-10.771822 5.50116,-14.683626 1.56572,-2.353177 3.66774,-4.524975 5.64609,-6.176538 1.40951,-1.665873 3.67892,-3.594037 4.12401,-4.279768 -1.07303,0.05599 -5.64717,-0.923089 -2.86251,1.182001 -2.67249,-1.493613 -4.92693,1.874816 -6.89427,2.133305 0.69264,0.03499 -1.2225,3.411079 -1.28583,1.713041 -2.04515,0.04768 -2.02812,4.185362 -2.4731,0.620679 -0.53279,2.374944 -0.78472,-0.341898 -1.8941,1.932927 0.12947,0.711746 4.03316,0.988934 0.92422,1.147799 -1.69967,1.65589 -0.79635,-1.822315 -1.96967,0.639318 -0.52844,0.965694 -0.97775,1.728393 0.22081,1.250115 0.83989,1.840883 -2.79763,-0.808685 -1.45784,1.65716 0.89259,0.748281 -1.94731,0.5104 -0.3029,2.022946 0.64805,-1.678822 1.52175,-0.792089 0.38198,0.310809 -0.49957,1.283778 -1.76016,-1.672209 -1.45255,0.803079 -0.26327,0.900368 -0.17218,2.774778 -1.03091,3.772102 z m 3.09578,-46.090377 c 2.27882,2.203484 2.83791,-2.163084 5.36407,-0.05182 0.74093,-3.011642 4.53353,-0.542972 5.10769,-1.004312 -1.22602,-0.467983 2.85858,0.515181 3.32265,-1.162445 4.11553,-1.58146 1.9821,-8.5033864 -2.2681,-6.6158564 -2.33114,0.03476 -1.42334,3.8073174 -0.94783,2.5203296 1.6744,-4.4749756 5.84869,2.2056028 1.50411,2.7404408 -2.40022,0.505576 -5.63975,-1.9710098 -7.01651,-1.219416 2.38801,0.595051 -3.97729,3.217834 -0.38539,0.793402 -0.25796,-1.221506 -2.79381,0.862869 -3.18205,1.538655 0.38941,0.422188 -0.22146,1.123675 -0.60332,1.48441 -0.48917,0.07851 -1.41006,0.28751 -0.89532,0.976612 z m 2.68493,1.30301 c 1.03017,0.559685 2.32033,0.260136 0.87785,-0.158126 2.87521,-1.233217 -2.28316,-0.940587 0.76076,-0.392449 -0.13968,0.09819 -2.56441,0.168349 -1.63861,0.550575 z m 3.49649,53.918952 c 1.89046,2.222584 1.68587,0.917117 0.0552,-0.679282 l -0.0884,0.134033 z m 11.16488,-14.491969 c 0.33692,1.54625 2.8334,1.483469 1.40632,0.04481 0.24679,0.844634 -1.18165,-2.574272 -1.74085,-0.555659 z m 0.13599,-3.002373 c 1.88791,1.461418 -0.61426,-4.304586 -0.0912,-0.513969 z m 1.85919,1.314535 c 0.64052,0.229677 0.57022,2.683986 0.75141,0.465145 3.011064,-0.07497 -1.05485,-2.319928 -0.75141,-0.465145 z m 1.19072,1.50128 c -0.41981,1.974067 2.769588,6.685819 3.847012,4.825456 -1.258171,-0.55809 -1.460845,-1.710181 -2.479095,-2.451843 0.455585,-1.697751 -1.367637,0.370185 -0.07556,-1.502962 2.147297,-0.09195 -1.629247,-2.375655 -1.292357,-0.870651 z m 0.34292,-15.51038 c 1.845699,2.953655 7.919087,2.122743 6.710659,-1.567733 -0.988309,-3.474139 -7.276799,-2.574528 -6.744739,1.044379 z m 1.904544,-1.246147 c 3.218774,-1.904083 3.777834,2.237729 0.309547,0.938037 -0.44316,-0.09306 -1.523216,-1.016569 -0.309547,-0.938037 z m -1.761424,12.256821 c -0.22074,2.121145 3.160925,2.95457 2.045543,1.035814 -0.775938,1.120027 0.0075,-0.928407 -0.846637,-0.130655 0.555109,-1.361594 -0.514,-2.069794 -1.355086,-1.040945 z m 0.866781,-26.567408 c 1.27511,-2.543207 6.17749,0.853129 6.258602,-1.250724 -1.742455,-1.30293 -6.330357,-1.380197 -6.258602,1.250724 z m 2.065613,0.420027 c 4.008294,0.13594 -1.371307,-1.109898 -1.109092,-0.08185 l 0.369021,0.04047 z m -0.606465,30.906291 c 1.335317,-1.981084 1.966158,2.771955 2.420992,-0.280688 -0.0049,-1.891636 -0.365986,2.611831 1.297588,0.326954 3.361899,-2.027701 -3.586665,4.489663 -3.048305,0.132511 -0.498756,0.358469 -0.801696,0.836084 -0.670275,-0.178777 z m 1.167664,-29.276206 c 0.855752,-0.788427 3.673474,1.969956 0.752627,0.815277 -0.273739,-0.131234 -0.993381,-0.332855 -0.752627,-0.815277 z m 1.161005,25.998237 c 2.618255,-0.984792 3.653421,3.742795 5.86895,2.904323 -0.564002,1.622833 -3.004,-0.528646 -2.506685,0.243109 -0.34861,-1.351259 -1.969669,-0.788756 -0.638926,-1.642981 -0.556785,-1.008579 -1.96207,-0.790541 -2.723339,-1.504451 z m 0.627818,6.950098 c 1.940788,-0.354937 -0.401677,-1.006483 0.323741,-1.262155 0.297349,-1.915551 2.375005,1.833697 3.740498,0.309362 -1.997417,1.948539 4.272614,2.702067 1.192512,3.343137 -0.716061,-0.722279 -2.91662,-1.600334 -2.693329,-2.043879 0.949516,1.047384 -2.725531,-0.428895 -2.563422,-0.346465 z m 2.116127,-10.124644 c 2.941774,0.727929 -0.627765,3.72343 0,0 z m 3.55183,7.313852 c -0.28136,-2.090186 2.548067,-4.694181 0.606992,-1.204098 -0.901961,2.047094 4.916294,3.740381 1.656606,4.27779 0.07231,-1.78916 -2.158571,-1.205657 -2.263598,-3.073692 z m 2.974673,5.333291 c 1.065042,0.681638 2.928817,-3.732396 1.968549,-0.509381 2.4515285,-0.180587 -1.396197,2.814379 -1.968549,0.509381 z m 6.0096435,-3.191616 c 1.150044,-1.728494 -0.101484,4.281188 -0.09951,0.508043 z"
         id="path27610" /></g></g></svg>
