<?xml version="1.0" encoding="UTF-8" standalone="no"?>
<!-- Created with Inkscape (http://www.inkscape.org/) -->

<svg
   width="80mm"
   height="80mm"
   viewBox="0 0 80 80"
   version="1.1"
   id="svg5"
   xml:space="preserve"
   inkscape:version="1.2.2 (b0a8486541, 2022-12-01)"
   sodipodi:docname="mockaroo.svg"
   xmlns:inkscape="http://www.inkscape.org/namespaces/inkscape"
   xmlns:sodipodi="http://sodipodi.sourceforge.net/DTD/sodipodi-0.dtd"
   xmlns="http://www.w3.org/2000/svg"
   xmlns:svg="http://www.w3.org/2000/svg"><sodipodi:namedview
     id="namedview7"
     pagecolor="#ffffff"
     bordercolor="#000000"
     borderopacity="0.25"
     inkscape:showpageshadow="2"
     inkscape:pageopacity="0.0"
     inkscape:pagecheckerboard="0"
     inkscape:deskcolor="#d1d1d1"
     inkscape:document-units="mm"
     showgrid="false"
     showguides="true"
     inkscape:zoom="1.3865007"
     inkscape:cx="341.50722"
     inkscape:cy="274.7925"
     inkscape:window-width="1920"
     inkscape:window-height="1135"
     inkscape:window-x="0"
     inkscape:window-y="0"
     inkscape:window-maximized="1"
     inkscape:current-layer="layer1"><sodipodi:guide
       position="149.58401,97.417326"
       orientation="0,-1"
       id="guide351"
       inkscape:locked="false" /></sodipodi:namedview><defs
     id="defs2" /><g
     inkscape:label="Réteg 1"
     inkscape:groupmode="layer"
     id="layer1"><path
       fill-rule="evenodd"
       d="m 3.4306549,24.794757 c 0,0 1.761557,6.165816 7.9271791,6.165816 6.165825,0 13.292208,-7.527071 15.934732,-10.409734 2.642327,-2.882472 9.048289,-11.4504765 16.174866,-11.4504765 7.12658,0 12.079086,7.8645665 14.813617,11.0501755 0.314591,0.366513 0.541179,0.775023 0.880586,0.860924 1.461089,0.368423 2.898698,0.9306 3.843615,0.980805 1.125119,0.05956 1.24118,-0.700575 2.082061,-1.201285 0.805373,-0.47914 1.921711,-1.040935 1.921711,-1.040935 0,0 -0.320316,-1.040935 -1.921711,-1.201094 -1.601586,-0.160159 -2.562347,-1.921711 -2.962647,-2.482172 -0.400492,-0.560649 -0.320509,-1.361252 0.480285,-0.720809 0.800792,0.640635 1.921711,0.240334 2.64252,0.720809 0.720618,0.480476 1.841537,1.521411 2.802488,2.802489 0.960952,1.281268 0.480477,-0.240143 1.201095,-0.08018 0.720618,0.160349 0.880776,0.320507 2.242029,1.361442 1.361252,1.040935 3.763436,2.161855 4.724393,3.042822 0.96095,0.88078 0.800788,1.040934 0.800788,1.521412 0,0.480284 -0.720804,0.720617 -1.441233,0.720617 -0.720811,0 -0.320512,-0.560649 -0.880966,-0.400495 -0.560462,0.16035 -1.601588,0.320316 -2.162047,0.240333 -0.560461,-0.08017 -1.12092,0.960762 -2.161855,0.720624 -1.040935,-0.240146 -1.201093,-1.04094 -1.761744,-0.08018 -0.56046,0.960949 -2.882472,3.283156 -3.843424,3.683455 -0.960951,0.400495 -1.441235,2.802678 -2.001886,3.042823 -0.56046,0.240146 -2.962647,0.880779 -3.683455,1.441234 -0.720619,0.560649 -2.762402,3.663413 -3.323052,4.544191 -0.56046,0.880967 -1.612085,2.437882 -2.001696,2.62248 -0.760705,0.360403 -1.492013,0.12618 -1.781788,-0.0601 -0.631281,-0.405841 -1.177232,-2.052473 -0.461959,-2.582777 0.09678,-0.08342 0.271067,-0.04964 0.273166,0.105567 -0.01374,0.510059 -0.04334,1.814427 0.969733,1.856807 0.959997,0.04011 0.800602,-3.203172 1.040744,-4.324089 0.240334,-1.120923 1.12111,-2.482173 1.040936,-3.123001 -0.07999,-0.640438 -2.322013,-1.280883 -2.722505,-1.280883 -0.400301,0 -1.441236,0.480284 -1.841537,1.521411 -0.400492,1.040746 -1.361252,1.76155 -1.361252,2.962644 0,1.201095 0.320316,9.528769 0.96076,10.649881 0.640634,1.120917 2.322204,1.2009 3.042823,1.441233 0.720617,0.240145 11.450477,3.683268 12.091111,3.76344 0.640635,0.08018 0.877149,-0.101175 1.281268,-0.16035 0.401256,-0.05858 2.339385,0.944724 3.077565,1.393514 0.180965,0.06543 0.104989,0.33769 -0.415,0.160919 -0.479712,-0.108041 -0.839544,0.02598 -1.06117,0.04711 -0.615436,0.05916 -0.120071,0.958093 -0.800793,0.880779 -0.720427,-0.0817 -3.443122,-1.281079 -4.243916,-1.361062 -0.8006,-0.08017 -8.647797,-1.361445 -9.768908,-1.681761 -1.120918,-0.320122 -4.403882,-0.560463 -4.884549,-0.8006 -0.480285,-0.240333 -0.960761,-0.880779 -1.601395,-3.202978 -0.640635,-2.322206 -2.402188,-8.007357 -2.882472,-8.56782 -0.480667,-0.560649 -2.002078,-3.84361 -2.002078,-4.404072 0,-0.560462 -0.720617,-0.320316 -1.36106,-0.640632 -0.640633,-0.320311 -4.564234,-2.642322 -5.4452,-3.603279 -0.880779,-0.96095 -3.843423,-4.083756 -3.843423,-4.083756 0,0 -9.448786,5.524996 -11.930959,6.405962 -2.482361,0.880778 -6.085638,1.921711 -9.2886229,0.720617 C 7.1423642,32.141806 3.1574874,28.473623 3.4306549,24.794749 Z"
       id="path2955"
       style="stroke-width:0.190892" /><path
       opacity="0.393"
       fill="url(#logo-full_svg__linearGradient6295)"
       d="m -86.134718,194.21601 16.594402,16.82538 a 2.1664083,2.1664083 0 0 0 1.554427,0.65326 2.1849292,2.1849292 0 0 0 1.562629,-0.65326 l 21.687632,-21.99349 c -10.195984,12.63518 -27.951113,17.32492 -41.39909,5.16758 z"
       id="path2957"
       style="stroke-width:0.264583" /><text
       font-family="'Waiting for the Sunrise', Arial, sans-serif"
       font-size="17.5591px"
       y="74.29409"
       x="2.0867765"
       fill-opacity="null"
       stroke-opacity="null"
       stroke-width="0"
       stroke="null"
       id="text2959">mockaroo</text></g></svg>
