<?xml version="1.0" encoding="UTF-8" standalone="no"?>
<!-- Created with Inkscape (http://www.inkscape.org/) -->

<svg
   width="80mm"
   height="80mm"
   viewBox="0 0 80 80"
   version="1.1"
   id="svg5"
   xml:space="preserve"
   inkscape:version="1.2.2 (b0a8486541, 2022-12-01)"
   sodipodi:docname="mostly-ai.svg"
   xmlns:inkscape="http://www.inkscape.org/namespaces/inkscape"
   xmlns:sodipodi="http://sodipodi.sourceforge.net/DTD/sodipodi-0.dtd"
   xmlns="http://www.w3.org/2000/svg"
   xmlns:svg="http://www.w3.org/2000/svg"><sodipodi:namedview
     id="namedview7"
     pagecolor="#ffffff"
     bordercolor="#000000"
     borderopacity="0.25"
     inkscape:showpageshadow="2"
     inkscape:pageopacity="0.0"
     inkscape:pagecheckerboard="0"
     inkscape:deskcolor="#d1d1d1"
     inkscape:document-units="mm"
     showgrid="false"
     showguides="true"
     inkscape:zoom="0.77473187"
     inkscape:cx="435.63459"
     inkscape:cy="527.92459"
     inkscape:window-width="1920"
     inkscape:window-height="1135"
     inkscape:window-x="0"
     inkscape:window-y="0"
     inkscape:window-maximized="1"
     inkscape:current-layer="layer1"><sodipodi:guide
       position="149.58401,97.417326"
       orientation="0,-1"
       id="guide351"
       inkscape:locked="false" /></sodipodi:namedview><defs
     id="defs2" /><g
     inkscape:label="Réteg 1"
     inkscape:groupmode="layer"
     id="layer1"><circle
       style="fill:#c7ff00;stroke-width:2;paint-order:markers stroke fill;stop-color:#000000;fill-opacity:1"
       id="path441"
       cx="39.934731"
       cy="39.728489"
       r="36.485447" /><path
       style="fill:#000000;stroke-width:0.14675"
       d="M 18.991098,40.127068 V 22.515297 l 5.532372,0.03845 5.53237,0.03845 1.482396,3.815502 c 0.815317,2.098526 3.030924,7.832275 4.92357,12.741666 2.307047,5.984317 3.482772,8.860298 3.567388,8.726311 0.06942,-0.10992 2.282187,-5.84367 4.917268,-12.741667 l 4.791055,-12.541812 5.612049,-0.03843 5.61205,-0.03843 V 40.12709 57.738841 H 56.853448 52.745279 L 52.707758,45.375148 52.670237,33.011456 51.02796,37.267207 C 49.304661,41.73292 45.819567,50.734161 44.124504,55.09734 l -0.997698,2.568126 -3.164362,0.03948 -3.164363,0.03948 -4.757803,-12.362721 -4.757802,-12.362722 -0.03752,12.359931 -0.03752,12.359928 H 23.099268 18.9911 Z"
       id="path387" /></g></svg>
