<?xml version="1.0" encoding="UTF-8" standalone="no"?>
<!-- Created with Inkscape (http://www.inkscape.org/) -->

<svg
   width="90mm"
   height="90mm"
   viewBox="0 0 90 90"
   version="1.1"
   id="svg5"
   xml:space="preserve"
   inkscape:version="1.2.2 (b0a8486541, 2022-12-01)"
   sodipodi:docname="synthcity.svg"
   xmlns:inkscape="http://www.inkscape.org/namespaces/inkscape"
   xmlns:sodipodi="http://sodipodi.sourceforge.net/DTD/sodipodi-0.dtd"
   xmlns="http://www.w3.org/2000/svg"
   xmlns:svg="http://www.w3.org/2000/svg"><sodipodi:namedview
     id="namedview7"
     pagecolor="#ffffff"
     bordercolor="#000000"
     borderopacity="0.25"
     inkscape:showpageshadow="2"
     inkscape:pageopacity="0.0"
     inkscape:pagecheckerboard="0"
     inkscape:deskcolor="#d1d1d1"
     inkscape:document-units="mm"
     showgrid="false"
     showguides="true"
     inkscape:zoom="1.456803"
     inkscape:cx="391.95416"
     inkscape:cy="116.69388"
     inkscape:window-width="1920"
     inkscape:window-height="1135"
     inkscape:window-x="0"
     inkscape:window-y="0"
     inkscape:window-maximized="1"
     inkscape:current-layer="text4500"><sodipodi:guide
       position="149.58402,107.41733"
       orientation="0,-1"
       id="guide351"
       inkscape:locked="false" /></sodipodi:namedview><defs
     id="defs2" /><g
     inkscape:label="Réteg 1"
     inkscape:groupmode="layer"
     id="layer1"><path
       opacity="0.393"
       fill="url(#logo-full_svg__linearGradient6295)"
       d="m -86.134718,194.21601 16.594402,16.82538 a 2.1664083,2.1664083 0 0 0 1.554427,0.65326 2.1849292,2.1849292 0 0 0 1.562629,-0.65326 l 21.687632,-21.99349 c -10.195984,12.63518 -27.951113,17.32492 -41.39909,5.16758 z"
       id="path2957"
       style="stroke-width:0.264583" /><g
       aria-label="{:}"
       transform="rotate(-90)"
       id="text4500"
       style="font-weight:bold;font-size:55.0448px;font-family:'Latin Modern Sans';-inkscape-font-specification:'Latin Modern Sans, Bold';fill:#c7ff00;stroke-width:0.810439;paint-order:markers stroke fill;stop-color:#000000"><rect
         style="font-variation-settings:normal;opacity:1;vector-effect:none;fill:#638ea7;fill-opacity:1;stroke-width:1.36936;stroke-linecap:butt;stroke-linejoin:miter;stroke-miterlimit:4;stroke-dasharray:none;stroke-dashoffset:0;stroke-opacity:1;-inkscape-stroke:none;paint-order:markers stroke fill;stop-color:#000000;stop-opacity:1"
         id="rect34367"
         width="85.652718"
         height="87.625038"
         x="2.1285055"
         y="1.2715679"
         transform="rotate(90)"
         ry="14.911655" /><path
         style="fill:#302451;fill-opacity:1;stroke-width:0.146815"
         d="m -84.965097,39.197307 c 1.834726,-0.9011 2.745378,-5.7864 2.540305,-1.28202 0.342775,3.5398 -0.667251,7.47086 0.573534,10.76316 11.04181,-0.0482 22.120326,-0.2637 33.173322,-0.0732 -1.299134,3.8879 -6.995502,2.14105 -10.24856,2.73173 -5.994936,0.19584 -12.062486,-0.26969 -18.011627,0.30584 3.511559,0.85305 7.566347,-0.4566 10.964127,0.76849 0.535179,3.88177 -5.785304,1.00077 -8.130032,1.93416 -1.673479,-0.37417 -4.496039,0.79843 -1.13408,0.81344 2.837525,0.75501 8.410273,-1.68574 9.350444,1.73393 -1.430429,3.39308 -7.278134,0.93022 -10.40714,1.7205 -3.723764,-0.74573 -7.533556,1.18981 -6.211032,5.53095 -0.287559,1.80703 0.935647,6.77655 2.179823,2.94608 1.311359,-0.47957 2.728049,2.19517 3.650133,-0.0602 1.19411,-0.41997 2.65469,2.1107 3.416106,2.3e-4 1.554233,0.42047 2.726604,1.17831 4.020742,-0.0796 1.344525,1.47559 5.244394,1.35688 3.660435,-1.92136 -0.323225,-4.25422 5.683233,-2.54129 8.406543,-2.97195 7.057823,0.0304 14.120517,-0.0706 21.174971,0.14005 -1.086521,3.26164 -4.897241,4.65695 -7.918492,5.66624 -2.889597,1.22865 -6.251628,-0.4372 -8.124767,-0.0259 -3.571382,0.5697 -0.976337,6.67939 -1.800652,9.39157 -0.169116,2.57784 0.499393,5.92992 -0.820428,7.54554 -1.909169,2.20831 -2.897375,1.78618 -4.807756,1.72038 0.865315,-0.80364 2.061427,-1.10962 0.437827,-1.83095 4.84081,-0.88221 -2.591225,-0.75812 -3.985738,-0.73383 -4.446964,-0.15074 -8.942399,0.26533 -13.354966,-0.34577 -2.938161,-1.70533 -6.896602,-4.11917 -5.968105,-8.06049 -0.231056,-2.59742 0.343362,-6.55578 -0.704056,-7.17483 0.04533,-3.07916 -1.07384,-5.78998 -0.636819,-8.82826 0.386849,-1.49758 3.125729,-1.86737 1.771708,-2.81902 0.253297,-1.0436 1.444325,-4.6945 -0.188022,-6.12906 -1.190505,-1.51399 -2.252053,-1.97073 -1.62821,-4.49007 0.168173,-2.56452 -1.586069,-4.78321 -2.160385,-4.91336 -2.621925,2.28783 0.127602,-1.62673 0.920847,-1.97231 z m 9.5668,42.42663 c 1.277656,-2.18891 0.159065,-5.04155 0.469208,-7.82667 0.543822,-1.819 -1.114522,-4.04588 -0.909006,-0.89608 0.245551,2.80966 -0.562171,6.27243 0.439798,8.72275 z m 8.78602,-0.0906 c 1.56898,-2.27823 0.133198,-4.28036 0.531675,-7.30188 0.72186,-1.79886 -1.053324,-4.54656 -1.048451,-1.2704 0.266247,2.75412 -0.507054,6.18526 0.516776,8.57228 z m 7.065046,0 c 0.642531,-1.35988 0.796256,-3.52653 3.375791,-2.67867 2.365451,-0.36635 -4.291434,0.87672 -2.838583,-1.80207 -0.297061,-1.24881 0.586678,-7.17339 -1.084987,-5.24748 -0.05884,3.22649 -0.140652,6.57374 0.547779,9.72822 z m -24.815347,-55.97868 c -0.03311,-1.93573 0.850414,-3.63955 1.043971,-5.07934 -1.231296,-0.85596 -0.561683,-4.718075 -0.467569,-6.736827 1.591533,-4.2784413 6.961752,-2.015761 10.39611,-2.604591 2.005943,-0.297579 7.399475,-0.342511 4.278239,2.39276 -4.28506,0.402483 -8.61338,-0.06307 -12.898329,0.307216 1.663105,1.064808 6.325502,0.150605 9.053704,0.427933 1.823726,-0.583712 6.791008,0.422416 3.824988,2.528098 -4.416187,0.365057 -8.862474,-0.0047 -13.286587,0.240089 2.396862,1.596002 6.903255,0.260178 10.055092,0.698812 6.374945,0.02673 12.76123,-0.159268 19.128714,0.106509 -1.413607,3.925921 -6.53087,2.963801 -9.813705,3.351431 -5.693453,0.28063 -11.455955,-0.29898 -17.100132,0.6032 -3.848015,1.36126 -1.870468,6.44272 -2.383198,9.54824 -0.311349,4.02244 5.79239,0.86509 8.322429,1.79504 17.977963,0.0321 35.964595,-0.28497 53.93708,0.21498 2.10563,-0.20119 7.022558,0.62544 3.386565,3.10514 -2.177444,3.49927 -5.957892,3.57878 -9.620384,3.17381 -6.57304,-0.19911 -13.192177,0.30443 -19.734614,-0.35182 -1.093082,-1.05567 0.371869,-3.9105 -2.616057,-3.20351 -10.743241,-0.34074 -21.504248,0.13192 -32.244843,-0.30723 -1.597468,-0.22748 -1.868147,-2.05239 -2.165931,-3.05252 -0.702552,-1.48565 -0.326175,-4.64147 -1.279558,-6.06869 1.068595,-0.7252 -0.511587,-0.26313 0.184015,-1.08873 z m 3.574922,-15.8694843 c 2.523535,-3.06636 6.917789,-1.350193 10.334529,-1.770107 3.36877,-0.708451 2.430512,3.9260593 -0.617263,2.6748673 -3.261109,-0.134552 -8.118124,0.394261 -10.324989,-0.309085 l 0.607723,-0.5956823 z m 0.178838,17.4563743 c 1.491981,-3.92674 4.439909,3.7028 0.316235,1.94594 -0.870518,-0.15913 -0.144431,-1.43167 -0.316235,-1.94594 z m 5.844564,-0.95106 c 3.085306,-0.36809 0.794826,5.34929 -1.246461,2.28708 -0.0034,-0.96151 -0.396077,-2.71953 1.246461,-2.28708 z m 5.162919,0 c 3.594904,-0.039 -0.284424,5.64574 -1.356012,2.00912 -0.04935,-0.97063 -0.17623,-2.44302 1.356012,-2.00912 z m -0.875582,14.61316 c 3.455504,-1.76199 1.801108,6.55373 -0.179807,1.94994 -0.15904,-0.62483 -0.282384,-1.41349 0.179807,-1.94994 z m 6.438072,-32.8690513 c 3.210416,-1.525463 4.333746,3.7940123 0.626209,2.6442483 -2.172946,1.273548 -5.446673,-1.9690913 -2.331883,-2.6524533 0.568588,-0.01481 1.137173,-3.02e-4 1.705674,0.0082 z m 0.05332,3.2200283 c 3.118624,-1.4531803 4.040742,3.548434 0.494263,2.535863 -2.111975,1.159094 -5.144321,-1.777938 -2.117582,-2.516049 0.540848,-0.02348 1.082174,-0.01877 1.623319,-0.01981 z m 0,3.079638 c 3.301026,-1.551654 3.98608,3.999055 0.408811,2.611934 -2.138388,0.71965 -5.577927,-2.009247 -1.832051,-2.507867 l 0.662414,-0.07691 z m -2.69365,26.575905 c 3.828068,-1.84739 0.863704,7.05831 -0.07548,1.67568 -0.0034,-0.55834 -0.04829,-1.1248 0.07548,-1.67568 z m 2.512495,-14.61968 c 4.374264,0.54065 -1.55183,5.55693 -1.358632,1.53164 -0.118399,-0.96187 0.122067,-1.84585 1.358632,-1.53164 z m 1.720973,25.724 c 3.353996,-0.25523 0.360658,4.42633 -1.426596,1.85826 -0.189526,-1.09355 -0.0465,-2.26926 1.426596,-1.85826 z m -0.679332,3.33843 c 3.966425,-1.17351 2.575846,7.02639 -0.588754,5.01974 0.06123,-1.29587 -0.945375,-4.59786 0.588754,-5.01974 z m 1.106071,-14.57004 c 2.746977,0.53571 0.348982,6.16096 -0.897883,2.33023 -8.22e-4,-0.73834 -0.512123,-2.65074 0.897883,-2.33023 z m 2.325432,-32.7021413 c 2.645158,-2.088639 6.708763,3.2289103 2.146951,2.6304253 -2.131128,0.58092 -2.682089,-0.9262483 -2.146951,-2.6304253 z m 1.187951,18.2116113 c 4.572003,0.49921 -1.562035,5.62631 -1.403949,1.54178 -0.129292,-0.99335 0.151958,-1.85984 1.403949,-1.54178 z m 0.951063,-15.037723 c 3.516619,-0.9462 2.348816,4.144477 -0.717543,2.533696 -2.614007,0.417294 -1.677554,-3.7056063 0.717543,-2.533696 z m 0,3.079638 c 3.516618,-0.946199 2.348814,4.144465 -0.717543,2.533687 -2.614009,0.417294 -1.677552,-3.705597 0.717543,-2.533687 z m -0.658384,26.448615 c 3.142164,0.95996 -0.481849,6.3779 -0.972011,1.72098 0.02305,-0.68512 -0.211778,-2.02829 0.972011,-1.72098 z m 0.748962,11.23161 c 3.527893,-0.15795 0.310027,4.26703 -1.515758,1.85826 -0.25609,-1.31339 0.05723,-2.12438 1.515758,-1.85826 z m 0,3.44195 c 3.239858,-10e-4 0.766941,8.54223 -1.337433,4.14533 0.284233,-1.22779 -0.930128,-4.54068 1.337433,-4.14533 z m 2.029974,-14.26596 c 3.196649,-2.54575 1.211018,6.75198 -0.177713,1.36395 l 0.05697,-0.62799 z m 2.589479,-14.89999 c 4.591127,0.43803 -1.595182,5.47622 -1.449602,1.49453 -0.178471,-0.97368 0.279674,-1.84567 1.449602,-1.49453 z m 0.160027,25.724 c 3.157659,-0.36728 1.025183,4.13659 -1.226307,1.95824 0.07807,-1.31046 -0.85501,-2.32332 1.226307,-1.95824 z m 0.06641,3.34328 c 3.082712,0.49395 2.029738,6.96382 -1.128858,5.00957 0.146997,-1.22262 -1.266141,-5.50743 1.128858,-5.00957 z m 1.837458,-14.57489 c 2.848744,-0.074 0.415919,5.93921 -1.087012,2.30883 -0.198734,-0.83392 -0.01505,-2.24929 1.087012,-2.30883 z m 3.37075,10.14468 c 3.38275,-0.20004 0.552695,5.79128 -1.426596,2.57297 0.0062,-1.07426 -0.441294,-3.07084 1.426596,-2.57297 z m -0.08318,4.52888 c 2.613974,-0.0895 2.276805,7.39773 -1.19937,4.92515 0.138249,-1.27917 -1.124993,-5.19668 1.19937,-4.92515 z m -1.063711,-28.84893 c 3.198091,-2.45675 3.586367,4.86168 0.0056,2.30702 -0.06998,-0.76515 -0.121499,-1.54308 -0.0056,-2.30702 z m 5.947501,28.84893 c 3.239859,-10e-4 0.76694,8.54223 -1.337434,4.14533 0.284234,-1.22779 -0.930127,-4.54068 1.337434,-4.14533 z m 0.09031,-4.49634 c 4.187238,0.79114 -1.55182,5.76653 -1.267822,1.58511 -0.09586,-0.85803 0.02859,-2.01432 1.267822,-1.58511 z m 1.087193,-24.66961 c 4.591126,0.43803 -1.595184,5.47622 -1.449603,1.49453 -0.178471,-0.97368 0.279674,-1.84567 1.449603,-1.49453 z m 3.713482,24.69412 c 4.424557,0.69838 -1.590574,5.80037 -1.358466,1.58511 -0.129949,-0.9178 0.11711,-1.99243 1.358466,-1.58511 z m 1.96e-4,4.47183 c 3.239858,-10e-4 0.766941,8.54223 -1.337433,4.14533 0.284233,-1.22779 -0.930128,-4.54068 1.337433,-4.14533 z m 1.902128,-29.16595 c 3.456553,-0.0659 0.356087,5.49382 -1.610785,1.96187 -0.473721,-1.03598 0.572038,-2.07671 1.610785,-1.96187 z m 5.60848,0 c 3.433658,-0.1213 0.421855,5.51923 -1.555176,2.00427 -0.474879,-1.03236 0.483826,-2.10806 1.555176,-2.00427 z m 5.434651,0 c 3.949359,-0.0947 -0.891938,6.21896 -1.403952,1.49451 -0.188429,-1.0252 0.166619,-1.79808 1.403952,-1.49451 z m 5.623132,0 c 3.420665,-0.24897 0.457503,5.25372 -1.426596,2.28708 -0.08053,-1.0928 -0.293903,-2.75983 1.426596,-2.28708 z"
         id="path34313" /></g></g></svg>
