<?xml version="1.0" encoding="UTF-8" standalone="no"?>
<svg
   id="Layer_2"
   viewBox="0 0 69.999999 90.000001"
   version="1.1"
   sodipodi:docname="testrail.svg"
   width="70"
   height="90"
   inkscape:version="1.2.2 (b0a8486541, 2022-12-01)"
   xmlns:inkscape="http://www.inkscape.org/namespaces/inkscape"
   xmlns:sodipodi="http://sodipodi.sourceforge.net/DTD/sodipodi-0.dtd"
   xmlns="http://www.w3.org/2000/svg"
   xmlns:svg="http://www.w3.org/2000/svg">
  <sodipodi:namedview
     id="namedview21904"
     pagecolor="#ffffff"
     bordercolor="#000000"
     borderopacity="0.25"
     inkscape:showpageshadow="2"
     inkscape:pageopacity="0.0"
     inkscape:pagecheckerboard="0"
     inkscape:deskcolor="#d1d1d1"
     showgrid="false"
     inkscape:zoom="3.8369093"
     inkscape:cx="109.4631"
     inkscape:cy="30.75392"
     inkscape:window-width="1920"
     inkscape:window-height="1135"
     inkscape:window-x="0"
     inkscape:window-y="0"
     inkscape:window-maximized="1"
     inkscape:current-layer="g21900" />
  <defs
     id="defs21862">
    <style
       id="style21860">.cls-1{fill:#65c179;}.cls-2{fill:#f5f1e3;}</style>
  </defs>
  <g
     id="Logos">
    <g
       id="g21900">
      <g
         id="g21876"
         transform="translate(-188.88639,7.3485339)">
        <rect
           class="cls-1"
           x="211.10432"
           y="47.573029"
           width="11.85403"
           height="11.85403"
           rx="0.90357"
           ry="0.90357"
           transform="rotate(-135,217.03135,53.500047)"
           id="rect21864" />
        <rect
           class="cls-1"
           x="222.58504"
           y="36.092339"
           width="11.85403"
           height="11.85403"
           rx="0.90357"
           ry="0.90357"
           transform="rotate(-135,228.51204,42.019354)"
           id="rect21866" />
        <rect
           class="cls-1"
           x="234.06572"
           y="24.611641"
           width="11.85403"
           height="11.85403"
           rx="0.90357"
           ry="0.90357"
           transform="rotate(-135,239.99273,30.538658)"
           id="rect21868" />
        <rect
           class="cls-1"
           x="211.3196"
           y="24.82691"
           width="11.85403"
           height="11.85403"
           rx="0.90357"
           ry="0.90357"
           transform="rotate(-135,217.24661,30.753923)"
           id="rect21870" />
        <rect
           class="cls-1"
           x="222.80029"
           y="13.34621"
           width="11.85403"
           height="11.85403"
           rx="0.90357"
           ry="0.90357"
           transform="rotate(-135,228.7273,19.27323)"
           id="rect21872" />
        <rect
           class="cls-1"
           x="211.53487"
           y="2.08078"
           width="11.85403"
           height="11.85403"
           rx="0.90357"
           ry="0.90357"
           transform="rotate(-135,217.46187,8.0077973)"
           id="rect21874" />
      </g>
      <g
         id="g21898"
         transform="matrix(0.2945742,0,0,0.2945742,5.7703122,66.823574)"
         style="fill:#a9b79b;fill-opacity:1">
        <g
           id="g21894"
           style="fill:#a9b79b;fill-opacity:1">
          <path
             class="cls-2"
             d="M 22.47607,14.94557 V 52.88551 H 14.4624 V 14.94557 H 0 V 7.93385 h 36.93799 v 7.01172 H 22.47608 Z"
             id="path21878"
             style="fill:#a9b79b;fill-opacity:1" />
          <path
             class="cls-2"
             d="m 26.85352,36.48268 c 0,-9.6416 6.51074,-17.0918 15.65137,-17.0918 9.5166,0 14.5874,7.19971 14.5874,16.21533 v 2.50391 H 34.05323 c 0.56348,5.63477 3.94385,9.07812 8.76465,9.07812 3.69385,0 6.63672,-1.87793 7.63818,-5.25879 l 6.44873,2.44141 c -2.31689,5.75977 -7.51318,9.20312 -14.08691,9.20312 -9.39062,0 -15.96436,-6.94922 -15.96436,-17.09131 z m 7.5752,-4.00684 H 49.5171 c -0.0625,-3.63135 -2.31641,-6.76172 -7.07471,-6.76172 -3.88184,0 -6.88672,2.31641 -8.01367,6.76172 z"
             id="path21880"
             style="fill:#a9b79b;fill-opacity:1" />
          <path
             class="cls-2"
             d="m 63.01514,42.11696 c 1.94092,3.19336 5.69727,5.32178 9.5166,5.32178 3.19287,0 6.13525,-1.12695 6.13525,-4.06934 0,-2.81738 -2.75488,-3.13037 -7.95117,-4.19482 -5.19629,-1.06445 -11.14404,-2.37891 -11.14404,-9.39111 0,-6.01025 5.25928,-10.39258 12.83447,-10.39258 5.75977,0 10.89355,2.56689 13.27295,6.19824 l -5.07129,4.57031 c -1.87842,-2.94287 -5.00879,-4.6333 -8.63965,-4.6333 -3.06787,0 -5.07129,1.37744 -5.07129,3.56885 0,2.37891 2.37891,2.81738 6.51123,3.69385 5.57178,1.18945 12.58398,2.37891 12.58398,9.8916 0,6.63672 -6.07324,10.89355 -13.52344,10.89355 -6.07275,0 -12.14551,-2.44141 -15.08789,-6.94922 l 5.63428,-4.50781 z"
             id="path21882"
             style="fill:#a9b79b;fill-opacity:1" />
          <path
             class="cls-2"
             d="m 90.87549,26.4026 h -4.57031 v -6.38574 h 4.57031 v -9.6416 h 7.3877 v 9.6416 h 6.88672 v 6.38574 h -6.88672 v 17.0293 c 0,2.94238 1.69043,3.25537 4.38232,3.25537 1.25244,0 1.94092,-0.0625 3.06787,-0.1875 v 6.32324 c -1.37744,0.25049 -3.25537,0.43799 -5.19629,0.43799 -6.26074,0 -9.6416,-1.94043 -9.6416,-8.63965 z"
             id="path21884"
             style="fill:#a9b79b;fill-opacity:1" />
          <path
             class="cls-2"
             d="m 116.83252,52.88551 h -8.01367 V 7.93385 h 17.96826 c 10.01709,0 16.27783,4.69531 16.27783,13.77344 0,7.07471 -3.88184,11.58252 -10.45557,13.14746 l 11.58203,18.03076 h -9.14014 L 124.09472,35.48072 h -7.26221 v 17.40479 z m 9.51611,-24.2915 c 5.75977,0 8.82764,-2.50439 8.82764,-6.88672 0,-4.44482 -3.06787,-6.88672 -8.82764,-6.88672 h -9.51611 v 13.77344 z"
             id="path21886"
             style="fill:#a9b79b;fill-opacity:1" />
          <path
             class="cls-2"
             d="m 144.02295,43.74489 c 0,-6.26074 4.6958,-9.01514 11.01904,-10.33008 l 9.07812,-1.87842 v -0.56348 c 0,-3.13037 -1.62793,-5.0708 -5.63477,-5.0708 -3.56836,0 -5.44678,1.62744 -6.32324,4.8208 l -7.07471,-1.62793 c 1.62793,-5.44678 6.44873,-9.7041 13.71094,-9.7041 7.88867,0 12.64648,3.75635 12.64648,11.33203 v 14.14893 c 0,1.87842 0.81396,2.44189 2.87988,2.19141 v 5.82227 c -5.44678,0.62598 -8.32666,-0.43848 -9.45361,-3.13037 -2.06592,2.31641 -5.50928,3.69385 -9.7666,3.69385 -6.26074,0 -11.08154,-3.81885 -11.08154,-9.7041 z m 20.09717,-6.44824 -7.07471,1.50244 c -3.19287,0.68848 -5.57178,1.69043 -5.57178,4.63281 0,2.56689 1.87793,4.00684 4.75781,4.00684 4.00684,0 7.88867,-2.12842 7.88867,-6.13525 v -4.00684 z"
             id="path21888"
             style="fill:#a9b79b;fill-opacity:1" />
          <path
             class="cls-2"
             d="m 184.53613,52.88551 h -7.5127 V 20.01686 h 7.5127 z"
             id="path21890"
             style="fill:#a9b79b;fill-opacity:1" />
          <path
             class="cls-2"
             d="m 197.01367,52.88551 h -7.5127 V 7.93385 h 7.5127 z"
             id="path21892"
             style="fill:#a9b79b;fill-opacity:1" />
        </g>
        <rect
           class="cls-2"
           x="176.89819"
           y="7.9338498"
           width="7.7631798"
           height="7.7006798"
           id="rect21896"
           style="fill:#a9b79b;fill-opacity:1" />
      </g>
    </g>
  </g>
</svg>
