<?xml version="1.0" encoding="UTF-8" standalone="no"?>
<!-- Created with Inkscape (http://www.inkscape.org/) -->

<svg
   width="43mm"
   height="20mm"
   viewBox="0 0 43 20"
   version="1.1"
   id="svg11464"
   inkscape:version="1.2.2 (b0a8486541, 2022-12-01)"
   sodipodi:docname="otdk37.svg"
   xmlns:inkscape="http://www.inkscape.org/namespaces/inkscape"
   xmlns:sodipodi="http://sodipodi.sourceforge.net/DTD/sodipodi-0.dtd"
   xmlns="http://www.w3.org/2000/svg"
   xmlns:svg="http://www.w3.org/2000/svg">
  <sodipodi:namedview
     id="namedview11466"
     pagecolor="#ffffff"
     bordercolor="#000000"
     borderopacity="0.25"
     inkscape:showpageshadow="2"
     inkscape:pageopacity="0.0"
     inkscape:pagecheckerboard="0"
     inkscape:deskcolor="#d1d1d1"
     inkscape:document-units="mm"
     showgrid="false"
     showguides="false"
     inkscape:zoom="3.6277338"
     inkscape:cx="65.054387"
     inkscape:cy="58.438686"
     inkscape:window-width="1920"
     inkscape:window-height="1135"
     inkscape:window-x="0"
     inkscape:window-y="0"
     inkscape:window-maximized="1"
     inkscape:current-layer="layer1" />
  <defs
     id="defs11461" />
  <g
     inkscape:label="Réteg 1"
     inkscape:groupmode="layer"
     id="layer1">
    <rect
       style="display:none;fill:#6284c5;stroke-width:0.0673603;-inkscape-stroke:none;paint-order:markers fill stroke;stop-color:#000000"
       id="rect11794"
       width="43"
       height="20"
       x="0"
       y="0" />
    <g
       id="g11846"
       transform="translate(-1.6988366,-0.97749054)">
      <rect
         class="cls-1"
         x="18.9263"
         y="2.9184947"
         width="0.14958824"
         height="16.768343"
         id="rect4508"
         style="fill:#ffffff;fill-opacity:1;stroke-width:0.0893439" />
      <polygon
         class="cls-1"
         points="290.57,256.42 290.57,252.65 306.69,252.65 306.69,256.42 300.63,256.42 300.63,279.07 296.63,279.07 296.63,256.42 "
         id="polygon4510"
         style="fill:#ffffff;fill-opacity:1"
         transform="matrix(0.08851375,0,0,0.09018148,-4.2041437,-16.180191)" />
      <path
         class="cls-1"
         d="m 23.523677,8.0407487 c 0,0.21103 0.0177,0.31113 0.0734,0.41123 0.0841,0.14609 0.25227,0.24259 0.43815,0.24259 0.18588,0 0.35051,-0.0965 0.4346,-0.24259 0.0558,-0.1001 0.0734,-0.2002 0.0734,-0.41123 v -1.43569 h 0.35406 v 1.53219 c 0,0.22815 -0.0558,0.40401 -0.1788,0.56092 -0.16464,0.21104 -0.42044,0.33547 -0.68332,0.33547 -0.26289,0 -0.52223,-0.12443 -0.68688,-0.33547 -0.12214,-0.15691 -0.17879,-0.32826 -0.17879,-0.56092 v -1.53219 h 0.35406 z"
         id="path4512"
         style="fill:#ffffff;fill-opacity:1;stroke-width:0.0893439" />
      <path
         class="cls-1"
         d="m 25.883457,8.6476687 c 0.28413,0 0.45939,-0.0459 0.62402,-0.17134 0.20359,-0.15331 0.31954,-0.40041 0.31954,-0.67817 0,-0.27776 -0.1195,-0.53567 -0.31954,-0.68628 -0.15401,-0.11813 -0.33989,-0.16773 -0.62402,-0.16773 h -0.15755 v 1.70352 z m -0.51249,-2.04351 h 0.49036 c 0.40363,0 0.63818,0.064 0.86566,0.23267 0.29121,0.21463 0.45231,0.55732 0.45231,0.95682 0,0.39951 -0.1611,0.73949 -0.47001,0.96404 -0.23456,0.17496 -0.44168,0.22817 -0.85592,0.22817 h -0.48418 v -2.3826 z"
         id="path4514"
         style="fill:#ffffff;fill-opacity:1;stroke-width:0.0893439" />
      <path
         class="cls-1"
         d="m 27.772347,7.7900487 c 0,0.26784 0.0841,0.47886 0.25934,0.6502 0.16463,0.16053 0.38592,0.25342 0.59924,0.25342 0.49037,0 0.87629,-0.3932 0.87629,-0.8964 0,-0.50322 -0.37885,-0.90002 -0.86566,-0.90002 -0.48684,0 -0.86921,0.3932 -0.86921,0.8928 m 2.08981,0.007 c 0,0.68628 -0.55056,1.23548 -1.23389,1.23548 -0.33635,0 -0.68332,-0.16052 -0.91523,-0.42114 -0.1965,-0.22186 -0.29475,-0.50051 -0.29475,-0.82517 0,-0.67185 0.55764,-1.22827 1.2268,-1.22827 0.66916,0 1.21618,0.56093 1.21618,1.2391"
         id="path4516"
         style="fill:#ffffff;fill-opacity:1;stroke-width:0.0893439" />
      <polygon
         class="cls-1"
         points="394.92,263.11 392.07,279.07 387.95,279.07 393.5,250.67 402.57,271.19 411.96,250.67 416.95,279.07 412.87,279.07 410.33,263.15 402.53,280.3 "
         id="polygon4518"
         style="fill:#ffffff;fill-opacity:1"
         transform="matrix(0.08851375,0,0,0.09018148,-4.2041437,-16.180191)" />
      <path
         class="cls-1"
         d="m 33.914307,6.3904287 -0.16817,-0.14248 0.48417,-0.49691 0.30183,0.21464 -0.61695,0.42475 z m 0.0734,0.87116 -0.36113,0.80712 h 0.7081 z m -0.50896,1.14711 -0.26288,0.57896 h -0.37884 l 1.15687,-2.53229 1.11528,2.53229 h -0.38592 l -0.24518,-0.57896 z"
         id="path4520"
         style="fill:#ffffff;fill-opacity:1;stroke-width:0.0893439" />
      <polygon
         class="cls-1"
         points="469.73,252.65 469.73,280.7 450.48,260.58 450.48,279.07 446.48,279.07 446.48,250.87 465.73,270.99 465.73,252.65 "
         id="polygon4522"
         style="fill:#ffffff;fill-opacity:1"
         transform="matrix(0.08851375,0,0,0.09018148,-4.2041437,-16.180191)" />
      <polygon
         class="cls-1"
         points="488.5,252.65 493.06,252.65 484.42,267.67 484.42,279.07 480.42,279.07 480.42,267.67 471.79,252.65 476.38,252.65 482.4,263.23 "
         id="polygon4524"
         style="fill:#ffffff;fill-opacity:1"
         transform="matrix(0.08851375,0,0,0.09018148,-4.2041437,-16.180191)" />
      <path
         class="cls-1"
         d="m 39.750017,7.7900487 c 0,0.26784 0.0841,0.47886 0.25935,0.6502 0.16463,0.16053 0.38592,0.25342 0.59924,0.25342 0.49036,0 0.87628,-0.3932 0.87628,-0.8964 0,-0.50322 -0.37883,-0.90002 -0.86566,-0.90002 -0.48682,0 -0.86921,0.3932 -0.86921,0.8928 m 2.08981,0.007 c 0,0.68628 -0.55055,1.23548 -1.23388,1.23548 -0.33636,0 -0.68332,-0.16052 -0.91523,-0.42114 -0.1965,-0.22186 -0.29475,-0.50051 -0.29475,-0.82517 0,-0.67185 0.55764,-1.22827 1.2268,-1.22827 0.66917,0 1.21618,0.56093 1.21618,1.2391"
         id="path4526"
         style="fill:#ffffff;fill-opacity:1;stroke-width:0.0893439" />
      <path
         class="cls-1"
         d="m 43.231267,7.1335187 c -0.10887,-0.18216 -0.18942,-0.23537 -0.35052,-0.23537 -0.19296,0 -0.33989,0.12536 -0.33989,0.2967 0,0.0784 0.0355,0.14699 0.11241,0.20021 q 0.0664,0.0469 0.3753,0.17495 c 0.37885,0.16052 0.54701,0.37515 0.54701,0.70342 0,0.43557 -0.31953,0.76112 -0.75059,0.76112 -0.25581,0 -0.47355,-0.11452 -0.6134,-0.31744 -0.077,-0.11452 -0.10887,-0.20742 -0.13277,-0.38597 l 0.3576,-0.0821 c 0.0176,0.14338 0.0319,0.20021 0.0664,0.26062 0.0593,0.11453 0.19296,0.18578 0.33635,0.18578 0.21775,0 0.38238,-0.16774 0.38238,-0.3968 0,-0.13617 -0.0558,-0.23898 -0.1611,-0.31473 q -0.0806,-0.0532 -0.39654,-0.18938 c -0.32573,-0.13888 -0.48063,-0.33548 -0.48063,-0.60331 0,-0.35713 0.30538,-0.63218 0.70103,-0.63218 0.28058,0 0.47355,0.12174 0.6311,0.40041 l -0.28412,0.17495 z"
         id="path4528"
         style="fill:#ffffff;fill-opacity:1;stroke-width:0.0893439" />
      <path
         class="cls-1"
         d="m 22.433187,12.286499 c 0.28413,0 0.45939,-0.0469 0.62403,-0.17135 0.20358,-0.15331 0.31865,-0.4004 0.31865,-0.67816 0,-0.27776 -0.1195,-0.53568 -0.31865,-0.68628 -0.15402,-0.11814 -0.3399,-0.16775 -0.62403,-0.16775 h -0.15755 v 1.70444 h 0.15755 z m -0.51249,-2.04351 h 0.49036 c 0.40363,0 0.63819,0.064 0.86568,0.23265 0.2912,0.21464 0.45229,0.55734 0.45229,0.95684 0,0.3995 -0.16109,0.73948 -0.47,0.96404 -0.23456,0.17495 -0.44168,0.22906 -0.85593,0.22906 h -0.48417 v -2.38259 z"
         id="path4530"
         style="fill:#ffffff;fill-opacity:1;stroke-width:0.0893439" />
      <rect
         class="cls-1"
         x="24.083984"
         y="10.243018"
         width="0.35405499"
         height="2.3825946"
         id="rect4532"
         style="fill:#ffffff;fill-opacity:1;stroke-width:0.0893439" />
      <path
         class="cls-1"
         d="m 25.717047,10.028349 -0.16818,-0.1424803 0.48418,-0.49691 0.30183,0.21464 -0.61694,0.4247503 z m 0.0734,0.87206 -0.36114,0.80712 h 0.70811 z m -0.50806,1.1462 -0.2629,0.57897 h -0.37882 l 1.15687,-2.5323 1.11527,2.5323 h -0.38592 l -0.24518,-0.57897 z"
         id="path4534"
         style="fill:#ffffff;fill-opacity:1;stroke-width:0.0893439" />
      <polygon
         class="cls-1"
         points="373.53,319.42 368.22,319.42 358.71,307.65 357.88,308.48 357.88,319.42 353.88,319.42 353.88,293 357.88,293 357.88,303.53 368.14,293 373.45,293 361.56,304.96 "
         id="polygon4536"
         style="fill:#ffffff;fill-opacity:1"
         transform="matrix(0.08851375,0,0,0.09018148,-4.2041437,-16.180191)" />
      <polygon
         class="cls-1"
         points="395.74,319.42 390.44,319.42 380.93,307.65 380.1,308.48 380.1,319.42 376.1,319.42 376.1,293 380.1,293 380.1,303.53 390.36,293 395.66,293 383.78,304.96 "
         id="polygon4538"
         style="fill:#ffffff;fill-opacity:1"
         transform="matrix(0.08851375,0,0,0.09018148,-4.2041437,-16.180191)" />
      <path
         class="cls-1"
         d="m 32.583947,9.7857687 c 0,0.12174 -0.0983,0.2218403 -0.21774,0.2218403 -0.11949,0 -0.21775,-0.1001003 -0.21775,-0.2245503 0,-0.11814 0.0983,-0.21824 0.21775,-0.21824 0.11949,0 0.21774,0.1001 0.21774,0.22184 m -0.67978,-9e-4 c 0,0.12175 -0.0983,0.2218503 -0.21775,0.2218503 -0.11949,0 -0.21775,-0.1001003 -0.21775,-0.2245503 0,-0.11814 0.0983,-0.21824 0.21775,-0.21824 0.1195,0 0.21775,0.1001 0.21775,0.22184 m -0.74706,1.6422103 c 0,0.26784 0.0841,0.47886 0.25935,0.6502 0.16463,0.16053 0.38592,0.25342 0.59923,0.25342 0.49037,0 0.87629,-0.39319 0.87629,-0.89641 0,-0.50321 -0.37884,-0.90001 -0.86566,-0.90001 -0.48683,0 -0.86921,0.39319 -0.86921,0.8928 m 2.08981,0.007 c 0,0.68538 -0.55055,1.23549 -1.23389,1.23549 -0.33635,0 -0.68332,-0.16053 -0.91523,-0.42116 -0.19649,-0.22184 -0.29474,-0.5005 -0.29474,-0.82516 0,-0.67184 0.55763,-1.22827 1.22679,-1.22827 0.66917,0 1.21619,0.56094 1.21619,1.2391"
         id="path4540"
         style="fill:#ffffff;fill-opacity:1;stroke-width:0.0893439" />
      <path
         class="cls-1"
         d="m 34.066557,11.335979 c 0.15755,0 0.2735,-0.0289 0.35405,-0.0857 0.0912,-0.064 0.14693,-0.18216 0.14693,-0.3039 0,-0.12175 -0.0522,-0.22186 -0.13984,-0.28227 -0.0806,-0.0605 -0.18235,-0.0821 -0.34698,-0.0821 h -0.12658 v 0.75391 z m 1.04888,1.2896 h -0.43106 l -0.66562,-0.97486 h -0.0628 v 0.97486 h -0.35405 v -2.38259 h 0.41335 c 0.30184,0 0.47001,0.0397 0.61695,0.13887 0.17172,0.11453 0.28059,0.33187 0.28059,0.56093 0,0.33187 -0.20712,0.59971 -0.51869,0.66824 l 0.72227,1.01455 z"
         id="path4542"
         style="fill:#ffffff;fill-opacity:1;stroke-width:0.0893439" />
      <rect
         class="cls-1"
         x="35.377441"
         y="10.243018"
         width="0.35405499"
         height="2.3825946"
         id="rect4544"
         style="fill:#ffffff;fill-opacity:1;stroke-width:0.0893439" />
      <polygon
         class="cls-1"
         points="312.99,358.42 307.68,358.42 298.18,346.66 297.34,347.49 297.34,358.42 293.34,358.42 293.34,332.01 297.34,332.01 297.34,342.54 307.6,332.01 312.91,332.01 301.03,343.97 "
         id="polygon4546"
         style="fill:#ffffff;fill-opacity:1"
         transform="matrix(0.08851375,0,0,0.09018148,-4.2041437,-16.180191)" />
      <path
         class="cls-1"
         d="m 23.832597,14.946849 c 0,0.26784 0.0841,0.47886 0.25934,0.65021 0.16464,0.16052 0.38592,0.25341 0.59925,0.25341 0.49036,0 0.87628,-0.39319 0.87628,-0.89641 0,-0.5032 -0.37885,-0.90001 -0.86566,-0.90001 -0.48684,0 -0.86921,0.39319 -0.86921,0.8928 m 2.08981,0.006 c 0,0.68539 -0.55056,1.23549 -1.23389,1.23549 -0.33635,0 -0.68332,-0.16052 -0.91523,-0.42114 -0.1965,-0.22186 -0.29475,-0.50051 -0.29475,-0.82517 0,-0.67185 0.55764,-1.22826 1.2268,-1.22826 0.66917,0 1.21618,0.56092 1.21618,1.23908"
         id="path4548"
         style="fill:#ffffff;fill-opacity:1;stroke-width:0.0893439" />
      <polygon
         class="cls-1"
         points="367.6,332.01 367.6,360.05 348.35,339.93 348.35,358.42 344.35,358.42 344.35,330.22 363.6,350.34 363.6,332.01 "
         id="polygon4550"
         style="fill:#ffffff;fill-opacity:1"
         transform="matrix(0.08851375,0,0,0.09018148,-4.2041437,-16.180191)" />
      <polygon
         class="cls-1"
         points="372.94,332.01 386.13,332.01 386.13,335.77 376.94,335.77 376.94,342.11 385.82,342.11 385.82,345.87 376.94,345.87 376.94,358.42 372.94,358.42 "
         id="polygon4552"
         style="fill:#ffffff;fill-opacity:1"
         transform="matrix(0.08851375,0,0,0.09018148,-4.2041437,-16.180191)" />
      <polygon
         class="cls-1"
         points="403.99,345.87 393.74,345.87 393.74,354.66 404.31,354.66 404.31,358.42 389.73,358.42 389.73,332.01 404.31,332.01 404.31,335.77 393.74,335.77 393.74,342.11 403.99,342.11 "
         id="polygon4554"
         style="fill:#ffffff;fill-opacity:1"
         transform="matrix(0.08851375,0,0,0.09018148,-4.2041437,-16.180191)" />
      <path
         class="cls-1"
         d="m 32.423737,14.853959 c 0.15756,0 0.27351,-0.0289 0.35406,-0.0857 0.0912,-0.064 0.14693,-0.18217 0.14693,-0.30391 0,-0.12174 -0.0522,-0.22184 -0.13985,-0.28226 -0.0806,-0.0605 -0.18234,-0.0821 -0.34698,-0.0821 h -0.12657 v 0.75392 z m 1.04889,1.2887 h -0.43106 l -0.66562,-0.97487 h -0.0628 v 0.97487 h -0.35406 v -2.3826 h 0.41336 c 0.30183,0 0.47001,0.0397 0.61694,0.13888 0.17172,0.11453 0.28058,0.33186 0.28058,0.56092 0,0.33188 -0.20712,0.59971 -0.51868,0.66826 l 0.72227,1.01454 z"
         id="path4556"
         style="fill:#ffffff;fill-opacity:1;stroke-width:0.0893439" />
      <polygon
         class="cls-1"
         points="442.88,345.87 432.62,345.87 432.62,354.66 443.2,354.66 443.2,358.42 428.62,358.42 428.62,332.01 443.2,332.01 443.2,335.77 432.62,335.77 432.62,342.11 442.88,342.11 "
         id="polygon4558"
         style="fill:#ffffff;fill-opacity:1"
         transform="matrix(0.08851375,0,0,0.09018148,-4.2041437,-16.180191)" />
      <polygon
         class="cls-1"
         points="470.68,332.01 470.68,360.05 451.44,339.93 451.44,358.42 447.44,358.42 447.44,330.22 466.68,350.34 466.68,332.01 "
         id="polygon4560"
         style="fill:#ffffff;fill-opacity:1"
         transform="matrix(0.08851375,0,0,0.09018148,-4.2041437,-16.180191)" />
      <path
         class="cls-1"
         d="m 39.676557,14.313779 c -0.22129,-0.18577 -0.40009,-0.26063 -0.63464,-0.26063 -0.47709,0 -0.85593,0.4004 -0.85593,0.90723 0,0.50682 0.37884,0.88918 0.85858,0.88918 0.23102,0 0.40362,-0.0748 0.6311,-0.27144 v 0.43197 c -0.20712,0.12174 -0.40982,0.17856 -0.63464,0.17856 -0.67005,0 -1.20998,-0.5501 -1.20998,-1.22467 0,-0.67455 0.55056,-1.24991 1.23388,-1.24991 0.22836,0 0.40008,0.0496 0.60985,0.17494 v 0.42477 z"
         id="path4562"
         style="fill:#ffffff;fill-opacity:1;stroke-width:0.0893439" />
      <rect
         class="cls-1"
         x="40.030609"
         y="13.761024"
         width="0.35405499"
         height="2.3825946"
         id="rect4564"
         style="fill:#ffffff;fill-opacity:1;stroke-width:0.0893439" />
      <path
         class="cls-1"
         d="m 41.738037,14.417489 -0.36113,0.80712 h 0.70811 z m -0.50896,1.14711 -0.26288,0.57896 h -0.37883 l 1.15687,-2.53229 1.11527,2.53229 h -0.38592 l -0.24518,-0.57896 z"
         id="path4566"
         style="fill:#ffffff;fill-opacity:1;stroke-width:0.0893439" />
      <path
         class="cls-1"
         d="m 3.2203962,18.112219 c -6.1e-4,0.61053 0.45762,1.09841 1.03296,1.09931 0.56649,9.1e-4 1.03207,-0.48518 1.03295,-1.08579 0.002,-0.60061 -0.46204,-1.08397 -1.03295,-1.08578 -0.56207,-9.1e-4 -1.03208,0.48517 -1.03296,1.07136 m 2.68728,0.0216 c -0.002,0.92706 -0.73201,1.644 -1.67468,1.6422 -0.92851,-0.002 -1.6375,-0.72776 -1.63485,-1.67377 0.002,-0.89821 0.74617,-1.62597 1.66583,-1.62326 0.92319,0.002 1.64635,0.72776 1.64459,1.65483"
         id="path4568"
         style="fill:#ffffff;fill-opacity:1;stroke-width:0.0893439" />
      <polygon
         class="cls-1"
         points="121.08,363.09 143.58,363.14 143.57,369.06 135.7,369.05 135.64,398.1 128.82,398.09 128.88,369.03 121.06,369.02 "
         id="polygon4570"
         style="fill:#ffffff;fill-opacity:1"
         transform="matrix(0.08851375,0,0,0.09018148,-4.2041437,-16.180191)" />
      <path
         class="cls-1"
         d="m 10.349296,19.180869 c 0.39035,9.1e-4 0.63642,-0.0739 0.826721,-0.24891 0.20889,-0.18848 0.33546,-0.49148 0.33635,-0.79359 0,-0.303 -0.12392,-0.5961 -0.33281,-0.79089 -0.199151,-0.18036 -0.431061,-0.25161 -0.825841,-0.2525 h -0.16286 c 0,0 -0.005,2.08589 -0.005,2.08589 z m -0.7603398,-2.62247 0.8869198,0.002 c 0.45496,9.1e-4 0.816971,0.11994 1.109071,0.36704 0.34785,0.28948 0.55056,0.73949 0.54967,1.20753 -6.1e-4,0.47255 -0.21066,0.92165 -0.56383,1.22376 -0.30272,0.2498 -0.636421,0.35802 -1.105541,0.35712 l -0.8815998,-0.002 0.007,-3.15454 z"
         id="path4572"
         style="fill:#ffffff;fill-opacity:1;stroke-width:0.0893439" />
      <polygon
         class="cls-1"
         points="225.53,398.16 216.56,398.14 204.17,382.38 203.33,383.21 203.29,398.11 196.48,398.09 196.55,363.11 203.37,363.13 203.34,377.92 216.22,363.15 224.82,363.17 210,379.29 "
         id="polygon4574"
         style="fill:#ffffff;fill-opacity:1"
         transform="matrix(0.08851375,0,0,0.09018148,-4.2041437,-16.180191)" />
      <path
         class="cls-1"
         d="m 9.7358962,9.5116087 v -0.6502 c 0,-1.53489 0.7302398,-2.98411 1.9552608,-3.88683 1.22504,0.90272 1.95528,2.35283 1.95528,3.88683 0,2.6450203 -2.11194,4.7967503 -4.7080508,4.7967503 -2.59611,0 -4.70805,-2.15173 -4.70805,-4.7967503 0,-1.53489 0.73024,-2.98411 1.95527,-3.88683 1.22504,0.90272 1.95527,2.35283 1.95527,3.88683 v 0.6502 h 1.5959 z m -0.7984,-3.03279 c -0.34343,-0.81886 -0.86478,-1.56015 -1.51978,-2.15806 0.97631,-0.33998 2.06149,-0.33998 3.0386798,0 -0.6541198,0.59701 -1.1763398,1.3383 -1.5188998,2.15806 m 5.8162408,-2.40335 0.63641,0.0424 0.0832,-1.29772 -0.6364,-0.0424 c -0.12746,-0.009 -0.26023,-0.0126 -0.39301,-0.0126 -0.95506,0 -1.90658,0.23717 -2.75278,0.68537 -0.847071,-0.4491 -1.7977108,-0.68537 -2.7527708,-0.68537 -0.95507,0 -1.90659,0.23717 -2.75278,0.68537 -0.84618,-0.4491 -1.79772,-0.68537 -2.75278,-0.68537 -0.13277,0 -0.26554,0.005 -0.39299,0.0126 l -0.63642,0.0424 0.0823,1.29772 0.63642,-0.0424 c 0.1009,-0.007 0.20623,-0.01 0.30979,-0.01 0.52046,0 1.03119,0.0866 1.5189,0.25612 -1.27017,1.15973 -1.99686,2.80825 -1.99686,4.54063 0,3.3619703 2.68461,6.0971703 5.98352,6.0971703 3.2989108,0 5.9844108,-2.7352 5.9844108,-6.0971703 0,-1.73238 -0.72669,-3.3809 -1.99687,-4.54063 0.48771,-0.16954 0.99843,-0.25612 1.5189,-0.25612 0.10444,0 0.20889,0.004 0.30979,0.01"
         id="path4576"
         style="fill:#ffffff;fill-opacity:1;stroke-width:0.0893439" />
      <path
         class="cls-2"
         d="m 26.011807,5.2541487 c 0,0.12174 -0.0947,0.21913 -0.21155,0.21913 -0.11685,0 -0.2142,-0.1001 -0.2142,-0.21913 0,-0.11904 0.0983,-0.21464 0.21066,-0.21464 0.11949,0 0.21509,0.0965 0.21509,0.21464"
         id="path4578"
         style="fill:#ffffff;fill-opacity:1;stroke-width:0.0893439" />
      <path
         class="cls-2"
         d="m 27.464307,4.2260687 c 0,0.26875 0.0841,0.47977 0.26023,0.65202 0.16553,0.16142 0.38681,0.25431 0.6019,0.25431 0.49213,0 0.87895,-0.3941 0.87895,-0.90001 0,-0.50592 -0.37973,-0.90271 -0.86833,-0.90271 -0.4886,0 -0.87275,0.39409 -0.87275,0.8955 m 2.09601,0.007 c 0,0.68808 -0.55232,1.23999 -1.2383,1.23999 -0.33724,0 -0.68599,-0.16142 -0.9179,-0.42295 -0.19649,-0.22184 -0.29563,-0.50141 -0.29563,-0.82786 0,-0.67366 0.55941,-1.23279 1.23123,-1.23279 0.67181,0 1.2206,0.56274 1.2206,1.24361"
         id="path4580"
         style="fill:#ffffff;fill-opacity:1;stroke-width:0.0893439" />
      <path
         class="cls-2"
         d="m 30.383497,4.1322787 c 0.15844,0 0.27439,-0.0289 0.35494,-0.0857 0.0912,-0.0649 0.14782,-0.18306 0.14782,-0.3048 0,-0.12174 -0.0531,-0.22185 -0.14074,-0.28318 -0.0805,-0.0613 -0.18234,-0.0821 -0.34874,-0.0821 h -0.12658 v 0.75572 h 0.11242 z m 1.05155,1.29411 h -0.43284 l -0.66828,-0.97847 h -0.0637 v 0.97847 h -0.35494 v -2.3898 h 0.41513 c 0.30271,0 0.47089,0.0397 0.61871,0.13978 0.1726,0.11452 0.28147,0.33366 0.28147,0.56272 0,0.33278 -0.20712,0.60242 -0.52046,0.67005 l 0.72493,1.01815 z"
         id="path4582"
         style="fill:#ffffff;fill-opacity:1;stroke-width:0.0893439" />
      <path
         class="cls-2"
         d="m 32.739727,3.5659487 c -0.10887,-0.18307 -0.1903,-0.23627 -0.3514,-0.23627 -0.19384,0 -0.34166,0.12534 -0.34166,0.29759 0,0.0784 0.0355,0.147 0.11241,0.2002 q 0.0673,0.0469 0.37619,0.17586 c 0.37972,0.16143 0.54878,0.37605 0.54878,0.70612 0,0.43738 -0.32042,0.76383 -0.75236,0.76383 -0.25669,0 -0.47443,-0.11452 -0.61518,-0.31923 -0.0779,-0.11454 -0.10887,-0.20742 -0.13365,-0.38689 l 0.35848,-0.083 c 0.0176,0.14339 0.0319,0.2011 0.0673,0.26152 0.0593,0.11454 0.19384,0.18668 0.33812,0.18668 0.21774,0 0.38326,-0.16864 0.38326,-0.3977 0,-0.13617 -0.0567,-0.23988 -0.16198,-0.31473 q -0.0805,-0.0541 -0.39742,-0.19029 c -0.32751,-0.13977 -0.48152,-0.33728 -0.48152,-0.60602 0,-0.35801 0.30626,-0.63397 0.70369,-0.63397 0.28147,0 0.47443,0.12175 0.63287,0.40131 l -0.28502,0.17585 z"
         id="path4584"
         style="fill:#ffffff;fill-opacity:1;stroke-width:0.0893439" />
      <polygon
         class="cls-2"
         points="436.09,216.86 425.2,216.86 425.2,213.08 442.65,213.08 429.65,235.81 442.37,235.81 442.37,239.59 423.1,239.59 "
         id="polygon4586"
         style="fill:#ffffff;fill-opacity:1"
         transform="matrix(0.08851375,0,0,0.09018148,-4.2041437,-16.180191)" />
      <path
         class="cls-2"
         d="m 36.087317,2.8210487 -0.16906,-0.14338 0.48506,-0.49781 0.30272,0.21553 -0.61872,0.42656 z m 0.0743,0.87476 -0.36203,0.80983 h 0.71077 l -0.34785,-0.80983 z m -0.50984,1.14981 -0.26377,0.58077 h -0.37973 l 1.16042,-2.54041 1.11881,2.54041 h -0.3868 l -0.24608,-0.58077 h -1.00196 z"
         id="path4588"
         style="fill:#ffffff;fill-opacity:1;stroke-width:0.0893439" />
      <path
         class="cls-2"
         d="m 39.562367,4.1827887 v 0.11092 c 0,0.31203 -0.0637,0.52666 -0.20712,0.72777 -0.20447,0.28316 -0.53816,0.4518 -0.88956,0.4518 -0.65766,0 -1.19582,-0.55551 -1.19582,-1.23638 0,-0.68088 0.5417,-1.24721 1.22414,-1.24721 0.25669,0 0.50277,0.0821 0.70369,0.23267 0.0876,0.0649 0.15135,0.12535 0.26023,0.25431 l -0.25315,0.2471 c -0.20093,-0.27235 -0.41867,-0.39409 -0.70368,-0.39409 -0.49569,0 -0.87629,0.39409 -0.87629,0.90632 0,0.26514 0.0947,0.48697 0.28147,0.65561 0.16553,0.15422 0.37265,0.23989 0.57004,0.23989 0.3514,0 0.66827,-0.27235 0.70013,-0.60963 h -0.58418 v -0.33998 h 0.97099 z"
         id="path4590"
         style="fill:#ffffff;fill-opacity:1;stroke-width:0.0893439" />
      <path
         class="cls-2"
         d="m 40.157187,4.2260687 c 0,0.26875 0.0841,0.47977 0.26023,0.65202 0.16552,0.16142 0.38681,0.25431 0.60189,0.25431 0.49214,0 0.87895,-0.3941 0.87895,-0.90001 0,-0.50592 -0.37973,-0.90271 -0.86833,-0.90271 -0.4886,0 -0.87185,0.39409 -0.87185,0.8955 m 2.09511,0.007 c 0,0.68808 -0.55232,1.23999 -1.23831,1.23999 -0.33811,0 -0.68598,-0.16142 -0.91788,-0.42295 -0.19738,-0.22184 -0.29563,-0.50141 -0.29563,-0.82786 0,-0.67366 0.5594,-1.23279 1.23122,-1.23279 0.67182,0 1.2206,0.56274 1.2206,1.24361"
         id="path4592"
         style="fill:#ffffff;fill-opacity:1;stroke-width:0.0893439" />
      <path
         class="cls-2"
         d="m 43.649057,3.5659487 c -0.10888,-0.18307 -0.19031,-0.23627 -0.3514,-0.23627 -0.19385,0 -0.34078,0.12534 -0.34078,0.29759 0,0.0784 0.0355,0.147 0.11241,0.2002 q 0.0664,0.0469 0.37618,0.17586 c 0.37972,0.16143 0.54879,0.37605 0.54879,0.70612 0,0.43738 -0.32042,0.76383 -0.75237,0.76383 -0.25669,0 -0.47532,-0.11452 -0.61517,-0.31923 -0.077,-0.11454 -0.10887,-0.20742 -0.13365,-0.38689 l 0.35848,-0.083 c 0.0176,0.14339 0.0319,0.2011 0.0673,0.26152 0.0593,0.11454 0.19385,0.18668 0.33813,0.18668 0.21774,0 0.38326,-0.16864 0.38326,-0.3977 0,-0.13617 -0.0567,-0.23988 -0.16198,-0.31473 q -0.0805,-0.0541 -0.39744,-0.19029 c -0.32749,-0.13977 -0.4815,-0.33728 -0.4815,-0.60602 0,-0.35801 0.30625,-0.63397 0.70368,-0.63397 0.28147,0 0.47443,0.12175 0.63287,0.40131 l -0.28501,0.17585 z"
         id="path4594"
         style="fill:#ffffff;fill-opacity:1;stroke-width:0.0893439" />
      <path
         class="cls-2"
         d="m 22.383627,4.0015287 h 0.0956 c 0.131,-0.004 0.20624,-0.0325 0.26643,-0.101 0.0531,-0.0649 0.0814,-0.15151 0.0814,-0.23899 0,-0.20652 -0.14871,-0.35081 -0.36203,-0.35081 -0.11684,0 -0.21686,0.0469 -0.27351,0.12626 -0.0319,0.0433 -0.0461,0.0901 -0.0708,0.1993 h -0.35495 c 0.0319,-0.19209 0.0602,-0.27506 0.12393,-0.37605 0.11683,-0.18037 0.32307,-0.27867 0.58241,-0.27867 0.4116,0 0.7028,0.27505 0.7028,0.66554 0,0.22094 -0.085,0.39049 -0.2558,0.51314 0.19119,0.11542 0.29122,0.31473 0.29122,0.57174 0,0.43378 -0.316,0.74129 -0.763,0.74129 -0.28767,0 -0.53285,-0.13347 -0.65676,-0.35802 -0.0531,-0.0938 -0.0709,-0.17404 -0.085,-0.33637 h 0.34431 c 0.0176,0.10821 0.0354,0.15962 0.085,0.21734 0.0743,0.0901 0.19915,0.14429 0.32308,0.14429 0.23456,0 0.40096,-0.17767 0.40096,-0.41935 0,-0.1515 -0.0637,-0.28587 -0.17083,-0.3508 -0.0673,-0.0397 -0.14162,-0.0541 -0.30538,-0.0577 v -0.31113 z"
         id="path4596"
         style="fill:#ffffff;fill-opacity:1;stroke-width:0.0893439" />
      <polygon
         class="cls-2"
         points="317.14,240.59 313.93,238.54 327.28,216.69 314.09,216.69 314.09,212.92 334.02,212.92 "
         id="polygon4598"
         style="fill:#ffffff;fill-opacity:1"
         transform="matrix(0.08851375,0,0,0.09018148,-4.2041437,-16.180191)" />
      <path
         class="cls-2"
         d="m 23.193527,19.289989 v 0.33908 h -1.56936 l 0.81257,-0.9992 c 0.32573,-0.40312 0.40981,-0.54922 0.40981,-0.69981 0,-0.22095 -0.17525,-0.3923 -0.39919,-0.3923 -0.13277,0 -0.25581,0.0605 -0.32573,0.16413 -0.0452,0.0676 -0.0628,0.12896 -0.0806,0.26063 h -0.35051 c 0.0248,-0.2029 0.0558,-0.31022 0.1363,-0.43197 0.13277,-0.20742 0.34698,-0.32105 0.60987,-0.32105 0.42751,0 0.75325,0.31384 0.75325,0.72056 0,0.25701 -0.0983,0.43918 -0.50099,0.92436 l -0.36379,0.43557 z"
         id="path4600"
         style="fill:#ffffff;fill-opacity:1;stroke-width:0.0893439" />
      <path
         class="cls-2"
         d="m 24.156547,17.770429 c -0.0947,0.18217 -0.14692,0.41754 -0.14692,0.65652 0,0.26063 0.0487,0.48518 0.14692,0.67817 0.0806,0.1533 0.1965,0.23537 0.33282,0.23537 0.13631,0 0.24872,-0.0821 0.32927,-0.23537 0.0947,-0.18939 0.14693,-0.41754 0.14693,-0.66735 0,-0.2498 -0.0522,-0.48879 -0.14693,-0.66734 -0.0841,-0.15331 -0.19561,-0.23537 -0.33281,-0.23537 -0.1372,0 -0.24872,0.0821 -0.32928,0.23537 m 0.93825,-0.18938 c 0.14339,0.22455 0.21686,0.51765 0.21686,0.86034 0,0.34268 -0.0734,0.63126 -0.21686,0.85672 -0.14339,0.22455 -0.37795,0.37065 -0.60631,0.37065 -0.22837,0 -0.46559,-0.1425 -0.60987,-0.37065 -0.14693,-0.23177 -0.21686,-0.51404 -0.21686,-0.87477 0,-0.69619 0.35406,-1.21294 0.82673,-1.21294 0.22748,0 0.46204,0.1425 0.60631,0.37065"
         id="path4602"
         style="fill:#ffffff;fill-opacity:1;stroke-width:0.0893439" />
      <path
         class="cls-2"
         d="m 27.165137,19.289989 v 0.33908 h -1.56935 l 0.81256,-0.9992 c 0.32573,-0.40312 0.40982,-0.54922 0.40982,-0.69981 0,-0.22095 -0.17527,-0.3923 -0.3992,-0.3923 -0.13277,0 -0.25581,0.0605 -0.32573,0.16413 -0.0451,0.0676 -0.0628,0.12896 -0.0806,0.26063 h -0.35051 c 0.0248,-0.2029 0.0558,-0.31022 0.13631,-0.43197 0.13278,-0.20742 0.34698,-0.32105 0.60986,-0.32105 0.42753,0 0.75325,0.31384 0.75325,0.72056 0,0.25701 -0.0983,0.43918 -0.50099,0.92436 l -0.36378,0.43557 z"
         id="path4604"
         style="fill:#ffffff;fill-opacity:1;stroke-width:0.0893439" />
      <path
         class="cls-2"
         d="m 28.414957,17.584659 -0.11596,0.39589 c 0.0415,-0.007 0.0628,-0.007 0.0912,-0.007 0.11596,0 0.24519,0.0252 0.33636,0.0676 0.26642,0.12175 0.44079,0.42476 0.44079,0.76384 0,0.49961 -0.36821,0.86395 -0.87185,0.86395 -0.32219,0 -0.54967,-0.13889 -0.73202,-0.44551 l 0.26643,-0.22816 c 0.0664,0.11454 0.0983,0.16053 0.14694,0.20742 0.0912,0.0892 0.22039,0.13888 0.35051,0.13888 0.28059,0 0.49744,-0.23176 0.49744,-0.52846 0,-0.2967 -0.21331,-0.52396 -0.49744,-0.52396 -0.17171,0 -0.28413,0.0568 -0.40981,0.21374 h -0.11596 l 0.36468,-1.25262 h 0.96656 v 0.33547 h -0.71784 z"
         id="path4606"
         style="fill:#ffffff;fill-opacity:1;stroke-width:0.0893439" />
    </g>
  </g>
</svg>
