<?xml version="1.0" encoding="UTF-8" standalone="no"?>
<!-- Created with Inkscape (http://www.inkscape.org/) -->

<svg
   width="23mm"
   height="27mm"
   viewBox="0 0 23 27"
   version="1.1"
   id="svg633"
   inkscape:version="1.2.2 (b0a8486541, 2022-12-01)"
   sodipodi:docname="elteik-logo.svg"
   xmlns:inkscape="http://www.inkscape.org/namespaces/inkscape"
   xmlns:sodipodi="http://sodipodi.sourceforge.net/DTD/sodipodi-0.dtd"
   xmlns="http://www.w3.org/2000/svg"
   xmlns:svg="http://www.w3.org/2000/svg">
  <sodipodi:namedview
     id="namedview635"
     pagecolor="#ffffff"
     bordercolor="#000000"
     borderopacity="0.25"
     inkscape:showpageshadow="2"
     inkscape:pageopacity="0.0"
     inkscape:pagecheckerboard="0"
     inkscape:deskcolor="#d1d1d1"
     inkscape:document-units="mm"
     showgrid="false"
     inkscape:zoom="4.4979443"
     inkscape:cx="63.362279"
     inkscape:cy="89.374162"
     inkscape:window-width="1920"
     inkscape:window-height="1135"
     inkscape:window-x="0"
     inkscape:window-y="0"
     inkscape:window-maximized="1"
     inkscape:current-layer="layer1" />
  <defs
     id="defs630">
    <clipPath
       clipPathUnits="userSpaceOnUse"
       id="clipPath138463">
      <path
         d="M 0,926.453 H 934.092 V 0 H 0 Z"
         id="path138461" />
    </clipPath>
  </defs>
  <g
     inkscape:label="Réteg 1"
     inkscape:groupmode="layer"
     id="layer1">
    <g
       id="g138457"
       transform="matrix(0.04705225,0,0,-0.04793879,-10.380051,35.864814)">
      <g
         id="g138459"
         clip-path="url(#clipPath138463)">
        <g
           id="g138465"
           transform="translate(457.7614,702.202)">
          <path
             d="m 0,0 c -30.453,-1.49 -58.85,-14.432 -80.029,-36.491 -21.403,-22.29 -33.189,-51.59 -33.189,-82.501 0,-65.692 53.444,-119.137 119.136,-119.137 65.692,0 119.137,53.445 119.137,119.137 0,3.738 -0.175,7.508 -0.521,11.215 -0.035,0.377 -0.373,0.652 -0.749,0.615 l -1.032,-0.102 c -0.372,-0.037 -0.642,-0.366 -0.607,-0.738 0.339,-3.634 0.51,-7.327 0.51,-10.99 0,-64.37 -52.368,-116.738 -116.738,-116.738 -64.369,0 -116.738,52.368 -116.738,116.738 0,30.288 11.549,58.999 32.521,80.84 20.753,21.614 48.578,34.296 78.416,35.756 0.373,0.018 0.661,0.332 0.645,0.705 L 0.717,-0.656 C 0.701,-0.277 0.378,0.019 0,0"
             style="fill:#012850;fill-opacity:1;fill-rule:nonzero;stroke:none"
             id="path138467" />
        </g>
        <g
           id="g138469"
           transform="translate(574.3502,694.1815)">
          <path
             d="m 0,0 c -29.487,29.488 -68.693,45.728 -110.395,45.728 -41.703,0 -80.908,-16.24 -110.396,-45.728 -29.488,-29.487 -45.728,-68.693 -45.728,-110.395 0,-32.121 9.668,-62.944 27.965,-89.185 0.218,-0.313 0.652,-0.388 0.963,-0.169 l 0.84,0.591 c 0.308,0.217 0.381,0.64 0.165,0.95 -18.198,26.098 -27.726,56.802 -27.531,88.777 0.251,41.044 17.021,80.429 46.398,109.095 28.9,28.2 66.978,43.694 107.436,43.665 40.753,-0.029 79.771,-16.208 108.588,-45.025 29.158,-29.159 45.161,-67.97 45.023,-109.229 -0.136,-40.636 -16.289,-79.435 -45.024,-108.169 -29.035,-29.034 -67.638,-45.025 -108.699,-45.025 -4.546,0 -9.132,0.201 -13.642,0.597 -0.375,0.033 -0.704,-0.242 -0.739,-0.617 l -0.095,-1.022 c -0.035,-0.379 0.245,-0.717 0.625,-0.75 4.579,-0.402 9.235,-0.606 13.851,-0.606 41.702,0 80.908,16.24 110.395,45.727 29.488,29.487 45.728,68.693 45.728,110.395 C 45.728,-68.693 29.488,-29.487 0,0"
             style="fill:#012850;fill-opacity:1;fill-rule:nonzero;stroke:none"
             id="path138471" />
        </g>
        <g
           id="g138473"
           transform="translate(463.464,678.2089)">
          <path
             d="M 0,0 C 0.681,0 1.358,-0.127 1.941,-0.359 1.983,-0.38 2.031,-0.401 2.084,-0.424 2.19,-0.47 2.311,-0.522 2.434,-0.604 4.539,-1.905 5.221,-4.628 3.956,-6.677 3.455,-7.491 2.781,-8.083 1.949,-8.44 1.317,-8.728 0.659,-8.867 -0.064,-8.867 c -0.372,0 -0.666,0 -1.022,0.118 -1.013,0.298 -1.875,0.895 -2.553,1.754 -0.358,0.575 -0.566,1.045 -0.67,1.515 -0.065,0.383 -0.125,0.747 -0.125,1.11 C -4.434,-1.96 -2.445,0 0,0 m 4.722,-17.452 c 0.017,0.122 0.033,0.244 0.032,0.357 0.127,1.084 0.254,2.105 0.382,3.121 l 0.383,2.684 c 0.032,0.256 0.064,0.528 0.096,0.8 0.032,0.27 0.064,0.541 0.091,0.769 0.034,0.137 0.051,0.291 0.069,0.445 0.015,0.133 0.029,0.266 0.096,0.406 0.242,0 0.562,-0.041 0.983,-0.125 1.184,-0.197 2.313,-0.453 3.357,-0.759 5.328,-1.523 10.129,-4.169 14.267,-7.862 2.197,-2.06 3.982,-4.093 5.462,-6.224 0.183,-0.243 0.371,-0.495 0.497,-0.744 l 0.145,-0.244 c 0.072,-0.119 0.148,-0.231 0.165,-0.235 -0.027,-0.036 -0.172,-0.119 -0.312,-0.199 l -0.172,-0.1 c -1.287,-0.744 -2.317,-1.868 -2.896,-3.157 -0.373,-0.745 -0.7,-1.46 -1.026,-2.242 -0.836,-1.866 -1.549,-3.812 -2.246,-5.717 -0.055,-0.222 -0.171,-0.521 -0.302,-0.784 l -0.021,-0.006 -1.584,0.245 c -0.012,0.012 -0.013,0.011 -0.014,0.007 0.027,0.163 0.066,0.339 0.107,0.52 0.054,0.246 0.111,0.504 0.147,0.753 0.502,2.32 1.021,4.72 1.468,7.083 l 0.383,2.108 c 0.336,1.948 -0.086,3.91 -1.183,5.524 -0.466,0.698 -0.917,1.235 -1.373,1.635 -0.972,0.906 -2.284,1.516 -3.698,1.717 -1.433,0.196 -2.934,-0.109 -4.22,-0.854 -1.896,-1.011 -3.332,-2.829 -3.939,-4.986 -0.14,-0.491 -0.2,-0.891 -0.199,-1.325 -0.033,-0.577 -0.048,-1.154 -0.065,-1.73 -0.016,-0.573 -0.032,-1.144 -0.063,-1.721 l -0.192,-5.561 c 0,-0.282 -0.016,-0.549 -0.032,-0.815 -0.016,-0.276 -0.014,-0.45 -0.014,-0.743 0,-0.035 -0.011,-0.365 -0.049,-0.45 H 9.071 l -1.47,0.063 c -0.011,0.004 -0.038,0.034 -0.038,0.095 v 6.062 c 0,1.701 0,3.459 -0.191,5.233 0,0.904 -0.129,1.76 -0.393,2.617 -0.427,1.427 -1.112,2.619 -2.034,3.541 l -0.128,0.127 c -0.078,0.079 -0.126,0.21 -0.126,0.352 0,0.116 0.016,0.217 0.031,0.319 M 6.95,-6.147 c 0.019,0.072 0.039,0.154 0.035,0.202 0.061,0.305 0.131,0.71 0.131,1.129 0,0.12 0.016,0.254 0.03,0.389 0.018,0.153 0.034,0.305 0.033,0.443 0.006,0.008 0.038,0.024 0.077,0.027 0.634,-0.126 1.329,-0.253 2.077,-0.377 4.711,-1.005 9.386,-2.915 13.52,-5.522 5.533,-3.498 10.185,-8.304 13.436,-13.857 0.049,-0.15 0.154,-0.316 0.238,-0.45 0.038,-0.06 0.073,-0.114 0.093,-0.153 0.01,-0.023 0.02,-0.044 0.028,-0.063 -0.018,0.001 -0.029,0.002 -0.032,-10e-4 -0.637,0.147 -1.307,0.222 -1.962,0.222 -0.216,0 -0.43,-0.009 -0.641,-0.025 h -0.32 c -0.091,0 -0.205,0.017 -0.233,0.102 l -0.017,0.05 -0.069,0.061 c -5.348,8.595 -14.051,14.842 -23.875,17.138 -0.386,0.097 -0.788,0.177 -1.19,0.257 -0.396,0.08 -0.792,0.159 -1.155,0.249 l -0.229,0.042 c 0,0.036 0.012,0.085 0.025,0.137 m 29.518,-20.921 c -0.041,-0.069 -0.081,-0.136 -0.149,-0.206 -0.954,-1.313 -1.862,-2.827 -2.697,-4.497 -0.97,-1.877 -1.875,-3.969 -2.7,-6.239 -0.028,-0.115 -0.072,-0.215 -0.115,-0.315 -0.043,-0.1 -0.085,-0.201 -0.118,-0.311 -0.025,-0.016 -0.052,-0.03 -0.058,-0.033 h -0.099 l -3.674,0.951 -0.057,0.007 c -0.022,0 -0.089,0 -0.095,-0.002 l -0.05,0.049 c 0.023,0.048 0.036,0.097 0.05,0.143 0.01,0.039 0.021,0.081 0.053,0.152 0.738,2.21 1.695,4.625 2.932,7.39 0.082,0.207 0.198,0.421 0.299,0.611 0.051,0.094 0.098,0.183 0.136,0.259 0.437,0.81 1.046,1.4 1.822,1.758 1.073,0.569 2.189,0.795 3.31,0.679 l 0.085,-0.013 c 0.376,-0.053 0.799,-0.113 1.169,-0.253 0.006,-0.011 0.012,-0.021 0.018,-0.031 -0.023,-0.033 -0.043,-0.067 -0.062,-0.099 m -16.654,-9.433 -0.062,-0.062 h -0.417 c -0.381,0 -0.683,0 -1.066,0.063 l -6.267,0.537 -0.164,0.005 v 0.255 c 0,1.014 0,1.971 0.063,2.915 0.033,0.354 0.049,0.709 0.065,1.063 0.016,0.348 0.031,0.696 0.063,1.043 l 10e-4,0.011 c 0.064,1.601 0.064,3.192 0.064,4.732 0,0.445 0.049,0.835 0.106,1.287 l 0.02,0.155 c 0.055,0.496 0.218,0.981 0.482,1.446 0.508,0.889 1.254,1.677 2.095,2.218 1.814,1.149 4.269,0.836 5.707,-0.721 0.726,-0.858 1.182,-1.788 1.353,-2.763 0.124,-0.735 0.124,-1.42 0.003,-2.084 -0.128,-0.577 -0.24,-1.153 -0.352,-1.729 -0.112,-0.573 -0.223,-1.145 -0.352,-1.725 -0.159,-0.86 -0.334,-1.72 -0.51,-2.58 -0.175,-0.863 -0.352,-1.726 -0.509,-2.578 l -0.325,-1.392 c 0,-0.022 0,-0.089 0.002,-0.096 m 10.209,-4.524 -0.182,-0.54 c -0.256,-0.76 -0.499,-1.477 -0.704,-2.248 -0.127,-0.476 -0.27,-0.936 -0.412,-1.395 -0.144,-0.466 -0.289,-0.932 -0.414,-1.403 l -1.149,-3.638 -0.019,-0.035 c -0.069,-0.183 -0.339,-0.087 -0.554,-0.059 l -5.642,0.634 c -0.445,0.032 -0.905,0.079 -1.365,0.127 -0.465,0.048 -0.931,0.096 -1.38,0.128 l -6.372,0.446 -0.593,0.065 c -0.722,0.022 -1.445,0.049 -2.167,0.078 -1.424,0.056 -2.897,0.114 -4.348,0.114 -0.925,0 -1.848,0.016 -2.772,0.032 -0.925,0.015 -1.848,0.031 -2.779,0.031 h -0.007 c -1.148,-0.031 -2.28,-0.047 -3.411,-0.063 -1.134,-0.016 -2.268,-0.032 -3.411,-0.064 -1.155,0 -2.326,-0.065 -3.458,-0.128 l -3.703,-0.192 c -1.085,-0.063 -2.106,-0.127 -3.13,-0.192 l -4.602,-0.382 -2.357,-0.255 -2.15,-0.191 c -0.13,0 -0.147,0.033 -0.17,0.101 -0.062,0.187 -0.124,0.436 -0.187,0.687 -0.27,1.054 -0.552,2.119 -0.835,3.192 -0.386,1.459 -0.774,2.93 -1.16,4.446 -0.116,0.233 -0.175,0.47 -0.231,0.666 0,0.022 10e-4,0.032 0.029,0.063 l 0.449,0.168 c 1.315,0.395 2.581,0.707 3.873,0.952 0.992,0.207 2.027,0.363 3.027,0.512 0.545,0.082 1.088,0.164 1.618,0.252 0.443,0.063 0.902,0.111 1.361,0.158 0.466,0.048 0.933,0.096 1.376,0.16 1.138,0.127 2.339,0.253 3.568,0.382 0.38,0.032 0.728,0.048 1.076,0.063 0.354,0.017 0.707,0.033 1.094,0.065 0.379,0.032 0.775,0.048 1.17,0.063 0.402,0.017 0.805,0.033 1.182,0.064 2.787,0.127 5.639,0.191 8.477,0.191 1.733,0 3.472,-0.057 5.155,-0.112 0.871,-0.029 1.745,-0.057 2.631,-0.079 0.896,0 1.835,-0.058 2.743,-0.114 0.447,-0.029 0.892,-0.057 1.327,-0.077 l 7.275,-0.511 c 1.075,-0.063 2.106,-0.192 3.117,-0.318 1.439,-0.188 2.927,-0.382 4.385,-0.635 l 0.125,-0.024 c 1.298,-0.247 2.594,-0.494 3.83,-0.742 0.149,-0.03 0.284,-0.075 0.42,-0.12 0.13,-0.044 0.262,-0.088 0.405,-0.121 -0.039,-0.075 -0.048,-0.148 -0.049,-0.202 m -60.053,2.397 c -0.036,-0.018 -0.103,-0.032 -0.167,-0.045 -0.067,-0.013 -0.14,-0.028 -0.211,-0.054 -0.009,0.005 -0.019,0.013 -0.035,0.028 -0.014,0.034 -0.023,0.073 -0.034,0.115 -0.018,0.071 -0.038,0.152 -0.069,0.209 -0.624,1.872 -1.438,3.828 -2.563,6.152 -0.789,1.639 -1.806,3.326 -3.001,4.98 l -0.158,0.317 0.017,0.004 c 1.196,0.332 2.284,0.353 3.325,0.065 0.381,-0.109 0.798,-0.276 1.242,-0.498 0.906,-0.423 1.639,-1.155 2.061,-2.06 0.687,-1.5 1.397,-3.05 1.97,-4.64 0.192,-0.543 0.383,-1.07 0.575,-1.597 0.192,-0.526 0.383,-1.052 0.573,-1.59 0.045,-0.134 0.088,-0.264 0.107,-0.385 -0.118,-0.071 -0.211,-0.114 -0.332,-0.155 z m -6.151,14.235 c 5.863,10.132 15.718,17.351 27.046,19.805 0.509,0.127 1.081,0.255 1.659,0.383 0.119,0.03 0.238,0.044 0.356,0.059 0.108,0.014 0.215,0.027 0.322,0.049 v -0.145 c 0,-0.612 0.069,-1.265 0.192,-1.787 v -0.303 c -0.093,-0.021 -0.176,-0.033 -0.255,-0.045 -0.127,-0.019 -0.242,-0.039 -0.325,-0.069 -3.389,-0.586 -6.651,-1.623 -9.694,-3.081 -4.809,-2.275 -8.999,-5.406 -12.454,-9.309 -1.134,-1.313 -2.225,-2.761 -3.349,-4.45 -0.134,-0.266 -0.321,-0.57 -0.489,-0.795 l -0.034,-0.064 c -0.028,-0.084 -0.142,-0.102 -0.214,-0.103 l -0.767,0.064 -0.018,0.001 c -0.633,0 -1.312,-0.036 -2.008,-0.29 0.01,0.027 0.02,0.054 0.032,0.08 M -6.565,-6.32 c 0,0 0.001,-10e-4 0.002,-10e-4 -0.004,-0.001 -0.006,-0.002 -0.008,-0.002 0.002,0.002 0.004,0.003 0.006,0.003 m -4.956,-29 v -0.574 c 0,-0.067 -0.027,-0.094 -0.112,-0.095 l -7.906,-0.639 c -10e-4,10e-4 -0.015,0.013 -0.043,0.069 -0.018,0.036 -0.032,0.102 -0.044,0.166 -0.016,0.08 -0.034,0.168 -0.07,0.251 l -0.254,1.185 c -0.497,2.309 -0.966,4.489 -1.399,6.761 -0.064,0.351 -0.128,0.687 -0.191,1.022 -0.064,0.335 -0.127,0.67 -0.191,1.019 -0.306,1.71 0.29,3.471 1.61,4.731 0.291,0.349 0.645,0.589 1.091,0.843 0.887,0.533 2.036,0.666 3.084,0.359 1.877,-0.485 3.296,-1.927 3.796,-3.864 0.116,-0.407 0.183,-0.896 0.183,-1.351 0.064,-1.658 0.128,-3.379 0.191,-5.802 0,-0.903 0.13,-2.527 0.255,-4.081 m 5.529,26.589 c 0.03,0.01 0.047,0.011 0.05,0.014 0.006,-0.009 0.025,-0.037 0.044,-0.11 l 0.053,-0.093 c 0.004,-0.015 0.004,-0.066 0.006,-0.143 0.068,-0.437 0.117,-0.873 0.168,-1.319 0.045,-0.401 0.091,-0.808 0.151,-1.23 0.064,-0.446 0.127,-0.908 0.191,-1.368 0.064,-0.464 0.129,-0.929 0.192,-1.372 l 0.387,-3.154 c 0.047,-0.184 0,-0.357 -0.131,-0.489 l -0.042,-0.058 c -0.049,-0.095 -0.165,-0.212 -0.285,-0.333 -1.175,-1.305 -1.901,-2.937 -2.099,-4.711 -0.13,-0.847 -0.13,-1.63 -0.13,-2.459 v -9.062 l 0.025,-0.987 -1.68,-0.098 c 0,0 -0.08,0.059 -0.098,0.279 -0.035,0.24 -0.03,0.409 -0.03,0.67 l -0.192,5.305 c 0,1.409 -0.065,2.839 -0.129,4.232 -0.067,0.753 -0.135,1.384 -0.324,2.076 -0.341,1.362 -1.091,2.603 -2.101,3.487 -0.511,0.511 -1.166,0.979 -1.837,1.314 -1.164,0.646 -2.548,0.929 -3.89,0.793 -1.843,-0.131 -3.508,-0.999 -4.684,-2.437 -0.946,-1.081 -1.581,-2.33 -1.84,-3.62 -0.146,-0.879 -0.188,-1.649 -0.13,-2.352 0.065,-0.84 0.196,-1.689 0.386,-2.513 0.512,-2.749 1.096,-5.539 1.661,-8.237 l 0.002,-0.049 0.046,-0.047 c 0.009,-0.02 0.011,-0.073 0.017,-0.073 h 10e-4 c -0.009,-0.011 -0.026,-0.029 -0.044,-0.047 -0.092,-0.045 -0.186,-0.087 -0.284,-0.09 l -1.178,-0.189 h -0.136 c -0.119,0.193 -0.167,0.399 -0.224,0.674 -0.765,2.354 -1.749,4.825 -3.012,7.562 l -0.582,1.162 c -0.644,1.097 -1.628,2.033 -2.773,2.639 l -0.221,0.106 c -0.044,0.034 -0.137,0.107 -0.15,0.088 0.001,0.003 0.009,0.031 0.077,0.123 2.416,3.815 5.617,7.191 9.257,9.764 3.697,2.614 7.774,4.513 12.11,5.644 0.992,0.234 2.168,0.5 3.402,0.708 m 2.85,-1.976 c 0.413,-0.176 0.788,-0.308 1.295,-0.453 1.401,-0.382 2.97,-0.288 4.406,0.259 l 0.535,0.179 c -0.129,-0.653 -0.195,-1.251 -0.256,-1.863 -0.063,-0.887 -0.192,-1.791 -0.319,-2.697 0,-0.355 -0.058,-0.709 -0.123,-1.117 l -1.786,0.381 c -0.202,0.035 -0.418,0.051 -0.644,0.051 -0.23,0 -0.471,-0.017 -0.718,-0.053 l -1.455,-0.337 c -0.058,-0.029 -0.122,-0.038 -0.195,-0.039 l -0.053,0.051 -0.32,2.675 c -0.065,0.901 -0.196,1.813 -0.33,2.734 -0.023,0.068 -0.035,0.148 -0.037,0.229 m 0.547,-8.763 c 0.535,0.475 1.184,0.779 1.933,0.904 0.228,0.041 0.471,0.062 0.722,0.062 0.436,0 0.896,-0.062 1.343,-0.184 0.59,-0.178 1.135,-0.471 1.575,-0.847 1.01,-0.884 1.729,-2.117 1.97,-3.385 0.125,-0.629 0.187,-1.262 0.187,-1.934 l 0.001,-10.777 c -0.004,-0.011 -0.034,-0.038 -0.095,-0.038 l -9.82,-0.001 c -0.011,0.003 -0.038,0.034 -0.038,0.095 v 11.295 c 0,0.705 0.08,1.287 0.248,1.794 0.287,1.09 0.987,2.161 1.974,3.016 M -1.412,2.48 C -1.568,2.428 -1.713,2.387 -1.853,2.348 -2.059,2.289 -2.252,2.234 -2.433,2.161 -3.802,1.705 -5,0.789 -5.776,-0.382 -5.929,-0.535 -6.005,-0.688 -6.072,-0.823 -6.227,-1.13 -6.53,-1.337 -6.865,-1.34 -7.058,-1.372 -7.235,-1.404 -7.411,-1.436 -7.586,-1.468 -7.76,-1.5 -7.949,-1.531 c -1.427,-0.229 -2.916,-0.575 -4.684,-1.091 -6.816,-1.911 -13.137,-5.504 -18.281,-10.391 -3.639,-3.447 -6.639,-7.505 -8.916,-12.06 -0.066,-0.13 -0.13,-0.277 -0.196,-0.424 -0.062,-0.14 -0.125,-0.28 -0.174,-0.381 -0.17,-0.256 -0.133,-0.568 0.079,-0.78 0.165,-0.197 0.313,-0.378 0.461,-0.559 l 0.433,-0.527 c 0.587,-0.693 1.341,-1.621 1.963,-2.659 0.569,-0.854 1.127,-1.867 1.708,-3.099 1.52,-3.182 2.664,-6.114 3.497,-8.968 0.397,-1.28 0.741,-2.621 1.074,-3.917 0.15,-0.584 0.299,-1.169 0.454,-1.75 0.192,-0.766 0.384,-1.517 0.575,-2.267 0.192,-0.749 0.383,-1.498 0.579,-2.281 0.07,-0.212 0.19,-0.396 0.557,-0.408 l 3.902,0.448 c 0.819,0.126 1.575,0.189 2.413,0.254 l 1.973,0.191 c 0.83,0.064 1.722,0.128 2.614,0.192 l 2.996,0.191 c 1.277,0.064 2.553,0.128 3.702,0.191 l 0.172,0.01 c 1.087,0.06 2.113,0.118 3.205,0.118 3.259,0.09 6.651,0.148 9.913,0.096 1.006,-0.016 2.012,-0.033 3.034,-0.033 1.357,0 2.739,-0.057 4.075,-0.112 0.682,-0.03 1.363,-0.057 2.051,-0.079 0.284,0 0.55,-0.016 0.817,-0.032 0.276,-0.015 0.537,-0.033 0.83,-0.031 l 3.187,-0.192 3.374,-0.254 c 0.576,-0.064 1.15,-0.128 1.79,-0.192 l 3.756,-0.382 3.477,-0.449 h 0.191 c 0.159,0 0.27,0.113 0.351,0.194 0.114,0.114 0.127,0.24 0.129,0.32 0.157,0.597 0.314,1.178 0.471,1.758 0.16,0.592 0.32,1.182 0.48,1.792 l 0.063,0.258 c 0.109,0.442 0.221,0.898 0.387,1.347 0.029,0.15 0.075,0.285 0.119,0.42 0.052,0.152 0.102,0.304 0.132,0.459 0.625,2.314 1.272,4.707 2.101,7.006 0.792,2.31 1.686,4.451 2.731,6.543 1.184,2.3 2.51,4.29 4.044,6.069 l 0.11,0.112 c 0.407,0.326 0.415,0.865 0.211,1.255 l -0.022,0.103 C 34.034,-13.228 22.452,-4.354 8.974,-1.788 8.277,-1.661 7.518,-1.534 6.758,-1.407 L 6.7,-1.401 c -0.244,0 -0.469,0.149 -0.556,0.369 l -0.04,0.08 -0.033,0.033 C 6.056,-0.886 6.032,-0.839 5.989,-0.791 5.146,0.687 3.721,1.758 1.985,2.225 1.823,2.279 1.66,2.333 1.46,2.387 1.451,2.415 1.44,2.443 1.428,2.475 1.408,2.527 1.385,2.587 1.373,2.604 1.31,3.418 1.31,4.243 1.361,5.003 L 1.412,5.156 H 1.415 L 1.48,5.221 C 1.508,5.233 1.603,5.233 1.659,5.233 H 2.68 c 0.136,0 0.274,0.017 0.411,0.034 0.118,0.014 0.236,0.03 0.354,0.03 0.246,0 0.417,0.219 0.413,0.372 L 3.923,6 C 3.988,6.451 3.932,6.842 3.872,7.257 L 3.862,7.308 C 3.862,7.529 3.685,7.689 3.506,7.719 3.345,7.788 3.189,7.788 3.063,7.788 L 1.923,7.782 C 1.737,7.735 1.542,7.778 1.386,7.828 L 1.321,7.896 C 1.309,7.923 1.309,8.018 1.309,8.074 v 2.425 l -0.03,0.129 -0.066,0.066 C 1.15,10.771 1.034,10.916 0.829,10.916 h -1.595 c -0.234,0 -0.545,-0.051 -0.545,-0.481 L -1.31,8.087 C -1.312,8.071 -1.318,8.052 -1.325,8.029 -1.339,7.98 -1.357,7.919 -1.367,7.851 L -1.417,7.8 C -1.446,7.788 -1.54,7.788 -1.596,7.788 h -1.021 c -0.268,0 -0.602,0 -0.829,-0.063 -0.187,0 -0.417,-0.23 -0.41,-0.363 -0.138,-0.549 -0.138,-1.154 0.017,-1.75 0.043,-0.086 0.157,-0.315 0.456,-0.315 h 1.979 c 0.06,0 0.091,-0.028 0.093,-0.031 L -1.31,2.59 C -1.315,2.568 -1.364,2.507 -1.412,2.48"
             style="fill:#012850;fill-opacity:1;fill-rule:nonzero;stroke:none"
             id="path138475" />
        </g>
        <g
           id="g138477"
           transform="translate(453.4137,498.644)">
          <path
             d="M 0,0 C -0.129,0.033 -0.275,0.065 -0.421,0.097 -0.562,0.129 -0.704,0.16 -0.833,0.192 l -1.392,0.325 h -0.254 c -0.189,0 -0.354,-0.165 -0.354,-0.352 V 0.102 L -2.8,0.049 c 0.212,-0.352 0.425,-0.63 0.764,-0.833 0.497,-0.355 0.959,-0.608 1.446,-0.79 1.025,-0.439 2.124,-0.664 3.232,-0.664 0.369,0 0.74,0.025 1.11,0.076 1.021,0.192 1.98,0.383 2.935,0.574 0.219,0.04 0.439,0.087 0.661,0.133 0.478,0.1 0.972,0.204 1.491,0.247 1.345,0.141 2.49,0.101 3.501,-0.123 0.576,-0.128 1.136,-0.24 1.696,-0.352 0.557,-0.111 1.113,-0.223 1.691,-0.351 0.677,-0.135 1.261,-0.196 1.895,-0.196 0.786,0 1.51,0.132 2.22,0.261 0.806,0.186 1.539,0.5 2.299,0.984 0.392,0.235 0.64,0.443 0.809,0.672 0.069,0.069 0.097,0.154 0.128,0.255 l 0.065,0.066 V 0.517 L 22.759,0.515 C 22.367,0.459 21.885,0.35 21.343,0.194 20.72,0.069 20.077,-0.06 19.444,-0.123 18.456,-0.246 17.452,-0.184 16.463,0.064 L 11.348,1.342 C 10.685,1.476 9.949,1.476 9.234,1.345 8.71,1.279 8.185,1.148 7.676,1.021 7.043,0.863 6.426,0.704 5.809,0.546 5.181,0.385 4.554,0.225 3.914,0.064 2.66,-0.234 1.338,-0.255 0,0"
             style="fill:#012850;fill-opacity:1;fill-rule:nonzero;stroke:none"
             id="path138479" />
        </g>
        <g
           id="g138481"
           transform="translate(429.1398,506.996)">
          <path
             d="m 0,0 c 0.327,-0.326 0.665,-0.664 1.063,-0.862 0.866,-0.533 1.841,-0.919 2.825,-1.115 0.899,-0.15 1.585,-0.189 2.288,-0.13 0.565,0.044 1.133,0.145 1.683,0.244 0.274,0.05 0.548,0.098 0.841,0.144 1.187,0.25 2.415,0.509 3.622,0.699 0.84,0.14 1.574,0.182 2.24,0.126 0.691,-0.064 1.4,-0.192 2.077,-0.315 0.639,-0.142 1.278,-0.264 1.927,-0.389 0.52,-0.099 1.046,-0.2 1.567,-0.309 0.594,-0.178 1.241,-0.264 1.979,-0.264 0.596,0 1.192,0.054 1.825,0.112 l 0.19,0.018 c 1.119,0.187 2.17,0.615 3.225,1.318 0.264,0.198 0.536,0.402 0.727,0.66 0.068,0.069 0.097,0.153 0.127,0.255 l 0.066,0.066 v 0.314 l -0.066,0.066 c -0.091,0.09 -0.145,0.129 -0.287,0.129 -0.206,0 -0.419,0 -0.64,-0.074 C 26.434,0.433 25.61,0.248 24.75,0.125 23.763,-0.06 22.76,-0.061 21.775,0.124 L 21.233,0.238 C 20.19,0.456 19.113,0.681 18.089,0.95 17.322,1.169 16.307,1.447 15.279,1.653 14.587,1.841 13.804,1.865 13.006,1.72 12.313,1.594 11.595,1.463 10.89,1.271 9.627,0.955 8.301,0.64 6.931,0.313 5.507,-0.059 3.938,-0.059 2.521,0.311 1.836,0.516 1.217,0.649 0.677,0.755 0.451,0.831 0.238,0.831 0.032,0.831 -0.036,0.831 -0.257,0.805 -0.257,0.479 L -0.233,0.378 C -0.159,0.23 -0.089,0.089 0,0"
             style="fill:#012850;fill-opacity:1;fill-rule:nonzero;stroke:none"
             id="path138483" />
        </g>
        <g
           id="g138485"
           transform="translate(470.9816,506.64)">
          <path
             d="m 0,0 c 0.019,-0.039 0.048,-0.097 0.089,-0.136 0.247,-0.309 0.577,-0.592 0.957,-0.82 0.448,-0.256 0.91,-0.52 1.429,-0.714 0.904,-0.381 1.892,-0.573 2.955,-0.573 0.305,0 0.616,0.016 0.934,0.047 0.191,0.032 0.397,0.064 0.603,0.096 0.209,0.032 0.417,0.064 0.618,0.098 0.608,0.128 1.232,0.272 1.855,0.416 0.622,0.143 1.242,0.286 1.855,0.416 1.409,0.351 2.946,0.394 4.549,0.127 0.691,-0.173 1.389,-0.289 2.063,-0.401 0.339,-0.057 0.676,-0.113 1.018,-0.177 l 0.165,-0.027 c 0.708,-0.119 1.377,-0.231 2.106,-0.231 0.724,0 1.371,0.081 2.086,0.259 0.875,0.175 1.85,0.582 2.824,1.183 0.368,0.244 0.698,0.552 1.069,1 l 0.053,0.062 v 0.024 c 0.029,0.038 0.064,0.099 0.064,0.185 l -0.025,0.101 c -0.037,0.076 -0.145,0.252 -0.328,0.252 -0.207,0 -0.419,0 -0.641,-0.074 C 25.277,0.793 24.309,0.602 23.341,0.419 22.783,0.358 22.159,0.357 21.546,0.418 20.673,0.543 19.77,0.672 18.945,0.863 L 15.371,1.629 C 14.021,1.912 12.737,1.869 11.566,1.499 10.959,1.338 10.369,1.179 9.778,1.02 9.188,0.86 8.598,0.701 7.979,0.537 7.279,0.304 6.474,0.108 5.655,-0.028 4.852,-0.152 4.038,-0.151 3.245,-0.03 L 1.084,0.414 C 0.82,0.48 0.547,0.548 0.265,0.548 0.077,0.548 -0.088,0.384 -0.088,0.196 l 0.022,-0.13 z"
             style="fill:#012850;fill-opacity:1;fill-rule:nonzero;stroke:none"
             id="path138487" />
        </g>
        <g
           id="g138489"
           transform="translate(436.1505,570.621)">
          <path
             d="M 0,0 C 0.128,0.702 0.383,1.404 0.83,1.979 1.021,2.297 1.276,2.553 1.532,2.744 2.425,3.382 3.638,3.318 4.467,2.617 4.85,2.297 5.169,1.851 5.361,1.34 5.616,0.702 5.744,0.128 5.744,-0.51 V -0.829 C 5.808,-1.531 5.616,-2.297 5.425,-2.808 5.233,-3.254 4.978,-3.637 4.595,-3.957 4.148,-4.339 3.638,-4.531 3.063,-4.595 2.425,-4.659 1.851,-4.403 1.404,-4.02 1.149,-3.829 0.958,-3.574 0.766,-3.318 0.319,-2.68 0,-1.915 -0.063,-1.084 c 0,0.318 0,0.702 0.063,1.084 m -1.914,-3.446 c 1.085,-1.531 2.744,-2.425 4.595,-2.361 1.276,0 2.552,0.447 3.573,1.212 1.34,0.958 2.106,2.489 2.17,4.149 0,0.829 -0.128,1.658 -0.511,2.361 C 7.53,2.808 6.829,3.574 5.935,4.021 5.042,4.467 4.021,4.595 3,4.467 1.851,4.339 0.766,3.638 0.128,2.617 0.032,2.465 -0.114,2.364 -0.214,2.26 -0.258,2.215 -0.34,2.174 -0.404,2.174 c 0,0.146 0.021,0.251 0.021,0.379 0.064,0.829 0.192,1.723 0.383,2.552 0.447,1.724 1.276,3.383 2.425,4.723 0.511,0.638 1.213,1.212 1.915,1.659 l 0.319,0.255 0.064,0.064 c 0.127,0.128 0.127,0.319 0,0.447 -0.064,0.063 -0.128,0.063 -0.192,0.063 -0.064,0 -0.191,0 -0.255,-0.063 C 2.425,11.423 0.83,10.274 -0.51,8.743 -2.68,6.19 -3.637,2.872 -3.126,-0.446 c 0.191,-1.085 0.573,-2.106 1.212,-3"
             style="fill:#012850;fill-opacity:1;fill-rule:nonzero;stroke:none"
             id="path138491" />
        </g>
        <g
           id="g138493"
           transform="translate(423.3878,578.598)">
          <path
             d="M 0,0 C 0.064,0 0.192,0.064 0.255,0.064 L 1.851,0.575 2.234,0.702 C 2.297,0.766 2.425,0.638 2.425,0.575 2.489,0.319 2.489,0.127 2.489,-0.127 v -5.935 -5.552 -0.32 c 0,-0.382 -0.192,-0.765 -0.447,-1.084 -0.034,-0.044 -0.059,-0.065 -0.063,-0.128 -0.01,-0.128 0.127,-0.191 0.191,-0.191 h 3.446 c 0.127,0 0.166,0.11 0.127,0.191 -0.038,0.081 -0.063,0.128 -0.127,0.192 -0.256,0.255 -0.319,0.574 -0.319,0.893 v 0.191 c 0,1.851 -0.064,3.638 -0.064,5.489 v 2.297 c 0.064,1.659 0.064,3.254 0.064,4.914 v 3.127 c 0,0.064 -0.064,0.191 -0.064,0.319 0,0.063 -0.128,0.127 -0.191,0.063 C 4.85,4.211 4.722,4.021 4.531,3.893 4.021,3.51 3.574,2.999 3.063,2.616 2.425,2.17 1.787,1.659 1.148,1.212 0.766,0.958 0.447,0.702 0.064,0.447 0,0.383 -0.063,0.319 -0.127,0.255 -0.127,0.191 -0.063,0 0,0"
             style="fill:#012850;fill-opacity:1;fill-rule:nonzero;stroke:none"
             id="path138495" />
        </g>
        <g
           id="g138497"
           transform="translate(494.6466,573.557)">
          <path
             d="m 0,0 c 0,0 0.228,-0.083 0.383,0.063 l 0.319,0.319 c 0.574,0.575 1.276,0.958 2.106,1.149 0.574,0.128 1.212,0.128 1.85,0 1.213,-0.191 2.17,-1.085 2.553,-2.233 0.127,-0.319 0.191,-0.702 0.191,-1.085 0.064,-0.638 0,-1.276 -0.128,-1.915 C 6.892,-5.68 5.424,-7.275 3.51,-7.85 2.68,-8.105 1.787,-8.169 0.957,-8.041 L 0.574,-7.977 C 0.51,-8.041 0.446,-8.105 0.446,-8.169 0.51,-8.296 0.51,-8.424 0.574,-8.615 l 0.192,-0.192 c 0.064,0 0.191,-0.064 0.255,-0.064 1.084,-0.127 2.106,-0.127 3.126,0.128 2.234,0.447 4.148,1.914 5.233,3.957 0.83,1.531 1.021,3.318 0.447,4.977 C 9.508,1.212 8.806,2.105 7.849,2.616 6.573,3.381 4.977,3.573 3.51,3.126 2.744,2.935 2.042,2.552 1.404,2.042 1.212,1.914 1.084,1.787 0.957,1.659 L 0.83,1.531 C 0.766,1.467 0.558,1.377 0.574,1.659 0.631,2.632 0.766,4.53 0.83,5.615 c 0,0.128 0.024,0.27 0.063,0.384 0.064,0.127 0.191,0.254 0.319,0.254 h 6.765 c 0.108,0.004 0.244,0.04 0.255,0.383 0.127,0.702 0.255,1.341 0.446,1.979 V 8.679 C 8.742,8.934 8.615,8.998 8.423,8.998 7.913,8.87 7.402,8.87 6.892,8.87 H 1.276 C 0.255,8.87 0.319,8.87 0.255,7.913 0.127,7.083 0.127,6.317 0.063,5.488 L -0.192,1.34 C -0.205,0.917 -0.255,0.702 -0.255,0.382 -0.255,0.191 -0.192,0.063 0,0"
             style="fill:#012850;fill-opacity:1;fill-rule:nonzero;stroke:none"
             id="path138499" />
        </g>
        <g
           id="g138501"
           transform="translate(481.692,579.683)">
          <path
             d="M 0,0 C 0.063,-0.127 0.191,-0.127 0.255,-0.064 L 0.958,0.51 C 1.404,0.83 1.851,1.085 2.361,1.276 3.254,1.595 4.148,1.659 5.042,1.404 5.871,1.212 6.509,0.447 6.573,-0.383 6.764,-1.34 6.509,-2.297 5.871,-3 5.616,-3.318 5.36,-3.574 5.042,-3.765 4.531,-4.148 4.021,-4.403 3.446,-4.659 L 2.68,-4.978 C 2.553,-5.042 2.489,-5.169 2.553,-5.297 2.616,-5.36 2.616,-5.488 2.68,-5.552 2.744,-5.68 2.936,-5.744 3.063,-5.68 c 0.255,0.128 0.511,0.192 0.766,0.256 0.574,0.127 1.085,0.127 1.659,0 1.021,-0.128 1.914,-0.83 2.297,-1.787 0.128,-0.319 0.192,-0.702 0.256,-1.021 0.063,-0.511 0.063,-1.085 0,-1.596 -0.128,-1.34 -0.894,-2.552 -2.042,-3.254 -0.383,-0.255 -0.83,-0.447 -1.277,-0.575 -1.148,-0.319 -2.425,-0.382 -3.637,-0.191 l -0.766,0.127 c -0.064,0 -0.064,-0.063 -0.064,-0.127 v -0.383 c 0,-0.127 0.064,-0.319 0.255,-0.319 0.32,-0.064 0.638,-0.128 0.958,-0.191 1.212,-0.128 2.489,0 3.701,0.319 1.021,0.319 2.042,0.765 2.935,1.34 0.766,0.574 1.468,1.212 1.979,2.042 0.893,1.34 1.084,3.063 0.51,4.595 -0.255,0.893 -0.893,1.659 -1.723,2.106 -0.383,0.255 -0.893,0.382 -1.34,0.51 -0.319,0.064 -0.702,0.191 -1.021,0.255 L 6.445,-3.51 v 0.064 l 0.575,0.383 c 0.51,0.318 0.893,0.766 1.276,1.212 C 8.87,-1.085 9.125,-0.127 8.998,0.83 8.934,1.531 8.551,2.169 7.977,2.553 7.658,2.744 7.338,2.936 6.956,3.063 5.935,3.382 4.786,3.446 3.765,3.126 2.233,2.744 0.894,1.787 -0.063,0.51 -0.191,0.319 -0.191,0.191 0,0"
             style="fill:#012850;fill-opacity:1;fill-rule:nonzero;stroke:none"
             id="path138503" />
        </g>
        <g
           id="g138505"
           transform="translate(419.0016,554.1088)">
          <path
             d="m 0,0 c 0,0.565 0.092,0.749 0.619,0.749 l 73.548,0.006 0.001,0.001 h 3.399 c -2.971,-3.006 -7.939,-7.821 -8.818,-8.589 -1.703,-1.457 -3.463,-2.86 -5.27,-3.907 -0.428,-0.258 -0.883,-0.481 -1.343,-0.678 l -0.999,4.756 c -0.255,1.453 -1.644,2.427 -3.098,2.179 l -30.688,-5.307 0.003,-0.017 c -0.573,-0.082 -1.025,-0.564 -1.039,-1.161 -0.03,-1.317 -0.871,-1.623 -1.562,-1.714 -0.221,-0.03 -1.212,-0.276 -1.644,1.06 -0.207,0.642 -0.732,1.039 -1.379,0.838 -0.534,-0.165 -0.867,-0.663 -0.855,-1.195 0,-0.009 0,-0.019 0,-0.027 0.001,-0.034 0.002,-0.066 0.007,-0.099 0.003,-0.043 10e-4,-0.087 0.009,-0.131 l 3.949,-22.866 c 0.332,-1.919 1.855,-3.308 3.74,-3.308 0.222,0 0.447,0.019 0.674,0.058 l 0.223,0.039 c 0.111,0.019 0.327,0.057 0.327,0.057 l 6.614,1.194 c 0.047,-0.553 0.35,-0.916 0.417,-0.941 0.589,-0.49 1.294,-0.765 2.044,-0.765 0.545,-0.016 1.151,0.04 1.678,0.224 l 0.527,0.184 c 0.332,0.099 0.675,0.062 1.024,-0.041 l 0.281,-0.11 c 0.773,-0.268 1.535,-0.506 2.278,-0.438 l 0.942,0.087 c 0.337,0.031 0.68,-0.007 0.97,-0.181 0.776,-0.337 1.609,-0.531 2.424,-0.526 0.615,-0.013 1.289,0.05 1.888,0.174 0.602,0.125 1.276,0.187 1.894,0.105 1.435,-0.068 3.084,-0.31 4.485,-0.046 0.668,0.131 1.329,0.327 1.99,0.523 l 1.979,0.658 c 0.33,0.1 0.59,0.259 0.914,0.424 1.096,0.645 2.055,1.835 2.77,2.921 l 0.353,0.577 c 1.829,3.022 3.497,6.056 5.323,9.078 0.834,1.301 1.746,2.471 2.804,3.518 1.058,1.052 2.191,2.04 3.476,2.838 l 11.246,7.981 c 0.161,0.129 0.367,0.262 0.546,0.352 v -2.249 -3.733 -14.486 c 0,-13.874 -11.2,-24.204 -18.726,-27.764 C 58.11,-65.29 54.046,-67.07 45.146,-70.982 l -0.368,-0.161 c -0.252,-0.106 -0.534,-0.106 -0.779,0 l -2.582,1.131 c -7.403,3.247 -11.873,5.203 -22.691,10.314 C 11.201,-56.138 0,-45.808 0,-31.934 Z m 0,64.713 c 0,0.558 0.451,1.009 1.008,1.009 h 37.07 c 0.031,-0.031 0.145,-0.145 0.191,-0.237 0.046,-0.092 0.092,-0.176 0.123,-0.275 0.29,-0.71 0.435,-1.368 0.435,-1.979 0.061,-0.565 0.061,-1.138 0.061,-1.704 v -4.484 c 0,-0.321 -0.038,-0.42 -0.283,-0.42 h -3.743 c -0.581,0 -1.07,0.068 -1.612,0.19 -0.802,0.184 -1.551,0.498 -2.231,0.933 -0.153,0.091 -0.298,0.183 -0.436,0.275 -0.145,0.099 -0.29,0.199 -0.412,0.259 -0.13,0.13 -0.275,0.13 -0.352,0.13 -0.221,0 -0.305,-0.099 -0.336,-0.19 -0.084,-0.123 -0.084,-0.276 -0.084,-0.352 V 45.575 c 0,-0.054 0.016,-0.092 0.016,-0.107 0.106,-0.344 0.458,-0.275 0.572,-0.221 0,0 0.214,0.091 0.283,0.145 l 1.062,0.565 c 0.917,0.52 1.918,0.718 2.888,0.718 h 4.584 c 0.168,0 0.29,0.015 0.29,-0.145 0.054,-1.474 0.046,-4.691 0.038,-5.455 0,-0.115 -0.099,-0.206 -0.214,-0.206 h -8.205 c -0.978,0 -2.032,0.313 -2.88,0.863 0,0 -1.299,0.741 -1.322,0.749 -0.069,0.022 -0.13,0.038 -0.199,0.046 -0.305,0.023 -0.419,-0.207 -0.419,-0.413 V 29.752 c 0,-0.229 0.274,-0.351 0.419,-0.351 0.084,0 0.252,0 0.375,0.099 0.375,0.184 0.764,0.382 1.13,0.627 1.017,0.542 1.987,0.802 2.957,0.802 h 7.725 l 0.603,-0.031 v -8.755 c -0.008,0.015 -0.015,0.03 -0.023,0.046 -0.038,0.083 -0.084,0.168 -0.122,0.275 -0.527,1.2 -1.666,2.032 -3.041,2.239 -0.863,0.129 -1.742,0.061 -2.521,-0.2 -0.963,-0.274 -1.796,-1.107 -2.063,-2.055 -0.176,-0.511 -0.16,-1.039 -0.123,-1.276 l 0.077,-0.267 c 0.092,-0.244 0.229,-0.336 0.436,-0.435 0.221,-0.099 0.458,-0.115 0.687,-0.023 0.062,0.031 0.13,0.061 0.207,0.091 0.084,0.031 0.168,0.069 0.206,0.092 0.122,0.038 0.221,0.099 0.305,0.145 0.069,0.046 0.138,0.084 0.191,0.107 0.206,0.046 0.284,-0.023 0.359,-0.137 0.169,-0.161 0.283,-0.398 0.406,-0.627 0.167,-0.389 0.366,-0.909 0.427,-1.421 0.061,-0.367 0.122,-0.749 0.122,-1.108 V 13.425 13.364 C 29.896,12.157 27.677,10.228 25.561,8.562 25.362,8.401 25.179,8.218 24.996,8.058 24.728,7.821 24.354,7.744 24.01,7.836 17.86,9.501 11.055,7.312 7.334,3.086 H 1.092 C 0.092,3.086 0,3.346 0,4.179 Z m 40.798,0.711 c 0,0 -0.053,0.16 -0.053,0.298 l 7.258,-0.038 C 47.987,65.562 47.941,65.34 47.911,65.233 47.659,64.347 47.514,63.308 47.514,61.764 v -6.448 c 0,-0.13 0,-0.321 0.168,-0.481 0.16,-0.168 0.397,-0.168 0.848,-0.161 h 5.134 c 0.596,-0.061 1.245,-0.015 1.971,0.13 0.397,0.061 0.719,0.13 1.093,0.252 0.076,0.008 0.145,0.023 0.206,0.038 0.046,0.016 0.099,0.024 0.137,0.024 h 0.031 v -6.922 c -0.054,0.007 -0.099,0.022 -0.153,0.03 -0.061,0.015 -0.13,0.023 -0.199,0.062 -0.855,0.259 -1.711,0.389 -2.62,0.389 H 48.423 L 48.27,48.662 c -0.703,-0.061 -0.756,-0.191 -0.756,-0.978 v -8.389 c 0,-0.245 0.221,-0.42 0.42,-0.42 h 5.302 l 4.393,0.068 c 0.849,-0.061 1.712,0.046 2.636,0.328 0.16,0.047 0.252,0.077 0.352,0.116 0.13,0.045 0.183,0.007 0.175,-0.092 C 60.785,39.188 60.8,39.05 60.8,38.913 V 32.48 c -0.008,-0.069 -0.061,-0.069 -0.092,-0.061 -0.046,0.015 -0.107,0.031 -0.16,0.053 l -0.092,0.031 c -0.848,0.26 -1.749,0.39 -2.689,0.39 h -8.993 c -0.137,0 -0.305,0.007 -0.504,0.007 -0.466,-0.007 -0.687,-0.267 -0.71,-0.489 -0.031,-0.222 -0.031,-0.435 -0.031,-0.703 v -7.379 c 0,0 -0.111,0.489 -0.287,0.844 -0.21,0.424 -1.233,1.416 -1.951,1.89 -0.454,0.405 -1.222,0.387 -1.682,0.031 -0.71,-0.474 -1.232,-0.921 -1.904,-1.745 -0.105,-0.166 -0.444,-0.66 -0.433,-1.02 v 8.182 c 0,0.244 -0.283,0.405 -0.474,0.405 h -9.13 c -0.588,0 -1.092,0 -1.658,-0.069 -0.58,0 -1.161,-0.1 -1.826,-0.322 -0.076,-0.022 -0.183,-0.061 -0.183,0.07 v 6.799 c 0.054,-0.015 0.099,-0.023 0.145,-0.038 0.069,-0.008 0.13,-0.023 0.199,-0.054 0.351,-0.114 0.749,-0.183 1.1,-0.237 l 0.138,-0.023 c 0.305,-0.06 0.718,-0.137 1.13,-0.137 h 9.245 c 0.137,0 0.29,0.015 0.443,0.038 0.138,0.015 0.267,0.031 0.39,0.031 0.251,0 0.481,0.229 0.481,0.482 v 8.74 c 0,0.152 -0.153,0.328 -0.306,0.389 -0.122,0.092 -0.237,0.092 -0.305,0.092 h -5.738 c -1.207,0 -2.338,-0.244 -3.171,-0.451 l -0.275,-0.061 h -0.03 v 6.953 l 0.351,-0.054 c 0.841,-0.26 1.704,-0.397 2.552,-0.397 h 5.661 c 0.267,0 0.543,0 0.871,0.091 0.138,0.069 0.374,0.191 0.374,0.459 v 6.746 c 0.061,1.07 -0.091,2.231 -0.458,3.461 m 8.954,-2.743 c 0,0.749 0.13,1.49 0.359,2.132 0.038,0.068 0.069,0.152 0.107,0.244 0.023,0.068 0.054,0.145 0.092,0.214 l 0.023,0.061 c 0.076,0.168 0.183,0.359 0.199,0.39 h 37.13 c 0.558,0 1.009,-0.451 1.009,-1.009 V 3.575 c 0,-0.412 -0.107,-0.473 -0.688,-0.473 H 81.825 81.489 C 77.723,7.373 70.997,9.547 64.793,7.768 64.602,7.714 64.396,7.752 64.243,7.89 c -0.252,0.214 -0.481,0.458 -0.764,0.672 -2.315,1.803 -4.727,3.725 -9.547,4.894 -0.016,0.168 -0.024,0.321 -0.024,0.39 v 3.675 c 0,0.764 0.131,1.573 0.383,2.322 0.053,0.291 0.175,0.588 0.32,0.841 0.038,0.038 0.084,0.099 0.122,0.16 0.024,0.038 0.047,0.069 0.069,0.092 0.062,0.068 0.23,0.115 0.314,0.091 l 0.359,-0.183 c 0.191,-0.122 0.32,-0.191 0.443,-0.252 0.13,-0.099 0.298,-0.099 0.451,-0.099 0.504,0 0.863,0.351 0.863,0.863 0,0.39 0,0.733 -0.138,1.146 -0.29,0.94 -0.947,1.665 -1.787,1.994 -1.016,0.443 -2.201,0.489 -3.408,0.137 -0.978,-0.282 -1.834,-0.962 -2.284,-1.802 -0.069,-0.092 -0.031,-0.192 -0.076,-0.291 v 8.358 c 0.114,0 8.128,0.016 8.128,0.016 1.36,-0.016 2.384,-0.611 3.278,-1.162 0.252,-0.198 0.527,-0.358 0.787,-0.504 0.092,-0.053 0.497,-0.313 0.634,-0.313 0.145,0 0.252,0.099 0.283,0.13 0.13,0.13 0.13,0.275 0.13,0.351 v 0.634 c 0.068,3.584 -0.016,9.772 -0.016,12.209 l -0.007,0.069 c -0.062,0.184 -0.222,0.252 -0.298,0.29 -0.077,0.031 -0.207,0.054 -0.413,-0.053 0,0 -0.825,-0.634 -0.955,-0.695 -0.894,-0.604 -1.887,-0.925 -3.025,-0.986 -0.627,-0.069 -1.269,-0.069 -1.887,-0.069 h -5.135 c -0.221,0 -0.985,0.023 -1.222,0.039 -0.244,0.015 -0.26,0.297 -0.26,0.549 v 4.844 c 0,0.268 0.1,0.321 0.321,0.321 h 4.317 c 1.093,0 2.208,-0.305 3.14,-0.863 0.321,-0.199 0.619,-0.344 1.001,-0.535 l 0.252,-0.13 0.145,-0.061 c 0.183,-0.083 0.428,0.091 0.489,0.321 0.053,0.176 0.046,0.565 0.046,0.665 l -0.008,11.193 v 0.588 c 0,0.32 -0.252,0.397 -0.412,0.366 -0.084,-0.015 -0.336,-0.099 -0.336,-0.099 -0.337,-0.13 -0.673,-0.328 -0.994,-0.527 -0.84,-0.543 -1.818,-0.726 -2.827,-0.787 -0.955,-0.061 -1.925,-0.061 -2.857,-0.061 0,0 -1.475,0.015 -1.796,0.015 -0.32,0 -0.29,0.138 -0.29,0.397 z M 44.419,12.31 C 55.643,12.31 59.193,9.28 62.081,7.003 62.623,6.576 63.089,6.094 63.609,5.682 63.876,5.43 64.128,5.361 64.602,5.514 69.415,7.164 75.39,5.865 78.418,3.102 66.041,3.094 23.448,3.086 10.406,3.086 c 3.233,2.792 9.219,4.078 14.04,2.428 0.473,-0.123 0.718,-0.069 0.993,0.168 0.519,0.412 0.985,0.894 1.528,1.321 2.804,2.216 6.221,5.307 17.452,5.307 m 7.709,2.078 c 0,-0.471 -0.044,-0.524 -0.451,-0.505 -0.407,0.018 -1.804,0.173 -2.561,0.217 -3.475,0.205 -5.193,0.217 -7.476,0.136 -2.669,-0.095 -4.246,-0.319 -4.246,-0.319 h -0.512 c -0.16,0 -0.21,0.311 -0.21,0.532 0,0.245 0.008,0.497 0.008,0.711 0,0.107 0.091,0.16 0.199,0.16 0.107,0 2.59,0.13 2.59,0.13 0.374,0.023 0.749,0.046 1.123,0.076 0.771,0.054 1.054,0.103 2.63,0.123 2.39,0.03 4.716,-0.019 5.931,-0.095 1.216,-0.076 2.685,-0.234 2.685,-0.234 0.252,0 0.267,-0.107 0.267,-0.107 0.016,-0.03 0.023,-0.687 0.023,-0.825 M 38.567,18.33 c 0.986,-0.466 2.46,-0.68 3.698,-0.03 0.657,0.29 1.1,0.81 1.1,1.528 0,0.313 -0.145,0.581 -0.443,0.779 l -0.65,0.29 c -0.221,0.092 -0.389,0.42 -0.328,0.772 0.031,0.176 0.13,0.52 0.206,0.688 0.444,1.123 1.184,2.108 2.185,2.857 l 0.039,0.038 2.147,-2.582 c 0.122,-0.298 0.183,-0.596 0.244,-0.924 0.107,-0.429 -0.046,-0.734 -0.321,-0.871 -0.046,-0.031 -0.091,-0.039 -0.13,-0.054 -0.053,-0.023 -0.427,-0.175 -0.458,-0.214 -0.436,-0.26 -0.535,-0.627 -0.39,-1.077 0.138,-0.474 0.421,-0.848 0.871,-1.154 1.291,-0.741 2.743,-0.565 3.874,0.015 0.145,0.077 0.359,0.214 0.512,0.368 0.298,0.297 0.458,0.58 0.458,1.015 0,0.153 -0.015,0.283 -0.038,0.406 -0.008,0.083 -0.023,0.16 -0.023,0.237 0,0.305 0.114,0.572 0.229,0.862 0.161,0.482 0.474,0.841 0.97,1.086 0.566,0.282 1.207,0.359 1.941,0.228 0.053,0 0.107,-0.007 0.153,-0.014 L 54.352,22.464 C 53.908,22.28 53.58,21.921 53.259,21.433 53.19,21.302 53.099,21.218 53.053,21.104 53.007,20.997 52.961,20.89 52.892,20.76 52.571,20.049 52.365,19.255 52.296,18.43 52.266,17.979 52.197,17.342 52.197,16.854 l -0.393,0.037 c -1.81,0.076 -3.291,0.16 -4.923,0.184 -0.972,0.014 -1.955,0.061 -2.925,0.061 h -0.161 l -4.584,-0.183 c 0,0 -2.098,-0.047 -2.351,-0.056 -0.252,-0.014 -0.29,0.123 -0.297,0.207 -0.039,0.298 -0.043,0.608 -0.074,0.891 -0.069,0.58 -0.198,1.169 -0.328,1.772 l -0.077,0.229 c -0.107,0.321 -0.221,0.688 -0.374,0.985 -0.23,0.643 -0.703,1.185 -1.292,1.498 0.604,0.1 1.223,0.039 1.758,-0.183 0.71,-0.298 1.436,-0.963 1.451,-1.612 0.023,-0.597 -0.099,-0.558 -0.099,-0.978 -0.007,-0.711 0.772,-1.253 1.039,-1.376 m -8.501,-54.867 c -0.231,-0.328 -0.577,-0.546 -0.972,-0.615 l -0.223,-0.038 c -0.814,-0.144 -1.597,0.408 -1.738,1.225 l -3.559,20.591 c 0.264,-0.148 0.541,-0.234 0.813,-0.234 0.203,0 0.41,0.013 0.62,0.041 0.66,0.086 1.327,0.323 1.752,0.849 l 3.56,-20.696 c 0.069,-0.395 -0.021,-0.794 -0.253,-1.123 m 2.432,1.434 -3.866,22.352 29.748,5.209 c 0.132,0.02 0.252,-0.064 0.282,-0.231 l 1.176,-5.423 c -0.431,-0.112 -0.83,-0.2 -1.165,-0.262 -1.206,-0.225 -5.132,-0.818 -5.733,-0.956 -1.198,-0.273 -1.683,-0.669 -2.116,-0.933 -1.501,-0.917 -4.351,-3.602 -5.778,-4.686 -0.44,-0.381 -1.337,-1.36 -1.777,-1.74 -1.424,-1.306 -3.677,-3.361 -3.982,-3.729 -0.758,-1.043 -0.251,-2.081 0.582,-2.939 0.834,-0.859 2.38,-0.715 2.579,-0.696 0.609,0.056 1.139,0.174 1.729,0.433 0.852,0.349 4.481,2.826 5.465,3.447 l 0.519,0.327 c 0.213,0.15 0.332,0.01 0.142,-0.162 -0.178,-0.159 -0.341,-0.352 -0.341,-0.352 l -0.341,-0.351 c -1.115,-1.192 -2.301,-2.321 -3.496,-3.381 -1.879,-1.737 -3.905,-3.349 -6.012,-4.837 -0.661,-0.536 -1.377,-1.026 -2.053,-1.55 l -5.747,-1.053 c 0.174,0.391 0.272,1.003 0.185,1.513 m 27.195,-0.13 c -0.221,0.184 -0.444,0.207 -0.723,0.173 -0.272,-0.024 -0.533,-0.118 -0.796,-0.211 l -1.963,-1.077 -3.489,-1.753 c -0.846,-0.418 -1.692,-0.553 -2.638,-0.641 l -0.906,0.061 c -0.069,-0.006 -0.144,0.053 -0.144,0.053 -0.048,0.216 0.178,0.291 0.178,0.291 1.292,0.729 2.509,1.521 3.801,2.25 0.643,0.399 1.286,0.798 1.923,1.266 0.577,0.393 1.08,0.848 1.585,1.235 0.312,0.299 0.625,0.598 0.796,0.954 0.057,0.144 0.044,0.278 -0.102,0.4 -0.228,0.249 -0.571,0.287 -0.83,0.128 -0.319,-0.234 -0.643,-0.399 -0.968,-0.564 l -6.53,-4.216 c -0.387,-0.241 -0.84,-0.487 -1.223,-0.726 -0.846,-0.418 -2.526,-0.74 -3.035,-0.404 -0.183,0.12 0.109,0.284 0.238,0.361 0.649,0.334 1.298,0.665 1.947,0.995 0.891,0.567 1.399,1.014 1.897,1.342 0.691,0.455 1.286,0.99 1.916,1.526 1.134,0.986 2.121,2.096 2.963,3.263 0.243,0.293 0.335,0.513 0.513,0.803 0.057,0.141 0.124,0.41 -0.02,0.466 -0.218,0.185 -0.489,0.16 -0.745,-0.002 -0.318,-0.231 -0.637,-0.465 -0.955,-0.699 l -4.22,-3.693 c -0.253,-0.228 -0.509,-0.387 -0.759,-0.615 -0.63,-0.532 -1.529,-1.049 -2.243,-1.385 l -2.823,-1.41 c -1.215,-0.545 -1.765,-0.747 -2.095,-0.847 -0.331,-0.099 -0.914,-0.119 -1.323,-0.087 -0.138,-0.013 -0.278,0.044 -0.418,0.097 0,0 -0.081,0.128 -0.019,0.203 0.057,0.14 0.184,0.221 0.244,0.292 0.508,0.387 1.017,0.774 1.526,1.16 1.407,0.949 2.744,1.952 4.069,3.029 2.657,2.148 5.095,4.477 7.307,6.994 0.491,0.586 0.475,0.599 0.965,1.189 0.549,0.661 1.371,1.744 1.371,1.744 0.529,0.669 -0.108,1.207 -0.671,1.165 -0.134,-0.009 -2.471,-0.723 -3.653,-1.171 -1.439,-0.608 -2.52,-1.667 -4.205,-2.751 -0.471,-0.303 -1.696,-1.063 -2.211,-1.27 -1.746,-0.703 -3.008,0.199 -2.155,0.917 0,0 2.104,1.869 2.926,2.555 1.207,0.929 4.351,4.254 7.483,6.469 0.984,0.697 1.378,0.831 2.458,0.969 5.301,0.68 9.667,2.146 11.97,3.717 0.574,0.393 1.132,0.755 1.635,1.211 0.25,0.224 0.502,0.452 0.752,0.68 0.122,0.146 0.394,0.171 0.605,0.055 0.209,-0.05 0.425,-0.165 0.565,-0.218 1.497,-0.747 2.738,-1.745 3.748,-3.146 0.702,-0.956 1.279,-2.057 1.653,-3.181 0.081,-0.128 0.168,-0.324 0.18,-0.458 0.203,-0.727 0.203,-0.727 -0.375,-1.12 -2.287,-1.709 -4.263,-3.861 -5.806,-6.312 -0.708,-1.155 -1.411,-2.374 -2.123,-3.528 l -2.953,-4.825 -0.768,-1.226 c -0.709,-1.154 -1.59,-2.151 -2.832,-2.671 -0.853,-0.353 -1.339,-0.735 -2.197,-1.018 -0.528,-0.184 -1.121,-0.374 -1.713,-0.567 -0.266,-0.091 -1.458,-0.342 -1.641,-0.02 -0.099,0.175 0.233,0.286 0.361,0.364 0.973,0.498 2.055,1.247 3.035,1.677 0.775,0.377 1.033,0.588 1.53,0.978 0.201,0.278 0.352,0.596 0.13,0.78 M 88.671,0.216 v -3.528 -5.075 -0.481 c -0.089,-0.082 -0.164,-0.164 -0.178,-0.228 -0.515,-0.321 -1.989,-1.398 -2.504,-1.716 l -8.659,-5.819 -0.387,-0.237 c -0.128,-0.081 -0.128,-0.081 -0.281,0.109 -0.152,0.191 -0.246,0.453 -0.339,0.715 -0.268,0.724 -0.375,1.035 -0.774,1.678 -1.144,2.069 -2.527,3.726 -4.592,4.915 -0.411,0.236 -0.607,0.234 0.136,1.048 l 9.455,9.159 h 2.348 v 0 h 2.299 3.025 c 0.249,0 0.451,-0.201 0.451,-0.45 z m -91.07,67.011 v -99.413 c 0,-14.737 12.018,-25.862 20.101,-29.682 10.849,-5.126 15.326,-7.09 22.752,-10.344 l 3.416,-1.49 c 0.328,-0.145 0.702,-0.145 1.031,0 l 2.559,1.115 c 8.924,3.92 11.644,5.119 23.509,10.719 5.86,2.766 13.782,9.375 17.702,18.513 1.49,3.468 2.399,7.296 2.399,11.421 v 99.413 c 0,0.359 -0.291,0.642 -0.642,0.642 H -1.757 c -0.359,0 -0.642,-0.283 -0.642,-0.894"
             style="fill:#012850;fill-opacity:1;fill-rule:nonzero;stroke:none"
             id="path138507" />
        </g>
        <g
           id="g138509"
           transform="translate(530.0616,254.8915)">
          <path
             d="m 0,0 v 93.765 c 0,0.662 -0.538,1.2 -1.2,1.2 -0.663,0 -1.2,-0.538 -1.2,-1.2 V 0 c 0,-0.663 0.537,-1.2 1.2,-1.2 0.662,0 1.2,0.537 1.2,1.2"
             style="fill:#012850;fill-opacity:1;fill-rule:nonzero;stroke:none"
             id="path138511" />
        </g>
        <g
           id="g138513"
           transform="translate(250.0753,265.9423)">
          <path
             d="M 0,0 C -3.142,0 -6.284,0 -9.427,0.117 -9.776,7.565 -9.66,17.226 -9.66,35.148 v 0.117 c 25.838,0 27.002,-0.931 28.631,-5.004 l 0.582,0.349 c -0.465,2.211 -0.582,3.607 -0.582,6.052 0,2.328 0.117,3.957 0.582,6.168 l -0.582,0.116 c -1.28,-4.073 -2.677,-4.655 -28.631,-5.004 0,16.294 -0.116,23.743 0.233,33.054 3.259,0.348 6.401,0.233 9.311,0.233 11.755,0 20.949,-1.747 26.885,-7.217 l 0.582,0.582 c -0.699,1.63 -2.793,7.682 -2.793,9.078 h -38.757 c -1.745,0 -6.517,0 -8.147,0.582 l -0.116,-0.582 c 2.328,-0.814 3.491,-2.443 3.608,-4.888 0.349,-7.449 0.232,-15.246 0.232,-33.286 0,-18.272 0.117,-25.605 -0.232,-33.17 -0.117,-1.979 -1.28,-3.724 -3.608,-5.005 l 0.116,-0.466 c 1.746,0.35 6.285,0.466 8.147,0.466 h 42.714 c 0,1.048 3.608,7.915 4.19,9.078 L 32.123,6.983 C 24.79,1.514 12.803,0 0,0"
             style="fill:#012850;fill-opacity:1;fill-rule:nonzero;stroke:none"
             id="path138515" />
        </g>
        <g
           id="g138517"
           transform="translate(322.7008,265.9423)">
          <path
             d="M 0,0 C -2.21,0 -4.539,0 -6.866,0.117 -7.215,7.565 -7.1,17.341 -7.1,35.498 c 0,18.04 -0.115,25.837 0.234,33.286 0.116,2.445 1.28,4.074 3.608,4.888 l -0.117,0.582 c -1.513,-0.582 -6.401,-0.582 -8.146,-0.582 -1.747,0 -6.518,0 -8.264,0.582 l -0.116,-0.582 c 2.327,-0.814 3.491,-2.443 3.608,-4.888 0.349,-7.449 0.232,-15.246 0.232,-33.286 0,-18.272 0.117,-25.605 -0.232,-33.17 -0.117,-1.979 -1.281,-3.724 -3.608,-5.005 l 0.116,-0.466 c 1.746,0.35 6.285,0.466 8.147,0.466 h 40.735 c 0,1.164 3.492,7.915 4.073,9.078 L 32.589,6.983 C 24.674,1.048 13.152,-0.116 0,0"
             style="fill:#012850;fill-opacity:1;fill-rule:nonzero;stroke:none"
             id="path138519" />
        </g>
        <g
           id="g138521"
           transform="translate(394.2799,263.2655)">
          <path
             d="m 0,0 c -2.444,1.164 -3.608,2.793 -3.725,5.005 -0.349,7.564 -0.232,14.897 -0.232,33.17 v 35.381 c 11.173,0.116 20.484,-1.164 28.398,-6.867 l 0.582,0.582 c -0.582,1.513 -2.793,8.147 -2.793,9.078 h -61.335 c 0,-0.931 -2.212,-7.681 -2.794,-9.194 l 0.582,-0.466 c 7.915,5.47 17.458,6.983 28.515,6.867 V 38.175 c 0,-18.273 0.116,-25.606 -0.233,-33.17 C -13.151,2.677 -14.315,1.28 -16.76,0 l 0.117,-0.466 c 1.63,0.349 6.401,0.466 8.263,0.466 1.862,0 6.518,-0.117 8.147,-0.466 z"
             style="fill:#012850;fill-opacity:1;fill-rule:nonzero;stroke:none"
             id="path138523" />
        </g>
        <g
           id="g138525"
           transform="translate(458.6408,265.9423)">
          <path
             d="M 0,0 C -3.143,0 -6.285,0 -9.427,0.117 -9.776,7.565 -9.66,17.226 -9.66,35.148 v 0.117 c 25.838,0 27.001,-0.931 28.631,-5.004 l 0.582,0.349 c -0.466,2.211 -0.582,3.607 -0.582,6.052 0,2.328 0.116,3.957 0.582,6.168 l -0.582,0.116 C 17.69,38.873 16.294,38.291 -9.66,37.942 c 0,16.294 -0.116,23.743 0.233,33.054 3.259,0.348 6.401,0.233 9.311,0.233 11.755,0 20.949,-1.747 26.885,-7.217 l 0.582,0.582 c -0.699,1.63 -2.793,7.682 -2.793,9.078 h -38.757 c -1.745,0 -6.518,0 -8.147,0.582 l -0.116,-0.582 c 2.327,-0.814 3.491,-2.443 3.608,-4.888 0.349,-7.449 0.232,-15.246 0.232,-33.286 0,-18.272 0.117,-25.605 -0.232,-33.17 -0.117,-1.979 -1.281,-3.724 -3.608,-5.005 l 0.116,-0.466 c 1.746,0.35 6.285,0.466 8.147,0.466 h 42.713 c 0,1.048 3.609,7.915 4.191,9.078 L 32.123,6.983 C 24.79,1.514 12.803,0 0,0"
             style="fill:#012850;fill-opacity:1;fill-rule:nonzero;stroke:none"
             id="path138527" />
        </g>
        <g
           id="g138529"
           transform="translate(595.2789,339.6147)">
          <path
             d="M 0,0 -0.117,0.582 C -1.629,0 -6.518,0 -8.263,0 c -1.746,0 -6.518,0 -8.264,0.582 L -16.643,0 c 2.328,-0.814 3.491,-2.444 3.608,-4.888 0.349,-7.449 0.349,-15.247 0.349,-33.286 0,-18.273 0,-25.606 -0.349,-33.17 -0.117,-2.212 -1.28,-3.957 -3.608,-5.005 l 0.116,-0.466 c 1.862,0.349 6.402,0.466 8.264,0.466 1.862,0 6.517,-0.117 8.146,-0.466 L 0,-76.349 c -1.513,0.814 -3.492,1.745 -3.607,5.005 -0.35,7.564 -0.234,14.897 -0.234,33.17 0,18.039 -0.116,25.837 0.234,33.286 C -3.492,-2.444 -2.327,-0.814 0,0"
             style="fill:#012850;fill-opacity:1;fill-rule:nonzero;stroke:none"
             id="path138531" />
        </g>
        <g
           id="g138533"
           transform="translate(701.3063,262.7997)">
          <path
             d="m 0,0 0.116,0.466 c -2.211,0.814 -7.1,3.492 -10.475,6.867 -7.449,7.448 -20.599,20.949 -37.825,38.523 12.919,11.173 22.695,19.553 29.213,25.023 4.074,3.375 8.147,5.354 10.474,5.936 l -0.349,0.581 c -2.211,-0.464 -4.654,-0.581 -6.983,-0.581 -2.328,0 -5.237,0.117 -6.983,0.581 l -0.233,-0.581 c 1.747,-0.582 1.28,-2.328 -2.327,-5.703 -7.333,-6.866 -18.157,-17.109 -35.265,-32.471 v 0.581 c 0,17.691 -0.116,25.139 0.233,32.705 0.116,2.444 1.279,4.073 3.608,4.888 l -0.117,0.581 c -1.513,-0.581 -6.401,-0.581 -8.147,-0.581 -1.746,0 -6.517,0 -8.263,0.581 l -0.116,-0.581 c 2.327,-0.815 3.491,-2.444 3.607,-4.888 0.35,-7.449 0.233,-15.247 0.233,-33.286 0,-18.273 0.117,-25.606 -0.233,-33.17 -0.116,-2.212 -1.28,-3.957 -3.607,-5.005 L -73.323,0 c 1.862,0.349 6.401,0.466 8.263,0.466 1.863,0 6.518,-0.117 8.147,-0.466 l 0.117,0.466 c -2.329,1.048 -3.492,2.793 -3.608,5.005 -0.349,6.866 -0.233,14.083 -0.233,29.677 l 6.052,5.238 c 17.109,-17.691 27.002,-27.583 34.101,-34.915 2.212,-2.328 2.095,-3.725 -0.582,-5.005 L -20.949,0 c 1.862,0.349 8.845,0.466 11.289,0.466 C -7.449,0.466 -2.444,0.349 0,0"
             style="fill:#012850;fill-opacity:1;fill-rule:nonzero;stroke:none"
             id="path138535" />
        </g>
        <g
           id="g138537"
           transform="translate(236.0768,223.9926)">
          <path
             d="M 0,0 -0.046,0.228 C -0.639,0 -2.555,0 -3.239,0 -3.924,0 -5.794,0 -6.479,0.228 L -6.524,0 c 0.912,-0.32 1.368,-0.958 1.414,-1.917 0.136,-2.919 0.136,-5.976 0.136,-13.049 0,-7.163 0,-10.038 -0.136,-13.004 -0.046,-0.867 -0.502,-1.551 -1.414,-1.962 l 0.045,-0.182 c 0.73,0.137 2.51,0.182 3.24,0.182 0.73,0 2.555,-0.045 3.193,-0.182 L 0,-29.932 c -0.593,0.32 -1.369,0.685 -1.414,1.962 -0.137,2.966 -0.092,5.841 -0.092,13.004 0,7.073 -0.045,10.13 0.092,13.049 C -1.369,-0.958 -0.912,-0.32 0,0"
             style="fill:#012850;fill-opacity:1;fill-rule:nonzero;stroke:none"
             id="path138539" />
        </g>
        <g
           id="g138541"
           transform="translate(274.9987,223.9926)">
          <path
             d="M 0,0 C -0.73,0 -1.643,0.045 -2.327,0.228 L -2.373,0 c 0.959,-0.365 1.278,-0.867 1.415,-1.917 0.228,-2.919 0.365,-5.976 0.365,-13.049 0,-5.567 0.046,-7.483 0.182,-10.038 -4.243,4.7 -8.396,9.308 -10.357,11.544 -1.962,2.189 -6.48,7.346 -11.772,13.46 h -0.73 c -1.415,0 -3.012,0.045 -4.107,0.228 L -27.423,0 c 1.05,-0.41 1.598,-1.14 1.643,-2.19 0.137,-2.92 0.092,-5.703 0.092,-12.776 0,-7.163 -0.046,-10.038 -0.274,-13.004 -0.046,-0.867 -0.502,-1.551 -1.415,-1.962 l 0.046,-0.182 c 0.685,0.137 1.551,0.182 2.281,0.182 0.685,0 1.689,-0.045 2.282,-0.182 l 0.045,0.182 c -0.958,0.502 -1.368,1.05 -1.415,1.962 -0.227,2.966 -0.364,5.886 -0.364,13.004 0,6.89 -0.091,8.943 -0.091,11.955 6.023,-6.89 10.083,-11.407 11.498,-13.005 L -0.091,-30.845 H 0.73 c -0.136,2.966 -0.091,8.716 -0.091,15.879 0,7.073 0.091,10.13 0.319,13.049 0.137,1.05 0.456,1.552 1.369,1.917 L 2.281,0.228 C 1.597,0.045 0.684,0 0,0"
             style="fill:#012850;fill-opacity:1;fill-rule:nonzero;stroke:none"
             id="path138543" />
        </g>
        <g
           id="g138545"
           transform="translate(292.8878,223.9926)">
          <path
             d="M 0,0 C -0.684,0 -2.555,0 -3.194,0.228 L -3.239,0 c 0.912,-0.32 1.368,-0.958 1.414,-1.917 0.136,-2.919 0.091,-5.976 0.091,-13.049 0,-7.163 0.045,-10.038 -0.091,-13.004 -0.046,-0.867 -0.502,-1.551 -1.414,-1.962 l 0.045,-0.182 c 0.73,0.137 2.829,0.182 3.24,0.182 0.73,0 2.555,-0.045 3.193,-0.182 l 0.046,0.182 c -0.912,0.411 -1.369,1.095 -1.414,1.962 -0.137,2.921 -0.092,5.841 -0.092,12.867 v 0.046 c 10.13,0 10.586,-0.365 11.225,-1.962 l 0.228,0.137 c -0.183,0.866 -0.228,1.414 -0.228,2.372 0,0.913 0.045,1.552 0.228,2.419 l -0.228,0.045 c -0.502,-1.597 -1.05,-1.825 -11.225,-1.962 0,6.388 -0.045,9.308 0.092,12.958 1.277,0.092 2.509,0.137 3.741,0.137 4.152,0 7.847,-0.547 10.449,-2.875 l 0.229,0.229 C 16.015,-2.92 15.194,-0.547 15.194,0 Z"
             style="fill:#012850;fill-opacity:1;fill-rule:nonzero;stroke:none"
             id="path138547" />
        </g>
        <g
           id="g138549"
           transform="translate(331.7633,194.517)">
          <path
             d="m 0,0 c -6.799,0 -12.593,5.521 -12.593,14.51 0,8.988 5.794,14.51 12.593,14.51 6.753,0 12.501,-5.522 12.501,-14.51 C 12.501,5.521 6.753,0 0,0 m 0,30.388 c -8.853,0 -16.426,-6.205 -16.426,-15.878 0,-9.674 7.573,-15.879 16.426,-15.879 8.806,0 16.38,6.205 16.38,15.879 0,9.673 -7.574,15.878 -16.38,15.878"
             style="fill:#012850;fill-opacity:1;fill-rule:nonzero;stroke:none"
             id="path138551" />
        </g>
        <g
           id="g138553"
           transform="translate(363.9333,209.4369)">
          <path
             d="m 0,0 c -0.502,0 -0.912,0 -1.415,0.046 0,6.023 0,10.768 0.138,13.506 5.977,0 9.444,-1.506 9.444,-6.388 C 8.167,2.236 4.973,0 0,0 m 14.874,-14.92 c -1.87,0 -3.604,3.057 -5.383,6.296 -1.917,3.241 -3.97,6.845 -6.708,7.575 4.973,0.73 9.126,3.285 9.126,8.213 0,4.107 -3.605,7.574 -11.909,7.574 -0.73,0 -4.882,-0.045 -6.388,-0.182 v -0.183 c 0.867,-0.045 1.323,-0.593 1.368,-1.734 0.138,-2.92 0.092,-5.976 0.092,-13.049 0,-7.164 0.046,-10.038 -0.092,-13.004 -0.045,-0.867 -0.501,-1.506 -1.459,-1.962 l 0.091,-0.183 c 0.684,0.138 2.555,0.183 3.24,0.183 0.73,0 2.555,-0.045 3.193,-0.183 l 0.046,0.183 c -0.867,0.41 -1.323,1.095 -1.368,1.962 -0.138,2.829 -0.138,5.794 -0.138,12.046 0.503,0.045 0.822,0.045 1.323,0.045 0.411,0 0.822,0 1.233,-0.045 2.19,-0.593 3.193,-3.423 4.425,-6.388 1.46,-3.879 3.103,-8.031 6.981,-8.031 1.05,0 2.054,0.046 2.921,0.73 l -0.092,0.228 c -0.227,-0.045 -0.41,-0.091 -0.502,-0.091"
             style="fill:#012850;fill-opacity:1;fill-rule:nonzero;stroke:none"
             id="path138555" />
        </g>
        <g
           id="g138557"
           transform="translate(420.4215,223.9926)">
          <path
             d="M 0,0 -0.045,0.228 C -0.41,0.091 -1.961,0 -2.783,0 c -0.73,0 -2.053,0 -2.418,0.137 -1.278,-2.966 -3.285,-7.757 -6.525,-15.058 -2.647,-5.931 -3.011,-6.889 -4.472,-9.946 -1.368,3.057 -1.323,2.966 -4.608,9.901 -3.285,7.163 -5.566,12.137 -6.844,15.103 C -28.152,0 -29.338,0 -30.114,0 -30.981,0 -32.122,0.091 -33.08,0.228 L -33.125,0 c 0.913,-0.32 1.368,-0.958 1.414,-1.917 0.136,-2.919 0.091,-5.976 0.091,-13.049 0,-7.163 -0.045,-10.038 -0.274,-13.004 -0.045,-0.776 -0.501,-1.46 -1.414,-1.962 l 0.046,-0.182 c 0.684,0.137 1.597,0.182 2.281,0.182 0.73,0 1.643,-0.045 2.327,-0.182 l 0.046,0.182 c -0.913,0.502 -1.369,1.186 -1.414,1.962 -0.229,2.966 -0.275,5.841 -0.275,13.004 0,6.388 -0.182,9.491 -0.182,12.365 l 0.319,-0.593 c 1.415,-2.738 2.327,-5.064 5.521,-11.772 3.331,-7.118 5.475,-11.59 6.708,-14.555 h 1.095 c 1.14,2.965 3.057,7.346 6.296,14.6 2.829,6.252 4.198,9.446 5.521,12.229 0.137,-2.783 0,-5.841 0,-12.274 0,-7.163 0.046,-10.038 -0.091,-13.004 -0.046,-0.776 -0.502,-1.46 -1.414,-1.962 l 0.045,-0.182 c 0.73,0.137 2.51,0.182 3.24,0.182 0.73,0 2.555,-0.045 3.194,-0.182 L 0,-29.932 c -0.913,0.502 -1.368,1.186 -1.414,1.962 -0.137,2.966 -0.091,5.841 -0.091,13.004 0,7.073 -0.046,10.13 0.091,13.049 C -1.368,-0.639 -0.593,-0.228 0,0"
             style="fill:#012850;fill-opacity:1;fill-rule:nonzero;stroke:none"
             id="path138559" />
        </g>
        <g
           id="g138561"
           transform="translate(434.3405,204.7836)">
          <path
             d="M 0,0 C 0.502,1.14 1.095,2.373 1.78,3.833 4.472,9.581 5.384,11.909 6.844,14.92 8.304,11.909 8.806,10.631 11.955,3.833 12.639,2.418 13.232,1.14 13.734,0 Z M 21.537,-8.031 C 19.939,-5.11 18.981,-3.103 15.696,3.833 12.411,10.813 9.628,16.699 8.441,19.574 H 7.803 C 6.525,16.654 3.878,10.813 0.547,3.833 -2.738,-3.058 -3.878,-5.43 -5.475,-8.35 -6.16,-9.765 -6.98,-10.403 -7.939,-10.723 l 0.091,-0.182 c 0.868,0.137 1.78,0.182 2.646,0.182 0.913,0 1.871,-0.045 2.601,-0.182 l 0.046,0.182 c -1.14,0.502 -1.551,1.186 -1.233,1.962 0.868,2.145 1.689,4.061 3.286,7.529 h 14.829 c 1.689,-3.468 2.601,-5.476 3.468,-7.529 0.319,-0.776 -0.046,-1.46 -1.187,-1.962 l 0.046,-0.182 c 0.73,0.137 3.057,0.182 3.925,0.182 0.958,0 2.692,-0.045 3.604,-0.182 l 0.046,0.182 c -0.913,0.32 -2.008,1.369 -2.692,2.692"
             style="fill:#012850;fill-opacity:1;fill-rule:nonzero;stroke:none"
             id="path138563" />
        </g>
        <g
           id="g138565"
           transform="translate(459.027,223.9926)">
          <path
             d="m 0,0 c 0,-0.365 -0.867,-3.011 -1.095,-3.605 l 0.228,-0.183 c 3.103,2.145 6.844,2.738 11.179,2.693 v -13.871 c 0,-7.163 0.045,-10.038 -0.091,-13.004 -0.046,-0.912 -0.502,-1.46 -1.46,-1.962 l 0.046,-0.182 c 0.638,0.137 2.509,0.182 3.239,0.182 0.73,0 2.555,-0.045 3.194,-0.182 l 0.091,0.182 c -0.958,0.456 -1.414,1.095 -1.46,1.962 -0.137,2.966 -0.091,5.841 -0.091,13.004 v 13.871 c 4.38,0.045 8.03,-0.456 11.133,-2.693 l 0.228,0.229 C 24.913,-2.965 24.045,-0.365 24.045,0 Z"
             style="fill:#012850;fill-opacity:1;fill-rule:nonzero;stroke:none"
             id="path138567" />
        </g>
        <g
           id="g138569"
           transform="translate(498.6794,223.9926)">
          <path
             d="M 0,0 -0.045,0.228 C -0.639,0 -2.555,0 -3.24,0 -3.924,0 -5.795,0 -6.479,0.228 L -6.525,0 c 0.913,-0.32 1.369,-0.958 1.415,-1.917 0.137,-2.919 0.137,-5.976 0.137,-13.049 0,-7.163 0,-10.038 -0.137,-13.004 -0.046,-0.867 -0.502,-1.551 -1.415,-1.962 l 0.046,-0.182 c 0.73,0.137 2.509,0.182 3.239,0.182 0.73,0 2.555,-0.045 3.195,-0.182 L 0,-29.932 c -0.593,0.32 -1.369,0.685 -1.415,1.962 -0.136,2.966 -0.09,5.841 -0.09,13.004 0,7.073 -0.046,10.13 0.09,13.049 C -1.369,-0.958 -0.913,-0.32 0,0"
             style="fill:#012850;fill-opacity:1;fill-rule:nonzero;stroke:none"
             id="path138571" />
        </g>
        <g
           id="g138573"
           transform="translate(520.9015,211.8554)">
          <path
             d="m 0,0 c 5.064,4.38 8.897,7.666 11.452,9.81 1.597,1.323 3.194,2.1 4.107,2.327 l -0.137,0.228 c -0.867,-0.182 -1.825,-0.228 -2.737,-0.228 -0.913,0 -2.054,0.046 -2.738,0.228 L 9.855,12.137 C 10.54,11.91 10.357,11.225 8.943,9.902 6.069,7.209 1.825,3.194 -4.882,-2.829 v 0.228 c 0,6.935 -0.046,9.856 0.09,12.822 0.046,0.958 0.503,1.596 1.415,1.916 l -0.045,0.228 c -0.594,-0.228 -2.51,-0.228 -3.195,-0.228 -0.684,0 -2.555,0 -3.239,0.228 l -0.046,-0.228 c 0.913,-0.32 1.37,-0.958 1.415,-1.916 0.137,-2.92 0.091,-5.977 0.091,-13.05 0,-7.163 0.046,-10.038 -0.091,-13.004 -0.045,-0.867 -0.502,-1.551 -1.415,-1.962 l 0.046,-0.182 c 0.73,0.137 2.509,0.182 3.239,0.182 0.73,0 2.555,-0.045 3.195,-0.182 l 0.045,0.182 c -0.912,0.411 -1.369,1.095 -1.415,1.962 -0.136,2.692 -0.09,5.521 -0.09,11.635 l 2.373,2.054 c 6.707,-6.936 10.585,-10.814 13.368,-13.689 0.868,-0.912 0.822,-1.459 -0.228,-1.962 l 0.046,-0.182 c 0.73,0.137 3.468,0.182 4.425,0.182 0.868,0 2.83,-0.045 3.788,-0.182 l 0.045,0.182 c -0.867,0.32 -2.783,1.369 -4.106,2.692 C 11.909,-12.182 6.753,-6.889 0,0"
             style="fill:#012850;fill-opacity:1;fill-rule:nonzero;stroke:none"
             id="path138575" />
        </g>
        <g
           id="g138577"
           transform="translate(548.0514,204.7836)">
          <path
             d="M 0,0 C 0.502,1.14 1.095,2.373 1.779,3.833 4.472,9.581 5.384,11.909 6.844,14.92 8.305,11.909 8.807,10.631 11.955,3.833 12.64,2.418 13.232,1.14 13.734,0 Z M 21.537,-8.031 C 19.94,-5.11 18.981,-3.103 15.696,3.833 12.411,10.813 9.627,16.699 8.442,19.574 H 7.802 C 6.525,16.654 3.879,10.813 0.548,3.833 -2.737,-3.058 -3.878,-5.43 -5.475,-8.35 c -0.684,-1.415 -1.506,-2.053 -2.464,-2.373 l 0.091,-0.182 c 0.867,0.137 1.779,0.182 2.647,0.182 0.912,0 1.87,-0.045 2.6,-0.182 l 0.046,0.182 c -1.141,0.502 -1.551,1.186 -1.232,1.962 0.867,2.145 1.688,4.061 3.286,7.529 h 14.829 c 1.687,-3.468 2.6,-5.476 3.467,-7.529 0.32,-0.776 -0.045,-1.46 -1.186,-1.962 l 0.046,-0.182 c 0.73,0.137 3.056,0.182 3.923,0.182 0.959,0 2.693,-0.045 3.605,-0.182 l 0.046,0.182 c -0.913,0.32 -2.008,1.369 -2.692,2.692"
             style="fill:#012850;fill-opacity:1;fill-rule:nonzero;stroke:none"
             id="path138579" />
        </g>
        <g
           id="g138581"
           transform="translate(584.7838,223.9926)">
          <path
             d="M 0,0 -0.045,0.228 C -0.639,0 -2.555,0 -3.24,0 -3.924,0 -5.795,0 -6.479,0.228 L -6.525,0 c 0.912,-0.32 1.369,-0.958 1.415,-1.917 0.137,-2.919 0.137,-5.976 0.137,-13.049 0,-7.163 0,-10.038 -0.137,-13.004 -0.046,-0.867 -0.503,-1.551 -1.415,-1.962 l 0.046,-0.182 c 0.73,0.137 2.509,0.182 3.239,0.182 0.73,0 2.555,-0.045 3.195,-0.182 L 0,-29.932 c -0.593,0.32 -1.369,0.685 -1.415,1.962 -0.136,2.966 -0.09,5.841 -0.09,13.004 0,7.073 -0.046,10.13 0.09,13.049 C -1.369,-0.958 -0.913,-0.32 0,0"
             style="fill:#012850;fill-opacity:1;fill-rule:nonzero;stroke:none"
             id="path138583" />
        </g>
        <g
           id="g138585"
           transform="translate(622.9308,211.8554)">
          <path
             d="m 0,0 c 5.064,4.38 8.897,7.666 11.452,9.81 1.598,1.323 3.195,2.1 4.108,2.327 l -0.138,0.228 c -0.867,-0.182 -1.825,-0.228 -2.737,-0.228 -0.913,0 -2.053,0.046 -2.738,0.228 L 9.856,12.137 C 10.54,11.91 10.357,11.225 8.943,9.902 6.069,7.209 1.825,3.194 -4.882,-2.829 v 0.228 c 0,6.935 -0.046,9.856 0.091,12.822 0.046,0.958 0.502,1.596 1.415,1.916 l -0.046,0.228 c -0.593,-0.228 -2.51,-0.228 -3.194,-0.228 -0.684,0 -2.555,0 -3.239,0.228 l -0.046,-0.228 c 0.912,-0.32 1.369,-0.958 1.414,-1.916 0.137,-2.92 0.091,-5.977 0.091,-13.05 0,-7.163 0.046,-10.038 -0.091,-13.004 -0.045,-0.867 -0.502,-1.551 -1.414,-1.962 l 0.046,-0.182 c 0.73,0.137 2.509,0.182 3.239,0.182 0.73,0 2.555,-0.045 3.194,-0.182 l 0.046,0.182 c -0.913,0.411 -1.369,1.095 -1.415,1.962 -0.137,2.692 -0.091,5.521 -0.091,11.635 l 2.373,2.054 c 6.707,-6.936 10.586,-10.814 13.368,-13.689 0.868,-0.912 0.822,-1.459 -0.227,-1.962 l 0.045,-0.182 c 0.73,0.137 3.468,0.182 4.426,0.182 0.867,0 2.829,-0.045 3.787,-0.182 l 0.046,0.182 c -0.867,0.32 -2.784,1.369 -4.106,2.692 C 11.909,-12.182 6.753,-6.889 0,0"
             style="fill:#012850;fill-opacity:1;fill-rule:nonzero;stroke:none"
             id="path138587" />
        </g>
        <g
           id="g138589"
           transform="translate(650.0822,204.7836)">
          <path
             d="M 0,0 C 0.502,1.14 1.095,2.373 1.78,3.833 4.471,9.581 5.384,11.909 6.844,14.92 8.304,11.909 8.806,10.631 11.954,3.833 12.638,2.418 13.232,1.14 13.733,0 Z M 21.536,-8.031 C 19.939,-5.11 18.981,-3.103 15.696,3.833 12.411,10.813 9.627,16.699 8.44,19.574 H 7.803 C 6.525,16.654 3.878,10.813 0.547,3.833 -2.738,-3.058 -3.878,-5.43 -5.476,-8.35 -6.16,-9.765 -6.981,-10.403 -7.939,-10.723 l 0.091,-0.182 c 0.867,0.137 1.78,0.182 2.646,0.182 0.913,0 1.871,-0.045 2.601,-0.182 l 0.046,0.182 c -1.141,0.502 -1.552,1.186 -1.233,1.962 0.868,2.145 1.689,4.061 3.286,7.529 h 14.829 c 1.689,-3.468 2.601,-5.476 3.468,-7.529 0.319,-0.776 -0.046,-1.46 -1.187,-1.962 l 0.046,-0.182 c 0.73,0.137 3.057,0.182 3.924,0.182 0.958,0 2.692,-0.045 3.605,-0.182 l 0.046,0.182 c -0.913,0.32 -2.008,1.369 -2.693,2.692"
             style="fill:#012850;fill-opacity:1;fill-rule:nonzero;stroke:none"
             id="path138591" />
        </g>
        <g
           id="g138593"
           transform="translate(686.9508,209.4369)">
          <path
             d="m 0,0 c -0.501,0 -0.913,0 -1.414,0.046 0,6.023 0,10.768 0.136,13.506 5.978,0 9.445,-1.506 9.445,-6.388 C 8.167,2.236 4.974,0 0,0 m 15.377,-14.829 c -0.229,-0.045 -0.411,-0.091 -0.502,-0.091 -1.871,0 -3.604,3.057 -5.384,6.296 -1.916,3.241 -3.97,6.845 -6.707,7.575 4.973,0.73 9.125,3.285 9.125,8.213 0,4.107 -3.604,7.574 -11.909,7.574 -0.73,0 -4.882,-0.045 -6.388,-0.182 v -0.183 c 0.867,-0.045 1.324,-0.593 1.369,-1.734 0.137,-2.92 0.091,-5.976 0.091,-13.049 0,-7.164 0.046,-10.038 -0.091,-13.004 -0.045,-0.867 -0.502,-1.506 -1.46,-1.962 l 0.091,-0.183 c 0.685,0.138 2.555,0.183 3.24,0.183 0.73,0 2.555,-0.045 3.194,-0.183 l 0.046,0.183 c -0.867,0.41 -1.324,1.095 -1.37,1.962 -0.136,2.829 -0.136,5.794 -0.136,12.046 0.501,0.045 0.821,0.045 1.323,0.045 0.411,0 0.821,0 1.232,-0.045 2.19,-0.593 3.194,-3.423 4.426,-6.388 1.46,-3.879 3.103,-8.031 6.981,-8.031 1.05,0 2.053,0.046 2.92,0.73 z"
             style="fill:#012850;fill-opacity:1;fill-rule:nonzero;stroke:none"
             id="path138595" />
        </g>
      </g>
    </g>
  </g>
</svg>
