<?xml version="1.0" encoding="UTF-8" standalone="no"?>
<!-- Created with Inkscape (http://www.inkscape.org/) -->

<svg
   width="200mm"
   height="200mm"
   viewBox="0 0 200 200"
   version="1.1"
   id="svg2546"
   inkscape:version="1.2.2 (b0a8486541, 2022-12-01)"
   sodipodi:docname="holodb-logo.svg"
   xmlns:inkscape="http://www.inkscape.org/namespaces/inkscape"
   xmlns:sodipodi="http://sodipodi.sourceforge.net/DTD/sodipodi-0.dtd"
   xmlns:xlink="http://www.w3.org/1999/xlink"
   xmlns="http://www.w3.org/2000/svg"
   xmlns:svg="http://www.w3.org/2000/svg">
  <sodipodi:namedview
     id="namedview2548"
     pagecolor="#ffffff"
     bordercolor="#000000"
     borderopacity="0.25"
     inkscape:showpageshadow="2"
     inkscape:pageopacity="0.0"
     inkscape:pagecheckerboard="0"
     inkscape:deskcolor="#d1d1d1"
     inkscape:document-units="mm"
     showgrid="false"
     inkscape:zoom="0.58169525"
     inkscape:cx="163.31576"
     inkscape:cy="275.05812"
     inkscape:window-width="1920"
     inkscape:window-height="1135"
     inkscape:window-x="0"
     inkscape:window-y="0"
     inkscape:window-maximized="1"
     inkscape:current-layer="layer1" />
  <defs
     id="defs2543">
    <linearGradient
       inkscape:collect="always"
       xlink:href="#linearGradient73463"
       id="linearGradient73465"
       x1="735.51099"
       y1="925.21588"
       x2="983.07788"
       y2="314.52869"
       gradientUnits="userSpaceOnUse"
       gradientTransform="matrix(0.2501862,0,0,0.2501862,-98.541986,-37.751311)" />
    <linearGradient
       inkscape:collect="always"
       id="linearGradient73463">
      <stop
         style="stop-color:#7feaff;stop-opacity:1;"
         offset="0"
         id="stop73461" />
      <stop
         style="stop-color:#00edbf;stop-opacity:0.51764709;"
         offset="1"
         id="stop73459" />
    </linearGradient>
  </defs>
  <g
     inkscape:label="Réteg 1"
     inkscape:groupmode="layer"
     id="layer1">
    <path
       id="path68081"
       style="fill:url(#linearGradient73465);fill-opacity:1;stroke-width:1.41142"
       d="m 111.65694,4.0874471 c -0.0785,5.3e-4 -0.15505,0.002 -0.23308,0.003 -0.24374,0.002 -0.48991,0.007 -0.73542,0.0127 -0.0894,0.002 -0.17791,0.003 -0.26875,0.006 -0.27111,0.008 -0.54166,0.0182 -0.81261,0.0308 -0.0461,0.002 -0.0922,0.004 -0.13829,0.005 -0.31656,0.0156 -0.6336,0.034 -0.94895,0.0562 -0.0731,0.005 -0.14578,0.0115 -0.21891,0.0166 -0.24362,0.0176 -0.48955,0.0379 -0.73493,0.0591 -0.0915,0.009 -0.18354,0.0169 -0.2751,0.0259 -0.25434,0.0237 -0.50772,0.0499 -0.76278,0.0797 -0.0607,0.007 -0.1216,0.0121 -0.18177,0.02 -0.31242,0.0365 -0.62602,0.0752 -0.93722,0.11825 -0.0663,0.009 -0.13205,0.0198 -0.19888,0.0279 -0.24631,0.0344 -0.49129,0.0707 -0.73884,0.10995 -0.0942,0.0144 -0.18679,0.0298 -0.28048,0.0454 -0.23948,0.0385 -0.48192,0.081 -0.72124,0.12363 -0.0714,0.0129 -0.14457,0.0252 -0.21598,0.0381 -0.30687,0.0568 -0.61594,0.11709 -0.92353,0.17982 -0.0567,0.0122 -0.11435,0.025 -0.17103,0.0371 -0.24987,0.053 -0.50085,0.10799 -0.75056,0.16516 -0.093,0.021 -0.18552,0.043 -0.27853,0.064 -0.23076,0.0545 -0.46223,0.11097 -0.69143,0.16907 -0.0788,0.019 -0.15728,0.039 -0.23748,0.0586 -0.304148,0.0782 -0.605888,0.15818 -0.907408,0.24236 -0.0448,0.0126 -0.0916,0.0275 -0.13634,0.0401 -0.256248,0.0728 -0.513608,0.14745 -0.770588,0.22625 -0.0918,0.0275 -0.1834,0.0552 -0.27609,0.0845 -0.22257,0.0694 -0.44448,0.13984 -0.66601,0.21158 -0.0846,0.0286 -0.169,0.0544 -0.25362,0.0831 -0.29807,0.0997 -0.59535,0.20182 -0.89275,0.30687 -0.0272,0.0106 -0.0544,0.0208 -0.0836,0.0308 -0.26913,0.0969 -0.53732,0.1963 -0.80577,0.29857 -0.0887,0.0347 -0.17918,0.0688 -0.26925,0.10408 -0.0788,0.0304 -0.15522,0.0625 -0.23405,0.0928 -0.0804,0.0382 -0.15906,0.0765 -0.24091,0.11532 l 0.2238,-0.0977 c 0.0783,-0.0315 0.14937,-0.06 0.2282,-0.0904 0.0192,-0.007 0.0364,-0.0138 0.0542,-0.0205 0.006,-0.003 0.0113,-0.005 0.0171,-0.008 0.0657,-0.026 0.1327,-0.0529 0.19888,-0.0777 0.26846,-0.10227 0.53612,-0.20285 0.80578,-0.29856 0.0286,-0.0112 0.0563,-0.0205 0.084,-0.0298 0.0188,-0.007 0.035,-0.0122 0.0538,-0.0191 -0.0589,0.0301 -0.12004,0.0596 -0.17836,0.0909 -0.40015,0.20689 -0.79535,0.42002 -1.18887,0.63817 9.141016,-2.93861 18.953726,-2.85383 28.714236,-0.16418 22.98836,6.3341499 45.68786,27.0701499 58.63249,56.5528299 12.94466,29.48268 12.84859,60.227293 1.95411,81.438053 -4.64365,9.04086 -11.2539,16.34289 -19.64942,21.08258 0.43641,-0.1434 0.87027,-0.29233 1.30374,-0.45004 0.064,-0.0224 0.12721,-0.0461 0.19005,-0.0709 0.0153,-0.007 0.029,-0.014 0.044,-0.022 0.27906,-0.14666 0.55507,-0.29638 0.82966,-0.44955 0.0784,-0.0429 0.15433,-0.0878 0.2322,-0.13193 0.20325,-0.11336 0.40568,-0.22905 0.60729,-0.34597 0.0824,-0.0489 0.16632,-0.0983 0.24927,-0.1461 0.2319,-0.13586 0.4605,-0.27451 0.68749,-0.41388 0.0395,-0.0245 0.0827,-0.0491 0.12171,-0.0748 0.26654,-0.16383 0.52962,-0.33185 0.79306,-0.50281 0.0692,-0.0446 0.13645,-0.0899 0.20426,-0.13389 0.19788,-0.12942 0.39645,-0.26163 0.59222,-0.3958 0.0789,-0.0531 0.15764,-0.10601 0.236,-0.16028 0.21109,-0.14515 0.4213,-0.29266 0.62942,-0.44075 0.0467,-0.0347 0.0953,-0.0688 0.14312,-0.10116 0.25296,-0.18337 0.50604,-0.3699 0.75694,-0.55803 0.0578,-0.0438 0.11708,-0.0881 0.17489,-0.13193 0.19341,-0.1473 0.38912,-0.29735 0.57954,-0.4476 0.0744,-0.0596 0.14796,-0.1173 0.22236,-0.1769 0.19497,-0.15508 0.38801,-0.31064 0.58198,-0.46811 0.0512,-0.0437 0.10371,-0.0838 0.15491,-0.12754 0.24228,-0.19998 0.48292,-0.40501 0.7212,-0.61032 0.0461,-0.0401 0.0917,-0.0801 0.1378,-0.1202 0.19261,-0.16822 0.38367,-0.3369 0.5747,-0.50868 0.0686,-0.0613 0.1366,-0.12389 0.20521,-0.1852 0.18169,-0.16628 0.36311,-0.33274 0.54044,-0.50135 0.0533,-0.0503 0.10742,-0.0992 0.16073,-0.14953 0.22977,-0.21715 0.45792,-0.43817 0.68363,-0.66064 0.0326,-0.0327 0.0647,-0.065 0.0972,-0.0977 0.19269,-0.19094 0.38348,-0.38272 0.57319,-0.5766 0.0637,-0.0648 0.12441,-0.12965 0.18815,-0.19448 0.16941,-0.17508 0.33829,-0.35411 0.50477,-0.53214 0.0526,-0.0557 0.10623,-0.11322 0.16026,-0.16956 0.21664,-0.23551 0.43328,-0.47133 0.64645,-0.71097 0.0159,-0.0199 0.033,-0.0396 0.0503,-0.0572 0.19542,-0.21908 0.38675,-0.43938 0.57862,-0.6626 0.0565,-0.0659 0.11255,-0.13295 0.16904,-0.19888 0.16039,-0.18811 0.31856,-0.37821 0.47591,-0.56927 0.0519,-0.0611 0.10348,-0.12341 0.15491,-0.18569 0.40606,-0.49874 0.80508,-1.00576 1.19528,-1.52163 0.0512,-0.0665 0.10168,-0.13409 0.15045,-0.2023 0.15044,-0.19934 0.29871,-0.40021 0.44614,-0.6025 0.0502,-0.0688 0.0994,-0.13591 0.14954,-0.20474 0.37827,-0.52767 0.75128,-1.06432 1.11363,-1.60912 0.046,-0.067 0.0898,-0.13473 0.13388,-0.2023 0.13996,-0.21175 0.27739,-0.42501 0.41632,-0.63914 0.0468,-0.073 0.0936,-0.1463 0.14169,-0.21989 0.16433,-0.25932 0.32781,-0.52104 0.48918,-0.7833 0.009,-0.0169 0.0201,-0.033 0.0293,-0.0469 0.17479,-0.28517 0.3437,-0.57203 0.51404,-0.85952 0.0379,-0.0663 0.0759,-0.13268 0.11581,-0.1984 0.13091,-0.22478 0.25857,-0.44925 0.38705,-0.67579 0.0441,-0.0789 0.0883,-0.15661 0.1324,-0.23552 0.14116,-0.25483 0.2825,-0.50962 0.42119,-0.7662 0.0193,-0.0367 0.0386,-0.0722 0.0577,-0.10897 0.15952,-0.29692 0.31689,-0.59573 0.47152,-0.89617 0.009,-0.0181 0.0196,-0.0354 0.0289,-0.0523 0.0212,-0.0433 0.0438,-0.0904 0.0664,-0.13438 0.12393,-0.24442 0.24608,-0.48931 0.36946,-0.73492 0.0397,-0.0813 0.081,-0.16334 0.12017,-0.24579 0.13155,-0.26904 0.26223,-0.54047 0.38995,-0.81065 0.0185,-0.0379 0.0357,-0.075 0.0542,-0.11288 0.1461,-0.31229 0.28932,-0.62652 0.431,-0.94114 0.0311,-0.0704 0.0622,-0.14071 0.0933,-0.21109 0.11131,-0.25024 0.22,-0.49954 0.32888,-0.75154 0.0371,-0.0872 0.0733,-0.17248 0.11089,-0.25849 0.12004,-0.28383 0.24069,-0.57058 0.35724,-0.85855 0.0138,-0.0343 0.0266,-0.0654 0.04,-0.0997 0.13139,-0.32285 0.26003,-0.6475 0.38653,-0.97388 0.0299,-0.0769 0.0596,-0.15495 0.0889,-0.23307 0.0978,-0.25425 0.19296,-0.5102 0.28831,-0.7662 0.0328,-0.0895 0.067,-0.17986 0.10065,-0.2712 0.10941,-0.30043 0.21667,-0.60146 0.32449,-0.90546 0.01,-0.0282 0.0196,-0.0553 0.0288,-0.0836 0.1167,-0.33341 0.22928,-0.66918 0.34104,-1.00612 0.0282,-0.0847 0.0559,-0.1705 0.0826,-0.25458 0.0857,-0.25886 0.16788,-0.51758 0.25064,-0.77939 0.0301,-0.0955 0.0606,-0.19002 0.0894,-0.28488 0.0987,-0.31703 0.19537,-0.63544 0.28975,-0.95481 0.007,-0.0228 0.0148,-0.0436 0.0193,-0.064 0.10112,-0.34218 0.19939,-0.68694 0.29416,-1.03202 0.0265,-0.0924 0.0512,-0.18455 0.0757,-0.27755 0.0722,-0.26287 0.1441,-0.52662 0.21257,-0.79063 0.0266,-0.0996 0.0529,-0.19642 0.0777,-0.29661 0.088,-0.33781 0.17351,-0.67749 0.25657,-1.01883 0.003,-0.01 0.005,-0.0192 0.007,-0.0288 0.0856,-0.35094 0.16859,-0.70346 0.24921,-1.05792 0.0241,-0.0984 0.0455,-0.19864 0.0674,-0.29758 0.0593,-0.26568 0.11861,-0.53422 0.17497,-0.80285 0.0227,-0.10075 0.0446,-0.20407 0.0655,-0.3054 0.14967,-0.71234 0.29141,-1.431 0.42116,-2.15444 0.0196,-0.10489 0.0384,-0.21104 0.0572,-0.31712 0.0486,-0.27092 0.0954,-0.54224 0.14073,-0.81311 0.018,-0.10428 0.0349,-0.20971 0.0523,-0.31518 0.0604,-0.36255 0.11811,-0.728 0.17349,-1.09407 0.003,-0.0228 0.006,-0.0458 0.008,-0.0679 0.0516,-0.3445 0.10245,-0.69134 0.14909,-1.03936 0.0151,-0.11021 0.0297,-0.22163 0.044,-0.33422 0.0366,-0.27554 0.0723,-0.54935 0.10557,-0.82484 0.0132,-0.1078 0.0257,-0.21687 0.0391,-0.32348 0.0438,-0.36951 0.0866,-0.74129 0.12605,-1.11313 0.006,-0.0407 0.007,-0.0827 0.0122,-0.12461 0.0342,-0.3341 0.0683,-0.6683 0.1002,-1.00416 0.0106,-0.11793 0.0209,-0.23439 0.0313,-0.35232 0.0254,-0.27778 0.0492,-0.55626 0.0728,-0.8346 0.007,-0.10952 0.0177,-0.219 0.0259,-0.33033 0.0293,-0.37589 0.0552,-0.75161 0.0821,-1.12925 0.003,-0.058 0.006,-0.11494 0.01,-0.17298 0.0212,-0.32556 0.0398,-0.6499 0.0567,-0.97778 0.006,-0.12207 0.0114,-0.2447 0.0175,-0.36795 0.014,-0.28121 0.0257,-0.56407 0.0377,-0.84585 0.003,-0.11066 0.008,-0.22197 0.013,-0.33325 0.0135,-0.38166 0.0262,-0.76189 0.0352,-1.14588 0.003,-0.0718 0.003,-0.1449 0.004,-0.21549 0.008,-0.3182 0.013,-0.63519 0.0169,-0.95334 0,-0.12797 0.003,-0.25611 0.003,-0.38408 0.003,-0.28464 0.004,-0.57068 0.004,-0.85708 0,-0.113 0.003,-0.22585 0,-0.33766 -0.003,-0.38504 -0.007,-0.77114 -0.0116,-1.15613 -0.003,-0.0855 -0.004,-0.1696 -0.006,-0.25507 -0.006,-0.31203 -0.014,-0.62267 -0.022,-0.93527 -0.004,-0.13149 -0.01,-0.26196 -0.0116,-0.39287 -0.01,-0.28926 -0.0196,-0.5787 -0.0303,-0.86735 -0.006,-0.11351 -0.009,-0.22693 -0.0143,-0.34107 -0.0159,-0.38843 -0.0365,-0.77793 -0.0582,-1.16688 -0.006,-0.095 -0.0127,-0.19185 -0.0193,-0.28684 -0.0175,-0.30709 -0.0353,-0.61111 -0.0562,-0.91816 -0.0111,-0.13558 -0.018,-0.27048 -0.0288,-0.40607 -0.0212,-0.29269 -0.0433,-0.58629 -0.0665,-0.87956 -0.009,-0.112277 -0.0172,-0.226467 -0.0278,-0.338137 -0.0318,-0.393 -0.066,-0.78459 -0.10314,-1.17812 -0.0106,-0.1033 -0.0209,-0.207966 -0.0313,-0.311266 -0.0293,-0.30335 -0.0592,-0.60496 -0.0904,-0.90888 -0.0151,-0.13791 -0.0301,-0.2745 -0.0455,-0.41241 -0.0324,-0.29913 -0.0658,-0.59661 -0.10163,-0.89569 -0.0135,-0.11044 -0.0254,-0.22114 -0.0391,-0.33277 -0.049,-0.39396 -0.0991,-0.79049 -0.15102,-1.1874 -0.014,-0.11163 -0.0311,-0.22338 -0.0454,-0.33619 -0.0391,-0.29903 -0.0822,-0.596 -0.12512,-0.89618 -0.0196,-0.14025 -0.0395,-0.2806 -0.0606,-0.42023 -0.0451,-0.30493 -0.0923,-0.60728 -0.13928,-0.91279 -0.0169,-0.1074 -0.0343,-0.21511 -0.0513,-0.32251 -0.0639,-0.39735 -0.12872,-0.79672 -0.19642,-1.19522 -0.0196,-0.11753 -0.0413,-0.23605 -0.0616,-0.35476 -0.0514,-0.29647 -0.10446,-0.59207 -0.15828,-0.89031 -0.0265,-0.14015 -0.0523,-0.28329 -0.0792,-0.42464 -0.0566,-0.30836 -0.11686,-0.61801 -0.17544,-0.92695 -0.0212,-0.10555 -0.0418,-0.20853 -0.0616,-0.31469 -0.0787,-0.40074 -0.16079,-0.79835 -0.24482,-1.19962 -0.0246,-0.12523 -0.0514,-0.24725 -0.0777,-0.37186 -0.0637,-0.29392 -0.1269,-0.58654 -0.19254,-0.88103 -0.0298,-0.14429 -0.0631,-0.28828 -0.0943,-0.43196 -0.0712,-0.31475 -0.14436,-0.63 -0.21794,-0.94651 -0.0236,-0.0989 -0.0461,-0.19689 -0.0689,-0.29465 -0.0945,-0.40233 -0.19245,-0.8048 -0.2917,-1.20646 -0.0311,-0.12814 -0.0637,-0.25537 -0.0968,-0.38408 -0.0732,-0.29259 -0.14772,-0.58444 -0.2228,-0.8776 -0.0374,-0.1424 -0.0755,-0.28614 -0.11288,-0.42855 -0.0858,-0.3253 -0.17269,-0.64994 -0.26045,-0.97582 -0.0249,-0.0911 -0.0485,-0.18284 -0.0743,-0.27218 -0.11121,-0.40209 -0.22561,-0.80725 -0.34205,-1.20988 -0.0361,-0.13165 -0.0769,-0.2626 -0.11483,-0.39482 -0.0835,-0.28947 -0.1692,-0.58086 -0.25604,-0.87028 -0.0426,-0.14293 -0.0858,-0.28715 -0.12951,-0.43245 -0.10229,-0.33227 -0.20363,-0.66498 -0.30787,-0.99781 -0.0259,-0.0822 -0.0512,-0.16607 -0.0772,-0.24824 -0.12695,-0.40368 -0.25578,-0.80824 -0.38942,-1.21183 -0.0423,-0.13457 -0.0883,-0.2703 -0.13343,-0.40363 -0.0949,-0.28871 -0.19195,-0.57769 -0.29024,-0.86637 -0.0479,-0.14345 -0.0959,-0.2868 -0.14658,-0.42903 -0.11806,-0.34519 -0.23728,-0.68978 -0.35867,-1.03494 -0.0262,-0.0708 -0.0487,-0.14176 -0.0748,-0.21256 -0.14219,-0.40408 -0.28943,-0.80758 -0.43778,-1.21038 -0.05,-0.13684 -0.10105,-0.27618 -0.15251,-0.41241 -0.10575,-0.28678 -0.21524,-0.57442 -0.32348,-0.86295 -0.0536,-0.14099 -0.10768,-0.28344 -0.16176,-0.42561 -0.13761,-0.35929 -0.27787,-0.71737 -0.42022,-1.076 -0.0233,-0.0607 -0.0462,-0.12006 -0.0684,-0.17835 -0.15877,-0.39967 -0.32083,-0.79916 -0.48424,-1.19816 -0.0572,-0.13795 -0.11472,-0.276 -0.17301,-0.41632 -0.11715,-0.28603 -0.23664,-0.57405 -0.35718,-0.86002 -0.0596,-0.13971 -0.11811,-0.27961 -0.17884,-0.4217 -0.15914,-0.37395 -0.32178,-0.74949 -0.48426,-1.1234 -0.0143,-0.0321 -0.0294,-0.0661 -0.0435,-0.0982 -0.008,-0.0334 -0.022,-0.0656 -0.0361,-0.0977 v 0 c -0.16587,-0.37386 -0.33232,-0.74903 -0.50038,-1.12046 -0.0615,-0.1361 -0.12475,-0.27269 -0.18667,-0.40998 -0.13057,-0.28584 -0.26252,-0.57101 -0.39587,-0.85562 -0.0617,-0.1331 -0.12382,-0.26611 -0.18563,-0.39922 -0.18716,-0.3957 -0.37399,-0.7912 -0.56343,-1.18447 -0.0217,-0.0457 -0.0447,-0.0901 -0.0664,-0.13585 -0.17322,-0.35641 -0.34673,-0.70944 -0.52139,-1.06524 -0.065,-0.12888 -0.13099,-0.26037 -0.19648,-0.39043 -0.14229,-0.2821 -0.28381,-0.56583 -0.42754,-0.84731 -0.0632,-0.12112 -0.12583,-0.24523 -0.18761,-0.36697 -0.20016,-0.38716 -0.40018,-0.77322 -0.60352,-1.15614 -0.0282,-0.0528 -0.0563,-0.10597 -0.0845,-0.1588 -0.18012,-0.3378 -0.35957,-0.67438 -0.54144,-1.00857 -0.0681,-0.12464 -0.13666,-0.24889 -0.20421,-0.37234 -0.15269,-0.27898 -0.30538,-0.55834 -0.46087,-0.83608 -0.0634,-0.11395 -0.1261,-0.22664 -0.18952,-0.34058 -0.21072,-0.37685 -0.42442,-0.75238 -0.63971,-1.12438 -0.0328,-0.0593 -0.0675,-0.11613 -0.10065,-0.17249 -0.18473,-0.32159 -0.37193,-0.64094 -0.56094,-0.96067 -0.0683,-0.11747 -0.13894,-0.23644 -0.20868,-0.35329 -0.16296,-0.27584 -0.32822,-0.54946 -0.49353,-0.82288 -0.0645,-0.10497 -0.12798,-0.21029 -0.19055,-0.31469 -0.22408,-0.3653 -0.44752,-0.72973 -0.67384,-1.09261 -0.0385,-0.0611 -0.0757,-0.11973 -0.11433,-0.1808 -0.19275,-0.30534 -0.38603,-0.61182 -0.581,-0.91474 -0.0715,-0.11324 -0.14406,-0.22454 -0.21698,-0.33716 -0.17476,-0.2721 -0.34978,-0.54113 -0.52819,-0.81018 -0.0632,-0.0942 -0.12401,-0.19094 -0.18762,-0.28634 -0.23415,-0.35381 -0.46982,-0.70688 -0.7071,-1.05646 -0.0454,-0.0651 -0.0899,-0.12829 -0.13192,-0.1935 -0.19785,-0.29032 -0.39597,-0.57737 -0.59473,-0.86588 -0.0755,-0.1072 -0.1497,-0.21529 -0.22526,-0.3225 -0.18548,-0.26597 -0.37174,-0.53023 -0.55901,-0.79258 -0.0633,-0.087 -0.12325,-0.17398 -0.18468,-0.26046 -0.24506,-0.34051 -0.49067,-0.68205 -0.73885,-1.01833 -0.0493,-0.0663 -0.0973,-0.13431 -0.14711,-0.20181 -0.20243,-0.27411 -0.40693,-0.54911 -0.61029,-0.82141 -0.0768,-0.1024 -0.15235,-0.20251 -0.22918,-0.30492 -0.19759,-0.25922 -0.39566,-0.51841 -0.59275,-0.77645 -0.0591,-0.0775 -0.11866,-0.15624 -0.18028,-0.23553 -0.25366,-0.32963 -0.51028,-0.65469 -0.76573,-0.98071 -0.0544,-0.0668 -0.10777,-0.13449 -0.16219,-0.20133 -0.20672,-0.26089 -0.41458,-0.52103 -0.625,-0.77889 -0.0781,-0.0976 -0.15754,-0.19482 -0.23501,-0.29123 -0.20698,-0.25373 -0.41431,-0.50415 -0.62351,-0.75545 -0.0575,-0.0698 -0.1161,-0.14242 -0.17497,-0.21158 -0.26265,-0.31576 -0.52681,-0.62778 -0.79404,-0.93869 -0.0583,-0.068 -0.11716,-0.13689 -0.17688,-0.20425 -0.2124,-0.24708 -0.42455,-0.49293 -0.63867,-0.73639 -0.0793,-0.0928 -0.16122,-0.1846 -0.24138,-0.2756 -0.21625,-0.24821 -0.43628,-0.49352 -0.65479,-0.73932 -0.0552,-0.0608 -0.10949,-0.12329 -0.16661,-0.18471 -0.27112,-0.30069 -0.54372,-0.60068 -0.81799,-0.89715 -0.0636,-0.0685 -0.12703,-0.13734 -0.19206,-0.20523 -0.21415,-0.2321 -0.43095,-0.46273 -0.64746,-0.69241 -0.0825,-0.0886 -0.16587,-0.17514 -0.24921,-0.26191 -0.22588,-0.23972 -0.45509,-0.47953 -0.68554,-0.7144 -0.0526,-0.0549 -0.10427,-0.10733 -0.15687,-0.16223 -0.27958,-0.28563 -0.56052,-0.57102 -0.84048,-0.85366 -0.0664,-0.0673 -0.13681,-0.13531 -0.20378,-0.20377 -0.21981,-0.21827 -0.43899,-0.43551 -0.66109,-0.65136 -0.0832,-0.0826 -0.16801,-0.16467 -0.25116,-0.24725 -0.24083,-0.23175 -0.48194,-0.46479 -0.72224,-0.69535 -0.0479,-0.0442 -0.0928,-0.0894 -0.14023,-0.13242 -0.28718,-0.27237 -0.57549,-0.54288 -0.86439,-0.81164 -0.0706,-0.0654 -0.14245,-0.13053 -0.21307,-0.19594 -0.22323,-0.20687 -0.44741,-0.41146 -0.67236,-0.61472 -0.0859,-0.0772 -0.17116,-0.15347 -0.25704,-0.23064 -0.25204,-0.22681 -0.50694,-0.45247 -0.75933,-0.67628 -0.0404,-0.0347 -0.0779,-0.0705 -0.11779,-0.10409 -0.29372,-0.25674 -0.58986,-0.51098 -0.88395,-0.76473 -0.0753,-0.0648 -0.15139,-0.12777 -0.22675,-0.19252 -0.22693,-0.19247 -0.45389,-0.38482 -0.68262,-0.57367 -0.0852,-0.0718 -0.17005,-0.14395 -0.25802,-0.21452 -0.26803,-0.22121 -0.53589,-0.44117 -0.80378,-0.6582 -0.031,-0.0247 -0.0604,-0.0501 -0.0914,-0.0748 -0.30022,-0.2411 -0.6001,-0.48094 -0.9035,-0.71782 -0.0771,-0.0611 -0.1575,-0.12201 -0.23653,-0.18372 -0.22979,-0.17988 -0.46223,-0.35847 -0.69289,-0.53654 -0.0859,-0.0658 -0.17029,-0.13242 -0.25705,-0.19643 -0.28207,-0.21505 -0.56591,-0.42646 -0.84926,-0.63671 -0.022,-0.0158 -0.0424,-0.031 -0.0611,-0.0469 -0.30678,-0.22547 -0.6125,-0.44864 -0.91912,-0.66993 -0.0808,-0.0581 -0.16113,-0.115 -0.24335,-0.17249 -0.23456,-0.16785 -0.4683,-0.33467 -0.70463,-0.49891 -0.0852,-0.0604 -0.17184,-0.12036 -0.25702,-0.1808 -0.30141,-0.20939 -0.60324,-0.41535 -0.90448,-0.62057 -0.007,-0.004 -0.0136,-0.008 -0.0191,-0.0132 -0.31139,-0.20926 -0.62308,-0.41541 -0.93624,-0.62106 -0.0826,-0.0545 -0.16523,-0.10884 -0.24921,-0.16272 -0.23882,-0.15464 -0.47571,-0.30915 -0.71489,-0.4608 -0.0859,-0.0544 -0.17066,-0.10945 -0.25605,-0.16271 -0.62568,-0.39459 -1.25353,-0.77938 -1.88226,-1.15419 -0.0857,-0.0503 -0.1703,-0.10121 -0.25605,-0.15147 -0.24219,-0.14323 -0.48459,-0.28363 -0.72661,-0.42268 -0.0833,-0.0485 -0.16646,-0.0968 -0.25117,-0.14464 -0.31745,-0.18109 -0.63666,-0.36184 -0.95676,-0.53751 0,0 -5.3e-4,-10e-4 -0.002,-0.002 -0.31574,-0.17333 -0.63054,-0.34427 -0.947,-0.51161 -0.0861,-0.0473 -0.17293,-0.0926 -0.26044,-0.13927 -0.24452,-0.12944 -0.49204,-0.25802 -0.73884,-0.38505 -0.0807,-0.0426 -0.1632,-0.0856 -0.24529,-0.12754 -0.32156,-0.16368 -0.6437,-0.32571 -0.96508,-0.48522 -0.0146,-0.006 -0.0299,-0.0136 -0.0445,-0.02 -0.30529,-0.14956 -0.60921,-0.2969 -0.91767,-0.44222 -0.0868,-0.0413 -0.17368,-0.0825 -0.26191,-0.12314 -0.24982,-0.1186201 -0.49999,-0.2341001 -0.75105,-0.3479201 -0.0795,-0.036 -0.15755,-0.0727 -0.23651,-0.1075 -0.32423,-0.14691 -0.64983,-0.28895 -0.97338,-0.4305 -0.0247,-0.0105 -0.049,-0.0197 -0.0723,-0.0308 -0.29922,-0.12811 -0.59763,-0.25498 -0.89617,-0.37772 -0.0881,-0.0365 -0.1758,-0.072 -0.26387,-0.10848 -0.25547,-0.10479 -0.50991,-0.2072498 -0.76522,-0.3078498 -0.0755,-0.0307 -0.1508,-0.0614 -0.22575,-0.0909 -0.32728,-0.12713 -0.65408,-0.25281 -0.9812,-0.37576 -0.0333,-0.0109 -0.0639,-0.0235 -0.0963,-0.0362 -0.29228,-0.10848 -0.58692,-0.2141 -0.87957,-0.31958 -0.0874,-0.0311 -0.17455,-0.0624 -0.26142,-0.0923 -0.26113,-0.091 -0.51983,-0.18039 -0.77939,-0.26778 -0.0729,-0.0247 -0.14407,-0.0487 -0.215,-0.0728 -0.32945,-0.10917 -0.65777,-0.21605 -0.98706,-0.32104 -0.0405,-0.012 -0.0787,-0.0235 -0.11777,-0.0362 -0.28726,-0.0894 -0.57591,-0.17827 -0.86441,-0.26289 -0.0853,-0.0263 -0.17231,-0.0517 -0.25849,-0.0762 -0.26539,-0.0777 -0.52981,-0.15316 -0.79503,-0.22672 -0.0477,-0.0131 -0.0955,-0.0273 -0.14171,-0.041 -0.0207,-0.005 -0.0399,-0.01 -0.0591,-0.0157 -0.32584,-0.0895 -0.6522,-0.17694 -0.97876,-0.26044 -0.0394,-0.01 -0.0769,-0.0187 -0.11629,-0.0283 -0.2847,-0.0721 -0.57002,-0.14137 -0.85367,-0.2111 -0.088,-0.021 -0.17539,-0.0407 -0.26142,-0.0611 -0.25563,-0.0593 -0.50732,-0.11733 -0.76278,-0.17249 -0.0739,-0.0157 -0.14836,-0.0329 -0.22282,-0.0498 -0.32748,-0.0703 -0.65392,-0.13832 -0.98071,-0.20328 -0.0182,-0.003 -0.0364,-0.007 -0.0533,-0.0108 -0.30279,-0.0599 -0.60732,-0.11613 -0.91084,-0.17004 -0.0853,-0.015 -0.17071,-0.03 -0.25605,-0.045 -0.25165,-0.0427 -0.50191,-0.0858 -0.75251,-0.12607 -0.0796,-0.0133 -0.15841,-0.0254 -0.23797,-0.0386 -0.64773,-0.10131 -1.29502,-0.19026 -1.9409,-0.26827 -0.0833,-0.0102 -0.16598,-0.0193 -0.24872,-0.0284 -0.25064,-0.0289 -0.49903,-0.0558 -0.74811,-0.0811 -0.0841,-0.008 -0.16654,-0.0165 -0.25068,-0.0249 -0.64383,-0.0619 -1.28771,-0.1126 -1.92917,-0.15002 -0.0806,-0.004 -0.16127,-0.009 -0.24139,-0.0117 -0.24719,-0.0134 -0.49375,-0.0255 -0.74078,-0.0347 -0.0882,-0.002 -0.17556,-0.007 -0.26094,-0.0102 -0.2942,-0.01 -0.58699,-0.0174 -0.88103,-0.023 -0.0253,-2.3e-4 -0.0495,-0.001 -0.0748,-0.002 -0.32069,-0.005 -0.64119,-0.006 -0.96067,-0.005 z m -16.485896,3.07993 c -0.0945,0.044 -0.18674,0.0874 -0.27902,0.13047 0.0973,-0.0456 0.19586,-0.0915 0.29368,-0.13585 -0.005,0.002 -0.01,0.004 -0.0147,0.005 z m 11.958596,-0.70951 c -4.58149,-0.058 -9.097026,0.51622 -13.468996,1.76791 -0.0494,0.0288 -0.0982,0.059 -0.14709,0.0889 -0.40114,0.2427798 -0.7967,0.4902098 -1.18789,0.7442098 8.322386,-2.0857198 17.125126,-1.7679198 25.886936,0.64697 22.98837,6.3341501 45.68781,27.0701401 58.63247,56.5528301 12.94471,29.48268 12.84861,60.227283 1.95408,81.438043 -4.1624,8.10642 -9.90762,14.81469 -17.10153,19.53163 0.46315,-0.11685 0.92019,-0.24342 1.37988,-0.37577 0.04,-0.0119 0.0817,-0.0247 0.12171,-0.0367 7.79669,-4.74478 13.97426,-11.76053 18.38283,-20.34082 10.89255,-21.21133 10.98806,-51.957533 -1.95607,-81.439023 -12.94463,-29.48269 -35.64364,-50.21868 -58.632,-56.5528301 -4.63527,-1.2772698 -9.28283,-1.9674298 -13.86433,-2.0254298 z m -12.762426,1.02273 c -0.0399,0.0161 -0.0828,0.0333 -0.12264,0.0494 -0.29202,0.12112 -0.58436,0.24515 -0.87517,0.37284 -0.0351,0.0154 -0.0699,0.031 -0.10506,0.0464 l -2.67239,1.1732398 c -10.32306,4.5324301 -18.29788,12.6605501 -23.65872,23.0982401 -10.89504,21.20957 -10.99103,51.95558 1.95311,81.437063 12.94465,29.48269 35.644656,50.21987 58.632496,56.55284 11.31226,3.11721 22.69369,2.74692 33.0167,-1.78551 l 2.73942,-1.20255 c -0.097,0.0426 -0.19468,0.0829 -0.29073,0.12363 0.10864,-0.0463 0.21876,-0.0936 0.32835,-0.14172 0.10536,-0.0463 0.20841,-0.0941 0.31467,-0.14219 l -0.32059,0.14073 c -0.43546,0.19121 -0.87257,0.37157 -1.31149,0.54728 -0.0276,0.0135 -0.0534,0.0267 -0.0797,0.0396 0.19847,-0.0786 0.39447,-0.15922 0.59129,-0.24139 -0.0455,0.0185 -0.0905,0.0383 -0.13679,0.0586 -0.0201,0.007 -0.0386,0.0154 -0.0602,0.0235 -0.14626,0.06 -0.29054,0.12055 -0.43731,0.17933 0.0177,-0.009 0.0341,-0.0177 0.0537,-0.0264 -0.45074,0.17946 -0.90225,0.35364 -1.35501,0.51698 0.009,-0.005 0.0185,-0.0113 0.0283,-0.0157 -0.48083,0.17568 -0.96496,0.3404 -1.44976,0.49939 -0.006,0.002 -0.0106,0.006 -0.0159,0.008 -0.003,5.3e-4 -0.004,0.002 -0.006,0.002 -0.45429,0.14842 -0.90792,0.28647 -1.36427,0.41877 0.004,-0.002 0.008,-0.005 0.0111,-0.008 -0.49353,0.14296 -0.9878,0.28061 -1.48447,0.40508 -0.003,0.002 -0.005,0.004 -0.008,0.005 -0.004,7.9e-4 -0.0106,0.003 -0.0151,0.004 -0.28342,0.072 -0.5689,0.13896 -0.85217,0.20376 -0.0391,0.0101 -0.079,0.0176 -0.11726,0.0259 -0.14166,0.0324 -0.28294,0.0662 -0.42368,0.0968 0.003,-5.3e-4 0.004,-0.003 0.005,-0.003 -0.50573,0.11144 -1.01431,0.21694 -1.52506,0.30932 0,0.002 -0.003,0.002 -0.004,0.003 -0.006,0.002 -0.0119,0.002 -0.0198,0.004 -0.30596,0.0549 -0.61344,0.10651 -0.92059,0.15489 -0.0814,0.013 -0.16129,0.0265 -0.2404,0.0371 -0.0909,0.0144 -0.17833,0.0288 -0.26975,0.042 0.003,-5.3e-4 0.003,-0.002 0.004,-0.002 -0.52036,0.0782 -1.04026,0.14927 -1.56319,0.21012 0.22191,-0.0251 0.44233,-0.0528 0.66408,-0.0821 -0.23122,0.0306 -0.46106,0.0608 -0.69191,0.0884 -0.3096,0.0353 -0.62104,0.0656 -0.93185,0.0943 -0.1191,0.0112 -0.23862,0.0211 -0.35965,0.0318 -0.0598,0.005 -0.11903,0.0111 -0.17884,0.0161 0,0 0.001,-5.3e-4 0.002,-0.002 -0.53637,0.0455 -1.07258,0.0839 -1.61204,0.11092 0,0 -0.002,2.1e-4 -0.001,0.002 -0.007,9e-5 -0.0144,8e-4 -0.021,0.001 -0.30323,0.0154 -0.60442,0.0243 -0.90693,0.0337 -0.16221,0.005 -0.32194,0.008 -0.48327,0.0108 -0.0414,0.002 -0.0821,0.004 -0.12265,0.003 l 0.002,-5.2e-4 c -0.55202,0.01 -1.10328,0.0137 -1.65699,0.004 l -0.002,5.3e-4 c -0.007,9e-5 -0.0153,-2.3e-4 -0.022,0 -0.28492,-0.004 -0.56848,-0.013 -0.85268,-0.023 -0.21549,-0.006 -0.43137,-0.0163 -0.64648,-0.0254 -0.0192,-0.002 -0.0381,-0.003 -0.0567,-0.003 -0.57153,-0.027 -1.14485,-0.0614 -1.71807,-0.1075 h -0.01 c -0.0393,-0.005 -0.0806,-0.007 -0.1207,-0.0107 -3.0044,-0.24777 -6.02548,-0.75942 -9.04775,-1.52115 -0.43326,-0.10897 -0.8671,-0.22291 -1.2998,-0.34205 -22.9793,-6.32636 -45.669286,-27.05699 -58.608726,-56.52778 -7.07728,-16.119173 -10.25472,-32.614973 -9.89995,-47.722033 0.0833,-3.52766 0.35858,-6.98037 0.82142,-10.33435 1.1796,-8.56076 3.58231,-16.48488 7.13079,-23.39437 0.002,-5.3e-4 0.003,-5e-5 0.005,5.3e-4 0.2955,-0.57499 0.60054,-1.14256 0.9123,-1.70341 -0.002,-5.3e-4 -0.003,5e-5 -0.005,-5.3e-4 0.28725,-0.51747 0.581,-1.02805 0.88152,-1.53434 0.002,5.3e-4 0.004,0.002 0.006,0.002 0.31674,-0.53043 0.63889,-1.05656 0.96997,-1.57343 -0.003,4e-5 -0.005,-5.3e-4 -0.007,-0.001 0,0 10e-4,-0.002 0.002,-0.002 0.3041,-0.47526 0.6154,-0.94491 0.93331,-1.40779 0.002,5.3e-4 0.005,5.3e-4 0.007,0.001 0.33501,-0.48882 0.67636,-0.97091 1.02518,-1.44737 -0.003,5e-5 -0.006,1.1e-4 -0.008,-5.3e-4 0.002,-5.3e-4 0.002,-0.002 0.003,-0.004 0.3222,-0.43782 0.64662,-0.87083 0.9807,-1.29686 0.003,-5e-5 0.006,-10e-5 0.008,5.2e-4 0.35364,-0.45021 0.7128,-0.89272 1.07795,-1.32814 h -0.0102 c 10e-4,-0.002 0.002,-0.003 0.003,-0.004 0.33734,-0.40335 0.67833,-0.80135 1.02615,-1.19229 0.005,-8e-4 0.008,-8e-4 0.0122,5.2e-4 0.36982,-0.41335 0.74502,-0.81795 1.12583,-1.2177 -0.003,4e-5 -0.008,0.001 -0.0132,5.3e-4 0.002,-5.3e-4 0.003,-0.003 0.005,-0.004 0.35336,-0.37068 0.71069,-0.73288 1.07452,-1.09114 0.003,-5e-5 0.006,-2.3e-4 0.0112,-0.001 0.38407,-0.37708 0.77627,-0.74759 1.17275,-1.11167 -0.006,0.002 -0.0119,7.9e-4 -0.0166,0.002 0.002,-5.3e-4 0.002,-0.002 0.004,-0.003 0.36797,-0.33739 0.73806,-0.66981 1.1146,-0.99537 0.005,-7.9e-4 0.0114,-7.9e-4 0.0176,-0.002 0.40009,-0.34441 0.8071,-0.68069 1.2182,-1.01149 -0.008,0.002 -0.0139,0.002 -0.0215,0.004 0.003,-0.002 0.003,-0.003 0.005,-0.004 0.38243,-0.3083 0.76853,-0.60824 1.16004,-0.90351 0.006,-0.002 0.0124,-0.002 0.0186,-0.003 0.41418,-0.3123 0.83695,-0.61576 1.26266,-0.91327 -0.009,0.002 -0.0199,0.004 -0.0293,0.005 0.002,-5.3e-4 0.005,-0.002 0.007,-0.004 0.3932,-0.27615 0.78905,-0.54657 1.19132,-0.80969 0.0118,-0.004 0.0224,-0.006 0.0327,-0.009 0.43109,-0.28144 0.86944,-0.55455 1.31152,-0.82238 -0.0146,0.005 -0.0298,0.009 -0.0435,0.0117 0.003,-0.002 0.005,-0.002 0.008,-0.005 0.40624,-0.24643 0.81509,-0.48687 1.2304,-0.7202701 0.0188,-0.007 0.0369,-0.0119 0.0562,-0.0176 0.45256,-0.25543 0.91242,-0.50113 1.37651,-0.74176 -0.03,0.0118 -0.0613,0.0211 -0.0899,0.0323 0.003,-0.002 0.007,-0.004 0.01,-0.005 0.42719,-0.2216 0.86156,-0.43792 1.29783,-0.64648 0.004,-0.002 0.01,-0.004 0.0157,-0.007 0.0511,-0.021 0.10283,-0.0396 0.15392,-0.0606 0.38727,-0.1827898 0.77694,-0.3638198 1.17031,-0.5365298 z m 5.790446,1.3481698 c -3.054896,0.0588 -6.076256,0.40287 -9.040906,1.0457 -0.0357,0.0256 -0.0733,0.0506 -0.10897,0.0762 -0.39319,0.2761501 -0.78172,0.5548301 -1.16444,0.8434001 7.45192,-1.3547201 15.230406,-0.8581101 22.979506,1.27683 22.98836,6.33415 45.68646,27.07077 58.63247,56.55283 12.94471,29.48268 12.84862,60.227293 1.95416,81.438053 -3.67967,7.16417 -8.59348,13.2393 -14.65154,17.81061 0.47897,-0.0884 0.95377,-0.18626 1.43068,-0.29074 0.0322,-0.007 0.0671,-0.015 0.0993,-0.022 6.63651,-4.66221 11.97393,-11.06992 15.90442,-18.71999 10.89308,-21.21014 10.98759,-51.955093 -1.95657,-81.436583 -12.94466,-29.48266 -35.64265,-50.21915 -58.63102,-56.5533 -5.17077,-1.4244801 -10.35554,-2.1190601 -15.44704,-2.0210401 z m -12.174586,1.4390601 -2.78136,1.22113 c -10.32306,4.53243 -18.29837,12.66103 -23.65922,23.09873 -10.89502,21.20956 -10.99053,51.95509 1.9536,81.436573 12.94467,29.48269 35.644668,50.21987 58.632506,56.55284 11.31226,3.1172 22.69323,2.74742 33.01629,-1.78502 l 2.78181,-1.22161 c -10.32303,4.53243 -21.70453,4.90258 -33.0182,1.78599 -22.98784,-6.33296 -45.686896,-27.07183 -58.631036,-56.55332 -12.94413,-29.481483 -12.8496,-60.227013 -1.95457,-81.436583 5.36224,-10.43831 13.33713,-18.5663 23.66018,-23.09873 z m 8.67638,0.92696 c -2.68866,-0.0509 -5.35536,0.11536 -7.98446,0.5077 -0.0281,0.0237 -0.0608,0.0479 -0.0894,0.0704 -0.38384,0.3089 -0.76075,0.62197 -1.13463,0.9421 6.52857,-0.74796 13.266926,-0.12887 19.982636,1.72101 8.03166,2.21365 16.02682,6.18744 23.58592,11.67568 14.07328,10.21863 26.62378,25.69726 35.04509,44.87764 8.42132,19.18039 11.32036,38.898183 9.32093,56.175103 -1.07302,9.27683 -3.56,17.85144 -7.36584,25.26246 -3.18786,6.20806 -7.30332,11.59669 -12.28598,15.90001 0,0 0.003,-5.3e-4 0.003,5.3e-4 0.49485,-0.0599 0.98589,-0.12484 1.47863,-0.20083 0.0318,-0.004 0.0617,-0.008 0.0928,-0.0136 5.53006,-4.45718 10.05276,-10.20523 13.49446,-16.9076 10.89362,-21.20895 10.98908,-51.954607 -1.95511,-81.436093 v 0 c -12.94535,-29.48276 -35.64482,-50.21875 -58.63319,-56.55291 -4.53125,-1.24885 -9.07342,-1.93663 -13.554516,-2.02152 z m -14.06515,1.43906 -2.78186,1.22112 c -10.32446,4.53305 -18.29934,12.66153 -23.66019,23.09922 -10.89503,21.20957 -10.98955,51.95509 1.95458,81.436583 12.94466,29.48269 35.6432,50.22036 58.631036,56.55332 11.31226,3.11721 22.69378,2.74706 33.01824,-1.786 l 2.78137,-1.22161 c -10.32446,4.53306 -21.7055,4.90321 -33.01775,1.786 -22.987846,-6.33296 -45.686906,-27.07183 -58.631036,-56.55332 -12.94414,-29.481493 -12.8501,-60.226523 -1.95508,-81.436093 5.36086,-10.43769 13.33623,-18.56617 23.66069,-23.09922 z m 7.15669,0.92451 c -1.14747,0.0136 -2.29023,0.0674 -3.42736,0.16175 -0.0248,0.0237 -0.0514,0.0467 -0.0762,0.0704 -0.37256,0.34224 -0.73933,0.69055 -1.10141,1.04521 5.55588,-0.27267 11.23517,0.40735 16.897336,1.96826 3.90915,1.07568 7.8097,2.57048 11.65418,4.45303 2.22937,-0.006 4.30446,0.20862 6.21116,0.56682 -4.94428,-2.74249 -10.00565,-4.84356 -15.08202,-6.24195 -5.044738,-1.39003 -10.103286,-2.08258 -15.075666,-2.02348 z m -12.54743,1.442 -2.62158,1.15124 c -0.17139,0.0752 -0.34175,0.15301 -0.5121,0.23064 -0.0576,0.0253 -0.11593,0.0523 -0.17493,0.0782 -10.06614,4.57561 -17.86375,12.60053 -23.13245,22.8588 -9.41135,18.32198 -10.7618,43.75977 -2.60985,69.352883 1.28338,4.03365 2.80277,8.07123 4.56492,12.08468 1.8112,4.1252 3.81309,8.07733 5.97954,11.84378 l 0.17543,-0.0772 c 20.77234,36.10934 56.710216,55.06745 84.973396,43.2226 0.045,-0.0197 0.089,-0.0378 0.13535,-0.0582 0.18789,-0.0797 0.37552,-0.15948 0.56097,-0.2409 l 2.60643,-1.14392 c -10.32305,4.53243 -21.70451,4.90223 -33.01676,1.78502 -22.989246,-6.33235 -45.689836,-27.07036 -58.633966,-56.55186 -12.94414,-29.481473 -12.84815,-60.227493 -1.95312,-81.437063 5.36085,-10.43769 13.33567,-18.5663 23.65872,-23.09873 z m 7.81441,0.92256 c -0.31743,-5.3e-4 -0.63463,0.002 -0.95139,0.008 -0.0229,0.0242 -0.0445,0.0464 -0.0679,0.0694 -0.35794,0.37553 -0.71192,0.75646 -1.05938,1.14441 -0.002,5.3e-4 -0.001,0.002 -0.002,0.002 4.53384,0.0711 9.12981,0.75763 13.7148,2.02152 2.932678,0.80959 5.858856,1.85179 8.761396,3.1156 1.33094,-0.32345 2.62581,-0.56461 3.88327,-0.73101 -3.26352,-1.48676 -6.5576,-2.69635 -9.859398,-3.6062 -4.823148,-1.32807 -9.657478,-2.01698 -14.418928,-2.02397 z m -3.1112,2.41928 c -0.0209,0.0248 -0.0411,0.048 -0.0621,0.0728 -0.34228,0.4112 -0.68118,0.82643 -1.01491,1.24947 -10e-4,0.002 -0.002,0.003 -0.004,0.006 3.46369,0.27866 6.95323,0.90621 10.43599,1.86564 2.67552,0.73532 5.34302,1.66981 7.991288,2.78577 1.019338,-0.42628 2.019658,-0.80003 3.005168,-1.12779 -2.722298,-1.15861 -5.464816,-2.12289 -8.212166,-2.88057 -4.05454,-1.11676 -8.11867,-1.78253 -12.1394,-1.97119 z m -2.06501,2.64748 c -0.019,0.0254 -0.0382,0.0507 -0.0567,0.0772 -0.32714,0.44567 -0.64642,0.89782 -0.96116,1.35648 -0.003,0.004 -0.007,0.0104 -0.0102,0.0147 2.34934,0.3397 4.70825,0.83085 7.06092,1.47962 22.988356,6.33415 45.687356,27.07015 58.632006,56.55284 12.94459,29.482663 12.84857,60.227773 1.9541,81.438523 -1.11863,2.17713 -2.35561,4.25279 -3.70197,6.21654 0.0105,10e-4 0.0197,0.003 0.0288,0.004 0.55067,0.0787 1.09915,0.14865 1.64918,0.21061 0.0282,0.003 0.0544,0.006 0.0826,0.009 1.7483,-2.38412 3.32788,-4.94343 4.72471,-7.66244 1.3379,-2.61657 2.51003,-5.36211 3.51775,-8.23074 h -0.003 c 0.0335,-0.0955 0.0667,-0.19083 0.1002,-0.28635 0.093,-0.26912 0.18497,-0.53746 0.27411,-0.80773 0.0282,-0.0847 0.0568,-0.16828 0.084,-0.25116 0.10102,-0.30809 0.20002,-0.61702 0.29662,-0.92745 0.0151,-0.0462 0.0295,-0.0922 0.043,-0.1378 0.2294,-0.73315 0.44744,-1.47421 0.6562,-2.22381 0.009,-0.0324 0.0164,-0.0639 0.0259,-0.0963 0.0911,-0.33068 0.18018,-0.66348 0.26778,-0.99831 0.0228,-0.0852 0.044,-0.16977 0.065,-0.25556 0.0734,-0.2832 0.1451,-0.56673 0.21601,-0.8517 0.0265,-0.1038 0.0511,-0.20809 0.0762,-0.31126 0.0639,-0.27053 0.12875,-0.54315 0.19156,-0.81605 0.0243,-0.10855 0.0494,-0.21884 0.0738,-0.32739 0.0609,-0.27347 0.12282,-0.54862 0.18129,-0.82385 0.0233,-0.10376 0.0443,-0.208 0.0674,-0.31176 0.0615,-0.29501 0.12224,-0.59257 0.1813,-0.88933 0.0151,-0.0833 0.033,-0.16479 0.0498,-0.24872 0.0726,-0.36511 0.13947,-0.7318 0.20715,-1.10043 0.003,-0.0138 0.005,-0.0294 0.008,-0.042 0.14211,-0.78697 0.27265,-1.57763 0.39285,-2.37628 0.0108,-0.0755 0.0222,-0.15146 0.0333,-0.22575 0.0465,-0.31393 0.0923,-0.62926 0.13438,-0.94553 0.0153,-0.10604 0.0285,-0.21345 0.042,-0.32006 0.0385,-0.28633 0.0748,-0.57437 0.11092,-0.86246 0.0151,-0.11859 0.0294,-0.23874 0.043,-0.35671 0.0339,-0.28148 0.0657,-0.56344 0.0963,-0.84487 0.0127,-0.12034 0.0257,-0.23929 0.0381,-0.35964 0.0317,-0.29042 0.0597,-0.58213 0.0875,-0.87369 0.009,-0.10895 0.0201,-0.21713 0.0303,-0.32789 0.0294,-0.32626 0.0562,-0.65024 0.0831,-0.97826 0.006,-0.0748 0.013,-0.15045 0.0188,-0.22527 0.064,-0.8236 0.11708,-1.64943 0.16028,-2.48231 0.003,-0.0437 0.003,-0.0878 0.006,-0.13145 0.0169,-0.36197 0.0338,-0.72537 0.0464,-1.08968 0.003,-0.10348 0.008,-0.21023 0.0114,-0.31371 0.0106,-0.30508 0.0196,-0.61132 0.0274,-0.91816 0.003,-0.1244 0.006,-0.25103 0.009,-0.37724 0.005,-0.28887 0.0111,-0.57769 0.014,-0.86832 0,-0.13214 0.003,-0.26288 0.003,-0.39385 0.003,-0.29001 0.003,-0.58017 0.003,-0.87076 0,-0.12735 -0.003,-0.25562 0,-0.38359 -0.003,-0.3085 -0.005,-0.61577 -0.01,-0.92305 0,-0.10881 1e-4,-0.21947 -0.003,-0.32886 -0.006,-0.36464 -0.0151,-0.72959 -0.0259,-1.09358 -0.003,-0.0532 -0.003,-0.10632 -0.005,-0.15832 -0.0246,-0.8541 -0.0616,-1.71287 -0.11094,-2.57321 -0.005,-0.0914 -0.0108,-0.18516 -0.0156,-0.27657 -0.0206,-0.32978 -0.0407,-0.66127 -0.0625,-0.99342 -0.008,-0.12664 -0.018,-0.25435 -0.0273,-0.37918 -0.0209,-0.29988 -0.0436,-0.59901 -0.0675,-0.89765 -0.0109,-0.13976 -0.0222,-0.27962 -0.0347,-0.41876 -0.0241,-0.29147 -0.0502,-0.58363 -0.0762,-0.87566 -0.0138,-0.14152 -0.0267,-0.28164 -0.0401,-0.42316 -0.0286,-0.29798 -0.0594,-0.59665 -0.0899,-0.8952 -0.0148,-0.13254 -0.0266,-0.2636 -0.042,-0.39433 -0.0354,-0.3248 -0.0727,-0.65017 -0.11242,-0.9773 -0.0108,-0.10449 -0.023,-0.20837 -0.0352,-0.31224 -0.10552,-0.87394 -0.22228,-1.75111 -0.35131,-2.62891 -0.007,-0.0549 -0.0164,-0.11038 -0.0254,-0.16467 -0.0559,-0.37534 -0.11227,-0.75208 -0.17254,-1.12975 -0.0188,-0.12232 -0.0401,-0.2434 -0.0581,-0.36453 -0.0496,-0.31145 -0.10194,-0.62561 -0.15539,-0.9382 -0.0251,-0.14077 -0.0493,-0.28365 -0.0748,-0.42561 -0.0509,-0.29528 -0.1026,-0.58871 -0.15684,-0.88396 -0.0272,-0.14971 -0.055,-0.30045 -0.0836,-0.44955 -0.0546,-0.29225 -0.11015,-0.58381 -0.16666,-0.87663 -0.029,-0.1461 -0.0571,-0.29408 -0.0879,-0.44076 -0.0604,-0.30532 -0.12343,-0.61227 -0.18566,-0.91816 -0.028,-0.13236 -0.0547,-0.26246 -0.0826,-0.39482 -0.0735,-0.35059 -0.14992,-0.69984 -0.22725,-1.05157 -0.0175,-0.0859 -0.0376,-0.17352 -0.0571,-0.25996 -0.19847,-0.88704 -0.40706,-1.774097 -0.62789,-2.662617 -0.0254,-0.1037 -0.0529,-0.2077 -0.0797,-0.310776 -0.0834,-0.33492 -0.16886,-0.66735 -0.25556,-1.00221 -0.0363,-0.14003 -0.0746,-0.28071 -0.11092,-0.42073 -0.0796,-0.29968 -0.1598,-0.6008 -0.24138,-0.90106 -0.0416,-0.15191 -0.085,-0.30427 -0.12708,-0.45737 -0.0802,-0.28951 -0.16126,-0.5813 -0.24481,-0.87077 -0.0431,-0.15548 -0.0893,-0.30984 -0.13388,-0.4647 -0.0851,-0.29303 -0.171,-0.58852 -0.25943,-0.88151 -0.0433,-0.1483 -0.0881,-0.29579 -0.13343,-0.44467 -0.0959,-0.31381 -0.19251,-0.62882 -0.29173,-0.94259 -0.0386,-0.12624 -0.0772,-0.2526 -0.11726,-0.37822 -0.12525,-0.39593 -0.25215,-0.79262 -0.38211,-1.1879 -0.0143,-0.0435 -0.0265,-0.086 -0.0406,-0.12948 -0.14872,-0.44943 -0.29853,-0.90115 -0.45252,-1.35111 -0.0209,-0.0631 -0.044,-0.12671 -0.0645,-0.18861 -0.1297,-0.37555 -0.25932,-0.7511 -0.39288,-1.1278 -0.0465,-0.13271 -0.0947,-0.26602 -0.14123,-0.39873 -0.10991,-0.30765 -0.22236,-0.61309 -0.33372,-0.92012 -0.0559,-0.15411 -0.11368,-0.30876 -0.17102,-0.46226 -0.10633,-0.28796 -0.21573,-0.5749 -0.32397,-0.86343 -0.0605,-0.16063 -0.12287,-0.32152 -0.18422,-0.48034 -0.10809,-0.28435 -0.21945,-0.56851 -0.33228,-0.8522 -0.0628,-0.1582 -0.12387,-0.31703 -0.18715,-0.47642 -0.117,-0.29321 -0.23537,-0.58601 -0.35378,-0.87859 -0.06,-0.14808 -0.11944,-0.29498 -0.18031,-0.44124 -0.13302,-0.32588 -0.26931,-0.65181 -0.40655,-0.97583 -0.0482,-0.11355 -0.094,-0.22508 -0.1422,-0.33863 -0.18698,-0.44115 -0.37757,-0.8822 -0.57122,-1.32325 -0.19365,-0.44105 -0.39011,-0.88118 -0.58834,-1.31739 -0.0499,-0.10994 -0.10059,-0.21815 -0.15001,-0.3269 -0.14723,-0.32389 -0.29569,-0.64716 -0.44662,-0.96801 -0.0654,-0.14142 -0.133,-0.28333 -0.19985,-0.42414 -0.13684,-0.28875 -0.27324,-0.57601 -0.41096,-0.86295 -0.0729,-0.15089 -0.14791,-0.30257 -0.22086,-0.45346 -0.13495,-0.27682 -0.27024,-0.55471 -0.40607,-0.82972 -0.0749,-0.15146 -0.14995,-0.30311 -0.22624,-0.45395 -0.14072,-0.27853 -0.27908,-0.5562 -0.42121,-0.83412 -0.0726,-0.14252 -0.14488,-0.28418 -0.21892,-0.42609 -0.15329,-0.29571 -0.30612,-0.59007 -0.4603,-0.88397 -0.0627,-0.11993 -0.12597,-0.2413 -0.19008,-0.36062 -0.192,-0.36095 -0.38379,-0.72186 -0.57807,-1.08039 -0.0267,-0.0493 -0.053,-0.0973 -0.0796,-0.14659 -0.2281,-0.42026 -0.46021,-0.83872 -0.69339,-1.25533 -0.0153,-0.0273 -0.0321,-0.0567 -0.0474,-0.084 -0.21018,-0.37565 -0.4233,-0.74695 -0.63524,-1.119 -0.0627,-0.10857 -0.12584,-0.2145 -0.18666,-0.3225 -0.16891,-0.2931 -0.33996,-0.58372 -0.51064,-0.87321 -0.0758,-0.12693 -0.15089,-0.25567 -0.22673,-0.38261 -0.16039,-0.26989 -0.32205,-0.53781 -0.48473,-0.80528 -0.0804,-0.13346 -0.16063,-0.26709 -0.24188,-0.39874 -0.16112,-0.2639 -0.32332,-0.52691 -0.48621,-0.7872 -0.0802,-0.12927 -0.16074,-0.25885 -0.24237,-0.3875 -0.16898,-0.27038 -0.3403,-0.5381 -0.51209,-0.80724 -0.0739,-0.11501 -0.14747,-0.23305 -0.22283,-0.34743 -0.19202,-0.29996 -0.38674,-0.59876 -0.58246,-0.89568 -0.0516,-0.0794 -0.10568,-0.16078 -0.15783,-0.2414 -0.50763,-0.76688 -1.02049,-1.5255 -1.54168,-2.27366 -0.0434,-0.0646 -0.088,-0.12452 -0.13144,-0.18911 -0.21218,-0.30388 -0.42621,-0.60853 -0.64208,-0.90937 -0.074,-0.10364 -0.14639,-0.20371 -0.22038,-0.30735 -0.18813,-0.26056 -0.37583,-0.51994 -0.56536,-0.77988 -0.084,-0.11487 -0.16826,-0.23073 -0.25361,-0.34498 -0.18134,-0.2451 -0.36453,-0.49093 -0.54728,-0.73542 -0.0859,-0.11543 -0.17457,-0.23247 -0.26045,-0.34791 -0.18608,-0.24444 -0.37208,-0.48907 -0.55852,-0.73052 -0.0838,-0.11069 -0.16839,-0.21937 -0.25165,-0.32886 -0.19989,-0.25681 -0.39925,-0.51245 -0.60055,-0.76864 -0.0716,-0.0905 -0.14202,-0.18277 -0.215,-0.27267 -0.24373,-0.30703 -0.49041,-0.61277 -0.7359,-0.9162 -0.029,-0.0355 -0.056,-0.0704 -0.0836,-0.10653 -0.56137,-0.69081 -1.12848,-1.3719 -1.70342,-2.044 -0.0648,-0.0751 -0.12968,-0.1502 -0.19448,-0.22526 -0.21691,-0.25359 -0.43659,-0.50596 -0.65527,-0.75594 -0.0833,-0.0981 -0.16991,-0.19197 -0.25409,-0.2883 -0.20262,-0.22867 -0.40291,-0.45577 -0.60641,-0.68263 -0.0926,-0.10399 -0.1855,-0.20505 -0.27756,-0.30785 -0.20036,-0.21973 -0.39883,-0.43903 -0.59956,-0.65576 -0.0929,-0.101 -0.18559,-0.20197 -0.27853,-0.30296 -0.20667,-0.22264 -0.414,-0.44227 -0.62155,-0.66309 -0.0849,-0.0903 -0.17075,-0.18316 -0.25654,-0.27169 -0.22888,-0.24267 -0.45991,-0.48272 -0.69388,-0.72173 -0.0634,-0.0643 -0.1247,-0.13114 -0.18813,-0.19546 -0.60142,-0.61793 -1.20864,-1.22617 -1.82118,-1.82362 -0.0381,-0.0372 -0.0763,-0.0742 -0.1163,-0.1119 -0.26074,-0.2542 -0.52283,-0.50764 -0.78622,-0.75642 -0.0806,-0.0767 -0.16226,-0.15164 -0.24091,-0.22771 -0.22336,-0.21105 -0.44629,-0.42215 -0.67091,-0.6284 -0.0944,-0.089 -0.18824,-0.177 -0.28439,-0.2624 -0.21184,-0.19626 -0.42462,-0.39044 -0.63963,-0.58247 -0.0996,-0.0895 -0.19795,-0.1797 -0.29759,-0.26924 -0.21309,-0.19146 -0.42764,-0.38246 -0.64354,-0.57269 -0.0961,-0.0854 -0.19219,-0.17086 -0.28782,-0.25507 -0.22814,-0.19903 -0.45559,-0.39572 -0.6841,-0.59175 l -0.24921,-0.21354 c -0.27222,-0.23072 -0.54349,-0.45903 -0.81555,-0.68557 -0.0413,-0.0329 -0.0799,-0.0673 -0.12118,-0.10017 -0.63854,-0.53074 -1.28193,-1.04939 -1.92722,-1.55731 -0.0663,-0.0517 -0.13406,-0.10269 -0.20034,-0.15442 -0.25183,-0.19571 -0.5013,-0.39071 -0.75349,-0.58344 -0.0932,-0.0711 -0.18629,-0.14147 -0.2795,-0.21256 -0.22806,-0.17212 -0.45562,-0.34284 -0.68264,-0.51259 -0.10249,-0.0769 -0.20588,-0.15195 -0.30785,-0.2277 -0.22248,-0.16323 -0.44605,-0.32584 -0.66749,-0.48669 -0.10285,-0.074 -0.20594,-0.14817 -0.30931,-0.22331 -0.22914,-0.16314 -0.45749,-0.32487 -0.68752,-0.48621 -0.095,-0.0675 -0.19137,-0.13432 -0.28635,-0.20181 -0.25102,-0.1748 -0.50406,-0.34615 -0.75544,-0.51796 -0.0724,-0.0505 -0.14607,-0.10018 -0.21989,-0.15001 -0.66391,-0.44728 -1.3304,-0.88483 -2.00052,-1.30811 -0.0322,-0.0199 -0.0626,-0.0392 -0.0948,-0.0591 -0.29675,-0.18735 -0.59379,-0.37208 -0.89178,-0.55461 -0.0843,-0.0509 -0.1678,-0.10353 -0.25214,-0.15441 -0.24532,-0.15037 -0.49266,-0.29828 -0.73834,-0.44565 -0.10185,-0.0602 -0.20503,-0.11961 -0.30687,-0.17982 -0.2324,-0.13619 -0.46308,-0.2719 -0.69583,-0.40509 -0.10763,-0.0619 -0.21492,-0.1225 -0.32202,-0.18324 -0.23223,-0.13201 -0.46321,-0.26199 -0.69388,-0.39043 -0.10413,-0.0578 -0.21006,-0.11616 -0.31419,-0.17396 -0.24275,-0.13305 -0.48644,-0.26427 -0.72955,-0.39434 -0.0919,-0.049 -0.18224,-0.0986 -0.27413,-0.14756 -0.2839,-0.15044 -0.56853,-0.29756 -0.85366,-0.4432 -0.0487,-0.0268 -0.1,-0.0524 -0.15002,-0.0787 -0.68352,-0.35075 -1.37084,-0.68727 -2.058658,-1.01345 -0.0641,-0.0314 -0.12996,-0.0592 -0.1935,-0.0894 -0.273978,-0.12785 -0.547528,-0.25441 -0.819948,-0.3787 -0.0959,-0.043 -0.19187,-0.0861 -0.28781,-0.129 -0.24371,-0.10853 -0.48746,-0.21737 -0.73346,-0.32348 -0.10609,-0.047 -0.21302,-0.092 -0.31859,-0.1378 -2.78513,-1.19483 -5.59282,-2.18534 -8.40323,-2.9607 -2.93987,-0.81068 -5.88534,-1.37925 -8.81564,-1.70635 z m -1.9624,2.84342 c -0.018,0.0277 -0.0352,0.0537 -0.0523,0.0797 -0.30992,0.4849 -0.61136,0.97733 -0.90887,1.47522 -0.004,0.006 -0.007,0.0116 -0.0108,0.0176 1.19202,0.24943 2.3847,0.53509 3.57785,0.86343 22.988366,6.33416 45.686446,27.07077 58.632506,56.55284 12.94466,29.482673 12.84859,60.227293 1.95409,81.438043 -0.56841,1.10603 -1.16961,2.18388 -1.79675,3.2363 0.011,0.002 0.0202,0.004 0.0313,0.006 0.56789,0.11791 1.13327,0.22983 1.69999,0.32983 0.0287,0.004 0.0557,0.008 0.0831,0.0132 0.98792,-1.53979 1.91065,-3.14335 2.76573,-4.80631 10.89398,-21.21193 10.99005,-51.95801 -1.95409,-81.439503 -12.94604,-29.48204 -35.64412,-50.21865 -58.632486,-56.55281 -1.79577,-0.49482 -3.59515,-0.89831 -5.38926,-1.21379 z m -22.23383,0.63279 -2.78137,1.22113 c -10.32305,4.53243 -18.29836,12.66104 -23.65921,23.09874 -10.89503,21.20956 -10.99053,51.955083 1.9536,81.436573 12.94466,29.48268 35.64466,50.21987 58.63251,56.55283 11.312246,3.11721 22.693216,2.74742 33.016266,-1.78501 l 2.78185,-1.22162 c -0.0646,0.0284 -0.13034,0.0547 -0.19497,0.0831 -0.16489,0.071 -0.3296,0.14188 -0.49695,0.21109 -10.13867,4.25013 -21.26578,4.53949 -32.326296,1.49184 -22.98784,-6.33296 -45.68638,-27.07064 -58.63104,-56.55332 -12.94414,-29.481497 -12.84961,-60.226523 -1.95458,-81.436093 5.36225,-10.43831 13.33713,-18.56679 23.66019,-23.09923 z m -5.38878,2.36602 -2.78185,1.22113 c -10.32446,4.53305 -18.29795,12.66091 -23.66019,23.09922 -10.89503,21.20957 -10.98956,51.955083 1.95457,81.436583 12.94466,29.48268 35.6432,50.22035 58.63104,56.55332 11.31367,3.11659 22.693776,2.74705 33.018226,-1.786 l 2.78137,-1.22161 c -10.32445,4.53305 -21.705476,4.90368 -33.017736,1.78649 -22.98784,-6.33297 -45.68691,-27.07232 -58.63104,-56.55381 -12.94413,-29.4815 -12.85009,-60.226533 -1.95507,-81.436093 5.36085,-10.4377 13.33622,-18.56617 23.66068,-23.09923 z m 25.76967,0.10457 c -0.0161,0.0283 -0.0323,0.0564 -0.0489,0.0836 -0.29165,0.52651 -0.57631,1.05753 -0.85415,1.5964 -0.005,0.008 -0.009,0.0148 -0.0122,0.022 22.98186,6.33843 45.673836,27.07218 58.615886,56.54892 12.94465,29.482673 12.84957,60.226803 1.95507,81.437563 -0.002,5.3e-4 -0.002,7.9e-4 -0.001,0.002 0.011,0.002 0.0212,0.006 0.0323,0.008 0.58476,0.16015 1.16885,0.31073 1.75473,0.45053 0.0284,0.007 0.0557,0.0126 0.084,0.02 0.31228,-0.55967 0.61723,-1.12757 0.91133,-1.70195 10.89493,-21.20965 10.99093,-51.95566 -1.95321,-81.437143 -12.94458,-29.48282 -35.64406,-50.21881 -58.632426,-56.55297 -0.6161,-0.17049 -1.23337,-0.32907 -1.85147,-0.47741 z m -31.1604,2.26194 -2.78039,1.22113 c -10.32445,4.53305 -18.29934,12.66104 -23.66019,23.09873 -10.8950201,21.20957 -10.9891201,51.954963 1.95361,81.437073 12.94466,29.48268 35.64417,50.21986 58.63201,56.55282 11.31226,3.11722 22.693766,2.74707 33.018226,-1.78599 l 2.78038,-1.22063 c -10.32304,4.53243 -21.704496,4.90271 -33.016746,1.7855 -22.98644,-6.33358 -45.68838,-27.07133 -58.63251,-56.55282 -12.94413,-29.4815 -12.84814,-60.227503 -1.95311,-81.437073 5.36084,-10.4377 13.33567,-18.5663 23.65872,-23.09874 z m 29.42229,1.10727 c -0.015,0.0307 -0.0294,0.0596 -0.0435,0.0884 -0.27571,0.5819 -0.54483,1.17113 -0.8048,1.76597 21.68558,7.45067 42.656116,27.50788 54.899256,55.39279 0.43792,0.99742 0.86006,1.99736 1.26852,2.99637 0.72249,1.77148 1.39962,3.54595 2.02934,5.31988 0.0261,0.0708 0.0487,0.14175 0.0748,0.21256 8.88789,25.177823 8.5131,50.517323 0.25117,69.392453 0.61579,0.21175 1.23264,0.41474 1.84903,0.60495 0.0294,0.01 0.0556,0.0163 0.0845,0.0249 10.06696,-21.13384 9.83405,-51.05182 -2.7755,-79.771273 -12.60695,-28.71352 -34.466586,-49.12907 -56.832826,-56.02706 z m -34.89853,1.29735 -2.69439,1.18301 c -0.29362,0.12892 -0.58559,0.26135 -0.87468,0.39678 -0.0796,0.0364 -0.156,0.0729 -0.23504,0.11044 -0.21795,0.10278 -0.43601,0.2082 -0.6538,0.31517 -0.0799,0.0394 -0.15854,0.0784 -0.23846,0.11777 -0.26962,0.13397 -0.53978,0.27082 -0.80626,0.41192 -0.0135,0.007 -0.0275,0.0133 -0.0396,0.0201 -0.28281,0.1497 -0.56312,0.30138 -0.84193,0.4564 -0.0718,0.0386 -0.13977,0.0784 -0.21109,0.11825 -0.21118,0.11824 -0.4213,0.23868 -0.63231,0.36111 -0.0773,0.0453 -0.1533,0.0903 -0.23113,0.13437 -0.24212,0.14318 -0.48115,0.28612 -0.71978,0.43344 -0.0288,0.0183 -0.0607,0.0368 -0.0909,0.0557 -0.26974,0.16806 -0.53709,0.33795 -0.80334,0.51015 -0.0627,0.0403 -0.12493,0.0816 -0.18715,0.12313 -0.20438,0.1337 -0.40905,0.27042 -0.61275,0.40949 -0.0747,0.0512 -0.14716,0.10024 -0.22186,0.15148 -0.21846,0.15122 -0.43494,0.30258 -0.65185,0.45737 -0.0408,0.0293 -0.081,0.0571 -0.12313,0.087 -0.25717,0.18522 -0.51304,0.37285 -0.7662,0.56341 -0.0527,0.0402 -0.10411,0.0795 -0.15685,0.11971 -0.2013,0.15219 -0.40027,0.30615 -0.59859,0.46129 -0.0712,0.0554 -0.14084,0.11019 -0.21012,0.16613 -0.20009,0.15875 -0.39913,0.31977 -0.59712,0.48328 -0.0466,0.0389 -0.0942,0.0752 -0.14025,0.11531 -0.2446,0.20241 -0.48654,0.40806 -0.72906,0.61521 -0.041,0.0364 -0.0817,0.0729 -0.12411,0.10994 -0.19767,0.17187 -0.39459,0.34608 -0.5893,0.5209 -0.0649,0.0583 -0.12916,0.11751 -0.19546,0.1764 -0.1854,0.16932 -0.37027,0.33992 -0.55461,0.51161 -0.0482,0.0467 -0.0985,0.0929 -0.14807,0.14025 -0.23203,0.21956 -0.46286,0.44124 -0.68947,0.66553 -0.0294,0.0285 -0.0581,0.0583 -0.087,0.088 -0.19635,0.19398 -0.39006,0.39092 -0.58344,0.58784 -0.0614,0.0624 -0.12132,0.12417 -0.1808,0.18715 -0.17263,0.17931 -0.34489,0.35965 -0.51455,0.54191 -0.0517,0.0539 -0.10173,0.10762 -0.15294,0.16272 -0.21806,0.23612 -0.43582,0.47316 -0.65039,0.71342 -0.0146,0.0163 -0.0279,0.032 -0.0425,0.0484 -0.19767,0.22149 -0.39213,0.44588 -0.58491,0.6709 -0.0556,0.0641 -0.11191,0.13146 -0.16614,0.19498 -0.16179,0.18872 -0.32106,0.37933 -0.47936,0.5722 -0.05,0.0617 -0.10196,0.12256 -0.15197,0.18422 -0.40746,0.49936 -0.80653,1.00625 -1.19669,1.52213 -0.0513,0.0665 -0.10026,0.13367 -0.15099,0.20132 -0.14991,0.20052 -0.29871,0.40049 -0.44564,0.60396 -0.0502,0.0688 -0.0993,0.13603 -0.14806,0.20426 -0.3802,0.5271 -0.7532,1.06333 -1.11558,1.60813 -0.0455,0.0682 -0.0894,0.13586 -0.13438,0.20523 -0.14047,0.21056 -0.27686,0.42221 -0.41437,0.63573 -0.0481,0.0736 -0.0961,0.14852 -0.14366,0.22331 -0.16202,0.25689 -0.32324,0.51465 -0.48229,0.7745 -0.013,0.0199 -0.0235,0.0386 -0.0357,0.0567 -0.17386,0.28336 -0.34314,0.56922 -0.5121,0.85611 -0.0388,0.0681 -0.0789,0.13686 -0.11826,0.20376 -0.12999,0.22298 -0.25836,0.44643 -0.38309,0.66993 -0.0469,0.0802 -0.0923,0.15969 -0.13731,0.24042 -0.13938,0.2512 -0.27894,0.50568 -0.41535,0.75984 -0.0199,0.0385 -0.0426,0.0753 -0.0625,0.11385 -0.15812,0.29631 -0.31443,0.59302 -0.46958,0.89227 -0.0318,0.065 -0.0649,0.13067 -0.0972,0.19448 -0.12498,0.24205 -0.24439,0.4844 -0.36551,0.72759 -0.042,0.0837 -0.083,0.16713 -0.12363,0.25019 -0.12926,0.26662 -0.25924,0.53474 -0.38554,0.80431 -0.018,0.0391 -0.0387,0.0794 -0.0562,0.11972 -0.1452,0.31048 -0.28879,0.62456 -0.4305,0.93917 -0.0306,0.0716 -0.0627,0.14366 -0.0938,0.21403 -0.11044,0.24843 -0.21943,0.49625 -0.3269,0.74763 -0.0371,0.0872 -0.0748,0.17324 -0.1119,0.26044 -0.12004,0.28384 -0.23962,0.56905 -0.3572,0.85464 -0.0143,0.0361 -0.0282,0.0692 -0.043,0.10408 -0.12998,0.32224 -0.25905,0.64653 -0.38554,0.9729 -0.0299,0.0769 -0.0586,0.15663 -0.0885,0.23357 -0.0978,0.25424 -0.19392,0.50901 -0.2887897,0.76619 -0.0327,0.0895 -0.067,0.1795 -0.0992,0.27022 -0.11168,0.30286 -0.22012,0.60593 -0.32691,0.9123 -0.01,0.027 -0.0174,0.0514 -0.0279,0.0772 -0.11476,0.33399 -0.22878,0.66918 -0.34058,1.00612 -0.0287,0.0835 -0.0553,0.16877 -0.0826,0.25165 -0.0852,0.26005 -0.16988,0.52128 -0.25214,0.78428 -0.0284,0.0919 -0.0582,0.18437 -0.0875,0.27804 -0.0995,0.32301 -0.19717,0.64545 -0.29368,0.97142 -0.005,0.0162 -0.0109,0.0328 -0.0141,0.0484 -0.1006,0.34336 -0.19944,0.69051 -0.29515,1.03739 -0.0256,0.0906 -0.0501,0.17972 -0.0743,0.26973 -0.0726,0.26586 -0.1458,0.53425 -0.21598,0.80187 -0.0235,0.0954 -0.0489,0.19035 -0.0738,0.28634 -0.0896,0.34562 -0.17722,0.6919 -0.26241,1.03984 -0.001,0.002 -0.001,0.005 -0.003,0.007 -0.0859,0.35393 -0.16823,0.70885 -0.25117,1.06573 -0.0221,0.0948 -0.0419,0.19012 -0.064,0.28488 -0.06,0.27167 -0.12084,0.54492 -0.17982,0.81897 -0.0196,0.0965 -0.0406,0.19387 -0.0611,0.2922 -0.14957,0.71654 -0.29357,1.43912 -0.42512,2.16617 -0.0185,0.0989 -0.0347,0.19944 -0.0528,0.29954 -0.0502,0.27871 -0.0968,0.55728 -0.14513,0.83656 -0.0157,0.0977 -0.0331,0.19628 -0.0484,0.29514 -0.0611,0.36855 -0.12018,0.73729 -0.17494,1.10874 -0.002,0.008 -0.003,0.0159 -0.004,0.0249 -0.0547,0.36009 -0.10505,0.72237 -0.15539,1.0848 -0.0131,0.10361 -0.0274,0.20792 -0.0401,0.31272 -0.0381,0.28333 -0.0738,0.56809 -0.10945,0.85318 -0.0119,0.0988 -0.0248,0.1994 -0.0376,0.30002 -0.0451,0.37431 -0.0878,0.75046 -0.12803,1.12829 -0.003,0.0269 -0.006,0.0541 -0.007,0.0787 -0.037,0.35088 -0.0734,0.70296 -0.10652,1.05498 -0.008,0.10714 -0.0182,0.21484 -0.0298,0.32202 -0.0264,0.29095 -0.0517,0.58405 -0.0743,0.87614 -0.007,0.0982 -0.0172,0.19761 -0.023,0.29514 -0.0295,0.38307 -0.0569,0.76683 -0.0821,1.15223 -0.004,0.0401 -0.005,0.0802 -0.008,0.11972 -0.0229,0.34471 -0.041,0.6886 -0.0601,1.03446 -0.006,0.11189 -0.0104,0.22429 -0.0166,0.33618 -0.0157,0.29619 -0.0282,0.5925 -0.0401,0.88983 -0.003,0.0993 -0.008,0.19926 -0.0117,0.29856 -0.0135,0.38883 -0.0249,0.77809 -0.0352,1.16688 -2.3e-4,0.0526 -10e-4,0.1053 -0.003,0.15735 -0.007,0.33792 -0.013,0.67939 -0.0152,1.01784 -0.002,0.11423 -0.003,0.22992 -0.003,0.34352 -0.003,0.30318 -0.004,0.60687 -0.004,0.91181 2.3e-4,0.0963 9e-5,0.19427 0.001,0.29173 0.002,0.3934 0.006,0.78845 0.0118,1.183 1.3e-4,0.0652 0.003,0.12895 0.004,0.19351 0.006,0.33356 0.0134,0.66799 0.023,1.00269 l 0.009,0.35329 c 0.0114,0.30838 0.0213,0.61719 0.0337,0.92794 0.005,0.0944 0.007,0.19145 0.0117,0.28586 0.0177,0.39917 0.0366,0.79748 0.0596,1.19718 0.004,0.0747 0.01,0.14753 0.0127,0.22282 0.0189,0.3292 0.0417,0.65989 0.0616,0.991466 0.009,0.11946 0.0156,0.23835 0.0259,0.35719 0.0217,0.31661 0.0453,0.63337 0.0704,0.94993 0.007,0.092 0.0141,0.185557 0.021,0.277547 0.0346,0.40313 0.0691,0.80609 0.1075,1.21037 0.007,0.0836 0.0169,0.16412 0.0235,0.24775 0.0326,0.32602 0.0643,0.65402 0.10066,0.98119 0.0133,0.1218 0.0254,0.24433 0.0401,0.36551 0.0357,0.3218 0.0718,0.64466 0.10945,0.96703 0.009,0.0896 0.0202,0.1796 0.0313,0.26973 0.0494,0.40652 0.10016,0.81269 0.15294,1.21917 0.0116,0.0913 0.026,0.18134 0.0376,0.27267 0.0429,0.32289 0.0881,0.6464 0.13487,0.97044 0.019,0.12352 0.0367,0.24731 0.0547,0.36844 0.048,0.33061 0.0987,0.65993 0.15002,0.99049 0.0132,0.0835 0.0269,0.16861 0.0401,0.25214 0.0663,0.41047 0.13174,0.8194 0.20327,1.2304 0.0157,0.0967 0.0342,0.19242 0.0503,0.29026 0.0552,0.32034 0.11251,0.64136 0.17103,0.96165 0.0234,0.12585 0.046,0.25041 0.0694,0.37626 0.062,0.33579 0.12627,0.67224 0.1935,1.00856 0.0155,0.0811 0.0309,0.15882 0.0464,0.23992 0.0801,0.41149 0.16579,0.82378 0.25116,1.23579 0.021,0.10136 0.0444,0.20431 0.066,0.30687 0.0675,0.31778 0.13541,0.63707 0.20621,0.95481 0.0273,0.12699 0.0554,0.25183 0.084,0.37821 0.0776,0.34455 0.1561,0.68751 0.23699,1.03202 0.0162,0.0751 0.0328,0.14719 0.0513,0.21989 0.0959,0.41306 0.19697,0.82671 0.29954,1.23969 0.0261,0.10907 0.0555,0.21784 0.0816,0.32691 0.0792,0.31403 0.16062,0.62862 0.2409,0.94503 0.0325,0.12752 0.0672,0.25265 0.0997,0.38017 0.0931,0.35331 0.18891,0.70856 0.28537,1.06182 0.0182,0.0643 0.0346,0.12792 0.0523,0.19106 0.11308,0.41404 0.23055,0.82758 0.3489,1.24214 0.0329,0.11316 0.0653,0.22804 0.0997,0.34059 0.0915,0.31148 0.18123,0.62383 0.27608,0.93526 0.0378,0.12805 0.077,0.25554 0.11483,0.38359 0.1095797,0.36027 0.2203397,0.72262 0.3332597,1.08284 0.0183,0.0572 0.0354,0.11506 0.0533,0.17102 0.12974,0.41381 0.26286,0.82765 0.39873,1.24018 0.0375,0.11968 0.0775,0.23778 0.11777,0.35623 0.10047,0.30897 0.20505,0.61629 0.30833,0.92402 0.043,0.12857 0.0871,0.25821 0.13292,0.38554 0.12864,0.37317 0.25599,0.74393 0.38798,1.11705 0.016,0.044 0.0308,0.089 0.0459,0.13486 0.14588,0.41239 0.29695,0.82531 0.44809,1.23823 0.0457,0.12316 0.0911,0.24626 0.13682,0.36941 0.1117,0.30404 0.22698,0.6081 0.34254,0.91328 0.0497,0.12848 0.0983,0.25881 0.14855,0.38848 0.14615,0.38249 0.29618,0.76577 0.4476,1.1488 0.0122,0.0315 0.0255,0.0657 0.0376,0.0972 0.16201,0.41098 0.3288,0.82119 0.49695,1.2309 0.0525,0.12725 0.10528,0.25563 0.15832,0.38407 0.12295,0.2991 0.24803,0.59859 0.37431,0.89764 0.0555,0.1302 0.10967,0.26121 0.16516,0.39141 0.16855,0.39534 0.33832,0.79027 0.51161,1.18496 0.007,0.0166 0.0142,0.0317 0.0215,0.0484 0.008,0.0179 0.0147,0.0337 0.022,0.0503 0.17329,0.39468 0.34834,0.7857 0.5248,1.17616 0.0593,0.13135 0.11953,0.26077 0.17836,0.39092 0.13418,0.29417 0.26913,0.58657 0.40508,0.87712 0.0592,0.12715 0.11918,0.25545 0.17836,0.38261 0.18871,0.39926 0.37729,0.79838 0.56829,1.19522 0.0181,0.0374 0.0361,0.0747 0.0547,0.11337 0.17638,0.36355 0.35343,0.7254 0.53262,1.08772 0.0639,0.1265 0.1291,0.25562 0.19302,0.38212 0.14193,0.28509 0.2853,0.56953 0.42952,0.8522 0.0638,0.12231 0.12626,0.24502 0.18861,0.36795 0.20015,0.38715 0.39915,0.77202 0.60299,1.15613 0.0282,0.0528 0.0563,0.10576 0.085,0.15978 0.1791,0.33542 0.35852,0.67097 0.54043,1.00515 0.0681,0.12465 0.13707,0.2514 0.20573,0.37723 0.1516,0.2766 0.30247,0.55192 0.45688,0.82728 0.065,0.11751 0.12951,0.23403 0.19399,0.35036 0.20966,0.37447 0.42241,0.74778 0.63524,1.11802 0.0387,0.0652 0.0766,0.1291 0.11385,0.19497 0.18059,0.31208 0.36343,0.62464 0.54631,0.93429 0.0738,0.12217 0.14513,0.24702 0.2194,0.37039 0.15935,0.26752 0.32059,0.53566 0.48082,0.80138 0.0677,0.1121 0.13276,0.22226 0.20182,0.33374 0.22057,0.36117 0.44273,0.72178 0.667,1.07991 0.0446,0.0712 0.0893,0.14211 0.13339,0.21207 0.18469,0.29468 0.36869,0.58841 0.55706,0.88005 0.0774,0.11914 0.15418,0.24002 0.23162,0.35915 0.16761,0.25964 0.33727,0.52002 0.5077,0.77842 0.0693,0.10429 0.13696,0.20891 0.20621,0.31322 0.23149,0.34786 0.46306,0.69607 0.69632,1.04032 0.0534,0.0758 0.10444,0.15385 0.15783,0.22966 0.18825,0.2761 0.37629,0.55214 0.56683,0.82582 0.0806,0.1149 0.16077,0.23153 0.24139,0.34645 0.17641,0.25293 0.35534,0.50479 0.53262,0.75593 0.0714,0.0977 0.14018,0.19655 0.20963,0.29367 0.241,0.33518 0.48091,0.6682 0.72368,0.99977 0.0593,0.0817 0.11951,0.16163 0.17885,0.24335 0.19235,0.2587 0.38289,0.51663 0.57611,0.77352 0.0843,0.11187 0.16881,0.2248 0.25312,0.33667 0.18467,0.24506 0.37059,0.48839 0.55754,0.73102 0.0702,0.0911 0.13857,0.18285 0.20963,0.27217 0.24911,0.32312 0.5002,0.64286 0.75056,0.96117 0.066,0.0816 0.12994,0.1627 0.19594,0.24432 0.19468,0.24492 0.38945,0.48971 0.58589,0.73102 0.0875,0.10764 0.17493,0.21534 0.26241,0.32299 0.19346,0.23836 0.38723,0.47379 0.58246,0.70854 0.0704,0.084 0.1398,0.16977 0.21158,0.25312 0.25618,0.30866 0.51476,0.61455 0.77499,0.91718 0.0718,0.0833 0.14317,0.16574 0.21354,0.2497 0.1984,0.23052 0.39588,0.45881 0.59517,0.68752 0.0901,0.10223 0.1801,0.20415 0.27022,0.30638 0.20366,0.23104 0.40685,0.46107 0.61228,0.6885 0.0686,0.0762 0.13559,0.15297 0.20425,0.22917 0.26516,0.2948 0.53109,0.58656 0.79942,0.87712 0.0746,0.0821 0.15117,0.16172 0.22575,0.24384 0.20126,0.21792 0.40529,0.43496 0.6069,0.64989 0.0919,0.0986 0.18615,0.19457 0.27804,0.29319 0.21193,0.22316 0.42633,0.44369 0.63915,0.66504 0.065,0.0679 0.13241,0.13784 0.19741,0.20573 0.27363,0.27973 0.54742,0.5564 0.82141,0.83314 0.0793,0.0814 0.16118,0.16028 0.2414,0.23992 0.20409,0.20533 0.41031,0.40861 0.61617,0.61032 0.0945,0.0932 0.18793,0.18407 0.28195,0.27608 0.22457,0.21761 0.44842,0.43285 0.67336,0.64745 0.0613,0.0596 0.1219,0.11782 0.18324,0.17739 0.2807,0.26528 0.56097,0.52916 0.84291,0.78965 0.083,0.0784 0.16824,0.15453 0.25214,0.23112 0.20888,0.19331 0.4187,0.38474 0.62987,0.57563 0.0953,0.0872 0.19025,0.17322 0.2878,0.258 0.2353,0.21149 0.47093,0.41991 0.70659,0.6284 0.0572,0.0501 0.11141,0.0985 0.16858,0.14855 0.28635,0.25146 0.57483,0.49929 0.86295,0.74714 0.0862,0.0742 0.17333,0.14633 0.26093,0.21988 0.21365,0.18129 0.4266,0.36167 0.64061,0.53996 0.0955,0.08 0.19284,0.16038 0.2883,0.24041 0.24935,0.20532 0.49653,0.41008 0.74764,0.61179 0.0486,0.0382 0.095,0.0791 0.14365,0.11727 0.29342,0.23701 0.58881,0.47046 0.88347,0.70267 0.088,0.0706 0.17837,0.13858 0.26632,0.20915 0.21842,0.16925 0.4359,0.33718 0.6538,0.50525 0.0976,0.0734 0.1927,0.14814 0.28977,0.22038 0.2625,0.20096 0.52492,0.39804 0.78867,0.5942 0.0392,0.0282 0.0771,0.0581 0.11679,0.0875 0.29803,0.22081 0.59836,0.43927 0.89764,0.65527 0.0925,0.0657 0.18547,0.13148 0.27853,0.19839 0.22039,0.15847 0.44087,0.31362 0.66162,0.4691 0.0969,0.0681 0.19338,0.13495 0.28977,0.20181 0.27848,0.19536 0.55891,0.38727 0.84144,0.5766 0.0264,0.0182 0.0513,0.0368 0.0772,0.0538 0.30457,0.20517 0.60994,0.40868 0.91523,0.60787 0.0938,0.0609 0.18821,0.12302 0.28146,0.18275 0.22569,0.14764 0.45023,0.29318 0.67628,0.43783 0.0952,0.0603 0.19068,0.12146 0.28587,0.18177 0.30304,0.19025 0.60361,0.37894 0.9079,0.56439 0.0122,0.009 0.024,0.0162 0.0366,0.022 0.30534,0.18783 0.61208,0.3711 0.91865,0.55413 0.0931,0.0555 0.18843,0.11267 0.28293,0.1676 0.23047,0.13562 0.46012,0.26905 0.69094,0.40167 0.094,0.0537 0.18847,0.10849 0.28244,0.16223 0.31256,0.17756 0.62195,0.35204 0.93576,0.5248 0.0219,0.0117 0.0435,0.0224 0.064,0.0347 0.29385,0.16167 0.58831,0.32139 0.882,0.47888 0.0957,0.0501 0.19256,0.10282 0.28831,0.15295 0.23331,0.12301 0.46747,0.24437 0.69974,0.36501 0.0933,0.0484 0.18673,0.0965 0.2795,0.14366 0.31525,0.16079 0.6295,0.31906 0.94406,0.47448 0.0334,0.0151 0.0648,0.0328 0.0982,0.0479 0.28638,0.14084 0.57233,0.27771 0.85855,0.41436 0.097,0.0453 0.19421,0.0903 0.29172,0.13682 0.23668,0.11162 0.47598,0.22205 0.71391,0.32887 0.0888,0.0419 0.17859,0.0819 0.26876,0.12313 0.31741,0.14282 0.63704,0.28335 0.95481,0.42317 0.0426,0.0167 0.082,0.0346 0.12265,0.0508 0.28136,0.12177 0.56125,0.24032 0.84193,0.35671 0.0982,0.0405 0.19593,0.0797 0.29417,0.12022 0.24146,0.0996 0.48189,0.19679 0.72319,0.29219 0.0875,0.0353 0.17492,0.0707 0.26143,0.10361 0.3201,0.12602 0.64083,0.24886 0.96165,0.36891 0.0483,0.0184 0.0973,0.0353 0.14562,0.0538 0.27582,0.10151 0.55011,0.20247 0.82629,0.301 0.0976,0.0352 0.1951,0.0673 0.29124,0.10311 0.24571,0.0864 0.49034,0.17042 0.7359,0.25263 0.0844,0.0281 0.16821,0.0583 0.25263,0.0865 0.32174,0.1069 0.64446,0.21151 0.96605,0.3142 0.0539,0.0159 0.10971,0.0326 0.16418,0.0498 0.27044,0.0855 0.54091,0.16688 0.81311,0.24873 0.0963,0.0286 0.19443,0.0576 0.29025,0.085 0.24997,0.0732 0.49877,0.14434 0.74909,0.21452 0.0799,0.0215 0.1605,0.0441 0.2409,0.0669 0.31954,0.0866 0.63838,0.17219 0.95775,0.25459 0.0548,0.0141 0.11427,0.0277 0.17102,0.0425 0.26402,0.067 0.52776,0.13262 0.79161,0.19544 0.10092,0.0238 0.19866,0.0478 0.29905,0.0704 0.2374,0.056 0.47429,0.11053 0.71293,0.16175 0.0888,0.0191 0.17656,0.0401 0.2668,0.0586 0.31837,0.0687 0.63768,0.13572 0.95677,0.19838 0.0394,0.01 0.0804,0.0155 0.12118,0.0245 0.27879,0.0548 0.55941,0.10618 0.83803,0.15686 0.0983,0.0177 0.19498,0.0353 0.29417,0.0513 0.23499,0.0429 0.46982,0.0812 0.70413,0.11874 0.0939,0.0155 0.18701,0.0301 0.27902,0.045 0.31861,0.0501 0.63698,0.0988 0.95579,0.14171 0.0148,0.003 0.032,0.005 0.045,0.007 0.30356,0.0426 0.60654,0.0798 0.90889,0.11581 0.0971,0.0112 0.1921,0.0218 0.28781,0.0337 0.23434,0.0262 0.46686,0.0519 0.69876,0.0762 0.0961,0.009 0.19126,0.0196 0.28732,0.0283 0.30062,0.0282 0.60063,0.0553 0.90057,0.0782 0.0192,0.002 0.037,0.004 0.0547,0.006 0.31712,0.0239 0.63301,0.0451 0.94944,0.0635 0.0926,0.005 0.18351,0.0104 0.27608,0.0152 0.23335,0.0124 0.4651,0.024 0.69828,0.0322 0.0987,0.003 0.19448,0.008 0.29319,0.0117 0.2742,0.0101 0.54886,0.0173 0.82238,0.0221 0.0424,0.002 0.0861,0.002 0.12852,0.003 0.31542,0.005 0.62788,0.006 0.94211,0.005 0.0885,0 0.17583,-2.1e-4 0.26386,-0.002 0.23322,-0.003 0.46659,-0.006 0.69876,-0.0117 0.0994,-0.002 0.1977,-0.004 0.29661,-0.007 0.25779,-0.008 0.51483,-0.0186 0.77157,-0.0293 0.0594,-0.002 0.11693,-0.005 0.17445,-0.007 0.31181,-0.0149 0.62368,-0.0327 0.93429,-0.0542 0.0826,-0.006 0.1636,-0.0138 0.24481,-0.0196 0.23554,-0.0168 0.46979,-0.0359 0.70658,-0.0577 0.0982,-0.009 0.19554,-0.0163 0.29466,-0.0274 0.24485,-0.0225 0.48966,-0.0493 0.73296,-0.0752 0.0702,-0.008 0.13897,-0.0152 0.20914,-0.0235 0.3082,-0.0346 0.61758,-0.0745 0.92598,-0.1163 0.073,-0.009 0.14646,-0.0218 0.21891,-0.0322 0.23876,-0.0325 0.47926,-0.0686 0.71734,-0.10653 0.097,-0.0157 0.19378,-0.0311 0.2922,-0.0474 0.23474,-0.0378 0.47005,-0.0787 0.70463,-0.1207 0.0767,-0.0124 0.154,-0.0265 0.23015,-0.0401 0.30547,-0.0561 0.61097,-0.11664 0.91524,-0.17933 0.0614,-0.0128 0.12436,-0.0259 0.18666,-0.0405 0.24373,-0.0517 0.49037,-0.10486 0.73394,-0.16077 0.0958,-0.0222 0.19145,-0.0444 0.28586,-0.066 0.22603,-0.0539 0.454258,-0.10998 0.681168,-0.16566 0.0816,-0.0202 0.16278,-0.0417 0.24579,-0.0625 0.301328,-0.077 0.602458,-0.15818 0.903988,-0.24237 0.0476,-0.0137 0.0966,-0.0283 0.14611,-0.0415 0.25432,-0.0734 0.50708,-0.14638 0.75984,-0.22332 0.0932,-0.0282 0.1878,-0.0566 0.28048,-0.086 0.21977,-0.0681 0.44144,-0.14009 0.66016,-0.21059 0.0865,-0.0281 0.17146,-0.0555 0.25801,-0.0836 0.29615,-0.10026 0.59383,-0.20099 0.88982,-0.30542 0.03,-0.0117 0.0594,-0.022 0.0894,-0.0337 0.26826,-0.0951 0.53426,-0.19458 0.79991,-0.29561 0.0906,-0.0341 0.18204,-0.0704 0.27071,-0.10506 0.21491,-0.083 0.43167,-0.16948 0.64501,-0.25606 0.0882,-0.0359 0.17674,-0.0704 0.26435,-0.10749 0.29203,-0.12113 0.58485,-0.24419 0.87566,-0.37186 l 2.69439,-1.18302 c -10.323046,4.53245 -21.704016,4.9027 -33.016276,1.78552 C 53.329424,186.35938 30.628744,165.62079 17.684604,136.1393 4.7404739,106.65781 4.8364639,75.912287 15.731494,54.702717 c 5.36085,-10.43769 13.33567,-18.5663 23.65873,-23.09873 z m 6.15252,78.214953 -2.78185,1.22112 c 1.28479,4.03302 2.80473,8.07074 4.56688,12.08419 1.8112,4.1252 3.81259,8.07781 5.97905,11.84426 l 2.78186,-1.22161 c -2.16646,-3.76645 -4.16835,-7.71858 -5.97955,-11.84378 -1.76214,-4.01344 -3.28108,-8.04997 -4.56639,-12.08418 z m -5.38926,2.36601 -2.78137,1.22162 c 1.28479,4.03302 2.80425,8.07074 4.56639,12.08419 1.8112,4.12519 3.81168,8.07794 5.97955,11.84377 l 2.78136,-1.22161 c -2.16786,-3.76583 -4.16785,-7.71858 -5.97905,-11.84378 -1.76215,-4.01345 -3.28158,-8.04997 -4.56688,-12.08419 z m -5.38927,2.36651 -2.78136,1.22113 c 1.28338,4.03364 2.80326,8.07122 4.5654,12.08468 1.81121,4.12519 3.81267,8.07745 5.98053,11.84328 l 2.78039,-1.22063 c -2.16646,-3.76645 -4.16834,-7.71858 -5.97955,-11.84378 -1.76214,-4.01345 -3.2815,-8.04984 -4.56541,-12.08468 z m 136.260146,23.69342 c -1.02672,1.64613 -2.27232,3.32037 -3.78609,4.95632 -1.21724,4.10497 -2.75576,7.98651 -4.6089,11.59359 -2.68918,5.23332 -6.03785,9.88402 -10.01036,13.79347 0.005,5.3e-4 0.0103,-5.3e-4 0.0151,-0.001 0.50665,-0.0254 1.01076,-0.0593 1.51624,-0.10262 l 0.087,-0.008 c 4.48596,-4.12922 8.22844,-9.16562 11.17481,-14.90464 2.40514,-4.6818 4.28218,-9.82959 5.6121,-15.32684 z m -6.98373,7.99667 c -0.97261,0.81131 -2.02621,1.60252 -3.16648,2.36407 -1.03251,2.99154 -2.2447,5.85222 -3.63305,8.55617 -2.17742,4.23867 -4.78949,8.09419 -7.81147,11.4856 0.005,5.3e-4 0.0119,2.2e-4 0.0186,0 0.51935,0.007 1.03711,0.004 1.55635,-0.004 0.0286,2.1e-4 0.055,-5.3e-4 0.0825,-0.002 3.50391,-3.67533 6.49354,-7.94582 8.93731,-12.69988 1.56281,-3.04712 2.90497,-6.29205 4.01624,-9.69961 z m -5.9698,4.06993 c -0.90826,0.50371 -1.86216,0.98777 -2.86395,1.45029 -0.97068,2.7049 -2.08936,5.30171 -3.35503,7.76604 -1.6542,3.22054 -3.55944,6.22127 -5.70298,8.96468 0.005,5.3e-4 0.0124,0.002 0.0191,0.002 0.53589,0.0412 1.07044,0.0747 1.60568,0.0992 0.0272,7.9e-4 0.053,0.002 0.0816,0.002 2.58678,-3.09258 4.85318,-6.54082 6.77995,-10.2894 1.30008,-2.53474 2.44629,-5.20646 3.43564,-7.99472 z" />
  </g>
</svg>
