<?xml version="1.0" encoding="UTF-8" standalone="no"?>
<!-- Created with Inkscape (http://www.inkscape.org/) -->

<svg
   width="131mm"
   height="182mm"
   viewBox="0 0 131 182"
   version="1.1"
   id="svg5"
   inkscape:version="1.2.2 (b0a8486541, 2022-12-01)"
   sodipodi:docname="02-miaz.svg"
   xmlns:inkscape="http://www.inkscape.org/namespaces/inkscape"
   xmlns:sodipodi="http://sodipodi.sourceforge.net/DTD/sodipodi-0.dtd"
   xmlns="http://www.w3.org/2000/svg"
   xmlns:svg="http://www.w3.org/2000/svg">
  <sodipodi:namedview
     id="namedview7"
     pagecolor="#ffffff"
     bordercolor="#000000"
     borderopacity="0.25"
     inkscape:showpageshadow="2"
     inkscape:pageopacity="0.0"
     inkscape:pagecheckerboard="0"
     inkscape:deskcolor="#d1d1d1"
     inkscape:document-units="mm"
     showgrid="false"
     inkscape:zoom="0.95235364"
     inkscape:cx="558.091"
     inkscape:cy="422.11211"
     inkscape:window-width="1920"
     inkscape:window-height="1135"
     inkscape:window-x="0"
     inkscape:window-y="0"
     inkscape:window-maximized="1"
     inkscape:current-layer="layer1"
     showguides="false" />
  <defs
     id="defs2">
    <clipPath
       clipPathUnits="userSpaceOnUse"
       id="clipPath138463">
      <path
         d="M 0,926.453 H 934.092 V 0 H 0 Z"
         id="path138461" />
    </clipPath>
  </defs>
  <g
     inkscape:label="Réteg 1"
     inkscape:groupmode="layer"
     id="layer1">
    <rect
       x="1.7763568e-15"
       y="-182"
       width="131"
       height="182"
       fill="#0f2233"
       id="rect2"
       style="fill:#9fddc7;fill-opacity:1;stroke-width:3.75901"
       transform="scale(1,-1)" />
    <path
       id="rect37207"
       style="fill:#ffffff;fill-opacity:1;stroke-width:0.3;stop-color:#000000"
       d="M 3.3333334e-8,0 H 4 L 3.3333334e-8,4 Z"
       sodipodi:nodetypes="cccc" />
    <path
       style="fill:#49910a;fill-opacity:0.996993;stroke:#000000;stroke-width:0.2;stroke-linecap:butt;stroke-dasharray:none;stroke-opacity:1;stop-color:#000000"
       d="M 0.30000003,3 H 2"
       id="path36696"
       sodipodi:nodetypes="cc" />
    <path
       style="fill:#49910a;fill-opacity:0.996993;stroke:#000000;stroke-width:0.2;stroke-linecap:butt;stroke-dasharray:none;stroke-opacity:1;stop-color:#000000"
       d="M 3,0.3 V 2"
       id="path36696-6"
       sodipodi:nodetypes="cc" />
    <path
       id="rect37207-3"
       style="fill:#ffffff;fill-opacity:1;stroke-width:0.3;stop-color:#000000"
       d="m 131,0 h -4 l 4,4 z"
       sodipodi:nodetypes="cccc" />
    <path
       style="fill:#49910a;fill-opacity:0.996993;stroke:#000000;stroke-width:0.2;stroke-linecap:butt;stroke-dasharray:none;stroke-opacity:1;stop-color:#000000"
       d="M 130.7,3 H 129"
       id="path36696-5"
       sodipodi:nodetypes="cc" />
    <path
       style="fill:#49910a;fill-opacity:0.996993;stroke:#000000;stroke-width:0.2;stroke-linecap:butt;stroke-dasharray:none;stroke-opacity:1;stop-color:#000000"
       d="M 128,0.3 V 2"
       id="path36696-6-6"
       sodipodi:nodetypes="cc" />
    <path
       id="rect37207-2"
       style="fill:#ffffff;fill-opacity:1;stroke-width:0.3;stop-color:#000000"
       d="M 3.3333334e-8,182 H 4 L 3.3333334e-8,178 Z"
       sodipodi:nodetypes="cccc" />
    <path
       style="fill:#49910a;fill-opacity:0.996993;stroke:#000000;stroke-width:0.2;stroke-linecap:butt;stroke-dasharray:none;stroke-opacity:1;stop-color:#000000"
       d="M 0.3,179 H 1.9999999"
       id="path36696-9"
       sodipodi:nodetypes="cc" />
    <path
       style="fill:#49910a;fill-opacity:0.996993;stroke:#000000;stroke-width:0.2;stroke-linecap:butt;stroke-dasharray:none;stroke-opacity:1;stop-color:#000000"
       d="M 3,181.7 V 180"
       id="path36696-6-1"
       sodipodi:nodetypes="cc" />
    <path
       id="rect37207-3-2"
       style="fill:#ffffff;fill-opacity:1;stroke-width:0.3;stop-color:#000000"
       d="m 131,182 h -4 l 4,-4 z"
       sodipodi:nodetypes="cccc" />
    <path
       style="fill:#49910a;fill-opacity:0.996993;stroke:#000000;stroke-width:0.2;stroke-linecap:butt;stroke-dasharray:none;stroke-opacity:1;stop-color:#000000"
       d="M 130.7,179 H 129"
       id="path36696-5-7"
       sodipodi:nodetypes="cc" />
    <path
       style="fill:#49910a;fill-opacity:0.996993;stroke:#000000;stroke-width:0.2;stroke-linecap:butt;stroke-dasharray:none;stroke-opacity:1;stop-color:#000000"
       d="M 128,181.7 V 180"
       id="path36696-6-6-0"
       sodipodi:nodetypes="cc" />
    <text
       xml:space="preserve"
       style="font-style:normal;font-variant:normal;font-weight:bold;font-stretch:normal;font-size:7.40833px;font-family:'Roboto Slab';-inkscape-font-specification:'Roboto Slab, Bold';font-variant-ligatures:normal;font-variant-caps:normal;font-variant-numeric:normal;font-variant-east-asian:normal;fill:#fbfdff;fill-opacity:1;stroke:none;stroke-width:0.499999;stroke-dasharray:none;paint-order:markers stroke fill;stop-color:#000000"
       x="11.598527"
       y="15.482295"
       id="text18434"><tspan
         sodipodi:role="line"
         id="tspan18432"
         style="font-style:normal;font-variant:normal;font-weight:bold;font-stretch:normal;font-size:7.40833px;font-family:'Roboto Slab';-inkscape-font-specification:'Roboto Slab, Bold';font-variant-ligatures:normal;font-variant-caps:normal;font-variant-numeric:normal;font-variant-east-asian:normal;fill:#fbfdff;fill-opacity:1;stroke:none;stroke-width:0.5"
         x="11.598527"
         y="15.482295">Mi a HoloDB?</tspan></text>
    <text
       xml:space="preserve"
       style="font-style:normal;font-variant:normal;font-weight:normal;font-stretch:normal;font-size:3.52778px;font-family:'Roboto Slab';-inkscape-font-specification:'Roboto Slab, Normal';font-variant-ligatures:normal;font-variant-caps:normal;font-variant-numeric:normal;font-variant-east-asian:normal;white-space:pre;inline-size:110.42;display:inline;fill:#132225;fill-opacity:1;stroke:none;stroke-width:0.499999;stroke-dasharray:none;paint-order:markers stroke fill;stop-color:#000000"
       x="10.716839"
       y="34.724209"
       id="text19082"
       transform="translate(1.0583334,-6.8791668)"><tspan
         x="10.716839"
         y="34.724209"
         id="tspan2959">A HoloDB egy általános célú adatbázis-szimuláló és adatmockoló </tspan><tspan
         x="10.716839"
         y="39.133934"
         id="tspan2961">eszköz, amely tömör konfigurációból egy pillanat alatt képes </tspan><tspan
         x="10.716839"
         y="43.543659"
         id="tspan2963">valószerű, kereshető relációs adatbázis látszatát kelteni. Akár </tspan><tspan
         x="10.716839"
         y="47.953385"
         id="tspan2965">óriás virtuális adathalmazt is működtethetsz vele minimális </tspan><tspan
         x="10.716839"
         y="52.36311"
         id="tspan2967">erőforrás-igénnyel, hiszen a lekérdezési eredmények on-the-fly </tspan><tspan
         x="10.716839"
         y="56.772835"
         id="tspan2969">generálódnak. Egy közel produkcióképes termék, mely Docker-</tspan><tspan
         x="10.716839"
         y="61.18256"
         id="tspan2971">konténerként is indítható, és hálózati protokollon keresztül </tspan><tspan
         x="10.716839"
         y="65.592285"
         id="tspan2973">bármilyen rendszerrel összekapcsolhatod. A HoloDB nem csak </tspan><tspan
         x="10.716839"
         y="70.002014"
         id="tspan2975">egy újabb fejlesztői eszköz: radikálisan új megközelítése </tspan><tspan
         x="10.716839"
         y="74.411743"
         id="tspan2977">egyszerűbb és takarékosabb alternatívát kínál a szintetikus </tspan><tspan
         x="10.716839"
         y="78.821472"
         id="tspan2979">adatok terén. Előgenerálással és adattárhely biztosításával </tspan><tspan
         x="10.716839"
         y="83.231201"
         id="tspan2981">egyáltalán nem kell foglalkoznod, mégis egy teljesértékű relációs </tspan><tspan
         x="10.716839"
         y="87.64093"
         id="tspan2983">adatbázist kapsz; a várt adatok jellemzőit felskiccelve máris </tspan><tspan
         x="10.716839"
         y="92.050659"
         id="tspan2985">használatba veheted.</tspan></text>
    <text
       xml:space="preserve"
       style="font-style:normal;font-variant:normal;font-weight:bold;font-stretch:normal;font-size:5.99722px;font-family:'Roboto Slab';-inkscape-font-specification:'Roboto Slab, Bold';font-variant-ligatures:normal;font-variant-caps:normal;font-variant-numeric:normal;font-variant-east-asian:normal;fill:#ffffff;fill-opacity:1;stroke:none;stroke-width:0.499999;stroke-dasharray:none;paint-order:markers stroke fill;stop-color:#000000"
       x="65.599075"
       y="100.44218"
       id="text19452"><tspan
         sodipodi:role="line"
         style="font-style:normal;font-variant:normal;font-weight:bold;font-stretch:normal;font-size:5.99722px;font-family:'Roboto Slab';-inkscape-font-specification:'Roboto Slab, Bold';font-variant-ligatures:normal;font-variant-caps:normal;font-variant-numeric:normal;font-variant-east-asian:normal;fill:#ffffff;fill-opacity:1;stroke-width:0.5"
         x="65.599075"
         y="100.44218"
         id="tspan19610">Kinek és mire jó?</tspan></text>
    <path
       id="rect5597"
       style="fill:#b14b5a;fill-opacity:0;stroke-linecap:round;paint-order:markers fill stroke;stop-color:#000000"
       d="m 33.834984,108.78071 h 86.700966 v 46.28113 L 96.67722,155.31479 82.627811,142.73259 61.81452,128.00857 33.834984,120.98406 Z"
       sodipodi:nodetypes="cccccccc" />
    <text
       xml:space="preserve"
       style="font-style:normal;font-variant:normal;font-weight:normal;font-stretch:normal;font-size:3.52778px;font-family:'Roboto Slab';-inkscape-font-specification:'Roboto Slab, Normal';font-variant-ligatures:normal;font-variant-caps:normal;font-variant-numeric:normal;font-variant-east-asian:normal;white-space:pre;shape-inside:url(#rect5597);inline-size:85.7703;display:inline;fill:#132225;fill-opacity:1;stroke:none;stroke-width:0.499999;stroke-dasharray:none;paint-order:markers stroke fill;stop-color:#000000"
       x="10.716839"
       y="34.724209"
       id="text19082-3-9"><tspan
         x="10.716839"
         y="112.02512"
         id="tspan2987">Fejlesztőknek, tesztelőknek, kutatóknak – és </tspan><tspan
         x="10.716839"
         y="116.43485"
         id="tspan2989">bárkinek, akinek adatbázisra van szüksége, de nem </tspan><tspan
         x="10.716839"
         y="120.84457"
         id="tspan2991">szeretne bajlódni sem adatgenerálással, sem </tspan><tspan
         x="10.716839"
         y="125.2543"
         id="tspan2993">adatbázis-adminisztrációval. Ideális </tspan><tspan
         x="10.716839"
         y="129.66403"
         id="tspan2995">prototipizáláshoz, teszteléshez, </tspan><tspan
         x="10.716839"
         y="134.07376"
         id="tspan2997">mockoláshoz, demókhoz, </tspan><tspan
         x="10.716839"
         y="138.48349"
         id="tspan2999">vagy akár oktatáshoz.</tspan></text>
    <path
       id="path68081-7"
       style="fill:#9dc991;fill-opacity:0.99799502;stroke-width:1.04935"
       d="m 65.689087,269.48075 c 0.0481,-0.0331 0.0947,-0.0654 0.142544,-0.0978 0.149091,-0.10229 0.29911,-0.20641 0.445935,-0.3144 0.0544,-0.0381 0.108731,-0.0749 0.163282,-0.11432 0.162435,-0.11858 0.326052,-0.23505 0.485426,-0.3582 0.02783,-0.0201 0.05606,-0.0392 0.08323,-0.06 0.187087,-0.14253 0.374767,-0.28475 0.559025,-0.42984 0.04326,-0.0329 0.08388,-0.069 0.127847,-0.10069 0.142266,-0.11215 0.284457,-0.22751 0.42659,-0.34223 0.05123,-0.0456 0.105399,-0.0872 0.158147,-0.13041 0.146756,-0.11979 0.290798,-0.24221 0.435001,-0.36667 0.03565,-0.0278 0.06897,-0.0588 0.103555,-0.0876 0.176418,-0.15282 0.353001,-0.30684 0.525956,-0.46312 0.03567,-0.0351 0.07304,-0.0669 0.10996,-0.10064 0.136795,-0.12379 0.272066,-0.24811 0.407779,-0.37515 0.05225,-0.0475 0.102577,-0.0956 0.153266,-0.14474 0.130842,-0.1235 0.262048,-0.2505 0.391037,-0.37661 0.03826,-0.038 0.07798,-0.0761 0.116505,-0.11365 0.164661,-0.16274 0.329302,-0.32848 0.491899,-0.49524 0.02932,-0.032 0.05934,-0.0634 0.08954,-0.0939 0.131207,-0.13691 0.262407,-0.27503 0.391861,-0.41421 0.04769,-0.0526 0.09597,-0.1036 0.144201,-0.15551 0.118994,-0.12948 0.237451,-0.26076 0.353879,-0.39203 0.0402,-0.0448 0.08026,-0.0894 0.121298,-0.13503 0.154013,-0.17497 0.305842,-0.3498 0.455817,-0.52718 0.02179,-0.0268 0.04408,-0.056 0.06719,-0.0812 0.126897,-0.15163 0.253611,-0.30486 0.378568,-0.46026 0.04433,-0.0562 0.08952,-0.11034 0.134197,-0.16697 0.107749,-0.13526 0.21442,-0.27128 0.32036,-0.40785 0.03986,-0.0531 0.08113,-0.10381 0.121001,-0.15681 0.141316,-0.18557 0.28121,-0.3722 0.419854,-0.56084 0.01159,-0.0187 0.02385,-0.0365 0.0378,-0.0547 0.124589,-0.17205 0.247841,-0.34472 0.369833,-0.51964 0.04007,-0.0583 0.08132,-0.11687 0.121825,-0.17622 0.03481,-0.0527 0.06928,-0.10314 0.104878,-0.1547 0.03331,-0.0573 0.06567,-0.11351 0.09977,-0.17142 l -0.09658,0.15343 c -0.03457,0.0525 -0.06665,0.0992 -0.102159,0.15092 -0.01007,0.0104 -0.01657,0.0233 -0.02374,0.0366 -0.0027,0.003 -0.0058,0.008 -0.0067,0.013 -0.02954,0.0432 -0.05931,0.0881 -0.08956,0.13067 -0.122113,0.17472 -0.244307,0.34833 -0.369828,0.51965 -0.01435,0.017 -0.02509,0.0373 -0.03947,0.053 -0.01007,0.0104 -0.01566,0.0227 -0.02489,0.0344 0.02405,-0.0424 0.04886,-0.0869 0.07154,-0.1303 0.159207,-0.29411 0.312725,-0.5901 0.463143,-0.88843 -4.383789,5.61738 -10.444175,9.64959 -17.561661,12.05353 -16.764341,5.66053 -39.372198,2.31959 -59.6478652,-10.47663 -20.2757168,-12.79621 -33.0722108,-31.7989 -35.2521088,-49.41614 -0.929173,-7.50921 0.07622,-14.76446 3.249193,-21.18242 -0.208082,0.26996 -0.412265,0.54234 -0.61237,0.82018 -0.03115,0.0385 -0.05881,0.0813 -0.08705,0.12281 -0.009,0.007 -0.0098,0.024 -0.01882,0.0302 -0.109804,0.20692 -0.216726,0.4141 -0.321425,0.6226 -0.02991,0.0594 -0.05787,0.11861 -0.08724,0.17814 -0.07762,0.15423 -0.153159,0.3104 -0.228384,0.46595 -0.03029,0.0644 -0.06112,0.12988 -0.092,0.19383 -0.08562,0.18008 -0.167669,0.36142 -0.248988,0.54152 -0.01612,0.0284 -0.03037,0.0648 -0.0434,0.0967 -0.09517,0.21224 -0.186235,0.42541 -0.276675,0.64031 -0.02405,0.0563 -0.04598,0.11224 -0.06953,0.16746 -0.06728,0.1622 -0.134027,0.32642 -0.197964,0.4909 -0.02614,0.0657 -0.05253,0.13082 -0.07802,0.19684 -0.06883,0.17744 -0.136469,0.35564 -0.202135,0.53383 -0.01512,0.0394 -0.02968,0.0819 -0.04549,0.12193 -0.07863,0.21865 -0.156108,0.43871 -0.231455,0.65926 -0.01733,0.0509 -0.03498,0.10345 -0.0522,0.15403 -0.05731,0.17134 -0.114526,0.34541 -0.168709,0.51726 -0.02103,0.0675 -0.04191,0.13364 -0.06276,0.2014 -0.0547,0.17693 -0.10846,0.3529 -0.161579,0.53098 -0.01327,0.0481 -0.02858,0.0952 -0.04157,0.14308 -0.06536,0.22412 -0.12709,0.45093 -0.187597,0.67667 -0.01072,0.0453 -0.02312,0.0874 -0.034,0.13153 -0.04806,0.18374 -0.09466,0.36749 -0.140133,0.55298 -0.01646,0.0662 -0.032,0.13333 -0.04825,0.20012 -0.04213,0.17799 -0.08384,0.35631 -0.122225,0.53415 -0.01171,0.0535 -0.02458,0.10595 -0.03621,0.15927 -0.05029,0.22961 -0.0979,0.46085 -0.143483,0.69201 -0.0063,0.0334 -0.01249,0.0673 -0.01866,0.1006 -0.03824,0.1982 -0.07564,0.39542 -0.110851,0.59425 -0.01205,0.0665 -0.02225,0.13167 -0.03424,0.19818 -0.03101,0.17798 -0.05968,0.35925 -0.08741,0.53836 -0.0091,0.0562 -0.01798,0.11392 -0.02744,0.17129 -0.03446,0.23544 -0.06894,0.47109 -0.09967,0.70754 -0.0033,0.0159 -0.0056,0.0354 -0.0071,0.0563 -0.02808,0.21661 -0.05371,0.43204 -0.07818,0.64957 -0.0071,0.0639 -0.01364,0.12886 -0.02064,0.19301 -0.01981,0.18255 -0.03752,0.36575 -0.0541,0.54928 -0.0064,0.059 -0.01183,0.11941 -0.01742,0.1787 -0.04074,0.47664 -0.0737,0.95552 -0.0976,1.43603 -0.0035,0.0626 -0.0064,0.125 -0.0076,0.18769 -0.009,0.18569 -0.0161,0.37123 -0.02208,0.55727 -0.0021,0.0633 -0.0043,0.12497 -0.0063,0.18852 -0.01159,0.48292 -0.01621,0.9692 -0.01088,1.4561 -3.9e-4,0.0605 0.0011,0.1201 0.0024,0.18088 0.0027,0.18884 0.0074,0.37763 0.01163,0.5675 0.0018,0.0643 0.0038,0.12942 0.0048,0.19458 0.0076,0.22806 0.01657,0.45784 0.0272,0.68676 0.0015,0.0165 0.0015,0.0281 0.0016,0.0409 0.01182,0.24847 0.02817,0.49591 0.0438,0.74408 0.0045,0.057 0.0091,0.11335 0.01171,0.17053 0.01389,0.19336 0.02906,0.3848 0.04493,0.57796 0.006,0.067 0.01122,0.13345 0.01709,0.20021 0.01995,0.21592 0.03958,0.43194 0.06178,0.64788 0.0032,0.0306 0.0065,0.0605 0.01014,0.0912 0.02629,0.24939 0.05454,0.49937 0.08523,0.74905 -4.45e-4,0.0177 0.0016,0.028 0.0038,0.0443 0.0044,0.0366 0.01089,0.0738 0.01565,0.11076 0.02632,0.20206 0.05353,0.4042 0.08044,0.60709 0.0094,0.0667 0.01871,0.13452 0.02893,0.202 0.03171,0.22106 0.06505,0.44256 0.09956,0.66239 0.0056,0.029 0.0097,0.0612 0.01389,0.0919 0.04061,0.2533 0.08428,0.50691 0.128921,0.7599 0.0096,0.0571 0.02068,0.11248 0.03083,0.1688 0.03619,0.20058 0.07371,0.3997 0.11228,0.60045 0.01382,0.0694 0.02732,0.13708 0.03967,0.20518 0.04482,0.22491 0.09093,0.45206 0.139668,0.67826 0.0051,0.0258 0.01147,0.0513 0.01722,0.078 0.05441,0.25384 0.111149,0.50757 0.169889,0.76159 0.01425,0.0597 0.02822,0.12039 0.04252,0.18033 0.04636,0.19776 0.09485,0.39497 0.143284,0.59265 0.0174,0.0688 0.03423,0.13906 0.0517,0.20921 0.05851,0.23101 0.118532,0.46112 0.179382,0.69354 9.58e-4,0.0198 0.01106,0.0421 0.01694,0.0637 0.06781,0.25417 0.139097,0.50815 0.211345,0.76251 0.0175,0.0645 0.03665,0.12801 0.05579,0.19135 0.05543,0.19511 0.11327,0.38916 0.172061,0.585 0.02205,0.0708 0.04209,0.14265 0.06418,0.21265 0.07201,0.23667 0.145835,0.47316 0.221346,0.70947 0.0015,0.0164 0.0097,0.0326 0.01465,0.0475 0.08077,0.25334 0.164612,0.50685 0.250861,0.75901 0.02249,0.0674 0.04558,0.13496 0.0695,0.20268 0.06571,0.19245 0.131769,0.38476 0.199983,0.57615 0.02566,0.0722 0.04955,0.1433 0.07629,0.21517 0.0873,0.24479 0.17683,0.49005 0.268422,0.73527 -2.67e-4,0.001 0.0048,0.0142 0.0072,0.0213 0.09438,0.25202 0.190877,0.50389 0.289281,0.75623 0.02518,0.0714 0.05475,0.14153 0.08294,0.21181 0.0747,0.18842 0.150473,0.37896 0.228396,0.56793 0.02821,0.0717 0.05792,0.14443 0.08746,0.21544 0.206034,0.50167 0.419472,1.0039 0.642273,1.50416 0.03177,0.0727 0.06444,0.14602 0.09766,0.21925 0.08374,0.1875 0.168038,0.37422 0.253586,0.56008 0.03422,0.0712 0.0663,0.1436 0.09983,0.21604 0.114377,0.24873 0.23191,0.49819 0.351007,0.74697 0.0086,0.0145 0.01582,0.0305 0.02348,0.0453 0.11262,0.23402 0.226258,0.46901 0.342949,0.70317 0.03766,0.0739 0.07469,0.14866 0.11279,0.22447 0.09252,0.18531 0.185077,0.36906 0.279989,0.55272 0.03992,0.0696 0.07493,0.14475 0.111525,0.21583 0.127443,0.24627 0.256728,0.49329 0.388122,0.73896 0.01425,0.0282 0.02971,0.0545 0.04349,0.0825 0.118657,0.22047 0.237394,0.4407 0.358456,0.66098 0.04069,0.0784 0.08596,0.15263 0.127368,0.23082 0.100398,0.18231 0.202315,0.36366 0.304287,0.54508 0.03911,0.0719 0.08216,0.14187 0.122294,0.21461 0.139185,0.24398 0.280418,0.48652 0.421597,0.73077 0.02341,0.0363 0.04478,0.0732 0.06383,0.11251 0.122088,0.2102 0.247319,0.41738 0.374059,0.62661 0.04775,0.0776 0.09388,0.15684 0.144207,0.23339 0.109112,0.1793 0.219971,0.35869 0.330499,0.53741 0.04552,0.0689 0.08609,0.14124 0.130721,0.21117 0.151074,0.2412 0.302639,0.48063 0.457828,0.72113 0.02925,0.0449 0.05983,0.09 0.08908,0.13319 0.126509,0.20087 0.257079,0.39757 0.389021,0.59451 0.05342,0.0788 0.106294,0.15857 0.159821,0.23753 0.118156,0.17607 0.237808,0.35256 0.357561,0.52921 0.04708,0.0694 0.09377,0.14009 0.141177,0.20824 0.161841,0.23695 0.327419,0.47228 0.491958,0.70732 0.03652,0.0521 0.07174,0.10405 0.109888,0.15497 0.133748,0.19016 0.268917,0.37831 0.405058,0.56737 0.05582,0.0806 0.118071,0.15581 0.172872,0.23664 0.127626,0.174 0.253971,0.34879 0.382641,0.52148 0.05095,0.068 0.10338,0.13413 0.151083,0.2045 0.170941,0.23379 0.347867,0.46448 0.523674,0.69547 0.04309,0.0564 0.08871,0.1125 0.131923,0.16875 0.138147,0.18311 0.276764,0.36245 0.41843,0.54291 0.06165,0.0802 0.122514,0.16004 0.187729,0.23824 0.134353,0.17234 0.271809,0.34355 0.408517,0.51491 0.05188,0.0658 0.104328,0.13322 0.159202,0.19634 0.184306,0.22892 0.368375,0.4566 0.556111,0.68362 0.05162,0.0578 0.09894,0.1201 0.150027,0.17853 0.144891,0.17506 0.289216,0.34856 0.435506,0.523 0.06632,0.0795 0.132765,0.15717 0.200641,0.2352 0.145127,0.17112 0.289759,0.34062 0.436909,0.5101 0.05482,0.0625 0.108469,0.12578 0.162996,0.18928 0.19483,0.22252 0.391454,0.44627 0.589343,0.6695 0.05538,0.0633 0.113327,0.12422 0.168472,0.18863 0.148794,0.16834 0.299605,0.33341 0.451613,0.50061 0.0706,0.0783 0.141474,0.15647 0.213117,0.23381 0.155332,0.16943 0.310554,0.3362 0.467306,0.5049 0.05449,0.0597 0.111107,0.11827 0.1665,0.17752 0.205243,0.21846 0.412102,0.43787 0.620403,0.6554 0.06105,0.0642 0.124136,0.12822 0.186208,0.19323 0.155498,0.16148 0.31153,0.32178 0.46946,0.48325 0.07457,0.0756 0.150524,0.15325 0.226203,0.22888 0.163331,0.16662 0.330009,0.33264 0.495363,0.49869 0.05611,0.0569 0.113132,0.11128 0.169335,0.16834 0.215851,0.21432 0.432608,0.42545 0.651879,0.63805 0.06819,0.0664 0.134881,0.13106 0.20305,0.19686 0.161787,0.15489 0.323152,0.30898 0.486458,0.46338 0.07838,0.077 0.15928,0.15137 0.238631,0.22708 0.175347,0.16455 0.35209,0.32851 0.529523,0.49312 0.0554,0.0516 0.110738,0.10222 0.165668,0.15312 0.226059,0.20889 0.454592,0.41636 0.683558,0.62275 0.07329,0.0653 0.145621,0.13104 0.220085,0.19668 0.167291,0.15 0.335053,0.299 0.503711,0.44863 0.08288,0.0724 0.16605,0.14532 0.248397,0.21742 0.188617,0.16471 0.377893,0.32891 0.568006,0.49339 0.05413,0.0455 0.106282,0.0926 0.159494,0.13672 0.236566,0.20175 0.476081,0.404 0.715944,0.60384 0.07751,0.0659 0.157047,0.13026 0.235498,0.19572 0.172235,0.14375 0.346661,0.2879 0.521106,0.43018 0.08587,0.0702 0.172781,0.14135 0.260288,0.21287 0.201654,0.16273 0.403067,0.3254 0.606243,0.48729 0.05035,0.04 0.101012,0.0813 0.151255,0.12082 0.246645,0.19613 0.494993,0.39209 0.745807,0.58536 0.08195,0.0653 0.167352,0.12995 0.250597,0.1934 0.178872,0.13839 0.359399,0.27641 0.540538,0.41349 0.08934,0.0683 0.178849,0.13693 0.269422,0.20358 0.2168502,0.16376 0.4341211,0.32668 0.6529769,0.48903 0.045464,0.0328 0.089189,0.0674 0.1350363,0.10028 0.2561838,0.19002 0.5153526,0.37762 0.7748915,0.56431 0.087868,0.0637 0.1774269,0.12806 0.2659703,0.19091 0.1849029,0.13285 0.3723356,0.26468 0.5593804,0.39762 0.091937,0.0649 0.1845746,0.12987 0.2771565,0.19524 0.234693,0.16451 0.4705064,0.32685 0.7079806,0.48876 0.03924,0.0278 0.078613,0.0548 0.1165367,0.0817 0.2647515,0.18038 0.5311258,0.35936 0.7983193,0.53741 0.093058,0.0614 0.1857813,0.12239 0.2803547,0.18455 0.1916692,0.12768 0.3853316,0.2556 0.5789002,0.38179 0.095101,0.0615 0.1894667,0.12337 0.2860966,0.18569 0.254042,0.16457 0.5109456,0.32833 0.7670417,0.49132 0.022554,0.0149 0.045401,0.0283 0.067784,0.0426 0.018995,0.0173 0.03933,0.0322 0.063282,0.0451 v 0 c 0.258029,0.1615 0.5172275,0.32363 0.775732,0.4828 0.09467,0.0582 0.1904826,0.11631 0.2858125,0.17517 0.1997752,0.12218 0.3999526,0.24293 0.6008481,0.36295 0.093492,0.0565 0.1871214,0.11278 0.2808424,0.1691 0.2803443,0.16607 0.5604243,0.33235 0.84123872,0.49608 0.031137,0.0201 0.065106,0.037 0.097322,0.0561 0.2554094,0.14776 0.50951677,0.29324 0.76553127,0.43999 0.093848,0.0524 0.18933237,0.10606 0.28394577,0.15908 0.2052967,0.11494 0.41089477,0.23083 0.61678477,0.34467 0.089547,0.0485 0.1797634,0.0989 0.26848817,0.14835 0.284723,0.15552 0.569024,0.31032 0.853963,0.4619 0.04007,0.0204 0.07873,0.0418 0.118192,0.0628 0.251888,0.13322 0.502784,0.26628 0.754184,0.39671 0.09404,0.0484 0.188002,0.0968 0.281144,0.14468 0.210435,0.10828 0.420903,0.21733 0.632597,0.32385 0.08643,0.0437 0.172252,0.0875 0.258852,0.1311 0.286893,0.14463 0.575205,0.28738 0.862918,0.42721 0.04483,0.023 0.09023,0.0438 0.134017,0.0647 0.247997,0.12141 0.496353,0.24054 0.746091,0.35908 0.09106,0.044 0.184125,0.0881 0.275858,0.13088 0.215493,0.10222 0.4312807,0.20227 0.6471027,0.30214 0.08336,0.038 0.166648,0.0765 0.2484377,0.11472 0.290299,0.1321 0.5798897,0.26384 0.8705877,0.39341 0.04909,0.0214 0.09638,0.0422 0.145795,0.0641 0.2458537,0.10805 0.4928607,0.21669 0.7392224,0.32235 0.09131,0.0401 0.182341,0.0786 0.274142,0.11769 0.2210317,0.095 0.4410537,0.18815 0.6630884,0.27985 0.07807,0.0318 0.156068,0.0663 0.235077,0.0985 0.2915467,0.12069 0.5840657,0.24043 0.8759127,0.3573 0.05503,0.0213 0.108464,0.0415 0.162112,0.0645 0.242969,0.097 0.484537,0.19129 0.727196,0.2865 0.09105,0.0347 0.181994,0.0707 0.273193,0.10516 0.225034,0.0868 0.449959,0.17229 0.674643,0.25615 0.07518,0.0273 0.148306,0.056 0.22238,0.0836 0.292677,0.1082 0.586463,0.21646 0.879448,0.32057 0.05807,0.0204 0.115958,0.0422 0.174969,0.0633 0.23888,0.0849 0.479408,0.16929 0.718158,0.25257 0.08997,0.0313 0.17816,0.0614 0.268181,0.0926 0.229592,0.0776 0.459724,0.15506 0.688624,0.23219 0.06888,0.0234 0.138273,0.047 0.209202,0.0703 0.293668,0.0977 0.587072,0.19141 0.880238,0.28615 0.06133,0.0185 0.122248,0.0379 0.183592,0.0565 0.236023,0.0747 0.472386,0.14882 0.709428,0.22029 0.08866,0.0276 0.1783,0.0547 0.266114,0.0818 0.233055,0.0703 0.465176,0.13848 0.698695,0.20639 0.06449,0.0189 0.130743,0.0396 0.196102,0.0577 0.293227,0.0855 0.585949,0.1679 0.880033,0.24843 0.06421,0.0177 0.129248,0.0356 0.193876,0.0525 0.233717,0.064 0.466778,0.12731 0.700072,0.18834 0.08744,0.0242 0.176197,0.0468 0.263472,0.0694 0.236512,0.063 0.474237,0.12282 0.711183,0.18345 0.05933,0.0146 0.118836,0.0306 0.179608,0.0445 0.292282,0.0725 0.584991,0.14415 0.877358,0.21284 0.06763,0.016 0.135486,0.0318 0.203711,0.0468 0.228399,0.054 0.458114,0.10602 0.687082,0.15754 0.08769,0.0203 0.17537,0.0391 0.262463,0.0576 0.238968,0.0538 0.479925,0.10635 0.719638,0.15531 0.05526,0.0118 0.108874,0.0228 0.164173,0.0345 0.29123,0.0599 0.582923,0.11888 0.872978,0.17666 0.06881,0.014 0.140461,0.0267 0.210351,0.0407 0.226179,0.0431 0.451662,0.0858 0.678241,0.12655 0.08564,0.0164 0.172011,0.0316 0.257597,0.0479 0.244745,0.0427 0.490241,0.0861 0.734212,0.12827 0.04804,0.007 0.09432,0.0165 0.141459,0.0233 0.290146,0.0484 0.580346,0.0953 0.870106,0.14079 0.07078,0.0109 0.142017,0.0212 0.212678,0.0322 0.22364,0.0346 0.446767,0.0676 0.669895,0.0993 0.08494,0.0118 0.169334,0.0233 0.254271,0.0353 0.249683,0.0349 0.500444,0.0681 0.748986,0.10103 0.0395,0.005 0.07744,0.0111 0.115887,0.0152 0.287674,0.0362 0.575849,0.0697 0.862505,0.10376 0.07337,0.009 0.14644,0.0157 0.219787,0.0242 0.219778,0.0242 0.439609,0.0485 0.659015,0.0697 0.08233,0.009 0.16451,0.018 0.248138,0.0249 0.257004,0.0248 0.513488,0.0491 0.768706,0.0714 0.03064,0.002 0.05821,0.006 0.08724,0.008 0.285034,0.0237 0.569567,0.0469 0.85487,0.0666 0.07274,0.006 0.147717,0.01 0.222074,0.0148 0.216263,0.0152 0.433703,0.0287 0.649803,0.0425 0.08011,0.005 0.159706,0.0107 0.239976,0.0142 0.263035,0.0153 0.525813,0.0275 0.787664,0.0392 0.0205,1.2e-4 0.0396,0.002 0.05711,0.003 0.28275,0.0114 0.563706,0.0218 0.844486,0.0306 0.07391,0.002 0.147029,0.004 0.221563,0.005 0.214123,0.006 0.427493,0.0115 0.641245,0.0144 0.07768,0.002 0.155892,0.003 0.233418,0.005 0.272631,0.004 0.544059,0.005 0.814828,0.006 0.0044,-5.8e-4 0.01301,8.5e-4 0.01761,1.5e-4 0.278696,-6.1e-4 0.556278,-0.003 0.834567,-0.007 0.07333,-9e-4 0.146902,-10e-4 0.221092,-0.003 0.211408,-0.004 0.421294,-0.007 0.631599,-0.0134 0.0754,-0.002 0.150761,-0.004 0.225259,-0.006 0.549148,-0.0171 1.095547,-0.0411 1.638305,-0.0716 0.07371,-0.005 0.146744,-0.008 0.220571,-0.0131 0.208526,-0.0125 0.416098,-0.0268 0.62288,-0.0418 0.07133,-0.005 0.142545,-0.01 0.21478,-0.0152 0.270681,-0.0205 0.542216,-0.0418 0.812234,-0.0667 0,0 8.84e-4,6.1e-4 0.0014,2.7e-4 0.266278,-0.0244 0.531094,-0.0501 0.795376,-0.0786 0.07264,-0.007 0.144809,-0.0149 0.21804,-0.0224 0.20432,-0.0217 0.409883,-0.0458 0.614668,-0.07 0.06717,-0.007 0.136028,-0.015 0.204018,-0.0234 0.26593,-0.0327 0.531356,-0.0671 0.795435,-0.10243 0.01021,-0.003 0.02341,-0.004 0.03531,-0.007 0.250002,-0.0348 0.498168,-0.0705 0.748378,-0.10925 0.07067,-0.0103 0.141164,-0.0215 0.212194,-0.0332 0.203031,-0.0308 0.404792,-0.0638 0.606618,-0.098 0.06412,-0.0107 0.127119,-0.0208 0.190181,-0.0323 0.260582,-0.0443 0.519851,-0.0922 0.777637,-0.13965 0.01904,-0.002 0.0381,-0.008 0.05789,-0.0101 0.237059,-0.0457 0.473509,-0.0916 0.708205,-0.14006 0.06943,-0.014 0.137954,-0.0288 0.207325,-0.0429 0.200637,-0.0417 0.399759,-0.0844 0.598511,-0.1287 0.05979,-0.0114 0.118354,-0.0248 0.176707,-0.038 0.254095,-0.0579 0.507399,-0.11624 0.759565,-0.17668 0.02421,-0.008 0.04858,-0.0126 0.07439,-0.0177 0.224711,-0.055 0.449822,-0.11235 0.673708,-0.16894 0.06732,-0.0165 0.133283,-0.0342 0.199265,-0.0519 0.198441,-0.0526 0.394606,-0.10508 0.590511,-0.15927 0.05547,-0.0144 0.108803,-0.0299 0.162425,-0.0445 0.248028,-0.0697 0.494163,-0.14064 0.740279,-0.2129 0.03069,-0.009 0.05777,-0.0189 0.08755,-0.0266 0.213724,-0.0643 0.4281,-0.12983 0.64071,-0.19763 0.06317,-0.0196 0.12754,-0.0397 0.190727,-0.0606 0.195597,-0.0624 0.389289,-0.12611 0.583009,-0.19101 0.03483,-0.0115 0.06946,-0.0239 0.104334,-0.0335 0.01567,-0.007 0.02947,-0.009 0.04347,-0.0138 0.237552,-0.0803 0.474373,-0.16242 0.709809,-0.24681 0.0277,-0.0115 0.0554,-0.02 0.08369,-0.0305 0.205087,-0.074 0.409164,-0.14998 0.612414,-0.2251 0.06219,-0.0246 0.12478,-0.048 0.186087,-0.0713 0.181765,-0.0699 0.360532,-0.13882 0.54042,-0.21114 0.05249,-0.0199 0.104739,-0.0414 0.157678,-0.0618 0.230443,-0.093 0.459298,-0.18692 0.687178,-0.28277 0.01016,-0.006 0.02436,-0.0129 0.03679,-0.0165 0.210923,-0.089 0.421564,-0.18104 0.630422,-0.27417 0.0589,-0.0259 0.117148,-0.0532 0.175847,-0.0791 0.172281,-0.0784 0.344034,-0.15603 0.514717,-0.2355 0.05453,-0.0249 0.107956,-0.05 0.162301,-0.0751 0.439982,-0.20731 0.874804,-0.42157 1.303822,-0.64253 0.05612,-0.0272 0.11012,-0.0571 0.164833,-0.0855 0.166009,-0.0863 0.329677,-0.17336 0.493237,-0.26141 0.0551,-0.0301 0.108923,-0.0598 0.164614,-0.0884 0.42122,-0.22975 0.83784,-0.4664 1.24728,-0.71043 0.05006,-0.0327 0.102915,-0.0613 0.153864,-0.0922 0.157267,-0.0945 0.313935,-0.18963 0.469367,-0.28691 0.05486,-0.036 0.109461,-0.0706 0.163572,-0.10364 0.185725,-0.11504 0.367637,-0.23365 0.550368,-0.35282 0.01598,-0.0106 0.03102,-0.0198 0.04642,-0.0303 0.198648,-0.13104 0.395372,-0.26441 0.590948,-0.3982 z m 8.834344,-8.76183 c 0.03962,-0.0665 0.0781,-0.13172 0.116737,-0.19657 -0.04063,0.0687 -0.08198,0.13798 -0.123619,0.20583 0.0011,-0.002 0.0038,-0.005 0.0079,-0.009 z m -7.045804,5.4153 c 2.837227,-1.87125 5.369654,-4.10497 7.530632,-6.69677 0.01828,-0.0386 0.03562,-0.0772 0.05304,-0.11606 0.144864,-0.31667 0.28421,-0.63399 0.418205,-0.95348 -4.237784,4.7506 -9.775464,8.21867 -16.164917,10.37629 -16.763314,5.66205 -39.371133,2.32109 -59.64686951,-10.4751 C -20.608038,245.4729 -33.40446,226.47021 -35.584348,208.85291 c -0.833936,-6.73252 -0.11139,-13.2615 2.333354,-19.16524 -0.235569,0.26481 -0.463405,0.53292 -0.690029,0.8063 -0.01897,0.025 -0.04051,0.0479 -0.05979,0.0726 -2.803172,6.17186 -3.66261,13.07042 -2.781658,20.19769 2.181606,17.6172 14.979055,36.62065 35.2539747,49.41637 20.2752653,12.79553 42.8828243,16.13668 59.6461163,10.4746 3.380107,-1.14163 6.522259,-2.65048 9.359522,-4.52174 z m 7.408387,-5.94308 c 0.01799,-0.0262 0.03708,-0.0547 0.05473,-0.0814 0.12867,-0.19621 0.256242,-0.39449 0.381453,-0.59425 0.01493,-0.0241 0.02935,-0.049 0.04531,-0.0722 l 1.150184,-1.83611 c 4.443187,-7.09238 5.941017,-15.42516 4.868189,-24.09436 -2.178977,-17.61669 -14.976085,-36.62024 -35.250994,-49.41588 -20.2758,-12.79625 -42.8844275,-16.13782 -59.646855,-10.47526 -8.249109,2.78606 -15.082457,7.75196 -19.525549,14.84436 l -1.179125,1.88205 c 0.04172,-0.0666 0.08476,-0.13212 0.126745,-0.19731 -0.04735,0.0741 -0.09503,0.14911 -0.142313,0.22418 -0.0454,0.0722 -0.08865,0.14479 -0.133883,0.21845 l 0.138023,-0.22006 c 0.187167,-0.29953 0.380489,-0.59223 0.57645,-0.8834 0.01162,-0.0215 0.02338,-0.0363 0.03397,-0.055 -0.08874,0.13144 -0.175609,0.26249 -0.26214,0.39498 0.01998,-0.0309 0.04076,-0.0593 0.0591,-0.0934 0.01144,-0.009 0.01733,-0.0254 0.02884,-0.0369 0.06507,-0.0974 0.128083,-0.19532 0.193677,-0.29237 -0.009,0.007 -0.0146,0.0236 -0.02346,0.0363 0.201718,-0.29833 0.406246,-0.59351 0.615842,-0.88284 -0.0044,0.004 -0.0064,0.0164 -0.01162,0.0215 0.221764,-0.30849 0.450124,-0.61167 0.68134,-0.91145 0.0027,-0.003 0.0044,-0.004 0.009,-0.007 0.0014,-0.001 0.0011,-0.002 0.0027,-0.003 0.216939,-0.28059 0.437516,-0.5548 0.662564,-0.82617 -0.0011,0.002 -0.0044,0.004 -0.0044,0.004 0.243161,-0.29374 0.489134,-0.58428 0.742003,-0.86787 0.0011,-0.002 0.0011,-0.002 0.0044,-0.004 0.0013,-0.002 0.0044,-0.004 0.009,-0.007 0.14421,-0.16215 0.291119,-0.32265 0.438102,-0.48031 0.01839,-0.0246 0.04208,-0.0422 0.06253,-0.0628 0.07488,-0.077 0.145842,-0.15891 0.219743,-0.23595 -0.0014,0.001 -0.0011,0.002 -0.0011,0.002 0.263912,-0.27919 0.531948,-0.55617 0.807286,-0.82522 -5.61e-4,-8.3e-4 0.0011,-0.002 0.0011,-0.002 0.0027,-0.003 0.008,-0.007 0.01136,-0.009 0.164755,-0.16135 0.33242,-0.32056 0.500277,-0.47901 0.04422,-0.0421 0.08951,-0.0811 0.132963,-0.12179 0.04765,-0.0498 0.09736,-0.0922 0.147894,-0.13832 -0.0015,0.001 -0.0011,0.002 -0.0011,0.002 0.286722,-0.26493 0.576475,-0.52484 0.871966,-0.78024 -0.126859,0.10642 -0.249508,0.21675 -0.373402,0.32708 0.129728,-0.11417 0.25795,-0.229 0.387456,-0.34313 0.176496,-0.14877 0.353827,-0.29907 0.53281,-0.4459 0.06756,-0.0579 0.140149,-0.10867 0.208667,-0.16768 0.03619,-0.0257 0.06756,-0.0579 0.10354,-0.0838 0,0 -2.12e-4,6.2e-4 -2.67e-4,0.001 0.310191,-0.25149 0.62332,-0.49844 0.943383,-0.73946 0,0 7.49e-4,-6.8e-4 -1.31e-4,-10e-4 0.0033,-0.002 0.0082,-0.006 0.01357,-0.0101 0.178149,-0.13817 0.36302,-0.2635 0.54331,-0.39744 0.09897,-0.0683 0.197206,-0.1349 0.29111,-0.20944 0.02493,-0.0181 0.04993,-0.035 0.07476,-0.0519 l -6.08e-4,8.9e-4 c 0.333332,-0.23806 0.671066,-0.46859 1.016807,-0.69054 l 0.0014,-0.001 c 0.0033,-0.002 0.0097,-0.006 0.01399,-0.009 0.175475,-0.11775 0.354653,-0.22835 0.531687,-0.34293 0.132922,-0.0889 0.272918,-0.16762 0.406417,-0.2551 0.01256,-0.007 0.02407,-0.0151 0.03549,-0.0229 0.360379,-0.22389 0.728522,-0.43879 1.099676,-0.64909 l 0.005,-0.003 c 0.02481,-0.0156 0.05006,-0.0327 0.07978,-0.042 1.948186,-1.09794 4.017151,-2.03969 6.191303,-2.82794 0.311625,-0.11304 0.625637,-0.2234 0.941078,-0.33006 16.7545915,-5.66134 39.354317,-2.31965 59.621887,10.4714 11.085449,6.9961 19.933884,15.84782 26.032886,25.31326 1.423875,2.21045 2.698565,4.45462 3.816825,6.71596 2.855273,5.77111 4.693364,11.65868 5.40373,17.39737 -6.15e-4,8.7e-4 -0.0016,0.001 -0.0019,8e-4 0.05897,0.47766 0.108995,0.95468 0.152102,1.43037 0.001,-2.5e-4 0.0025,-0.002 0.0027,-0.001 0.03999,0.43876 0.07316,0.87592 0.100321,1.31329 -10e-4,2.4e-4 -0.003,8.6e-4 -0.0039,0.001 0.0273,0.45902 0.04952,0.9176 0.06236,1.3742 0.0025,-0.002 0.0027,-0.001 0.0055,-0.003 0,0 4.8e-5,10e-4 -2.67e-4,10e-4 0.01196,0.41975 0.01725,0.83894 0.01561,1.2568 -0.0011,2e-4 -0.0027,0.001 -0.0055,0.003 -0.0013,0.44093 -0.0093,0.88036 -0.02426,1.31942 0.0025,-0.002 0.0033,-0.002 0.0052,-0.003 -5.86e-4,9.1e-4 -2.66e-4,0.001 -0.0019,0.003 -0.01473,0.40415 -0.03288,0.80629 -0.05986,1.20811 -0.0016,10e-4 -0.0033,0.002 -0.0052,0.003 -0.02892,0.4249 -0.06436,0.84732 -0.106513,1.26788 l 0.0058,-0.004 c 4.8e-5,0.001 -2.67e-4,0.001 -0.0011,0.002 -0.03848,0.38921 -0.0814,0.77664 -0.131506,1.16255 -0.0022,0.002 -0.0047,0.004 -0.0085,0.005 -0.05418,0.40887 -0.115434,0.81461 -0.182085,1.2197 0.0025,-0.002 0.0044,-0.004 0.0081,-0.006 -6.04e-4,8.9e-4 -0.0011,0.002 -0.0011,0.002 -0.062,0.37566 -0.129953,0.74779 -0.203531,1.12024 -0.0016,0.001 -0.0032,0.002 -0.0061,0.005 -0.0782,0.39244 -0.164031,0.78421 -0.255232,1.17379 0.0028,-0.003 0.0063,-0.005 0.01003,-0.008 -6.15e-4,8.7e-4 -2.67e-4,0.001 -0.0014,0.003 -0.08489,0.36131 -0.173107,0.72035 -0.268165,1.07788 -0.0022,0.002 -0.0072,0.005 -0.01003,0.008 -0.10166,0.37899 -0.210941,0.75579 -0.32502,1.13094 0.0044,-0.004 0.0077,-0.006 0.01179,-0.0104 -0.0019,0.003 -0.0019,0.003 -0.0014,0.003 -0.105852,0.3494 -0.217558,0.69505 -0.334456,1.04014 -0.0027,0.003 -0.0077,0.006 -0.01111,0.009 -0.123749,0.36499 -0.256401,0.72816 -0.3934,1.08885 0.0044,-0.004 0.01113,-0.01 0.01669,-0.0149 -5.97e-4,9e-4 -0.0011,0.002 -0.0036,0.004 -0.12595,0.334 -0.255913,0.66557 -0.392905,0.9953 -0.0069,0.006 -0.01181,0.0116 -0.01627,0.0195 -0.147027,0.35295 -0.301948,0.70393 -0.461405,1.05314 0.009,-0.007 0.01405,-0.0192 0.02096,-0.0263 -0.0011,0.002 -0.0011,0.002 -0.003,0.004 -0.146498,0.32093 -0.296872,0.63959 -0.4543,0.9564 -0.01007,0.0105 -0.01699,0.0236 -0.02792,0.0329 -0.171044,0.34599 -0.35068,0.68889 -0.535022,1.03049 0.01293,-0.0208 0.02823,-0.0394 0.04155,-0.0574 -0.0011,0.002 -0.0036,0.004 -0.0033,0.006 -0.169599,0.31453 -0.34588,0.6287 -0.526549,0.93893 -0.0011,0.002 -0.0061,0.005 -0.0079,0.009 -0.02191,0.0354 -0.04658,0.0671 -0.06915,0.10148 -0.161347,0.27387 -0.324927,0.54778 -0.494232,0.81806 z m -4.119009,1.57873 c 1.85104,-1.30792 3.562325,-2.7777 5.113806,-4.4082 0.01116,-0.0308 0.02387,-0.0617 0.03495,-0.0924 0.125942,-0.33399 0.247968,-0.66761 0.362296,-1.0049 -4.008957,3.93742 -8.992534,6.86888 -14.643092,8.77759 -16.763297,5.66207 -39.37061,2.32017 -59.6468905,-10.47506 -20.2757605,-12.79621 -33.0721945,-31.79888 -35.2521315,-49.41618 -0.736286,-5.95034 -0.259484,-11.74278 1.548666,-17.084 -0.256709,0.2545 -0.507791,0.51182 -0.75717,0.77442 -0.01939,0.0143 -0.03306,0.0398 -0.05276,0.0532 -2.125323,5.63804 -2.723212,11.81184 -1.937698,18.16637 2.181558,17.61778 14.9791,36.62 35.25404163,49.41571 20.27672737,12.79775 42.88389337,16.13963 59.64716537,10.47757 3.770496,-1.27373 7.244308,-3.00344 10.329435,-5.18323 z m 6.873374,-5.95521 1.197132,-1.91089 c 4.443144,-7.09249 5.941087,-15.42575 4.86826,-24.09495 C 81.526784,212.19212 68.729579,193.18908 48.45466,180.39341 28.178882,167.5972 5.5701985,164.25558 -11.192197,169.91817 c -8.24911,2.78606 -15.082382,7.75141 -19.525523,14.84388 l -1.197206,1.9114 c 4.443125,-7.09243 11.276551,-12.05829 19.526266,-14.84532 16.7624295,-5.6625 39.37118,-2.31955 59.64616,10.47621 20.274931,12.79564 33.072739,31.79828 35.251701,49.41495 1.072245,8.67018 -0.425697,17.00291 -4.868822,24.09537 z m -5.71481,3.03976 c 1.672131,-1.08768 3.239881,-2.30032 4.690082,-3.63663 0.008,-0.0258 0.01741,-0.0547 0.02561,-0.0806 0.106464,-0.35037 0.207029,-0.70029 0.302754,-1.05335 -3.695765,3.17881 -8.091934,5.60177 -12.988799,7.25621 -5.857009,1.97778 -12.427565,2.8548 -19.363658,2.61621 -12.913728,-0.44466 -27.091836,-4.76748 -40.2825135,-13.09221 -13.190667,-8.3248 -23.2153555,-19.27963 -29.2118445,-30.768 -3.220167,-6.16838 -5.278607,-12.49231 -6.040651,-18.64748 -0.638477,-5.15596 -0.364778,-10.19264 0.895165,-14.92086 0,0 -0.0014,10e-4 -0.0019,8.1e-4 -0.278788,0.24288 -0.553247,0.48718 -0.8239,0.73933 -0.0193,0.0143 -0.03727,0.0265 -0.04887,0.0505 -1.531722,5.05097 -1.905224,10.47878 -1.215853,16.04532 2.17971,17.61582 14.976934,36.61887 35.2518885,49.41455 v 0 c 20.2748285,12.79357 42.8826565,16.13452 59.6459755,10.47245 3.304324,-1.11586 6.380733,-2.58229 9.167626,-4.39515 z m 8.034176,-6.74214 1.197453,-1.9111 C 85.600939,243.10776 87.098671,234.77474 86.02582,226.1055 83.846856,208.48884 71.04905,189.48619 50.774128,176.69054 30.498325,163.89427 7.8903202,160.55181 -8.8720534,166.21437 c -8.2490996,2.786 -15.0825116,7.7519 -19.5262976,14.84529 l -1.196947,1.91121 c 4.443725,-7.09345 11.276881,-12.05907 19.525975,-14.84515 16.7623911,-5.66254 39.371222,-2.31955 59.646206,10.47623 20.274892,12.79562 33.072819,31.79779 35.251795,49.41447 1.072838,8.66922 -0.425191,17.00244 -4.868933,24.09586 z m -4.780726,2.40873 c 0.698921,-0.4859 1.378014,-0.99485 2.036667,-1.52646 0.0056,-0.0241 0.01201,-0.0502 0.0175,-0.0751 0.08565,-0.36619 0.165182,-0.73368 0.239199,-1.10313 -3.297278,2.48078 -7.068637,4.42536 -11.197825,5.81945 -2.849966,0.9637 -5.869875,1.66534 -9.017557,2.10446 -1.367127,0.93044 -2.730098,1.66308 -4.050615,2.23579 4.182492,-0.36653 8.168681,-1.17743 11.870225,-2.42793 3.678649,-1.24251 7.074136,-2.92094 10.102429,-5.02715 z m 7.101083,-6.11221 1.128263,-1.80129 c 0.07383,-0.11783 0.145837,-0.23666 0.217966,-0.35548 0.02465,-0.0399 0.04936,-0.0805 0.07465,-0.12116 4.267348,-7.01216 5.699521,-15.20754 4.645126,-23.72774 -1.88254,-15.21809 -11.689876,-31.46982 -27.39653,-43.86191 -2.474596,-1.95366 -5.095757,-3.81153 -7.855896,-5.55348 -2.836971,-1.79044 -5.718626,-3.39473 -8.623724,-4.81603 l -0.07509,0.1211 c -27.852828,-13.6252 -57.845483,-10.35922 -70.246226,8.71092 -0.02106,0.0279 -0.03993,0.0587 -0.05852,0.0924 -0.08219,0.12749 -0.163927,0.25456 -0.243648,0.38218 l -1.122007,1.79049 c 4.443139,-7.09246 11.276689,-12.05806 19.5257888,-14.8441 16.7629848,-5.66346 39.3724102,-2.32161 59.6473722,10.47413 20.274925,12.79567 33.072022,31.7992 35.251009,49.4159 1.072839,8.66922 -0.424787,17.00232 -4.867942,24.09476 z m -5.183758,2.6837 c 0.195101,-0.13177 0.389097,-0.26499 0.582448,-0.39848 0.0032,-0.0254 0.008,-0.0469 0.01273,-0.0712 0.06276,-0.38064 0.120811,-0.76291 0.171911,-1.14685 6.31e-4,-8.5e-4 -4.8e-5,-10e-4 2.66e-4,-10e-4 -2.813547,1.84324 -5.922431,3.33295 -9.266055,4.4619 -2.139166,0.72137 -4.371596,1.29655 -6.68216,1.72525 -0.68195,0.75348 -1.376148,1.4412 -2.078613,2.06722 2.625519,-0.44125 5.153789,-1.06633 7.561532,-1.87948 3.516675,-1.1885 6.772978,-2.77586 9.699413,-4.75349 z m 0.898671,-2.7872 c 0.0021,-0.0246 0.005,-0.0466 0.0076,-0.0708 0.03824,-0.39609 0.07268,-0.79325 0.100721,-1.19309 -4.8e-5,-0.001 2.66e-4,-0.001 7.99e-4,-0.004 -2.243257,1.26982 -4.648166,2.33533 -7.187732,3.19324 -1.950221,0.66015 -3.978794,1.19412 -6.071429,1.60813 -0.447608,0.68724 -0.90553,1.33413 -1.373572,1.9465 2.155921,-0.41854 4.243003,-0.96533 6.246679,-1.64159 2.956404,-0.99892 5.730128,-2.27994 8.277741,-3.83721 z m 0.160893,-2.49248 c 8.97e-4,-0.0238 0.0022,-0.0469 0.0026,-0.0712 0.01451,-0.41105 0.0215,-0.82282 0.02297,-1.23674 0.0019,-0.003 0.001,-0.009 -6.03e-4,-0.0134 -1.584525,0.76837 -3.238249,1.44735 -4.954043,2.02649 -16.763197,5.66211 -39.370773,2.32095 -59.646507,-10.47528 -20.275714,-12.79619 -33.072427,-31.79919 -35.252312,-49.4165 -0.22351,-1.80847 -0.331921,-3.60357 -0.326344,-5.37513 -0.0054,0.003 -0.01256,0.007 -0.01836,0.0112 -0.371167,0.18047 -0.736902,0.36606 -1.100694,0.5565 -0.01852,0.0114 -0.034,0.0218 -0.05122,0.0335 -0.07657,2.1982 0.02372,4.43422 0.303004,6.69273 0.272588,2.17072 0.700947,4.352 1.281661,6.54078 l 0.0017,-0.001 c 0.01934,0.0722 0.03904,0.14581 0.05825,0.21815 0.05583,0.20496 0.111197,0.40844 0.169413,0.61234 0.01759,0.0644 0.03559,0.12753 0.05338,0.19011 0.06681,0.23204 0.135141,0.46383 0.205698,0.69541 0.0096,0.0349 0.02067,0.069 0.03149,0.10294 0.165625,0.54771 0.341669,1.09549 0.526932,1.64473 0.0072,0.0213 0.01717,0.046 0.02451,0.0704 0.0825,0.24181 0.166973,0.48411 0.253087,0.72719 0.02204,0.0626 0.04401,0.12283 0.0666,0.18431 0.07347,0.2055 0.14802,0.4099 0.223548,0.61517 0.02754,0.0748 0.05576,0.14997 0.08336,0.224 0.07417,0.1937 0.14798,0.38865 0.223577,0.5831 0.02956,0.0778 0.06111,0.15555 0.09151,0.23264 0.07685,0.19391 0.153862,0.38966 0.23318,0.5836 0.0295,0.0736 0.06006,0.14704 0.08912,0.22038 0.08546,0.2075 0.172774,0.41631 0.26058,0.62397 0.0253,0.058 0.04873,0.11554 0.07327,0.17402 0.108184,0.25563 0.220331,0.50941 0.332916,0.76496 0.0064,0.013 0.01052,0.0191 0.0126,0.0293 0.241747,0.54448 0.492311,1.08653 0.752401,1.62914 0.02651,0.0498 0.04922,0.10273 0.07431,0.15327 0.102471,0.21281 0.206485,0.42648 0.31291,0.63906 0.03462,0.0717 0.07132,0.1437 0.108196,0.21502 0.09612,0.19275 0.194235,0.38542 0.292418,0.57818 0.03893,0.0804 0.08188,0.15945 0.123007,0.23794 0.09702,0.18749 0.195284,0.37485 0.294226,0.56107 0.04186,0.0801 0.084,0.1583 0.12704,0.23782 0.101595,0.19281 0.206654,0.38396 0.311439,0.57541 0.04065,0.0707 0.07868,0.1419 0.117189,0.21581 0.118469,0.21342 0.237539,0.42435 0.357978,0.638 0.02795,0.0483 0.0546,0.0989 0.08218,0.14706 0.305149,0.53459 0.617773,1.06613 0.93959,1.59771 0.01669,0.0282 0.03499,0.0552 0.05168,0.0834 0.141755,0.22977 0.282526,0.46148 0.427238,0.69134 0.04167,0.065 0.08305,0.1332 0.122585,0.19917 0.122636,0.19159 0.24363,0.38522 0.365964,0.5785 0.05036,0.0779 0.101651,0.15707 0.152894,0.23622 0.119068,0.1792 0.236604,0.3597 0.35456,0.54136 0.05527,0.0815 0.108429,0.1635 0.16305,0.24407 0.119753,0.18021 0.240931,0.35896 0.362457,0.53822 0.05336,0.0787 0.108642,0.15669 0.160329,0.23649 0.130465,0.18888 0.259123,0.37866 0.390935,0.56597 0.04556,0.0672 0.09181,0.1356 0.139129,0.20166 0.155896,0.22283 0.314648,0.44345 0.473148,0.66371 0.02382,0.0316 0.0461,0.0644 0.06772,0.0963 0.373013,0.51601 0.754038,1.03082 1.144079,1.54094 0.03987,0.0552 0.08255,0.11108 0.125079,0.16382 0.15181,0.19382 0.3014101,0.39096 0.4536128,0.58678 0.057826,0.0746 0.1171201,0.14977 0.1744478,0.22311 0.1392965,0.17535 0.277388,0.35125 0.4169146,0.52552 0.063488,0.083 0.1309412,0.16303 0.1963256,0.24379 0.1377044,0.16891 0.2749023,0.33903 0.4128269,0.50844 0.06767,0.0815 0.1336642,0.16295 0.2013507,0.24444 0.1426075,0.17168 0.2858196,0.34337 0.4295227,0.51471 0.064022,0.0761 0.1261168,0.15181 0.1906161,0.22575 0.1571496,0.18565 0.3164526,0.37073 0.4776046,0.55605 0.048791,0.0613 0.1012794,0.11928 0.1520039,0.17806 0.4302737,0.49497 0.8687296,0.98745 1.3148509,1.47518 0.026374,0.0318 0.055896,0.0618 0.084901,0.091 0.1910809,0.20844 0.3834398,0.41715 0.5783383,0.62502 0.062983,0.0672 0.1262871,0.13371 0.1879148,0.20073 0.1606739,0.17161 0.3241396,0.34341 0.4877365,0.51389 0.074728,0.076 0.1488746,0.15437 0.2238324,0.23144 0.154674,0.16115 0.3091559,0.32041 0.4660631,0.47983 0.078626,0.0816 0.1595715,0.16249 0.2392893,0.24248 0.1556449,0.15759 0.3116432,0.31427 0.4689502,0.47123 0.079182,0.0781 0.1578194,0.15759 0.2383621,0.23523 0.1645306,0.16322 0.3317396,0.32628 0.4977761,0.48912 0.073151,0.0694 0.1431202,0.13911 0.2157044,0.20911 0.1917142,0.18567 0.3846738,0.3692 0.5792295,0.55398 0.045458,0.0464 0.095608,0.0911 0.1437867,0.13636 0.49272852,0.4645 0.99174809,0.92478 1.49887316,1.3809 0.059324,0.0533 0.1195439,0.10612 0.1788053,0.15843 0.19135807,0.17196 0.38284227,0.34123 0.57588457,0.51184 0.080858,0.0711 0.16314107,0.14209 0.24411607,0.21324 0.174026,0.15156 0.349362,0.30405 0.525063,0.45528 0.0891,0.0765 0.179512,0.15217 0.269291,0.22918 0.170336,0.14504 0.342059,0.29142 0.51434,0.43518 0.09128,0.0781 0.184579,0.15394 0.276687,0.23082 0.174926,0.1454 0.351014,0.29177 0.527981,0.43561 0.08866,0.0734 0.177871,0.14601 0.267718,0.21884 0.189956,0.15349 0.381204,0.30768 0.573227,0.45996 0.07648,0.0618 0.153292,0.12382 0.23004,0.18428 0.242482,0.19212 0.486257,0.38393 0.731325,0.57364 0.02687,0.0213 0.05192,0.0424 0.07923,0.0632 0.279339,0.21523 0.560069,0.43162 0.8427913,0.64498 0.04053,0.0297 0.07968,0.0598 0.118351,0.0896 0.2367757,0.17747 0.4732507,0.35531 0.7127537,0.53208 0.08414,0.0625 0.1693197,0.12484 0.2534087,0.1873 0.196233,0.14404 0.3928827,0.28558 0.5896327,0.42862 0.09875,0.0719 0.198856,0.14309 0.2982557,0.21394 0.185556,0.13328 0.372947,0.26472 0.5599607,0.39771 0.10426,0.0738 0.209902,0.14692 0.313885,0.21959 0.1852267,0.1303 0.3724677,0.25929 0.5603347,0.38736 0.1048017,0.0714 0.2086477,0.14399 0.3141527,0.21593 0.194373,0.13221 0.3895337,0.2635 0.5846047,0.39461 0.0986,0.0663 0.196682,0.13241 0.295211,0.1971 0.217874,0.14567 0.437916,0.28996 0.657662,0.4327 0.07727,0.0502 0.152014,0.10002 0.228803,0.14961 0.29939,0.1942 0.600677,0.38695 0.904031,0.57839 0.303285,0.1915 0.607959,0.38112 0.912057,0.56763 0.07664,0.0471 0.152832,0.0925 0.228856,0.13936 0.226005,0.13861 0.452071,0.27615 0.679013,0.41115 0.09921,0.0601 0.200276,0.11953 0.299992,0.17846 0.204655,0.12091 0.408601,0.24154 0.613177,0.36121 0.107825,0.0628 0.217439,0.12528 0.325341,0.18762 0.19864,0.11455 0.397936,0.22966 0.59624,0.34277 0.109063,0.0621 0.218851,0.1246 0.328769,0.18581 0.202947,0.11335 0.403881,0.2269 0.607409,0.33916 0.104157,0.0576 0.207676,0.11478 0.312714,0.17156 0.217913,0.11887 0.434744,0.23648 0.652237,0.35364 0.08888,0.0479 0.17823,0.0965 0.267501,0.14336 0.268876,0.14285 0.53752,0.28551 0.806692,0.42575 0.03649,0.0196 0.07329,0.0379 0.110374,0.0575 0.315664,0.16437 0.633282,0.32575 0.950642,0.48567 0.02038,0.009 0.04366,0.0216 0.06446,0.0322 0.28613,0.14436 0.572206,0.28451 0.857908,0.42578 0.08422,0.041 0.16703,0.0799 0.249297,0.12128 0.226281,0.11031 0.452835,0.21849 0.678638,0.32601 0.09935,0.0466 0.199446,0.0949 0.29909,0.14162 0.211494,0.0997 0.422641,0.19766 0.634338,0.29493 0.105275,0.0487 0.210276,0.0979 0.315262,0.14538 0.209349,0.0957 0.418874,0.19038 0.627676,0.28312 0.103314,0.0462 0.207114,0.0928 0.310948,0.13815 0.216837,0.0964 0.433911,0.19021 0.651941,0.28473 0.09323,0.0402 0.188096,0.0822 0.281934,0.12148 0.243153,0.10493 0.487875,0.20829 0.732163,0.30998 0.06495,0.0274 0.132234,0.0552 0.197673,0.0833 0.632336,0.26169 1.264444,0.51614 1.897274,0.76067 0.05375,0.0219 0.106068,0.0401 0.159561,0.0618 0.257254,0.0992 0.516138,0.19793 0.774475,0.29362 0.08887,0.0333 0.174966,0.0647 0.263889,0.0978 0.224529,0.0825 0.448157,0.16428 0.673227,0.24571 0.09941,0.0358 0.199832,0.0722 0.299987,0.10699 0.213835,0.0758 0.429097,0.15111 0.643565,0.22581 0.100984,0.0354 0.204579,0.0708 0.305401,0.10601 0.21648,0.0731 0.432958,0.14679 0.648362,0.21812 0.09783,0.0335 0.195266,0.0655 0.291904,0.0981 0.229885,0.0754 0.459282,0.14998 0.690005,0.22421 0.0816,0.0257 0.163671,0.0535 0.24595,0.0787 0.278075,0.0879 0.557353,0.17381 0.834974,0.25878 0.03384,0.0112 0.06387,0.0203 0.0959,0.0311 0.633526,0.1924 1.26653,0.37642 1.900555,0.55163 0.07118,0.0193 0.142348,0.0389 0.213512,0.0578 0.239183,0.0661 0.479621,0.13033 0.718406,0.19347 0.0922,0.0261 0.184608,0.0477 0.276634,0.0721 0.219943,0.0566 0.437961,0.11341 0.657763,0.16861 0.100409,0.0257 0.19955,0.0492 0.299202,0.0742 0.214922,0.0522 0.428514,0.10475 0.642349,0.15491 0.09926,0.0238 0.198378,0.0475 0.297907,0.071 0.219917,0.0514 0.439134,0.10044 0.658897,0.15025 0.08977,0.0203 0.181455,0.0417 0.270999,0.0608 0.241988,0.0544 0.484194,0.10632 0.727829,0.15634 0.06573,0.0132 0.131248,0.0289 0.197143,0.0421 0.627659,0.1308 1.254803,0.25318 1.880725,0.3667 0.03944,0.008 0.07796,0.014 0.118427,0.0207 0.266508,0.0482 0.533283,0.0955 0.799021,0.13929 0.08171,0.014 0.162898,0.026 0.242997,0.0401 0.225449,0.0373 0.450551,0.0746 0.674697,0.1083 0.09523,0.0155 0.189606,0.031 0.284194,0.0435 0.212063,0.0329 0.424038,0.0641 0.63628,0.093 0.09874,0.0138 0.196566,0.0285 0.295159,0.0421 0.210785,0.0293 0.422534,0.0579 0.634615,0.0853 0.09487,0.0129 0.189438,0.0253 0.283282,0.0374 0.22284,0.027 0.444569,0.0536 0.666873,0.0794 l 0.241827,0.0281 c 0.263509,0.0288 0.525642,0.0569 0.787394,0.0834 0.03958,0.003 0.07711,0.008 0.116303,0.0115 0.613977,0.0615 1.225893,0.11361 1.83447,0.15829 0.06238,0.004 0.125398,0.008 0.187757,0.0121 0.23643,0.0158 0.471245,0.0324 0.706566,0.0462 0.08685,0.005 0.173621,0.01 0.26036,0.0147 0.211873,0.0113 0.423054,0.0217 0.633488,0.032 0.0952,0.005 0.190009,0.008 0.284137,0.0122 0.204837,0.008 0.410118,0.0153 0.613327,0.0223 0.09404,0.003 0.188413,0.006 0.283377,0.009 0.208941,0.005 0.416814,0.01 0.625464,0.0137 0.08644,0.002 0.173567,0.003 0.260028,0.005 0.227018,0.003 0.454234,0.004 0.680413,0.005 0.0656,7.1e-4 0.131583,0.001 0.197763,0.001 0.59465,-4.7e-4 1.186832,-0.008 1.77527,-0.0259 0.02808,-0.002 0.05465,-0.002 0.08274,-0.003 0.260478,-0.008 0.520144,-0.0177 0.779429,-0.0291 0.07308,-0.004 0.14632,-0.006 0.219401,-0.01 0.21353,-0.009 0.427271,-0.021 0.63965,-0.0325 0.08769,-0.005 0.175863,-0.0117 0.263565,-0.0169 0.199696,-0.0127 0.398068,-0.025 0.596622,-0.0398 0.09198,-0.007 0.183154,-0.0139 0.274461,-0.0209 0.19775,-0.0152 0.393943,-0.0312 0.589317,-0.048 0.08797,-0.008 0.177643,-0.0157 0.265672,-0.0235 0.204704,-0.0189 0.409141,-0.0395 0.612809,-0.0605 0.07699,-0.008 0.153166,-0.0149 0.230132,-0.023 0.237188,-0.0254 0.47341,-0.0532 0.709451,-0.082 0.04066,-0.004 0.08336,-0.009 0.124894,-0.014 0.56632,-0.0682 1.129053,-0.14673 1.687753,-0.23183 0.05284,-0.007 0.104482,-0.0177 0.156183,-0.0254 0.22163,-0.0352 0.442492,-0.0711 0.661801,-0.1077 0.07683,-0.0136 0.153802,-0.0267 0.230611,-0.0402 0.195048,-0.0345 0.390254,-0.0687 0.585609,-0.10578 0.08476,-0.0151 0.169289,-0.0318 0.253365,-0.0474 2.209706,-0.42288 4.347773,-0.98064 6.397566,-1.67223 2.144018,-0.72369 4.190266,-1.59905 6.12622,-2.61705 z m 0.01596,-2.5706 c -0.0015,-0.0251 -0.0011,-0.0477 -0.0012,-0.0709 -0.01249,-0.42804 -0.03328,-0.85727 -0.05879,-1.28821 2.39e-4,-0.005 -6.45e-4,-0.0117 2.25e-4,-0.0139 -0.836178,0.34236 -1.687943,0.66261 -2.55782,0.95673 -16.763223,5.66202 -39.370428,2.32008 -59.646812,-10.47519 -20.2757275,-12.79617 -33.072258,-31.79891 -35.252059,-49.41613 -0.113454,-0.91873 -0.194989,-1.8338 -0.250057,-2.74402 -0.0055,0.003 -0.01256,0.007 -0.02043,0.0126 -0.397713,0.16403 -0.791885,0.33003 -1.181602,0.50439 -0.01852,0.0113 -0.03483,0.0224 -0.05741,0.0253 0.0373,1.36095 0.141247,2.73409 0.311565,4.1157 2.180996,17.61857 14.9780851,36.62219 35.252999,49.41783 20.274805,12.7928 42.882061,16.13475 59.645256,10.47275 1.309502,-0.44229 2.58304,-0.94242 3.816518,-1.49463 z m 13.386898,-9.64508 1.19714,-1.91091 c 4.443142,-7.09246 5.941073,-15.42575 4.868219,-24.09497 C 95.445166,189.97458 82.64796,170.97153 62.373052,158.17589 42.097204,145.37955 19.488532,142.03808 2.7260655,147.70068 c -8.249059,2.78603 -15.0822405,7.75135 -19.5253915,14.8438 l -1.197233,1.91142 c 0.03033,-0.041 0.05757,-0.0876 0.08496,-0.13226 0.07167,-0.11225 0.143021,-0.22465 0.216833,-0.33709 4.447962,-6.84161 11.1589854,-11.65163 19.2243471,-14.3758 16.7625519,-5.66244 39.3705289,-2.32006 59.6463539,10.47625 20.274925,12.79567 33.072521,31.798 35.251506,49.41471 1.072204,8.67014 -0.425487,17.0032 -4.868615,24.09568 z m 2.31938,-3.70238 1.19744,-1.91111 c 4.443697,-7.09345 5.940844,-15.4255 4.868607,-24.09567 -2.178968,-17.6167 -14.97678,-36.61936 -35.251696,-49.415 -20.2758,-12.79628 -42.883825,-16.13872 -59.6462945,-10.47614 -8.2496668,2.78701 -15.0824095,7.75186 -19.5261485,14.84526 l -1.196966,1.91123 c 4.44376,-7.09344 11.2766207,-12.05931 19.5256515,-14.84537 16.7625145,-5.66255 39.3715235,-2.31932 59.6464905,10.47639 20.274964,12.79573 33.072841,31.79783 35.251819,49.41453 1.072844,8.66922 -0.425187,17.00245 -4.868903,24.09588 z m -15.866243,10.66201 c -0.0028,-0.0242 -0.0036,-0.0483 -0.0049,-0.0719 -0.0411,-0.44614 -0.08834,-0.89216 -0.143068,-1.34018 2.39e-4,-0.005 -6.03e-4,-0.0134 1.41e-4,-0.0176 -16.761068,5.65669 -39.363286,2.31398 -59.634975,-10.47965 -20.2757282,-12.7962 -33.072658,-31.79825 -35.252524,-49.41554 6.26e-4,-8.6e-4 5.08e-4,-0.001 -1.3e-4,-0.001 -0.0055,0.003 -0.01455,0.009 -0.02059,0.0128 -0.425963,0.14465 -0.847412,0.29513 -1.265767,0.45256 -0.01852,0.0113 -0.03971,0.0148 -0.05981,0.0231 0.04242,0.47508 0.0925,0.95236 0.152092,1.42904 2.179165,17.61681 14.9762822,36.6204 35.251204,49.41604 20.274966,12.79489 42.88278,16.13588 59.646052,10.47386 0.449595,-0.15127 0.89486,-0.31044 1.336407,-0.47623 z m 18.186541,-14.36559 1.196541,-1.91049 c 4.443735,-7.09342 5.941675,-15.42615 4.868825,-24.09536 C 100.08482,182.56862 87.286827,163.56622 67.012524,150.76963 46.736688,137.97331 24.128286,134.6316 7.3658045,140.2942 c -8.24907708,2.78605 -15.0824897,7.75184 -19.5261265,14.84524 l -1.196753,1.91023 c 4.4430656,-7.09249 11.2763361,-12.05836 19.5254584,-14.84434 16.7618226,-5.66168 39.3719836,-2.32058 59.6469586,10.47516 20.274939,12.79567 33.072017,31.7992 35.251008,49.41593 1.07284,8.66921 -0.42482,17.00226 -4.867926,24.09474 z m -18.528141,11.56403 c -0.0042,-0.0263 -0.0067,-0.0492 -0.01038,-0.0727 -0.07402,-0.47367 -0.155169,-0.9491 -0.244262,-1.42419 -16.430217,4.43111 -37.69259,0.78909 -56.869565,-11.31366 -0.685913,-0.43289 -1.363214,-0.8739 -2.031737,-1.32004 -1.184322,-0.79193 -2.342064,-1.6045 -3.47044,-2.43652 -0.04541,-0.0328 -0.08903,-0.0674 -0.134773,-0.0999 -15.9849176,-11.82966 -26.350181,-27.61466 -29.169876,-42.69558 -0.46646,0.12596 -0.930103,0.2575 -1.388169,0.39663 -0.02357,0.004 -0.04218,0.0112 -0.0613,0.0211 2.65622,17.22601 15.30905139,35.58196 35.059932,48.04686 19.746612,12.46209 41.704724,15.95497 58.32178,10.89969 z m 20.885066,-15.32662 1.159674,-1.85119 c 0.12637,-0.20177 0.25027,-0.40494 0.371147,-0.60881 0.0337,-0.0556 0.0653,-0.10987 0.0981,-0.16596 0.0908,-0.15419 0.18069,-0.30984 0.26965,-0.46653 0.0333,-0.0568 0.0644,-0.11449 0.0972,-0.17195 0.10952,-0.19494 0.21821,-0.39164 0.32276,-0.58969 0.004,-0.0114 0.0117,-0.02 0.0161,-0.0284 0.11099,-0.21013 0.21964,-0.42045 0.3261,-0.63197 0.0282,-0.0534 0.053,-0.10659 0.08,-0.16093 0.0802,-0.1609 0.15895,-0.32242 0.23725,-0.48592 0.0285,-0.0603 0.0564,-0.11934 0.0858,-0.17896 0.0888,-0.1891 0.17577,-0.37679 0.2607,-0.56696 0.0113,-0.0214 0.0213,-0.0488 0.0325,-0.0722 0.0954,-0.21583 0.18843,-0.43205 0.27992,-0.64903 0.0209,-0.052 0.0427,-0.10226 0.0635,-0.15373 0.0695,-0.16779 0.1381,-0.337 0.20504,-0.50758 0.0245,-0.0626 0.0484,-0.12308 0.0728,-0.18581 0.0709,-0.18416 0.14052,-0.36766 0.20902,-0.55337 0.0129,-0.035 0.0258,-0.0688 0.0393,-0.10492 0.0804,-0.2214 0.15908,-0.44354 0.23486,-0.66642 0.0148,-0.0479 0.0307,-0.0922 0.0464,-0.13898 0.06,-0.17765 0.11777,-0.35545 0.17465,-0.53364 0.0205,-0.0639 0.0406,-0.12644 0.0595,-0.19007 0.0564,-0.18117 0.11151,-0.3631 0.16455,-0.54664 0.0127,-0.0429 0.0265,-0.0855 0.0379,-0.12947 0.0656,-0.2266 0.12809,-0.45426 0.19042,-0.6829 0.009,-0.0404 0.0196,-0.0791 0.0301,-0.11972 0.0496,-0.18816 0.0976,-0.37764 0.14402,-0.56657 0.0155,-0.0631 0.0301,-0.12635 0.0463,-0.19006 0.0431,-0.18157 0.0851,-0.36394 0.12662,-0.54641 0.0102,-0.0487 0.0217,-0.0982 0.0323,-0.14808 0.0506,-0.23214 0.0996,-0.46486 0.14504,-0.69749 0.006,-0.0303 0.0113,-0.0602 0.0167,-0.0902 0.0395,-0.20134 0.076,-0.40348 0.11244,-0.60542 0.0116,-0.064 0.0225,-0.12715 0.0327,-0.19079 0.0311,-0.18234 0.0613,-0.36549 0.0894,-0.5484 0.009,-0.055 0.0175,-0.10875 0.0257,-0.16431 0.0352,-0.23623 0.0697,-0.47323 0.10105,-0.71072 0.003,-0.0155 0.003,-0.0326 0.006,-0.0476 0.0288,-0.21885 0.0543,-0.43825 0.0786,-0.65728 0.007,-0.0627 0.0137,-0.12769 0.0205,-0.18943 0.0204,-0.18378 0.0386,-0.36753 0.0551,-0.55247 0.005,-0.0588 0.0113,-0.11807 0.0163,-0.17688 0.0414,-0.4776 0.0745,-0.95635 0.0983,-1.43694 0.004,-0.0623 0.006,-0.12411 0.009,-0.18686 0.008,-0.18624 0.0159,-0.37141 0.0211,-0.558 0.002,-0.0634 0.004,-0.12515 0.006,-0.18747 0.013,-0.48332 0.0179,-0.96936 0.0126,-1.4562 -7.2e-4,-0.0608 -0.002,-0.12118 -0.003,-0.18261 -0.002,-0.18832 -0.007,-0.37566 -0.0114,-0.56462 -0.001,-0.0653 -0.003,-0.13154 -0.005,-0.19755 -0.008,-0.22604 -0.0167,-0.45195 -0.0277,-0.67845 -6.9e-4,-0.0171 -0.002,-0.033 -0.002,-0.0498 -0.0117,-0.24709 -0.0273,-0.49388 -0.0435,-0.74117 -0.005,-0.058 -0.009,-0.11732 -0.0125,-0.17479 -0.0135,-0.19165 -0.028,-0.38295 -0.0449,-0.57266 -0.005,-0.0689 -0.01,-0.13683 -0.0163,-0.20564 -0.0194,-0.21286 -0.0402,-0.42803 -0.0627,-0.64155 -0.004,-0.0318 -0.005,-0.0639 -0.009,-0.0961 -0.0269,-0.24871 -0.0549,-0.4967 -0.0848,-0.74584 -0.007,-0.0534 -0.0147,-0.10751 -0.0216,-0.16033 -0.0245,-0.2013 -0.0525,-0.40051 -0.0798,-0.60093 -0.009,-0.0689 -0.019,-0.13777 -0.0288,-0.20589 -0.0322,-0.21837 -0.0644,-0.43771 -0.0996,-0.65658 -0.005,-0.0308 -0.01,-0.0649 -0.0154,-0.0971 -0.0406,-0.25184 -0.0838,-0.50541 -0.12839,-0.75847 -0.0107,-0.0569 -0.0216,-0.11475 -0.032,-0.17127 -0.0361,-0.19922 -0.0728,-0.39746 -0.11193,-0.59718 -0.0136,-0.0695 -0.0266,-0.13803 -0.0402,-0.20716 -0.045,-0.2251 -0.0908,-0.45072 -0.13804,-0.67581 -0.008,-0.029 -0.0115,-0.0546 -0.0172,-0.0821 -0.0549,-0.25288 -0.11127,-0.50656 -0.17008,-0.76052 -0.0137,-0.06 -0.0296,-0.12098 -0.0433,-0.1807 -0.0461,-0.19736 -0.0938,-0.39468 -0.14305,-0.59277 -0.0172,-0.0689 -0.034,-0.13871 -0.0521,-0.20805 -0.058,-0.23336 -0.11815,-0.4654 -0.18078,-0.69876 -0.005,-0.0199 -0.0105,-0.0389 -0.015,-0.0593 -0.0691,-0.25362 -0.13935,-0.50797 -0.21156,-0.76234 -0.0172,-0.0635 -0.0367,-0.12732 -0.0546,-0.18957 -0.0563,-0.1959 -0.11366,-0.3922 -0.1731,-0.58867 -0.0207,-0.0686 -0.0414,-0.13782 -0.0626,-0.20796 -0.0739,-0.24058 -0.14882,-0.48017 -0.22588,-0.72141 -0.004,-0.011 -0.007,-0.0252 -0.0119,-0.0354 -0.0819,-0.25373 -0.16627,-0.50894 -0.25254,-0.76273 -0.0226,-0.0663 -0.0443,-0.13169 -0.0672,-0.19727 -0.0666,-0.19423 -0.13389,-0.39021 -0.2027,-0.58446 -0.0258,-0.0684 -0.0494,-0.13764 -0.0744,-0.20744 -0.0894,-0.25047 -0.1805,-0.50053 -0.2737,-0.75057 -5e-5,-0.001 2.6e-4,-0.001 -0.002,-0.007 -0.0951,-0.25384 -0.1931,-0.50724 -0.29138,-0.76188 -0.0269,-0.0674 -0.0538,-0.13467 -0.0798,-0.20236 -0.0768,-0.19252 -0.1536,-0.38643 -0.23204,-0.58001 -0.0283,-0.0678 -0.0562,-0.1365 -0.0846,-0.20551 -0.20779,-0.50419 -0.42149,-1.00979 -0.64475,-1.513 -0.0297,-0.0686 -0.0622,-0.13742 -0.0927,-0.20663 -0.0857,-0.19285 -0.17359,-0.38401 -0.260747,-0.57635 -0.031,-0.0666 -0.0619,-0.13477 -0.0937,-0.2022 -0.11669,-0.25284 -0.23445,-0.50479 -0.35624,-0.75669 -0.003,-0.006 -0.005,-0.0105 -0.008,-0.0176 -0.117037,-0.24501 -0.237537,-0.48922 -0.358167,-0.73374 -0.0352,-0.0697 -0.0697,-0.1401 -0.10616,-0.20916 -0.0949,-0.19033 -0.192257,-0.38108 -0.289507,-0.57176 -0.0338,-0.0659 -0.0685,-0.13318 -0.10215,-0.20057 -0.1288,-0.24987 -0.259897,-0.49939 -0.393157,-0.74924 -0.009,-0.017 -0.0184,-0.0361 -0.0279,-0.0518 -0.12385,-0.23205 -0.2488,-0.46413 -0.375707,-0.69499 -0.0398,-0.0694 -0.0791,-0.13997 -0.1162,-0.21133 -0.10521,-0.19065 -0.21244,-0.38179 -0.32075,-0.57132 -0.0359,-0.0636 -0.0722,-0.12893 -0.109517,-0.19148 -0.14183,-0.24859 -0.28569,-0.49662 -0.43137,-0.74484 -0.0159,-0.027 -0.0303,-0.0517 -0.045,-0.077 -0.130257,-0.22209 -0.262857,-0.44173 -0.395637,-0.66309 -0.0427,-0.0719 -0.088,-0.14226 -0.13032,-0.2145 -0.114137,-0.18922 -0.230267,-0.37727 -0.347547,-0.56541 -0.0398,-0.0622 -0.0776,-0.12698 -0.11745,-0.18929 -0.154318,-0.24546 -0.310458,-0.49003 -0.466488,-0.73426 -0.0218,-0.0325 -0.0433,-0.0656 -0.0643,-0.0983 -0.13637,-0.21184 -0.27664,-0.4241 -0.41649,-0.63395 -0.0469,-0.0709 -0.0944,-0.14285 -0.14197,-0.21298 -0.12514,-0.18816 -0.2521,-0.37543 -0.3796,-0.5635 -0.0405,-0.0595 -0.0813,-0.11984 -0.1226,-0.17974 -0.16617,-0.24155 -0.33381,-0.48349 -0.5021,-0.7246 -0.0272,-0.04 -0.0555,-0.0783 -0.0835,-0.11778 -0.1427,-0.20338 -0.28756,-0.40637 -0.43317,-0.60903 l -0.15363,-0.21414 c -0.13544,-0.18552 -0.27097,-0.37191 -0.40879,-0.55827 -0.042,-0.0566 -0.085,-0.11465 -0.1271,-0.17143 -0.17782,-0.23896 -0.35603,-0.47653 -0.53714,-0.71356 -0.0329,-0.045 -0.0677,-0.0873 -0.1007,-0.13249 -0.14941,-0.1951 -0.30133,-0.38978 -0.4524,-0.58589 -0.0556,-0.0696 -0.10926,-0.14031 -0.16473,-0.21002 -0.14522,-0.18642 -0.292576,-0.37187 -0.440345,-0.5567 -0.04252,-0.0538 -0.08588,-0.10885 -0.128933,-0.16238 -0.189817,-0.23419 -0.379522,-0.4684 -0.572062,-0.7018 -0.03904,-0.0487 -0.07872,-0.0938 -0.117685,-0.1433 -0.156298,-0.18742 -0.312943,-0.37661 -0.472031,-0.56334 -0.05923,-0.0695 -0.117446,-0.14027 -0.177522,-0.20893 -0.1564,-0.18347 -0.313556,-0.36771 -0.471546,-0.55085 -0.04322,-0.0513 -0.08723,-0.10212 -0.132198,-0.15348 -0.200352,-0.23013 -0.401309,-0.45955 -0.603719,-0.68827 -0.04484,-0.0519 -0.09231,-0.1007 -0.137177,-0.15244 -0.161338,-0.18132 -0.324318,-0.36202 -0.488535,-0.5424 -0.0633,-0.0682 -0.126036,-0.13708 -0.18779,-0.20465 -0.167659,-0.18387 -0.336557,-0.366 -0.506283,-0.54851 -0.04324,-0.046 -0.08691,-0.0927 -0.130012,-0.13903 -0.212176,-0.22547 -0.423494,-0.45057 -0.639289,-0.67422 -0.05009,-0.053 -0.101398,-0.10449 -0.152365,-0.1581 -0.167792,-0.17462 -0.337261,-0.34868 -0.507065,-0.52194 -0.06648,-0.0678 -0.133088,-0.13519 -0.199943,-0.20315 -0.178528,-0.18137 -0.35866,-0.36207 -0.540563,-0.54157 -0.04358,-0.0434 -0.08575,-0.0853 -0.128633,-0.12862 -0.221234,-0.22048 -0.446226,-0.43909 -0.670985,-0.65764 -0.05533,-0.0538 -0.112548,-0.10738 -0.168829,-0.16171 -0.174242,-0.16791 -0.349521,-0.33658 -0.525867,-0.50305 -0.06969,-0.0668 -0.139525,-0.13257 -0.209758,-0.19838 -0.191751,-0.18038 -0.383367,-0.3591 -0.577049,-0.53788 -0.04111,-0.0398 -0.08165,-0.077 -0.123486,-0.11444 -0.231703,-0.21489 -0.466601,-0.42792 -0.702298,-0.63994 -0.0622,-0.0563 -0.125455,-0.11163 -0.186965,-0.16779 -0.180039,-0.16078 -0.361453,-0.32085 -0.543038,-0.48262 -0.07314,-0.0649 -0.146995,-0.12808 -0.220149,-0.19286 -0.20505,-0.17932 -0.412268,-0.35838 -0.619189,-0.53613 -0.03775,-0.0322 -0.07455,-0.0644 -0.112038,-0.0961 -0.242575,-0.2083 -0.487634,-0.41449 -0.733589,-0.62093 -0.06767,-0.0563 -0.135415,-0.11331 -0.203569,-0.16858 -0.186493,-0.15409 -0.372091,-0.30935 -0.560592,-0.46194 -0.07671,-0.0633 -0.154069,-0.12533 -0.230834,-0.18866 -0.217948,-0.17661 -0.43747,-0.35402 -0.657418,-0.52918 -0.03492,-0.0281 -0.06947,-0.0563 -0.104409,-0.0836 -0.252559,-0.20111 -0.507463,-0.40102 -0.763333,-0.59894 -0.0734,-0.0584 -0.147097,-0.11469 -0.22131,-0.17087 -0.190973,-0.14876 -0.383589,-0.2948 -0.575701,-0.4416 -0.08008,-0.0615 -0.161125,-0.12255 -0.242806,-0.18245 -0.235051,-0.1767 -0.468238,-0.35228 -0.70533,-0.52751 -0.02786,-0.0203 -0.05632,-0.0419 -0.08459,-0.0642 -0.261945,-0.19365 -0.5274,-0.38541 -0.792864,-0.5772 -0.0796,-0.0568 -0.158895,-0.11391 -0.238485,-0.17097 -0.195823,-0.14112 -0.393657,-0.28057 -0.592199,-0.42073 -0.08396,-0.0581 -0.16854,-0.11869 -0.253606,-0.17775 -0.24964,-0.17517 -0.502067,-0.34901 -0.755167,-0.52224 -0.01963,-0.0129 -0.04275,-0.0301 -0.06391,-0.0444 -0.271339,-0.18613 -0.545243,-0.36966 -0.819825,-0.55235 -0.08539,-0.0566 -0.171632,-0.11399 -0.257683,-0.17085 -0.200578,-0.13352 -0.402599,-0.26591 -0.605165,-0.39785 -0.08834,-0.0571 -0.176788,-0.11571 -0.265049,-0.17261 -0.268628,-0.1735 -0.538175,-0.34664 -0.809584,-0.51789 -0.01305,-0.009 -0.02045,-0.0123 -0.03317,-0.0211 -0.01305,-0.009 -0.02246,-0.0139 -0.03396,-0.0223 -0.271354,-0.17123 -0.542425,-0.33962 -0.81404,-0.50702 -0.09141,-0.0564 -0.182478,-0.11127 -0.272986,-0.16685 -0.205512,-0.12583 -0.410546,-0.24975 -0.615486,-0.37233 -0.08942,-0.0537 -0.179816,-0.10789 -0.269451,-0.16164 -0.282877,-0.16784 -0.565474,-0.33538 -0.848722,-0.50069 -0.02613,-0.015 -0.05344,-0.0311 -0.08108,-0.0472 -0.260424,-0.15097 -0.520319,-0.30031 -0.781853,-0.44919 -0.09209,-0.0514 -0.186282,-0.10405 -0.278308,-0.15525 -0.20634,-0.11686 -0.413281,-0.2325 -0.620068,-0.3468 -0.09038,-0.049 -0.180095,-0.0987 -0.269563,-0.14846 -0.28479,-0.15559 -0.567865,-0.31002 -0.853667,-0.46213 -0.03946,-0.0206 -0.07873,-0.0418 -0.118926,-0.063 -0.250223,-0.13233 -0.500661,-0.26465 -0.752102,-0.39498 -0.09387,-0.0485 -0.189121,-0.0978 -0.284209,-0.14725 -0.20867,-0.10746 -0.416468,-0.21455 -0.62646,-0.32011 -0.08894,-0.0453 -0.177508,-0.0906 -0.265376,-0.13504 -0.285134,-0.14344 -0.572006,-0.28537 -0.85751,-0.42515 -0.05092,-0.0243 -0.100997,-0.0477 -0.151566,-0.073 -0.241467,-0.1174 -0.484359,-0.23402 -0.726144,-0.34893 -0.09659,-0.0448 -0.192436,-0.0921 -0.289502,-0.137 -0.209548,-0.0984 -0.4208,-0.19693 -0.630291,-0.29411 -0.08863,-0.0413 -0.174231,-0.0815 -0.263375,-0.12164 -0.286479,-0.13096 -0.57361,-0.26085 -0.861078,-0.38841 -0.05739,-0.0255 -0.113945,-0.0501 -0.170498,-0.0751 -0.236523,-0.10482 -0.472439,-0.20954 -0.710065,-0.31101 -0.09712,-0.041 -0.19509,-0.0839 -0.292243,-0.1249 -0.211513,-0.0904 -0.424552,-0.18038 -0.637223,-0.26879 -0.08626,-0.0356 -0.171379,-0.0718 -0.257564,-0.10736 -0.287542,-0.11821 -0.575365,-0.23654 -0.862532,-0.3518 -0.06448,-0.0245 -0.128547,-0.0517 -0.19284,-0.0758 -0.231029,-0.092 -0.461917,-0.18396 -0.69336,-0.27342 -0.09725,-0.0369 -0.195215,-0.0754 -0.293151,-0.11337 -0.214349,-0.083 -0.429241,-0.1635 -0.64314,-0.24458 -0.08472,-0.0305 -0.168261,-0.0628 -0.251732,-0.0942 -0.288066,-0.10633 -0.574656,-0.21192 -0.862349,-0.31535 -0.07059,-0.0257 -0.140987,-0.0501 -0.211543,-0.0756 -0.226323,-0.0795 -0.451131,-0.15928 -0.677179,-0.23731 -0.09878,-0.0341 -0.197606,-0.0682 -0.296174,-0.1022 -0.215806,-0.0742 -0.431767,-0.147 -0.647993,-0.21877 -0.08111,-0.0268 -0.161564,-0.0551 -0.242851,-0.0811 -0.288142,-0.0957 -0.575938,-0.18832 -0.862759,-0.28044 -0.07473,-0.0229 -0.147841,-0.0463 -0.222403,-0.0691 -0.221953,-0.07 -0.443845,-0.13993 -0.66544,-0.20706 -0.0985,-0.0296 -0.197478,-0.0599 -0.295969,-0.0897 -0.218368,-0.0663 -0.435856,-0.13105 -0.653875,-0.19453 -0.07811,-0.0222 -0.15708,-0.0469 -0.235989,-0.0683 -0.28642,-0.0837 -0.573002,-0.16474 -0.859311,-0.24306 -0.07877,-0.0214 -0.157236,-0.0426 -0.235545,-0.0651 -0.21832,-0.0597 -0.434922,-0.11818 -0.652877,-0.17629 -0.09805,-0.0256 -0.195997,-0.051 -0.294179,-0.0767 -0.221499,-0.0575 -0.442645,-0.11508 -0.663819,-0.16981 -0.07417,-0.0187 -0.14712,-0.0379 -0.22136,-0.0565 -0.285975,-0.0713 -0.571347,-0.14071 -0.857594,-0.20824 -0.08023,-0.0198 -0.160461,-0.0369 -0.240644,-0.0564 -0.214828,-0.0508 -0.430717,-0.0996 -0.644353,-0.14818 -0.0973,-0.022 -0.195597,-0.0424 -0.293368,-0.0651 -0.223392,-0.0493 -0.447288,-0.0962 -0.670506,-0.14412 -0.06818,-0.0147 -0.138687,-0.0296 -0.207194,-0.0446 -0.284972,-0.0586 -0.568742,-0.1153 -0.852708,-0.17194 -0.0827,-0.017 -0.166386,-0.0323 -0.248454,-0.0474 -0.211141,-0.0417 -0.42277,-0.0812 -0.633516,-0.11994 -0.09708,-0.0183 -0.192386,-0.0353 -0.288611,-0.053 -0.229123,-0.0411 -0.456324,-0.0804 -0.684138,-0.11902 -0.06238,-0.0111 -0.123784,-0.0213 -0.186768,-0.0333 -0.283383,-0.0469 -0.5657,-0.0929 -0.847715,-0.13617 -0.08404,-0.0142 -0.167881,-0.0252 -0.251305,-0.0373 -0.209118,-0.0322 -0.417891,-0.0629 -0.627471,-0.0929 -0.09511,-0.0143 -0.189147,-0.0275 -0.284359,-0.039 -0.232997,-0.0327 -0.464762,-0.063 -0.696579,-0.0934 -0.05614,-0.007 -0.109528,-0.0142 -0.165594,-0.0214 -0.280901,-0.0359 -0.561729,-0.0687 -0.842269,-0.10164 -0.08415,-0.0102 -0.167736,-0.0183 -0.252106,-0.0269 -0.207062,-0.0229 -0.413112,-0.0454 -0.619082,-0.0663 -0.09193,-0.009 -0.185389,-0.0186 -0.277531,-0.0282 -0.238994,-0.0228 -0.476412,-0.0464 -0.714821,-0.0661 -0.04458,-0.001 -0.09141,-0.009 -0.137271,-0.0125 -0.279365,-0.0241 -0.55822,-0.0451 -0.836263,-0.0657 -0.08354,-0.007 -0.167329,-0.011 -0.251017,-0.0182 -0.204859,-0.0135 -0.408538,-0.0264 -0.612711,-0.0395 -0.09062,-0.005 -0.180163,-0.011 -0.269813,-0.0149 -0.245022,-0.0143 -0.488777,-0.0271 -0.732681,-0.0382 -0.03357,0.002 -0.07167,-0.004 -0.108548,-0.006 -0.275019,-0.0117 -0.551064,-0.0219 -0.825114,-0.0305 -0.08422,-0.002 -0.168982,-0.004 -0.253739,-0.006 -0.201909,-0.007 -0.401808,-0.01 -0.602409,-0.014 -0.08824,-0.002 -0.17545,-0.003 -0.262255,-0.004 -0.252594,-0.005 -0.505115,-0.006 -0.757732,-0.005 -0.02281,0.002 -0.04624,-3.1e-4 -0.06993,-10e-4 -0.272712,4.1e-4 -0.545353,0.002 -0.816144,0.006 -0.083,0.001 -0.167271,0.002 -0.249225,0.004 -0.200434,0.003 -0.399035,0.007 -0.598312,0.0115 -0.08358,0.003 -0.168,0.004 -0.251744,0.007 -0.265557,0.009 -0.528983,0.0176 -0.793402,0.0298 -0.008,0.004 -0.02223,-0.002 -0.03068,0.003 -0.265816,0.0116 -0.530946,0.0259 -0.79574,0.0406 -0.08043,0.005 -0.162834,0.009 -0.243556,0.0147 -0.198207,0.0124 -0.395277,0.0252 -0.592246,0.0397 -0.08019,0.006 -0.160935,0.0117 -0.241449,0.0172 -0.266154,0.0206 -0.529118,0.0417 -0.793985,0.0658 -0.01852,4.8e-4 -0.03479,0.006 -0.05284,0.007 -0.248095,0.0225 -0.49542,0.0469 -0.741808,0.0717 -0.07978,0.009 -0.161263,0.0167 -0.240958,0.0257 -0.19487,0.021 -0.389159,0.0439 -0.5823,0.0661 -0.07765,0.009 -0.15505,0.0181 -0.231544,0.0279 -0.260992,0.0318 -0.520042,0.0651 -0.778058,0.10033 -0.02828,0.002 -0.05334,0.007 -0.0806,0.011 -0.234574,0.0325 -0.467694,0.0667 -0.700487,0.10169 -0.07831,0.0126 -0.156959,0.0252 -0.23612,0.0374 -0.192427,0.0291 -0.385356,0.0608 -0.575812,0.0944 -0.07214,0.0108 -0.143814,0.0239 -0.216696,0.0356 -0.254819,0.0437 -0.509573,0.0905 -0.763169,0.13645 -0.03241,0.008 -0.06385,0.0142 -0.09659,0.0197 -0.223655,0.0419 -0.445001,0.0855 -0.666152,0.13036 -0.07793,0.0148 -0.153608,0.0324 -0.231024,0.0481 -0.189889,0.0391 -0.378044,0.0794 -0.566112,0.12094 -0.06732,0.0165 -0.136994,0.0292 -0.204202,0.0444 -0.249073,0.0558 -0.49761,0.11311 -0.744726,0.17271 -0.03777,0.008 -0.07337,0.0206 -0.111871,0.0274 -0.211822,0.0521 -0.422548,0.10391 -0.633193,0.15829 -0.07337,0.0206 -0.147884,0.0397 -0.221796,0.0578 -0.186919,0.0491 -0.372382,0.0989 -0.557751,0.15008 -0.0613,0.0211 -0.127658,0.0339 -0.191157,0.052 -0.241905,0.0684 -0.484344,0.1375 -0.724264,0.20872 -0.03953,0.0132 -0.08082,0.0257 -0.12178,0.0375 -0.202057,0.0594 -0.402061,0.12194 -0.603264,0.185 -0.06858,0.0261 -0.143607,0.0452 -0.213672,0.0685 -0.183946,0.0591 -0.3666557,0.11847 -0.5498507,0.17918 -0.05714,0.0212 -0.116969,0.0396 -0.175973,0.059 -0.2323167,0.0798 -0.4641357,0.15924 -0.6944997,0.24163 -0.04003,0.0135 -0.07976,0.0336 -0.1227987,0.0448 -0.190246,0.0683 -0.37959,0.13773 -0.5676727,0.20908 -0.07005,0.03 -0.141941,0.0532 -0.213154,0.081 -0.1690337,0.0646 -0.3375427,0.12904 -0.5053907,0.19697 -0.06089,0.0276 -0.126011,0.0474 -0.1884487,0.0747 -0.224236,0.0901 -0.448206,0.18181 -0.6703407,0.27598 -0.02981,0.008 -0.0557,0.0241 -0.0826,0.0386 -0.19423,0.082 -0.3876477,0.16763 -0.5801137,0.25207 -0.06837,0.0289 -0.133251,0.0612 -0.202247,0.0905 -0.1624609,0.0709 -0.3224199,0.1455 -0.4821969,0.21958 -0.06406,0.0297 -0.126979,0.0599 -0.189885,0.0887 -0.216515,0.10177 -0.432208,0.2045 -0.646162,0.31037 -0.01003,0.005 -0.02037,0.0124 -0.02807,0.0176 -0.204214,0.10006 -0.405731,0.20333 -0.606628,0.30666 -0.06515,0.0322 -0.1261,0.068 -0.190231,0.0998 -0.153396,0.0836 -0.308128,0.16268 -0.461098,0.24357 -0.05969,0.039 -0.125505,0.0676 -0.185876,0.10569 -0.194112,0.1112 -0.391916,0.21587 -0.585761,0.32643 -0.01234,0.007 -0.0236,0.0145 -0.0342,0.0217 -0.202846,0.12006 -0.407435,0.23581 -0.609344,0.35627 -0.05754,0.0375 -0.118257,0.0682 -0.175888,0.10554 -0.148809,0.0889 -0.293656,0.18162 -0.440884,0.2727 -0.06126,0.0401 -0.120097,0.08 -0.18556827,0.11384 -0.1739137,0.10594 -0.3451151,0.2165 -0.5130515,0.33035 -0.026747,0.0167 -0.053565,0.0349 -0.079638,0.0525 -0.1943436,0.13031 -0.3861762,0.26036 -0.57911807,0.39116 -0.054299,0.0368 -0.1079538,0.0733 -0.1613448,0.11083 -0.1424893,0.0981 -0.28580087,0.1952 -0.42346917,0.29904 -0.06033,0.0423 -0.1206954,0.0833 -0.1814336,0.12445 -0.15762829,0.10831 -0.30800649,0.22627 -0.46158069,0.33911 -0.035829,0.0257 -0.07109,0.0496 -0.1064007,0.0736 -0.1850802,0.13917 -0.3693995,0.27955 -0.551058,0.42221 -0.050149,0.0354 -0.09413,0.0775 -0.1439591,0.11129 -0.1365441,0.11003 -0.2749235,0.21551 -0.4098842,0.32944 -0.059585,0.0418 -0.1136893,0.0908 -0.1714594,0.13663 -0.142214,0.11387 -0.2798099,0.23455 -0.4187685,0.35119 -0.042451,0.0302 -0.077122,0.0697 -0.1203041,0.099 -0.1756962,0.14824 -0.3482379,0.3027 -0.5197937,0.45732 -0.044272,0.0315 -0.081823,0.0729 -0.1222482,0.10906 -0.1344322,0.11733 -0.2655609,0.24183 -0.396075,0.36403 -0.05315,0.0497 -0.1067946,0.0986 -0.159598,0.1508 -0.1294207,0.11943 -0.255528,0.24444 -0.3819823,0.36799 -0.041459,0.0401 -0.085045,0.078 -0.1236468,0.12183 -0.1643131,0.16152 -0.3263125,0.32633 -0.4870647,0.49144 -0.032106,0.0337 -0.066927,0.0658 -0.096911,0.10371 -0.1280989,0.13321 -0.2573596,0.26861 -0.3832989,0.40483 -0.050743,0.0519 -0.099072,0.1069 -0.1476102,0.16014 -0.1162463,0.12727 -0.2330441,0.25675 -0.3490007,0.38568 -0.041914,0.0458 -0.08228,0.0938 -0.1247859,0.1409 -0.1527053,0.17299 -0.3038318,0.34822 -0.4537174,0.52573 -0.02296,0.0292 -0.049864,0.0542 -0.072041,0.0869 -0.1255445,0.15107 -0.2500458,0.30148 -0.3730368,0.45421 -0.047795,0.0528 -0.091501,0.11326 -0.136174,0.16988 -0.1062692,0.13378 -0.2124514,0.27018 -0.3174916,0.40435 -0.043656,0.05 -0.082055,0.10565 -0.1236499,0.15861 -0.139821,0.18528 -0.2805525,0.37118 -0.4186192,0.55879 -0.01293,0.0208 -0.028366,0.0367 -0.041437,0.0572 -0.1251626,0.1699 -0.2467726,0.34227 -0.367307,0.51563 -0.042017,0.0576 -0.082243,0.11931 -0.122375,0.17744 -0.097605,0.14011 -0.1941196,0.28429 -0.2890364,0.42629 -0.040527,0.0566 -0.078957,0.11708 -0.1175455,0.1761 -0.1283477,0.19659 -0.2569378,0.3941 -0.3823569,0.59352 l -1.1597143,1.85114 c 4.4431058,-7.09244 11.27608723,-12.0581 19.5251799,-14.84418 16.7661941,-5.65605 39.3758741,-2.31399 59.6508301,10.48171 20.274908,12.79565 33.071772,31.79888 35.250772,49.41561 1.07285,8.66921 -0.4248,17.00229 -4.867921,24.09476 z m -36.48213,-45.68055 1.197441,-1.91112 c -2.475205,-1.9527 -5.096761,-3.81042 -7.856877,-5.55233 -2.836978,-1.79046 -5.718528,-3.39525 -8.623631,-4.81656 l -1.197264,1.91139 c 2.90508,1.42128 5.786769,3.02562 8.623738,4.81604 2.760124,1.74195 5.380558,3.59933 7.856576,5.55255 z m 2.319659,-3.70259 1.196972,-1.91118 c -2.475225,-1.95272 -5.096489,-3.81065 -7.856594,-5.55258 -2.836963,-1.79042 -5.718052,-3.39574 -8.623755,-4.81607 l -1.196935,1.91122 c 2.905736,1.42038 5.786476,3.02583 8.623443,4.81627 2.760119,1.74194 5.380889,3.59917 7.856891,5.55237 z m 2.319482,-3.70287 1.197143,-1.91091 c -2.474608,-1.95368 -5.096069,-3.81133 -7.856169,-5.55325 -2.836986,-1.79045 -5.718483,-3.39508 -8.62416,-4.81538 l -1.196772,1.91018 c 2.905115,1.42133 5.786783,3.02565 8.623766,4.81608 2.760106,1.74193 5.380745,3.59906 7.856192,5.55328 z m -93.570217,42.10415 c -0.05788,-1.44263 0.0069,-2.99373 0.252219,-4.6329 -0.969025,-3.03853 -1.647451,-6.07307 -2.017877,-9.06922 -0.537101,-4.34719 -0.425617,-8.6095 0.378795,-12.67432 -0.0019,8.1e-4 -0.0047,0.004 -0.01026,0.008 -0.301599,0.22488 -0.595453,0.4578 -0.887988,0.69454 l -0.05291,0.0371 c -1.027777,4.41414 -1.219736,9.07828 -0.629135,13.84439 0.48091,3.88884 1.480941,7.84524 2.962978,11.78942 z m 0.944318,-7.83915 c 0.257944,-0.90523 0.574013,-1.8318 0.955684,-2.77615 -0.616943,-2.27492 -1.068779,-4.54388 -1.346979,-6.78957 -0.435426,-3.52066 -0.443737,-6.98593 -0.0063,-10.3356 -0.0019,8e-4 -0.0086,0.006 -0.012,0.008 -0.319432,0.21534 -0.637327,0.43085 -0.95501,0.64864 -0.01807,0.012 -0.03369,0.0232 -0.0501,0.0352 -0.614588,3.72537 -0.664592,7.60373 -0.177235,11.55317 0.314602,2.52996 0.847332,5.09 1.589879,7.65434 z m 1.963624,-4.9952 c 0.347054,-0.68872 0.730344,-1.38433 1.152021,-2.08663 -0.535041,-2.0724 -0.933966,-4.13967 -1.187284,-6.18646 -0.330987,-2.67496 -0.415859,-5.31878 -0.246873,-7.90312 -0.0035,0.002 -0.0091,0.005 -0.01248,0.007 -0.34672,0.197 -0.688387,0.39963 -1.027303,0.60728 -0.01621,0.0103 -0.03317,0.0213 -0.05055,0.0331 -0.295164,2.98419 -0.244853,6.05441 0.139524,9.16848 0.2616,2.10451 0.674969,4.22944 1.233398,6.36106 z" />
  </g>
</svg>
