<?xml version="1.0" encoding="UTF-8" standalone="no"?>
<!-- Created with Inkscape (http://www.inkscape.org/) -->

<svg
   width="131mm"
   height="182mm"
   viewBox="0 0 131 182"
   version="1.1"
   id="svg5"
   inkscape:version="1.2.2 (b0a8486541, 2022-12-01)"
   sodipodi:docname="03-jovo.svg"
   xmlns:inkscape="http://www.inkscape.org/namespaces/inkscape"
   xmlns:sodipodi="http://sodipodi.sourceforge.net/DTD/sodipodi-0.dtd"
   xmlns="http://www.w3.org/2000/svg"
   xmlns:svg="http://www.w3.org/2000/svg">
  <sodipodi:namedview
     id="namedview7"
     pagecolor="#ffffff"
     bordercolor="#000000"
     borderopacity="0.25"
     inkscape:showpageshadow="2"
     inkscape:pageopacity="0.0"
     inkscape:pagecheckerboard="0"
     inkscape:deskcolor="#d1d1d1"
     inkscape:document-units="mm"
     showgrid="false"
     inkscape:zoom="0.53801127"
     inkscape:cx="259.28825"
     inkscape:cy="650.544"
     inkscape:window-width="1233"
     inkscape:window-height="1125"
     inkscape:window-x="677"
     inkscape:window-y="0"
     inkscape:window-maximized="0"
     inkscape:current-layer="layer1"
     showguides="false" />
  <defs
     id="defs2">
    <clipPath
       clipPathUnits="userSpaceOnUse"
       id="clipPath138463">
      <path
         d="M 0,926.453 H 934.092 V 0 H 0 Z"
         id="path138461" />
    </clipPath>
  </defs>
  <g
     inkscape:label="Réteg 1"
     inkscape:groupmode="layer"
     id="layer1">
    <rect
       x="1.7763568e-15"
       y="-182"
       width="131"
       height="182"
       fill="#0f2233"
       id="rect2"
       style="fill:#9fddc7;fill-opacity:1;stroke-width:3.75901"
       transform="scale(1,-1)" />
    <path
       id="rect37207-3-2"
       style="fill:#ffffff;fill-opacity:1;stroke-width:0.3;stop-color:#000000"
       d="m 131,182 h -4 l 4,-4 z"
       sodipodi:nodetypes="cccc" />
    <path
       style="fill:#49910a;fill-opacity:0.996993;stroke:#000000;stroke-width:0.2;stroke-linecap:butt;stroke-dasharray:none;stroke-opacity:1;stop-color:#000000"
       d="M 130.7,179 H 129"
       id="path36696-5-7"
       sodipodi:nodetypes="cc" />
    <path
       style="fill:#49910a;fill-opacity:0.996993;stroke:#000000;stroke-width:0.2;stroke-linecap:butt;stroke-dasharray:none;stroke-opacity:1;stop-color:#000000"
       d="M 128,181.7 V 180"
       id="path36696-6-6-0"
       sodipodi:nodetypes="cc" />
    <path
       id="path68081-7"
       style="fill:#c0ddb6;fill-opacity:0.997995;stroke-width:1.82801"
       d="m 162.60974,107.89131 c -7.5e-4,-0.10168 -0.002,-0.20048 -0.002,-0.30118 -0.002,-0.31497 -0.006,-0.63306 -0.018,-0.95035 -0.002,-0.11562 -0.002,-0.23001 -0.006,-0.34718 -0.0112,-0.35013 -0.0202,-0.69992 -0.042,-1.05009 -0.002,-0.0597 -0.002,-0.11922 -0.006,-0.17872 -0.0225,-0.40908 -0.044,-0.81872 -0.0732,-1.22624 -0.006,-0.0945 -0.018,-0.18836 -0.0202,-0.28278 -0.0225,-0.31476 -0.0498,-0.63256 -0.0766,-0.94964 -0.0157,-0.11854 -0.0225,-0.2372 -0.0335,-0.35554 -0.0294,-0.32871 -0.0649,-0.65607 -0.10352,-0.98565 -0.006,-0.0785 -0.018,-0.15694 -0.0252,-0.23496 -0.0478,-0.40376 -0.0975,-0.80894 -0.15357,-1.211093 -0.0157,-0.0858 -0.0252,-0.170633 -0.0378,-0.256933 -0.0447,-0.318273 -0.0918,-0.634836 -0.14234,-0.954729 -0.018,-0.12168 -0.0377,-0.24139 -0.0589,-0.362479 -0.0503,-0.3094 -0.10502,-0.62273 -0.16075,-0.932 -0.018,-0.0923 -0.0335,-0.18679 -0.0498,-0.27908 -0.0736,-0.39651 -0.15177,-0.79593 -0.23325,-1.19338 -0.018,-0.0734 -0.0335,-0.14751 -0.048,-0.22092 -0.0692,-0.32303 -0.14009,-0.64723 -0.21419,-0.96994 -0.0294,-0.12012 -0.0554,-0.23965 -0.0831,-0.35994 -0.0705,-0.29816 -0.14392,-0.5973 -0.21935,-0.8935 -0.0252,-0.1017 -0.0506,-0.20318 -0.0761,-0.30688 -0.10168,-0.39313 -0.20543,-0.78295 -0.31459,-1.17259 -0.018,-0.0577 -0.0378,-0.11832 -0.0514,-0.17624 -0.0945,-0.3312 -0.19173,-0.66371 -0.29361,-0.99578 -0.0378,-0.11877 -0.0717,-0.23695 -0.10956,-0.35673 -0.0899,-0.28758 -0.18164,-0.57437 -0.27494,-0.86063 -0.0377,-0.10934 -0.0705,-0.21845 -0.10777,-0.32774 -0.12932,-0.38518 -0.26178,-0.76934 -0.39824,-1.15364 -0.0157,-0.035 -0.0294,-0.0701 -0.042,-0.10799 -0.12618,-0.34782 -0.2548,-0.694329 -0.38775,-1.041225 -0.0451,-0.114726 -0.0891,-0.231494 -0.13494,-0.347927 -0.042,-0.101708 -0.081,-0.200714 -0.12056,-0.302441 -0.0498,-0.103946 -0.0994,-0.205654 -0.14976,-0.311423 l 0.12686,0.289219 c 0.042,0.101256 0.0779,0.193081 0.11764,0.294852 0.006,0.0247 0.018,0.0467 0.0294,0.07005 0.002,0.0068 0.006,0.01572 0.0112,0.02246 0.0335,0.08487 0.0689,0.171528 0.10104,0.256865 0.13269,0.346873 0.26347,0.69278 0.38776,1.04122 0.009,0.0373 0.0294,0.0727 0.0378,0.10867 0.006,0.0247 0.018,0.0447 0.0252,0.0696 -0.0377,-0.0761 -0.0775,-0.15537 -0.11787,-0.23053 -0.26847,-0.517056 -0.54521,-1.027756 -0.82834,-1.536277 3.81456,11.812207 3.70451,24.492451 0.21329,37.105221 -8.22232,29.70621 -35.13948,59.03914 -73.410691,75.76645 -38.271775,16.72736 -78.1810883,16.60327 -105.714707,2.52518 -11.735989,-6.00064 -21.214679,-14.54255 -27.367233,-25.39147 0.185897,0.56393 0.379001,1.12458 0.584026,1.68472 0.02515,0.0826 0.05972,0.16435 0.09204,0.2456 0.0023,0.0202 0.02515,0.0375 0.02515,0.0566 0.191061,0.36058 0.385265,0.71729 0.583555,1.07209 0.05658,0.10126 0.114501,0.19937 0.171527,0.29993 0.146608,0.26268 0.297862,0.52426 0.4486,0.78478 0.06309,0.10664 0.127523,0.21509 0.189489,0.32212 0.176018,0.29949 0.357245,0.59506 0.537439,0.88837 0.02515,0.0512 0.06377,0.10707 0.09699,0.15716 0.213063,0.34469 0.431334,0.68438 0.652794,1.02485 0.0577,0.0896 0.116971,0.17602 0.173548,0.26396 0.168161,0.25557 0.339643,0.51234 0.514315,0.7653 0.06915,0.1019 0.137177,0.20363 0.207449,0.30493 0.188592,0.27272 0.379405,0.54443 0.572149,0.8133 0.04199,0.0601 0.08913,0.12281 0.131341,0.18478 0.23841,0.32711 0.479963,0.65394 0.724345,0.97817 0.05658,0.0748 0.114951,0.15155 0.171079,0.22584 0.191061,0.25013 0.386118,0.5028 0.580951,0.74891 0.07679,0.0963 0.15177,0.19106 0.229047,0.28736 0.201613,0.25183 0.402821,0.50135 0.607667,0.75205 0.05658,0.0662 0.109338,0.13426 0.165691,0.19981 0.25929,0.31332 0.525989,0.62404 0.792328,0.93196 0.05478,0.0597 0.103505,0.11876 0.156486,0.17759 0.218002,0.24889 0.437351,0.49572 0.660383,0.74262 0.07948,0.0884 0.160976,0.17646 0.241374,0.2652 0.215532,0.23472 0.431828,0.46915 0.650728,0.69836 0.06556,0.0692 0.12887,0.13897 0.194204,0.20791 0.281944,0.29697 0.568803,0.59167 0.857594,0.88336 0.04199,0.0418 0.08487,0.0837 0.126851,0.12528 0.248379,0.24887 0.496217,0.49556 0.748481,0.74071 0.08419,0.0824 0.168159,0.16075 0.252285,0.2431 0.226332,0.21868 0.45969,0.43722 0.690848,0.6523 0.07206,0.068 0.146608,0.13719 0.220248,0.207 0.305786,0.27984 0.611865,0.55989 0.92277,0.83535 0.02021,0.0202 0.04557,0.0426 0.07431,0.0651 0.284885,0.25224 0.570465,0.49979 0.860199,0.74769 0.08509,0.0727 0.172426,0.14571 0.258145,0.21845 0.243866,0.20701 0.490696,0.41163 0.739142,0.61494 0.07903,0.0669 0.160752,0.13382 0.240633,0.19982 0.64745,0.52466 1.305745,1.04031 1.975243,1.5445 0.08689,0.0663 0.173997,0.13133 0.263196,0.19442 0.258976,0.19443 0.519546,0.3861 0.781957,0.57658 0.08913,0.0649 0.176017,0.12842 0.26571,0.1933 0.685012,0.48879 1.381675,0.97079 2.088937,1.43907 0.08689,0.0597 0.174222,0.11584 0.263173,0.17332 0.274939,0.18073 0.551741,0.3585 0.829666,0.53798 0.09452,0.0602 0.190387,0.12101 0.285311,0.18319 0.336298,0.21194 0.676367,0.42369 1.016842,0.63212 0.02515,0.0135 0.04199,0.0252 0.06061,0.0376 0.369818,0.22583 0.742599,0.44415 1.115717,0.66423 0.08666,0.0494 0.172202,0.0977 0.257337,0.14974 0.292383,0.16906 0.58324,0.33425 0.877307,0.50017 0.102375,0.0568 0.203409,0.11427 0.305383,0.17108 0.330842,0.1823 0.661527,0.36517 0.994569,0.54424 0.04715,0.0252 0.09362,0.0498 0.141443,0.0746 0.385309,0.20588 0.77338,0.40952 1.163382,0.60931 0.02514,0.018 0.04198,0.0252 0.06758,0.0378 0.05703,0.0294 0.116971,0.0566 0.174895,0.0858 0.317102,0.15963 0.63517,0.3179 0.954023,0.47744 0.105297,0.0517 0.212165,0.10459 0.319549,0.15581 0.349724,0.17041 0.701716,0.33884 1.052428,0.50397 0.04715,0.0202 0.09766,0.0458 0.146158,0.0698 0.404931,0.18904 0.813321,0.37397 1.221732,0.55693 0.0916,0.042 0.182304,0.0802 0.273546,0.12057 0.324601,0.14391 0.648394,0.28443 0.975554,0.42507 0.113604,0.048 0.224288,0.0945 0.334636,0.14346 0.368112,0.15514 0.740714,0.31077 1.114528,0.46162 0.04221,0.018 0.08509,0.0337 0.129319,0.0514 0.419189,0.16972 0.84051,0.33588 1.26421,0.49951 0.09991,0.0378 0.201164,0.077 0.301589,0.11495 0.33046,0.12641 0.662223,0.24932 0.994615,0.37271 0.1162972,0.0422 0.2339868,0.0866 0.3522155,0.13 0.3902712,0.14145 0.7807661,0.27986 1.1753705,0.41931 0.029408,0.018 0.071622,0.0252 0.1084399,0.0377 0.4327934,0.15064 0.8686858,0.29617 1.3060814,0.44063 0.110012,0.0377 0.2204717,0.0723 0.3304385,0.10664 0.3355121,0.1109 0.6718775,0.2171 1.0117454,0.32377 0.1237069,0.0374 0.2468069,0.0788 0.3693463,0.1154 0.4116442,0.12753 0.8248382,0.25224 1.2393782,0.37435 0.02515,0.0135 0.05658,0.018 0.08262,0.0252 0.444244,0.13112 0.891743,0.2581 1.339669,0.38023 0.119217,0.0335 0.239151,0.0663 0.360163,0.0979 0.341732,0.0934 0.68362,0.18613 1.026249,0.27485 0.129319,0.0335 0.25509197,0.0688 0.38483797,0.10039 0.438317,0.11339 0.879485,0.22407 1.32260597,0.33172 0.0023,0.002 0.02515,0.006 0.03772,0.0112 0.45567106,0.11023 0.91316106,0.21732 1.37323306,0.3221 0.127523,0.0335 0.257583,0.0595 0.386477,0.0874 0.344695,0.0765 0.69352,0.15357 1.042166,0.22584 0.131115,0.0294 0.26488,0.0577 0.396131,0.0844 0.924791,0.1933 1.857598,0.37649 2.796736,0.54424 0.136054,0.0252 0.273546,0.0498 0.411622,0.0736 0.352193,0.0626 0.703854,0.12348 1.055466,0.18186 0.135988,0.0202 0.271865,0.0447 0.409094,0.0674 0.470451,0.0781 0.9450517,0.15267 1.4201935,0.22407 0.02937,0.002 0.05947,0.006 0.08836,0.0112 0.4475238,0.0665 0.8974418,0.13223 1.3491598,0.19286 0.143396,0.018 0.287365,0.0374 0.433924,0.0568 0.357633,0.0476 0.71307,0.0938 1.070681,0.1365 0.139445,0.0112 0.281959,0.0335 0.420225,0.05 0.479658,0.057 0.962228,0.11202 1.444923,0.16277 0.05453,0.006 0.107609,0.0112 0.161424,0.018 0.433901,0.0444 0.867527,0.0884 1.303475,0.12932 0.152781,0.018 0.304125,0.0252 0.457347,0.042 0.361014,0.0335 0.722128,0.0637 1.083415,0.094 0.141913,0.0135 0.284873,0.0202 0.428987,0.0335 0.487854,0.0378 0.975657,0.0711 1.465854,0.10642 0.07528,0.002 0.149323,0.006 0.224601,0.018 0.422448,0.0294 0.843609,0.0514 1.269192,0.0732 0.158461,0.006 0.317922,0.018 0.477487,0.0202 0.365211,0.018 0.732222,0.0335 1.097977,0.0487 0.14389,0.002 0.287809,0.0135 0.43227,0.018 0.49548,0.018 0.988885,0.0335 1.487375,0.0447 0.0933,0.002 0.188322,0.002 0.279122,0.002 0.41329,0.0134 0.824558,0.018 1.237502,0.0202 0.16587,0 0.332558,0.002 0.498737,0.002 0.369382,0.002 0.740838,0.002 1.112613,0.002 0.146113,0 0.293661,0.002 0.438267,0 0.499874,-0.002 1.001054,-0.0112 1.500804,-0.018 0.110819,-0.002 0.220158,-0.002 0.330879,-0.006 0.404922,-0.006 0.808365,-0.018 1.214053,-0.0294 0.170787,-0.002 0.340085,-0.018 0.510215,-0.018 0.37565,-0.0135 0.751177,-0.0252 1.125964,-0.042 0.147841,-0.006 0.294476,-0.018 0.442564,-0.018 0.504216,-0.018 1.00979,-0.0476 1.514722,-0.0752 0.123415,-0.006 0.248937,-0.018 0.372294,-0.0252 0.399049,-0.0202 0.793161,-0.0447 1.191841,-0.0727 0.175973,-0.0112 0.350525,-0.0202 0.527045,-0.0378 0.379823,-0.0252 0.761077,-0.0562 1.141788,-0.0858 0.14562,-0.0112 0.294079,-0.0202 0.438737,-0.0375 0.51024,-0.042 1.018453,-0.0849 1.529333,-0.13358 0.133765,-0.018 0.269892,-0.0252 0.404085,-0.0418 0.394038,-0.0377 0.785313,-0.0763 1.179844,-0.11675 0.179432,-0.018 0.356402,-0.0378 0.535267,-0.0595 0.388609,-0.042 0.774403,-0.0849 1.162617,-0.13135 0.143644,-0.018 0.28739,-0.0335 0.432272,-0.05 0.511296,-0.0633 1.026126,-0.1282 1.541448,-0.19534 0.145374,-0.018 0.289886,-0.042 0.436665,-0.0586 0.388189,-0.05 0.773638,-0.10621 1.163309,-0.16188 0.181901,-0.0252 0.363927,-0.0512 0.545484,-0.0788 0.396133,-0.0583 0.788321,-0.11922 1.184829,-0.18028 0.139445,-0.0202 0.279122,-0.0444 0.418719,-0.0665 0.515619,-0.0824 1.034226,-0.16614 1.551499,-0.25391 0.152288,-0.0252 0.306222,-0.0537 0.460653,-0.0795 0.384832,-0.0665 0.768504,-0.13471 1.155708,-0.20453 0.181901,-0.0337 0.368121,-0.0674 0.551157,-0.10233 0.399889,-0.0727 0.80222,-0.15065 1.203293,-0.2268 0.136975,-0.0252 0.271027,-0.0543 0.408254,-0.0795 0.520037,-0.10169 1.03635,-0.20791 1.557249,-0.31625 0.162412,-0.0335 0.320834,-0.0665 0.48235,-0.1004 0.381499,-0.0819 0.761421,-0.16389 1.143687,-0.24846 0.187581,-0.0378 0.373971,-0.0818 0.560687,-0.12214 0.4087,-0.092 0.817867,-0.18657 1.228666,-0.28152 0.128601,-0.0294 0.255648,-0.0597 0.382759,-0.0891 0.522161,-0.12169 1.044714,-0.24847 1.566135,-0.37689 0.16587,-0.0418 0.331297,-0.082 0.498735,-0.12506 0.379823,-0.0945 0.758658,-0.19084 1.139271,-0.28778 0.185358,-0.0487 0.371874,-0.0975 0.556325,-0.1457 0.42188,-0.11091 0.843661,-0.2234 1.266675,-0.33673 0.118475,-0.0337 0.237436,-0.0626 0.353042,-0.0963 0.522162,-0.14391 1.047923,-0.29155 1.570552,-0.44206 0.170786,-0.0473 0.341342,-0.0992 0.512435,-0.14818 0.375626,-0.10777 0.753991,-0.21845 1.129668,-0.33089 0.185111,-0.0552 0.372714,-0.11091 0.561376,-0.16726 0.431753,-0.13179 0.863208,-0.2631 1.295257,-0.39782 0.106873,-0.0335 0.215958,-0.0662 0.322067,-0.0999 0.523888,-0.1639 1.049231,-0.33046 1.573094,-0.50317 0.174244,-0.0543 0.350969,-0.11428 0.523838,-0.17221 0.374393,-0.12259 0.74987,-0.24804 1.124607,-0.37522 0.185852,-0.062 0.37227,-0.12394 0.556912,-0.1895 0.448091,-0.15267 0.895391,-0.30662 1.343434,-0.4635 0.0918,-0.0335 0.184369,-0.0626 0.276604,-0.0965 0.524431,-0.18365 1.048266,-0.37398 1.571169,-0.56571 0.177702,-0.0645 0.358078,-0.13066 0.535263,-0.1969 0.372319,-0.13672 0.745626,-0.27815 1.120167,-0.41789 0.183383,-0.0692 0.367679,-0.13919 0.552444,-0.20879 0.466628,-0.17759 0.931233,-0.35893 1.396818,-0.54307 0.07855,-0.0294 0.155995,-0.0597 0.23176,-0.0882 0.518903,-0.20543 1.037386,-0.41454 1.555299,-0.62579 0.179431,-0.0741 0.358077,-0.14817 0.540155,-0.22384 0.371474,-0.15154 0.745229,-0.30576 1.116412,-0.4615 0.181648,-0.077 0.363091,-0.15267 0.547408,-0.23102 0.485633,-0.20544 0.972883,-0.41581 1.458253,-0.62574 0.0437,-0.018 0.0851,-0.0378 0.12758,-0.0562 0.0437,-0.0112 0.0849,-0.0252 0.12688,-0.0471 v 0 c 0.48512,-0.21419 0.97225,-0.42946 1.45447,-0.6466 0.17648,-0.0795 0.35392,-0.16098 0.53196,-0.24088 0.37146,-0.16861 0.74126,-0.33924 1.11069,-0.51159 0.17277,-0.0795 0.34554,-0.15963 0.51836,-0.23965 0.5135,-0.24189 1.02707,-0.48322 1.53765,-0.72808 0.0595,-0.0252 0.117,-0.0577 0.17598,-0.0855 0.46272,-0.22384 0.92088,-0.44805 1.38275,-0.67375 0.16733,-0.0841 0.33802,-0.16928 0.50696,-0.25392 0.36642,-0.18365 0.7345,-0.36683 1.0999,-0.55244 0.15747,-0.0818 0.31832,-0.16254 0.47635,-0.24211 0.50259,-0.25853 1.00372,-0.51715 1.5008,-0.77982 0.0687,-0.0378 0.13722,-0.0727 0.20609,-0.10912 0.43831,-0.23298 0.87542,-0.4647 1.30922,-0.69969 0.16167,-0.0882 0.32335,-0.17648 0.48345,-0.26396 0.361867,-0.19757 0.72484,-0.39447 1.085363,-0.59559 0.14759,-0.082 0.2945,-0.16278 0.44207,-0.24508 0.48901,-0.27231 0.97667,-0.54849 1.45956,-0.82666 0.077,-0.0422 0.1513,-0.0874 0.22435,-0.12999 0.41749,-0.23891 0.83204,-0.48054 1.24708,-0.7248 0.15254,-0.0882 0.30702,-0.17939 0.45838,-0.26982 0.35806,-0.21082 0.71325,-0.42414 1.06822,-0.63773 0.13623,-0.0831 0.27324,-0.16546 0.40827,-0.24608 0.47428,-0.28945 0.9473,-0.57826 1.4183,-0.87075 0.079,-0.0498 0.155,-0.0977 0.23497,-0.1475 0.39613,-0.2489 0.79422,-0.49887 1.1874,-0.75083 0.14709,-0.0925 0.29153,-0.18611 0.43769,-0.28023 0.35305,-0.22583 0.70243,-0.45206 1.0517,-0.68256 0.12218,-0.0815 0.2481,-0.16031 0.37188,-0.24264 0.45902,-0.30241 0.9176,-0.60715 1.37143,-0.91374 0.0845,-0.0586 0.16586,-0.11585 0.25145,-0.17063 0.37732,-0.25557 0.74946,-0.51167 1.12396,-0.76851 0.13895,-0.0975 0.27984,-0.1933 0.41867,-0.29113 0.3451,-0.23967 0.6883,-0.48039 1.02882,-0.72239 0.11279,-0.0817 0.22583,-0.15896 0.33799,-0.23891 0.44212,-0.31625 0.88539,-0.63402 1.32194,-0.95471 0.0862,-0.0638 0.17424,-0.12595 0.26234,-0.19039 0.35598,-0.26144 0.71274,-0.52579 1.06621,-0.78864 0.13302,-0.0992 0.26263,-0.19691 0.39571,-0.29616 0.33634,-0.25518 0.67299,-0.51131 1.00794,-0.76597 0.10094,-0.0766 0.20289,-0.15357 0.30581,-0.23298 0.4279,-0.32796 0.84987,-0.6594 1.27306,-0.98952 0.0866,-0.0703 0.17424,-0.13919 0.26096,-0.20947 0.33843,-0.2673 0.67634,-0.53569 1.01112,-0.80762 0.12637,-0.10082 0.25313,-0.20363 0.37811,-0.30371 0.32923,-0.26729 0.65441,-0.53538 0.98063,-0.80572 0.0904,-0.0746 0.18486,-0.14975 0.27492,-0.22633 0.40992,-0.33924 0.81489,-0.68077 1.21847,-1.02609 0.0884,-0.0752 0.17771,-0.15154 0.26516,-0.22828 0.32081,-0.27441 0.63987,-0.54861 0.95591,-0.82533 0.12035,-0.10234 0.23965,-0.20835 0.35763,-0.31206 0.32213,-0.27941 0.64068,-0.56375 0.95975,-0.84614 0.079,-0.0711 0.16008,-0.14145 0.23964,-0.21553 0.3903,-0.35056 0.77972,-0.7026 1.16458,-1.05702 0.0891,-0.082 0.17826,-0.16433 0.26654,-0.24804 0.30118,-0.27651 0.60068,-0.55692 0.89881,-0.83671 0.11495,-0.10664 0.22782,-0.21463 0.33967,-0.32208 0.31122,-0.29198 0.62248,-0.58807 0.9274,-0.88586 0.0711,-0.068 0.13942,-0.13471 0.21037,-0.20296 0.37105,-0.36141 0.74124,-0.72433 1.1081,-1.08608 0.0874,-0.0856 0.17579,-0.17647 0.26432,-0.26352 0.2832,-0.28403 0.5653,-0.56734 0.84552,-0.85427 0.10706,-0.1075 0.21373,-0.2171 0.32082,-0.32462 0.30076,-0.3112 0.60334,-0.62276 0.90266,-0.93328 0.0577,-0.062 0.11607,-0.11988 0.17176,-0.18118 0.35344,-0.37103 0.70467,-0.74368 1.05357,-1.117 0.0849,-0.0914 0.16928,-0.1841 0.25423,-0.27523 0.26852,-0.28865 0.53417,-0.57816 0.79801,-0.86889 0.0999,-0.11091 0.19915,-0.22136 0.29948,-0.33212 0.29447,-0.32585 0.58733,-0.65508 0.87784,-0.98121 0.0451,-0.0525 0.0916,-0.10082 0.13516,-0.15222 0.33343,-0.3794 0.66332,-0.76225 0.99273,-1.14223 0.0841,-0.0975 0.16592,-0.19578 0.24977,-0.29324 0.2498,-0.29321 0.49958,-0.58652 0.74468,-0.88211 0.0934,-0.11002 0.18681,-0.21958 0.27856,-0.3334 0.28697,-0.34636 0.57268,-0.69246 0.8544,-1.03865 0.0335,-0.0418 0.0653,-0.0781 0.097,-0.11786 0.31285,-0.38778 0.62432,-0.77547 0.93175,-1.16751 0.079,-0.0994 0.1585,-0.20342 0.23841,-0.30577 0.23324,-0.29701 0.46537,-0.59729 0.69648,-0.8954 0.0851,-0.11091 0.17175,-0.2198 0.25509,-0.33215 0.27912,-0.36434 0.5536,-0.7313 0.8265,-1.0974 0.0202,-0.0294 0.042,-0.0548 0.0606,-0.079 0.29282,-0.39655 0.58241,-0.79154 0.86965,-1.18774 0.0756,-0.10416 0.14908,-0.20834 0.22384,-0.31456 0.21801,-0.30288 0.43446,-0.60518 0.64766,-0.91052 0.0786,-0.11001 0.15649,-0.22204 0.2347,-0.33215 0.27187,-0.38945 0.53917,-0.7795 0.80553,-1.16878 0.004,-0.006 0.0112,-0.018 0.018,-0.0252 0.27158,-0.40244 0.53922,-0.80522 0.80621,-1.2099 0.0705,-0.10663 0.14144,-0.21329 0.21126,-0.32209 0.20095,-0.30871 0.40114,-0.61474 0.59814,-0.9238 0.0705,-0.11091 0.14211,-0.22092 0.21126,-0.33086 0.51213,-0.80855 1.01168,-1.61984 1.49824,-2.43229 0.0653,-0.11091 0.13134,-0.2198 0.19667,-0.33089 0.1859,-0.31288 0.36812,-0.62618 0.54867,-0.93898 0.0628,-0.1075 0.1255,-0.21508 0.18792,-0.32458 0.23495,-0.41038 0.4697,-0.82273 0.69773,-1.23641 0,0 0.001,-6.7e-4 0.002,-0.002 0.22509,-0.40783 0.44689,-0.8148 0.66413,-1.22375 0.0613,-0.11136 0.12011,-0.22339 0.18074,-0.3363 0.16838,-0.31582 0.33463,-0.63579 0.49986,-0.95477 0.0548,-0.10416 0.11136,-0.21082 0.16571,-0.31706 0.21283,-0.41538 0.4227,-0.83175 0.62984,-1.24709 0.006,-0.018 0.018,-0.0375 0.0252,-0.0573 0.1942,-0.39449 0.38526,-0.78727 0.57403,-1.18587 0.0541,-0.11204 0.10706,-0.2246 0.15963,-0.33841 0.15401,-0.32292 0.3037,-0.64608 0.45165,-0.97053 0.0471,-0.10287 0.0943,-0.20363 0.13942,-0.30576 0.19084,-0.41903 0.37521,-0.83972 0.5588,-1.25781 0.0157,-0.0294 0.0252,-0.0631 0.042,-0.0934 0.16592,-0.38651 0.33084,-0.77226 0.49034,-1.15809 0.0478,-0.11382 0.0932,-0.22705 0.14076,-0.34092 0.13606,-0.33004 0.26908,-0.65892 0.3995,-0.98883 0.042,-0.0975 0.0799,-0.19487 0.11809,-0.29195 0.1648,-0.42292 0.32838,-0.84525 0.48773,-1.26794 0.0135,-0.0426 0.0294,-0.0824 0.0471,-0.1246 0.14054,-0.37775 0.27771,-0.75843 0.41496,-1.13658 0.042,-0.11315 0.081,-0.22559 0.12011,-0.338 0.11787,-0.33758 0.23424,-0.67173 0.34762,-1.00716 0.0335,-0.0941 0.0631,-0.18613 0.0945,-0.27773 0.14188,-0.42574 0.28025,-0.85001 0.41664,-1.27553 0.018,-0.0527 0.0294,-0.10169 0.0471,-0.15222 0.11608,-0.37103 0.23126,-0.74419 0.34133,-1.11703 0.0335,-0.11025 0.0674,-0.22272 0.0992,-0.33421 0.10125,-0.34304 0.19869,-0.68462 0.29449,-1.02738 0.018,-0.0615 0.0335,-0.12348 0.0537,-0.1832 0.006,-0.0294 0.0157,-0.0514 0.0225,-0.0761 0.11629,-0.42106 0.22952,-0.84278 0.33797,-1.26475 0.009,-0.0512 0.0252,-0.0994 0.0378,-0.15042 0.0936,-0.36809 0.18366,-0.73658 0.27409,-1.1031 0.0252,-0.11383 0.0527,-0.22683 0.079,-0.338 0.0771,-0.33049 0.15222,-0.65557 0.22384,-0.98566 0.0225,-0.0952 0.0426,-0.19151 0.0649,-0.2878 0.0911,-0.42323 0.17939,-0.845 0.26401,-1.26729 0.002,-0.0202 0.006,-0.0476 0.0112,-0.0692 0.0779,-0.39112 0.1511,-0.78486 0.22092,-1.17703 0.0202,-0.11023 0.0377,-0.22093 0.0579,-0.33089 0.0554,-0.32503 0.11136,-0.6486 0.16344,-0.97239 0.018,-0.10287 0.0335,-0.20453 0.0503,-0.30744 0.13134,-0.83708 0.24729,-1.6735 0.34806,-2.50811 0.0157,-0.1075 0.0252,-0.21463 0.0378,-0.32127 0.0378,-0.32378 0.0723,-0.64485 0.10535,-0.96676 0.009,-0.10889 0.0202,-0.21553 0.0335,-0.32377 0.0804,-0.83195 0.14638,-1.66403 0.19488,-2.49295 0.002,-0.10416 0.0112,-0.20834 0.018,-0.31202 0.018,-0.31917 0.0335,-0.63804 0.0451,-0.95725 0.002,-0.11428 0.006,-0.22684 0.009,-0.33718 0.0157,-0.38024 0.0225,-0.7585 0.0294,-1.13846 2.7e-4,-0.0335 0.002,-0.064 0.002,-0.0965 0.006,-0.41453 0.006,-0.82855 0.004,-1.24137 z m -3.99806,-21.303396 c -0.057,-0.122135 -0.11361,-0.241374 -0.16929,-0.360477 0.0595,0.125726 0.11877,0.253093 0.17602,0.379449 -0.002,-0.0045 -0.004,-0.01122 -0.006,-0.02021 z m 0.92097,15.453126 c 0.0752,-5.920284 -0.67006,-11.755354 -2.29484,-17.404884 -0.0378,-0.06398 -0.0766,-0.12685 -0.1154,-0.189939 -0.31499,-0.518422 -0.63634,-1.029548 -0.96603,-1.535062 2.70745,10.754401 2.2949,22.129465 -0.83983,33.451675 -8.22234,29.70621 -35.13951,59.03908 -73.410735,75.76651 -38.271234,16.72745 -78.1804783,16.60324 -105.714164,2.52509 -10.522968,-5.37876 -19.23095,-12.80285 -25.35389,-22.09906 0.151546,0.59853 0.315441,1.18913 0.488113,1.78315 0.01796,0.0516 0.02941,0.10535 0.04625,0.15716 6.159176,10.07511 15.266231,18.05789 26.404364,23.75473 27.5352117,14.07557 67.446581,14.19903 105.716285,-2.52768 38.269737,-16.7274 65.186897,-46.05969 73.409187,-75.76589 1.65801,-5.98983 2.55389,-11.99553 2.62919,-17.91584 z m -1.32757,-16.491858 c -0.0202,-0.05164 -0.0426,-0.106873 -0.064,-0.158506 -0.15717,-0.377316 -0.31834,-0.755104 -0.48397,-1.130894 -0.0202,-0.04513 -0.042,-0.09026 -0.0597,-0.135831 L 156.0744,80.670628 C 150.19098,67.330923 139.63992,57.025646 126.09088,50.098191 98.558929,36.019333 58.647785,35.895294 20.378184,52.622062 -17.893151,69.349518 -44.811987,98.682945 -53.03273,128.3884 c -4.046442,14.61801 -3.565782,29.32548 2.31767,42.6651 l 1.56115,3.53996 c -0.05523,-0.12528 -0.10754,-0.25138 -0.160751,-0.37564 0.06061,0.14077 0.122135,0.28278 0.1841,0.42433 0.05972,0.13606 0.122136,0.26937 0.184101,0.4066 l -0.182304,-0.41414 c -0.248941,-0.56268 -0.482007,-1.12755 -0.710315,-1.69473 -0.02021,-0.0377 -0.02941,-0.0692 -0.04625,-0.10287 0.102602,0.25643 0.206777,0.5098 0.313287,0.76408 -0.02515,-0.0591 -0.04558,-0.11674 -0.07679,-0.17646 -0.0023,-0.0252 -0.02021,-0.0498 -0.02515,-0.0777 -0.07679,-0.18904 -0.156487,-0.37563 -0.232238,-0.56507 0.0023,0.0202 0.02021,0.044 0.02941,0.0694 -0.232999,-0.58249 -0.45868,-1.16594 -0.671002,-1.751 0.0023,0.0112 0.01796,0.0252 0.02021,0.0378 -0.228059,-0.62134 -0.441976,-1.24697 -0.648214,-1.8734 -0.0023,-0.006 -0.0023,-0.0112 -0.0023,-0.0202 -6.74e-4,-0.004 -0.0023,-0.004 -0.0023,-0.006 -0.192632,-0.5871 -0.372287,-1.17321 -0.543568,-1.76296 0.0023,0.004 0.0023,0.0112 0.0023,0.0112 -0.185897,-0.63774 -0.36434,-1.27644 -0.526079,-1.91825 -0.0023,-0.004 -0.0023,-0.004 -0.0023,-0.0112 -0.0011,-0.004 -0.0023,-0.0112 -0.0023,-0.0202 -0.09272,-0.36645 -0.180733,-0.73517 -0.264319,-1.10123 -0.01796,-0.0505 -0.02021,-0.1019 -0.02941,-0.15155 -0.03772,-0.1832 -0.08666,-0.36562 -0.125278,-0.5475 7.4e-4,0.004 0.0023,0.004 0.0023,0.004 -0.144587,-0.65346 -0.281944,-1.31068 -0.400756,-1.97071 -0.0023,0 -0.0023,-0.004 -0.0023,-0.004 -0.0023,-0.006 -0.0023,-0.018 -0.0023,-0.0252 -0.07162,-0.3953 -0.137178,-0.79269 -0.201613,-1.18961 -0.01796,-0.10481 -0.02941,-0.20834 -0.04558,-0.31077 -0.02515,-0.11742 -0.03772,-0.23052 -0.05478,-0.34846 5.84e-4,0.004 0.0023,0.004 0.0023,0.004 -0.101708,-0.6724 -0.193306,-1.34428 -0.272694,-2.02002 0.02941,0.28695 0.06871,0.57165 0.106648,0.85816 -0.03772,-0.29867 -0.07791,-0.5958 -0.116073,-0.89412 -0.04199,-0.3999 -0.08532,-0.80253 -0.122136,-1.20413 -0.01796,-0.15401 -0.02021,-0.30831 -0.03772,-0.46479 -0.0023,-0.0775 -0.01796,-0.15401 -0.02021,-0.23127 0,0 6.73e-4,0.001 0.0023,0.002 -0.05949,-0.6931 -0.109337,-1.38601 -0.144136,-2.08313 0,0 -2.48e-4,-0.002 -0.0023,-0.001 -1.35e-4,-0.006 -0.0011,-0.018 -0.0013,-0.0294 -0.02515,-0.39194 -0.02515,-0.78102 -0.04199,-1.17191 -0.0023,-0.20948 -0.0023,-0.41623 -0.01796,-0.62449 -0.0023,-0.0537 -0.0023,-0.1062 -0.0023,-0.1585 l 6.74e-4,0.002 c -0.01796,-0.71334 -0.02021,-1.42568 -0.0023,-2.14117 l -7.64e-4,-0.002 c -1.57e-4,-0.006 3.6e-4,-0.0202 0,-0.0294 0.0023,-0.36811 0.01796,-0.73459 0.02515,-1.10186 0.0023,-0.27858 0.02515,-0.55738 0.02941,-0.83539 0.0023,-0.0252 0.0023,-0.0494 0.0023,-0.0734 0.02941,-0.73852 0.07948,-1.47943 0.138973,-2.22016 v -0.0112 c 0.0023,-0.0512 0.0023,-0.10416 0.01796,-0.15604 0.321255,-3.88239 0.985791,-7.78627 1.974479,-11.69177 0.141668,-0.55983 0.289464,-1.12049 0.444019,-1.6796 8.21493,-29.69501 35.125256,-59.015505 73.381031,-75.736195 20.924184,-9.145468 42.337231,-13.251446 61.947615,-12.792998 4.579192,0.107655 9.061142,0.463368 13.414942,1.061455 11.112611,1.524326 21.398811,4.629195 30.367971,9.214631 6.7e-4,0.0025 7e-5,0.0049 -6.8e-4,0.0049 0.74637,0.381873 1.48314,0.776059 2.21117,1.178909 6.7e-4,-0.0025 -7e-5,-0.005 6.7e-4,-0.005 0.67174,0.371235 1.33453,0.75076 1.99173,1.13912 -6.8e-4,0.0025 -0.002,0.0049 -0.002,0.0074 0.68855,0.409344 1.3715,0.825596 2.04243,1.253398 -4e-5,-0.005 7.5e-4,-0.005 0.001,-0.0099 0,0 0.002,0.0013 0.002,0.0025 0.61694,0.393075 1.22656,0.795234 1.82747,1.206057 -7.5e-4,0.0025 -7.5e-4,0.0049 -10e-4,0.0099 0.63449,0.432938 1.2603,0.873994 1.87877,1.324751 -2e-5,-0.005 -1.2e-4,-0.0074 6.7e-4,-0.0099 7.4e-4,0.0025 0.002,0.0025 0.002,0.0049 0.56838,0.416327 1.13047,0.835589 1.68349,1.267291 4e-5,0.005 1.1e-4,0.0074 -7.4e-4,0.0099 0.5844,0.457053 1.15887,0.921087 1.72408,1.392971 v -0.01235 c 0.002,0.0013 0.002,0.0025 0.002,0.005 0.52358,0.435948 1.04028,0.876559 1.54774,1.326034 10e-4,0.005 10e-4,0.0099 -7.2e-4,0.01729 0.53662,0.477805 1.06179,0.962747 1.58073,1.454846 -7e-5,-0.0049 -0.002,-0.0099 -6.9e-4,-0.01729 6.9e-4,0.0025 0.002,0.0049 0.002,0.0049 0.48109,0.45663 0.95126,0.918371 1.41636,1.388552 6e-5,0.005 3e-4,0.0074 10e-4,0.01482 0.48944,0.496366 0.97043,1.003101 1.44303,1.515437 -0.002,-0.0074 -0.001,-0.01482 -0.002,-0.02223 6.8e-4,0.0025 0.002,0.0025 0.004,0.0049 0.43797,0.475585 0.86944,0.953762 1.29206,1.440331 10e-4,0.005 10e-4,0.01482 0.002,0.02223 0.44709,0.517052 0.88359,1.042965 1.31302,1.574183 -0.002,-0.0099 -0.002,-0.01729 -0.004,-0.02714 0.002,0.0049 0.002,0.0049 0.004,0.0049 0.40033,0.494172 0.78954,0.993129 1.17286,1.499024 0.002,0.0074 0.002,0.01729 0.002,0.02467 0.40532,0.535227 0.79931,1.081513 1.18548,1.631614 -0.002,-0.01122 -0.004,-0.02582 -0.006,-0.03862 7.2e-4,0.0023 0.002,0.0045 0.002,0.0089 0.3585,0.508095 0.70953,1.019625 1.05108,1.539485 0.002,0.01572 0.006,0.02829 0.0112,0.04243 0.36519,0.557017 0.71985,1.123486 1.06751,1.694782 -0.002,-0.02021 -0.0112,-0.03906 -0.018,-0.0559 0.002,0.0045 0.002,0.0045 0.004,0.0089 0.31956,0.524956 0.63205,1.05328 0.93495,1.589956 0.006,0.0247 0.018,0.04759 0.0202,0.07251 0.3317,0.584855 0.65051,1.179074 0.9629,1.778793 -0.018,-0.03906 -0.0294,-0.07925 -0.0422,-0.116073 0.002,0.0045 0.002,0.0089 0.006,0.01122 0.28778,0.552032 0.56845,1.113315 0.83919,1.677089 0.002,0.0045 0.002,0.01347 0.006,0.02021 0.0294,0.06623 0.0512,0.132688 0.0786,0.198919 0.23718,0.500349 0.47224,1.003977 0.69644,1.512297 z m -1.75003,7.482544 c -0.0766,-3.94759 -0.52296,-7.851867 -1.3574,-11.682844 -0.0335,-0.04625 -0.0655,-0.09475 -0.0992,-0.14077 -0.35848,-0.508095 -0.72024,-1.010174 -1.09483,-1.50473 1.75858,9.629544 1.11393,19.681062 -1.65741,29.694578 -8.22234,29.70619 -35.14034,59.03738 -73.410725,75.76653 -38.271233,16.72745 -78.18047836,16.6033 -105.71421,2.52521 -9.299663,-4.75495 -17.185839,-11.10472 -23.119941,-18.93313 0.116073,0.61894 0.241621,1.23251 0.376486,1.8488 0.0023,0.042 0.02515,0.0866 0.02515,0.12797 6.052061,8.57587 14.369773,15.47305 24.300363,20.55212 27.5359977,14.07622 67.445686,14.19833 105.715384,-2.52843 38.274433,-16.72733 65.192303,-46.05834 73.414603,-75.76449 1.84914,-6.68187 2.75076,-13.381696 2.62347,-19.961014 z m -1.86804,-15.73225 -1.58513,-3.594138 C 147.11834,60.36557 136.5667,50.059676 123.01765,43.132233 95.485709,29.053376 55.575182,28.929959 17.305552,45.656732 -20.965723,62.384189 -47.884693,91.717656 -56.10537,121.42307 c -4.046442,14.61803 -3.566478,29.32484 2.317019,42.66459 l 1.58578,3.59473 c -5.883452,-13.33969 -6.363978,-28.04722 -2.318343,-42.66708 8.220833,-29.705384 35.141779,-59.037632 73.411607,-75.764395 38.269626,-16.726795 78.180146,-16.604659 105.712057,-2.52578 13.54989,6.929239 24.10074,17.234616 29.98426,30.574341 z m -1.2033,11.21177 c 0.0663,-3.474335 -0.14975,-6.920295 -0.65903,-10.317647 -0.0294,-0.03682 -0.062,-0.07858 -0.0911,-0.115624 -0.40114,-0.496017 -0.80737,-0.983075 -1.2229,-1.466227 0.97088,8.436388 0.16726,17.143828 -2.234,25.821982 -2.87359,10.3787 -8.03189,20.71026 -15.15615,30.47834 -13.26468,18.18593 -33.35732,34.404 -58.255193,45.28627 -24.897962,10.88222 -50.49337,14.62842 -72.9204443,12.04468 -12.0421342,-1.38653 -23.1729257,-4.60022 -32.7931267,-9.51825 -8.058623,-4.11945 -15.053595,-9.4376 -20.639679,-15.8763 0,0 6.28e-4,0.004 -6.74e-4,0.004 0.07768,0.63942 0.16165,1.27395 0.260683,1.91071 0.0023,0.0418 0.0023,0.0795 0.02515,0.1199 5.785811,7.14608 13.247186,12.99047 21.947601,17.4379 27.53137467,14.07698 67.441947,14.20035 105.711626,-2.52645 v 0 c 38.266627,-16.72871 65.183787,-46.06157 73.406097,-75.76782 1.62109,-5.85537 2.51389,-11.724794 2.62415,-17.515394 z m -1.86802,-18.1753 -1.5851,-3.594773 C 144.04629,53.399613 133.49478,43.094246 119.94569,36.166809 92.413809,22.087944 52.503234,21.965793 14.233632,38.692568 c -38.271388,16.727439 -65.190874,46.0591 -73.411596,75.764482 -4.04651,14.61796 -3.565918,29.3255 2.318298,42.66708 l 1.585757,3.59415 c -5.884327,-13.34154 -6.364784,-28.04844 -2.318388,-42.66648 8.220767,-29.705364 35.141825,-59.037686 73.411684,-75.764436 38.269555,-16.726772 78.179542,-16.605263 105.711433,-2.526406 13.54909,6.927451 24.1006,17.233451 29.98487,30.574988 z m -1.20008,9.248039 c -0.018,-1.482773 -0.0874,-2.959484 -0.21014,-4.428877 -0.0294,-0.03143 -0.0606,-0.06646 -0.0911,-0.09856 -0.44427,-0.481468 -0.89644,-0.95537 -1.35681,-1.423255 0.35393,7.179453 -0.52872,14.518363 -2.55498,21.835083 -1.39631,5.051484 -3.33666,10.091844 -5.78042,15.059804 0.006,2.88085 -0.27072,5.56232 -0.73575,8.02623 3.55999,-6.38913 6.28735,-12.92958 8.10258,-19.489329 1.80436,-6.518925 2.70338,-13.055668 2.62663,-19.481117 z m -1.87183,-16.21407 -1.49441,-3.387672 c -0.0977,-0.221639 -0.19869,-0.441626 -0.29949,-0.661783 -0.0335,-0.07454 -0.0678,-0.149817 -0.10169,-0.226082 C 140.60859,46.08662 130.19148,36.010339 116.87528,29.201968 93.091739,17.040352 60.071053,15.295266 26.848948,25.829446 21.612935,27.487863 16.371787,29.451267 11.161913,31.728369 5.8070217,34.068847 0.67685467,36.655748 -4.2123633,39.455298 l 0.101257,0.226675 C -50.984543,66.524594 -75.593879,112.96429 -60.218267,149.48677 c 0.02021,0.0577 0.04558,0.11496 0.07611,0.17468 0.103505,0.24312 0.206777,0.48519 0.312903,0.72491 l 1.484975,3.3681 c -5.88352,-13.33974 -6.36355,-28.0472 -2.317064,-42.66518 8.219822,-29.707148 35.139848,-59.041444 73.409621,-75.768192 38.269656,-16.726769 78.180801,-16.602731 105.712752,-2.523862 13.54909,6.927435 24.1008,17.232732 29.98424,30.572467 z m -1.19758,10.097978 c 7.2e-4,-0.410141 -0.002,-0.820089 -0.006,-1.229382 -0.0335,-0.02936 -0.0597,-0.05725 -0.0901,-0.08787 -0.48751,-0.462581 -0.98197,-0.919951 -1.48559,-1.368955 -6.4e-4,-0.0025 -0.002,-0.0013 -0.002,-0.0025 -0.0925,5.858735 -0.98347,11.797731 -2.6241,17.72257 -1.05093,3.78966 -2.40382,7.57091 -4.04431,11.321631 0.41984,1.719863 0.73287,3.393143 0.94888,5.017983 1.93025,-4.21714 3.5004,-8.473764 4.68152,-12.740414 1.72392,-6.232566 2.6182,-12.479594 2.62727,-18.632462 z m -3.14044,-4.020381 c -0.0337,-0.02715 -0.0622,-0.05282 -0.0945,-0.08022 -0.53376,-0.442316 -1.07276,-0.880213 -1.62188,-1.311495 -0.002,-0.0013 -0.002,-0.0025 -0.006,-0.0049 -0.36184,4.475875 -1.17636,8.985128 -2.4218,13.485625 -0.95449,3.457387 -2.16754,6.904384 -3.61618,10.326524 0.5534,1.31721 1.03853,2.60985 1.464,3.88333 1.50395,-3.51781 2.75572,-7.06172 3.73925,-10.611922 1.44961,-5.239368 2.31387,-10.491108 2.55877,-15.686837 z m -3.43669,-2.668453 c -0.0335,-0.02467 -0.0655,-0.04912 -0.10018,-0.0733 -0.57851,-0.422717 -1.16543,-0.835317 -1.76082,-1.242066 -0.002,-0.005 -0.0112,-0.0099 -0.0202,-0.01235 -0.44098,3.035889 -1.07853,6.084142 -1.92068,9.124322 -8.22227,29.706015 -35.1395,59.038325 -73.410746,75.765695 -38.271189,16.72739 -78.181179,16.60332 -105.714865,2.52517 -2.826169,-1.44555 -5.520549,-3.044 -8.069535,-4.78378 -0.0015,0.0112 -0.0023,0.0252 -0.0023,0.0374 -0.102601,0.71159 -0.192632,1.42039 -0.273547,2.13111 -0.0023,0.0378 -0.0023,0.0703 -0.0023,0.10663 3.094777,2.25919 6.416962,4.30037 9.946576,6.10541 3.396499,1.72889 6.960463,3.2435 10.684168,4.54574 v -0.004 c 0.122808,0.0426 0.248401,0.0862 0.371479,0.12932 0.350106,0.11989 0.697651,0.2389 1.048566,0.3543 0.110011,0.0375 0.218674,0.0734 0.326284,0.1089 0.399902,0.13044 0.800928,0.25852 1.203816,0.38317 0.05972,0.0202 0.119666,0.0374 0.179162,0.0552 0.951665,0.29658 1.913635,0.5782 2.886675,0.84796 0.03772,0.0112 0.08307,0.0202 0.125279,0.0335 0.429313,0.11742 0.861276,0.2325 1.295933,0.34593 0.111808,0.0294 0.220248,0.0566 0.330887,0.0841 0.368112,0.095 0.735729,0.18724 1.105547,0.27901 0.134708,0.0335 0.27074,0.0662 0.404482,0.0988 0.351812,0.0824 0.705061,0.16659 1.05932,0.24764 0.141219,0.0335 0.284031,0.064 0.424913,0.0954 0.354731,0.0788 0.712268,0.15896 1.069423,0.23424 0.134932,0.0294 0.27074,0.0572 0.404909,0.0868 0.382727,0.0795 0.769159,0.15783 1.154446,0.23423 0.10844,0.0202 0.214185,0.0426 0.322535,0.0645 0.474351,0.0938 0.949914,0.18028 1.428463,0.26773 0.02515,0.004 0.03772,0.004 0.05456,0.0112 1.021422,0.18365 2.04794,0.35224 3.084606,0.50762 0.09766,0.0112 0.196224,0.0294 0.293641,0.0426 0.407019,0.0601 0.816778,0.11921 1.227345,0.17355 0.137177,0.0202 0.2769141,0.0374 0.4158202,0.0541 0.371861,0.0498 0.7455857,0.0965 1.1195117,0.14346 0.1540159,0.0225 0.3099623,0.0378 0.4633499,0.0552 0.3651927,0.0434 0.7313733,0.0849 1.0966112,0.12415 0.1564855,0.018 0.3103895,0.0335 0.4671215,0.0494 0.3773391,0.042 0.7556435,0.0775 1.1341502,0.11339 0.1416673,0.0112 0.2814945,0.0252 0.4257216,0.042 0.4235434,0.0378 0.8440784,0.0723 1.2698894,0.1075 0.09699,0.006 0.196,0.018 0.292362,0.0252 1.06913,0.0826 2.141156,0.15131 3.22225397,0.207 0.05703,0.004 0.113828,0.004 0.170854,0.006 0.46988397,0.0202 0.941608,0.0436 1.41449903,0.0597 0.134483,0.004 0.273255,0.0112 0.407019,0.018 0.396132,0.0112 0.793609,0.0252 1.191895,0.0378 0.161425,0.004 0.325836,0.006 0.490067,0.0112 0.374802,0.004 0.74994,0.0112 1.12719,0.018 0.171528,0 0.341753,0.004 0.511305,0.004 0.376913,0.004 0.753106,0.004 1.1304,0.004 0.165692,0 0.332123,-0.004 0.497724,0 0.39988,-0.004 0.799304,-0.004 1.19823,-0.0112 0.141421,0 0.285266,1.9e-4 0.42679,-0.004 0.473686,-0.006 0.947,-0.0202 1.4195255,-0.0335 0.06886,-0.004 0.137963,-0.004 0.205115,-0.004 1.1086628,-0.0335 2.2234478,-0.0795 3.3402558,-0.14346 0.118723,-0.004 0.240891,-0.0112 0.358498,-0.0202 0.427877,-0.0294 0.858372,-0.0525 1.289506,-0.0806 0.164119,-0.0112 0.330459,-0.0225 0.492245,-0.0335 0.389005,-0.0294 0.777614,-0.0566 1.165309,-0.0874 0.181654,-0.0112 0.363063,-0.0294 0.543434,-0.0446 0.37817,-0.0335 0.757572,-0.0649 1.136678,-0.0984 0.183629,-0.018 0.365631,-0.0335 0.549284,-0.0514 0.386957,-0.0378 0.774505,-0.0766 1.162051,-0.1163 0.172268,-0.018 0.342184,-0.0335 0.511844,-0.0541 0.421312,-0.0451 0.843906,-0.0938 1.268649,-0.14504 0.135987,-0.0112 0.271003,-0.0294 0.405342,-0.0451 1.134309,-0.1365 2.273034,-0.28737 3.412402,-0.45387 0.07158,-0.006 0.143643,-0.0202 0.214231,-0.0335 0.487334,-0.0719 0.976323,-0.14504 1.466569,-0.22295 0.158462,-0.0252 0.316243,-0.0514 0.473143,-0.0748 0.404503,-0.064 0.812017,-0.13179 1.217756,-0.20093 0.182641,-0.0335 0.368123,-0.0638 0.552518,-0.0965 0.383574,-0.0655 0.76421,-0.13247 1.147463,-0.20297 0.194496,-0.0337 0.390287,-0.0711 0.583543,-0.10799 0.379378,-0.0705 0.757817,-0.14212 1.13791,-0.21553 0.190051,-0.0377 0.381502,-0.0736 0.57219,-0.11383 0.396161,-0.0777 0.794742,-0.1594 1.19184,-0.23965 0.171528,-0.0374 0.340505,-0.0705 0.512386,-0.10663 0.455126,-0.095 0.908399,-0.19377 1.365029,-0.29367 0.111315,-0.0202 0.224848,-0.0487 0.337149,-0.0741 1.151438,-0.25641 2.30295,-0.526 3.45636,-0.81138 0.134753,-0.0335 0.269891,-0.0688 0.40322,-0.10287 0.43501,-0.10777 0.866268,-0.21845 1.300981,-0.33004 0.181653,-0.0471 0.364374,-0.0963 0.546126,-0.14345 0.388634,-0.10287 0.779909,-0.20656 1.169726,-0.31208 0.197459,-0.0537 0.394878,-0.11002 0.593686,-0.16435 0.375651,-0.10373 0.754584,-0.20834 1.130284,-0.31622 0.201905,-0.0552 0.402406,-0.11563 0.603288,-0.17332 0.38066,-0.11002 0.763841,-0.22093 1.144231,-0.33547 0.19252,-0.0562 0.384411,-0.11383 0.577247,-0.1722 0.40702,-0.12393 0.816287,-0.2489 1.22358,-0.37692 0.163873,-0.0498 0.328387,-0.0999 0.490592,-0.15154 0.514063,-0.16188 1.028918,-0.32584 1.542021,-0.49376 0.057,-0.018 0.111807,-0.0335 0.168564,-0.0525 0.583395,-0.19241 1.169825,-0.38566 1.753859,-0.58474 0.08244,-0.0294 0.164119,-0.0566 0.244838,-0.0831 0.48736,-0.16792 0.974941,-0.33506 1.463955,-0.50761 0.172269,-0.0602 0.345514,-0.12214 0.51779,-0.18231 0.399518,-0.14212 0.795829,-0.28735 1.194406,-0.43122 0.200177,-0.0721 0.40073,-0.14683 0.600056,-0.22093 0.373554,-0.13717 0.746268,-0.27899 1.120832,-0.41864 0.208303,-0.0781 0.417042,-0.15896 0.623477,-0.23794 0.368937,-0.13965 0.737975,-0.2836 1.10627,-0.42931 0.205339,-0.0812 0.411588,-0.16008 0.618467,-0.2419 0.380638,-0.1511 0.760707,-0.30412 1.140455,-0.45721 0.192025,-0.0775 0.383178,-0.15424 0.572779,-0.23301 0.423016,-0.17175 0.846154,-0.34801 1.266799,-0.52534 0.147842,-0.0624 0.292821,-0.12145 0.439385,-0.18364 0.572683,-0.24187 1.145145,-0.48787 1.717704,-0.73815 0.572585,-0.25014 1.143836,-0.50409 1.710048,-0.76025 0.142903,-0.0645 0.282776,-0.13 0.424644,-0.19376 0.420793,-0.19038 0.840108,-0.38192 1.256605,-0.57718 0.18363,-0.0845 0.368123,-0.17197 0.550567,-0.25812 0.374393,-0.17691 0.747725,-0.35304 1.120242,-0.53106 0.195977,-0.094 0.393198,-0.19107 0.588576,-0.28572 0.359337,-0.17444 0.720129,-0.34929 1.077071,-0.52466 0.196225,-0.0965 0.393619,-0.19376 0.589318,-0.2924 0.36183,-0.18186 0.72198,-0.36057 1.082799,-0.54432 0.184864,-0.0938 0.368517,-0.18724 0.553059,-0.2832 0.384413,-0.19802 0.765964,-0.3957 1.147512,-0.59478 0.155992,-0.0812 0.313306,-0.16276 0.468206,-0.24559 0.468798,-0.24804 0.937104,-0.49597 1.402472,-0.747 0.06392,-0.0335 0.126378,-0.0687 0.190791,-0.10287 0.545557,-0.2945 1.088747,-0.59471 1.629565,-0.89601 0.03356,-0.0202 0.07379,-0.0418 0.109337,-0.0615 0.487854,-0.27148 0.969585,-0.54697 1.45255,-0.82084 0.141414,-0.0812 0.278557,-0.16277 0.418594,-0.2409 0.380243,-0.21845 0.7577,-0.43938 1.133445,-0.65987 0.164367,-0.0977 0.331746,-0.19487 0.496586,-0.29283 0.350534,-0.20745 0.698141,-0.4162 1.045339,-0.62637 0.173254,-0.10417 0.346767,-0.20745 0.517816,-0.31246 0.342592,-0.20834 0.683969,-0.41788 1.021805,-0.62829 0.167596,-0.10373 0.336306,-0.2079 0.503146,-0.31334 0.35095,-0.21844 0.69845,-0.43972 1.04786,-0.6617 0.14908,-0.0952 0.30245,-0.19084 0.45076,-0.28778 0.389,-0.24804 0.77726,-0.49986 1.16269,-0.75271 0.10287,-0.0669 0.2088,-0.13672 0.3133,-0.20363 0.99548,-0.65596 1.98027,-1.31867 2.95146,-1.99214 0.0841,-0.0562 0.16142,-0.11384 0.24509,-0.16974 0.39448,-0.27397 0.78995,-0.55073 1.18043,-0.82971 0.13476,-0.0957 0.26431,-0.18904 0.39905,-0.28484 0.33843,-0.24312 0.67494,-0.48564 1.01239,-0.73056 0.14882,-0.10844 0.29948,-0.21756 0.44751,-0.32797 0.31835,-0.23423 0.63736,-0.47103 0.95471,-0.70724 0.14981,-0.11091 0.30202,-0.22581 0.4514,-0.33674 0.31708,-0.24064 0.63488,-0.4808 0.94828,-0.72168 0.1439,-0.10844 0.28529,-0.21755 0.42677,-0.32503 0.33339,-0.25781 0.66521,-0.51564 0.99779,-0.77575 0.117,-0.0925 0.23719,-0.18366 0.35388,-0.27773 0.39865,-0.31499 0.795464,-0.63375 1.189387,-0.95099 0.0494,-0.0378 0.0916,-0.0723 0.1387,-0.10777 0.89672,-0.72543 1.78084,-1.45826 2.65325,-2.20122 0.0975,-0.0837 0.19523,-0.16726 0.292,-0.25138 0.32918,-0.28026 0.65678,-0.56418 0.98124,-0.84677 0.12759,-0.1076 0.24923,-0.21958 0.37439,-0.3284 0.29657,-0.26184 0.59167,-0.52064 0.88612,-0.78362 0.13524,-0.11966 0.26598,-0.23964 0.39946,-0.35888 0.28529,-0.25893 0.56992,-0.51551 0.85129,-0.77479 0.13129,-0.11989 0.26233,-0.23967 0.39359,-0.36017 0.28905,-0.26688 0.57409,-0.53501 0.86074,-0.80319 0.117,-0.10956 0.23744,-0.22092 0.35265,-0.33129 0.31498,-0.29576 0.62661,-0.59424 0.93691,-0.89664 0.0832,-0.0819 0.17005,-0.16098 0.25343,-0.24311 0.80214,-0.77717 1.59165,-1.56184 2.36719,-2.3534 0.0494,-0.0494 0.0962,-0.0988 0.14562,-0.15042 0.33006,-0.33714 0.65896,-0.67561 0.9819,-1.01597 0.1,-0.10417 0.19672,-0.20947 0.29531,-0.31122 0.27409,-0.28866 0.54797,-0.57673 0.8157,-0.86698 0.11551,-0.12213 0.23002,-0.2431 0.3405,-0.36728 0.25481,-0.27357 0.50696,-0.54875 0.7561,-0.82655 0.11624,-0.12886 0.23323,-0.25558 0.34928,-0.3844 0.24838,-0.27526 0.49657,-0.55265 0.74341,-0.83165 0.11131,-0.12415 0.22164,-0.24847 0.3309,-0.37188 0.25677,-0.29493 0.51182,-0.58868 0.76638,-0.88395 l 0.27688,-0.32126 c 0.29909,-0.35181 0.59586,-0.70233 0.88994,-1.05384 0.0437,-0.0537 0.0868,-0.10351 0.13031,-0.15649 0.6889,-0.82514 1.36217,-1.65659 2.02147,-2.49043 0.0671,-0.0858 0.13352,-0.17333 0.20092,-0.25895 0.25397,-0.32544 0.50742,-0.64779 0.75733,-0.97365 0.0918,-0.12056 0.18362,-0.24087 0.27576,-0.36102 0.22337,-0.29447 0.44483,-0.58878 0.66539,-0.88215 0.1,-0.13246 0.19746,-0.26604 0.29531,-0.39782 0.212,-0.28734 0.42292,-0.57641 0.63175,-0.86252 0.0958,-0.13314 0.19252,-0.26606 0.28988,-0.39989 0.21176,-0.29618 0.4219,-0.59121 0.63117,-0.88847 0.0874,-0.12258 0.17425,-0.24719 0.26181,-0.36977 0.22657,-0.32417 0.4494,-0.65133 0.67237,-0.97618 0.0651,-0.0938 0.13031,-0.18859 0.19499,-0.28406 0.58059,-0.85788 1.1486,-1.71914 1.69804,-2.58511 0.0252,-0.042 0.0505,-0.0806 0.0766,-0.12236 0.2431,-0.38339 0.483,-0.76726 0.71994,-1.15233 0.0662,-0.10911 0.13449,-0.21666 0.20049,-0.32588 0.19533,-0.31703 0.38736,-0.63663 0.57846,-0.95407 0.0783,-0.13156 0.15491,-0.26502 0.23325,-0.396573 0.17691,-0.300363 0.35307,-0.598433 0.52583,-0.899186 0.0804,-0.138973 0.15895,-0.277663 0.23818,-0.416196 0.17154,-0.299969 0.34008,-0.598539 0.50689,-0.896619 0.0748,-0.13449 0.1511,-0.27149 0.22584,-0.40606 0.17265,-0.31367 0.34298,-0.62854 0.51186,-0.94271 0.0637,-0.11877 0.12819,-0.23545 0.19173,-0.35428 0.19533,-0.36683 0.38606,-0.73463 0.57533,-1.1031 0.0335,-0.0629 0.068,-0.12932 0.1019,-0.19376 0.45526,-0.88325 0.89213,-1.77145 1.31555,-2.66023 0.042,-0.0828 0.0768,-0.16793 0.11608,-0.25006 0.16591,-0.35401 0.33003,-0.70753 0.49161,-1.05954 0.0554,-0.12394 0.11181,-0.24787 0.16726,-0.37186 0.141,-0.31495 0.28238,-0.62992 0.41993,-0.94781 0.0613,-0.13695 0.11967,-0.27516 0.17916,-0.41171 1.55031,-3.599613 2.83608,-7.227743 3.84256,-10.859443 1.05235,-3.798938 1.79041,-7.605156 2.21498,-11.391778 z m -3.69099,-2.535867 c -0.0378,-0.02223 -0.0698,-0.04517 -0.10352,-0.06762 -0.62944,-0.400406 -1.26865,-0.790028 -1.91498,-1.174488 -0.006,-0.005 -0.018,-0.0099 -0.0202,-0.01482 -0.32374,1.540366 -0.6946,3.081596 -1.12081,4.62342 -8.22232,29.706042 -35.140331,59.037076 -73.410823,75.766326 -38.271133,16.72745 -78.180583,16.60336 -105.714069,2.52516 -1.435647,-0.7345 -2.834812,-1.51142 -4.201085,-2.3218 -0.0023,0.0112 -0.0023,0.0252 -0.0023,0.0418 -0.152219,0.73385 -0.298243,1.46445 -0.427764,2.19683 -0.0023,0.0378 -0.0023,0.0721 -0.02021,0.1075 1.998861,1.27658 4.08041,2.46897 6.239079,3.57396 27.536584,14.0778 67.447859,14.20193 105.717463,-2.52485 38.265619,-16.72938 65.183679,-46.06047 73.405969,-75.766481 0.64233,-2.320546 1.16609,-4.645781 1.57561,-6.964153 z m -0.82143,-28.731185 -1.58514,-3.594151 C 128.68802,18.578104 118.13632,8.2721848 104.58724,1.3447568 77.055314,-12.734115 37.144792,-12.857524 -1.1248153,3.8692508 -39.396329,20.596698 -66.315052,49.930271 -74.535796,79.635802 c -4.046441,14.617924 -3.566433,29.324618 2.317019,42.664348 l 1.585802,3.59479 c -0.02941,-0.0837 -0.07005,-0.16862 -0.10754,-0.25182 -0.09183,-0.21307 -0.184101,-0.42581 -0.274086,-0.64215 C -76.53167,111.8995 -76.907168,97.520766 -72.951071,83.22819 -64.730125,53.522698 -37.810751,24.191011 0.46071664,7.4635628 38.730349,-9.2632001 78.640253,-9.1410448 106.1722,4.9378058 119.722,11.867064 130.27358,22.172424 136.15713,35.512176 Z m -3.07129,-6.963531 -1.58512,-3.594785 C 125.61588,11.612132 115.06519,1.3085788 101.51531,-5.6206659 73.983392,-19.699547 34.072818,-19.821689 -4.1967813,-3.0949108 -42.468206,13.632528 -69.387669,42.964228 -77.608457,72.669745 c -4.045589,14.619772 -3.565873,29.325335 2.31841,42.666865 l 1.58578,3.5942 C -79.588572,105.58925 -80.069681,90.882486 -76.023307,76.264561 -67.802451,46.55902 -40.880854,17.226657 -2.6111153,0.49988074 35.658672,-16.226882 75.568506,-16.10538 103.10045,-2.0265142 c 13.54908,6.927438 24.10058,17.2334352 29.98491,30.5749902 z m -0.13605,33.300299 c -0.0378,-0.01976 -0.0732,-0.04197 -0.10845,-0.06318 -0.68346,-0.37686 -1.37278,-0.744737 -2.07229,-1.103778 -0.006,-0.0049 -0.0202,-0.01234 -0.0252,-0.01729 -8.22791,29.697739 -35.142131,59.020833 -73.405664,75.744903 -38.271206,16.72743 -78.180021,16.6046 -105.713686,2.5264 -6.28e-4,-0.002 -9.65e-4,-0.002 -0.0023,-0.001 -0.0023,0.0112 -0.0023,0.0294 -0.0023,0.0422 -0.207899,0.75562 -0.402844,1.51041 -0.584789,2.26751 -0.0023,0.0378 -0.01796,0.0719 -0.02515,0.10889 0.726501,0.40325 1.463666,0.79758 2.20923,1.17762 27.532294,14.07873 67.443507,14.2028 105.713109,-2.524 38.268579,-16.72758 65.18579,-46.060444 73.40813,-75.766549 0.22136,-0.79615 0.42718,-1.593777 0.6197,-2.392517 z M 130.01306,21.582424 128.42795,17.98953 C 122.54373,4.6479778 111.99283,-5.6573962 98.443759,-12.58483 70.911803,-26.663693 31.001425,-26.785297 -7.2689501,-10.060327 -45.540374,6.6671248 -72.459186,36.00007 -80.679952,65.705615 c -4.04642,14.617983 -3.565984,29.325421 2.318389,42.666825 l 1.584544,3.59293 C -82.660605,98.625685 -83.141332,83.918366 -79.094778,69.300387 -70.873316,39.596686 -43.953673,10.260601 -5.6838664,-6.466175 32.585813,-23.192948 72.496932,-23.068906 100.02892,-8.9900396 c 13.54906,6.9274394 24.10069,17.2327274 29.9842,30.5724636 z m -1.43725,38.020293 c -0.042,-0.01976 -0.0775,-0.0385 -0.11495,-0.05604 -0.75534,-0.356303 -1.52024,-0.70404 -2.29236,-1.039976 -9.67169,28.022634 -35.707731,55.121179 -71.904964,70.942139 -1.294712,0.56586 -2.59268,1.11138 -3.889491,1.63922 -2.29959,0.93359 -4.602981,1.80862 -6.90573,2.62235 -0.09156,0.0335 -0.184122,0.0626 -0.275764,0.0965 -32.683146,11.48521 -65.576231,11.00086 -90.078071,0.32463 -0.274378,0.79573 -0.537911,1.59285 -0.785077,2.38935 -0.01796,0.0377 -0.02515,0.0719 -0.02941,0.10911 27.435125,13.00882 66.271455,12.70786 103.551877,-3.58662 37.272199,-16.29106 63.77334,-44.538594 72.72762,-73.440781 z m -1.68407,-45.096858 -1.53565,-3.481756 c -0.16733,-0.379447 -0.33924,-0.756717 -0.51505,-1.1302838 -0.0471,-0.10287 -0.0946,-0.201568 -0.1434,-0.3037298 -0.13352,-0.2816068 -0.27017,-0.5634308 -0.40912,-0.8448796 -0.0494,-0.1033648 -0.1019,-0.2048468 -0.15303,-0.3081668 -0.174,-0.3484912 -0.35139,-0.6975172 -0.53475,-1.0418642 -0.0124,-0.01729 -0.0173,-0.03637 -0.0252,-0.05104 -0.19449,-0.36543 -0.39155,-0.727686 -0.5925,-1.087967 -0.0494,-0.09284 -0.1019,-0.180576 -0.15377,-0.272696 -0.15352,-0.27286 -0.30952,-0.544374 -0.46875,-0.817097 -0.059,-0.09993 -0.11699,-0.198065 -0.17424,-0.298589 -0.18586,-0.312934 -0.37148,-0.62177 -0.56269,-0.930126 -0.0198,-0.03722 -0.0494,-0.07849 -0.0723,-0.117374 -0.21793,-0.348576 -0.43878,-0.694049 -0.66222,-1.038093 -0.0546,-0.08105 -0.10588,-0.161469 -0.1597,-0.241854 -0.17399,-0.264204 -0.35094,-0.528569 -0.53149,-0.791821 -0.0664,-0.0965 -0.13008,-0.190163 -0.19671,-0.286667 -0.19623,-0.282271 -0.39276,-0.56201703 -0.59359,-0.84233006 -0.0378,-0.05286 -0.074,-0.104506 -0.1128,-0.15918 -0.24064,-0.33234403 -0.48405,-0.66296706 -0.73133,-0.99010509 -0.0546,-0.06809 -0.10287,-0.13454997 -0.15501,-0.20275697 -0.19745,-0.260202 -0.39739,-0.51729798 -0.59872,-0.77350598 -0.0721,-0.09203 -0.14265,-0.182057 -0.21595,-0.271517 -0.20609,-0.2584409 -0.41455,-0.5157279 -0.62736,-0.7716147 -0.0494,-0.060327 -0.0975,-0.1217534 -0.14982,-0.1812045 -0.26263,-0.3160715 -0.5298,-0.6287305 -0.79854,-0.9421101 -0.0494,-0.05285 -0.095,-0.1055884 -0.14314,-0.1603473 -0.22289,-0.2554261 -0.44914,-0.5098891 -0.67618,-0.7615142 -0.0758,-0.083901 -0.15278,-0.166858 -0.2288,-0.2525749 -0.21966,-0.2396316 -0.44153,-0.4785269 -0.6641,-0.7167015 -0.0605,-0.062347 -0.12045,-0.1272763 -0.1819,-0.1913075 -0.2853,-0.299846 -0.57288,-0.5980823 -0.86392,-0.890946 -0.0378,-0.038482 -0.0757,-0.075054 -0.11379,-0.1123463 -0.25174,-0.2536907 -0.50747,-0.504063 -0.76307,-0.7539414 -0.0809,-0.079321 -0.16143,-0.1567775 -0.24311,-0.2336597 -0.2325,-0.2231209 -0.46713,-0.4456245 -0.70343,-0.6649153 -0.0704,-0.066883 -0.13969,-0.1314299 -0.21175,-0.1977285 -0.30618,-0.2817302 -0.6142,-0.563184 -0.92605,-0.8404464 -0.0198,-0.018859 -0.0437,-0.036798 -0.063,-0.054759 -0.28739,-0.255507 -0.57884,-0.5067464 -0.87093,-0.7558234 -0.0832,-0.072 -0.17079,-0.144609 -0.25314,-0.214702 -0.24508,-0.209021 -0.49222,-0.414917 -0.74279,-0.619444 -0.0799,-0.0646 -0.1592,-0.131768 -0.23916,-0.19636 -0.64818,-0.526563 -1.30618,-1.042232 -1.97586,-1.546401 -0.0862,-0.06621 -0.17327,-0.129633 -0.26097,-0.195123 -0.26066,-0.193733 -0.52001,-0.38601 -0.78399,-0.575871 -0.0894,-0.06493 -0.17648,-0.128243 -0.26486,-0.191308 -0.6842,-0.491243 -1.38028,-0.973306 -2.08746,-1.441583 -0.0883,-0.05844 -0.17671,-0.115511 -0.26656,-0.173637 -0.27324,-0.181587 -0.54806,-0.357822 -0.82528,-0.535509 -0.0952,-0.06216 -0.19276,-0.124088 -0.2899,-0.185672 -0.3338,-0.209358 -0.66803,-0.417677 -1.00535,-0.623235 -0.0252,-0.01639 -0.0494,-0.02968 -0.0735,-0.04614 -0.367713,-0.224724 -0.738876,-0.4434 -1.111291,-0.661747 -0.0883,-0.04966 -0.17771,-0.102042 -0.26432,-0.152804 -0.28949,-0.167935 -0.57952,-0.333976 -0.8696,-0.495045 -0.10416,-0.06032 -0.20706,-0.119305 -0.31244,-0.177522 -0.32587,-0.180149 -0.65648,-0.360454 -0.98637,-0.536738 -0.0494,-0.026 -0.0975,-0.05476 -0.14759,-0.08078 -0.38486,-0.204352 -0.76984,-0.406384 -1.15831,-0.606832 -0.0845,-0.04143 -0.1693,-0.0839 -0.25229,-0.125682 -0.31417,-0.16147 -0.62879,-0.315861 -0.94451,-0.472337 -0.10835,-0.05393 -0.21719,-0.107207 -0.32502,-0.159718 -0.34634,-0.167061 -0.69412,-0.334979 -1.04408,-0.498236 -0.0494,-0.02294 -0.10287,-0.04966 -0.155,-0.07261 -0.40282,-0.187625 -0.81071,-0.373171 -1.21913,-0.556289 -0.0926,-0.04017 -0.1866,-0.08103 -0.27829,-0.121237 -0.32254,-0.1427 -0.64421,-0.283614 -0.97048,-0.422358 -0.11353,-0.04813 -0.22509,-0.09659 -0.33799,-0.144564 -0.36851,-0.155138 -0.73868,-0.30963 -1.1094,-0.461589 -0.0494,-0.01751 -0.0901,-0.03682 -0.13524,-0.05538 -0.41828,-0.168025 -0.8392,-0.334731 -1.26287,-0.498185 -0.1,-0.03891 -0.20338,-0.07566 -0.30285,-0.114344 -0.32962,-0.126514 -0.66077,-0.250564 -0.99456,-0.373173 -0.11625,-0.04257 -0.23324,-0.08655 -0.35095,-0.128174 -0.39322,-0.144362 -0.786571,-0.284575 -1.18429,-0.422365 -0.03357,-0.01257 -0.06639,-0.02294 -0.10018,-0.03639 -0.433282,-0.148246 -0.868662,-0.295614 -1.306044,-0.440151 -0.108347,-0.03722 -0.219417,-0.0715 -0.326688,-0.106691 -0.337557,-0.110191 -0.67663,-0.219506 -1.018029,-0.325865 -0.119215,-0.03722 -0.239162,-0.07512 -0.361014,-0.11302 -0.419186,-0.128488 -0.837855,-0.254782 -1.261022,-0.379488 -0.0198,-0.0054 -0.04369,-0.01436 -0.06273,-0.01751 -0.445924,-0.129971 -0.896383,-0.25777 -1.34667,-0.381452 -0.117735,-0.03222 -0.233241,-0.06478 -0.350108,-0.09591 -0.345117,-0.09389 -0.693518,-0.188388 -1.040885,-0.279058 -0.123909,-0.02968 -0.246813,-0.0632 -0.371874,-0.09539 -0.448586,-0.115759 -0.898157,-0.22902 -1.349826,-0.339035 -0.0025,-0.0014 -0.0025,-0.0017 -0.01235,-0.0043 -0.459023,-0.111045 -0.92017,-0.217397 -1.383417,-0.324609 -0.123415,-0.0271 -0.246814,-0.05393 -0.3698,-0.08278 -0.352621,-0.07757 -0.707343,-0.156172 -1.063152,-0.232376 -0.125391,-0.02542 -0.251726,-0.05255 -0.379007,-0.07894 -0.930143,-0.193262 -1.86806,-0.379362 -2.811901,-0.549325 -0.12786,-0.02418 -0.258982,-0.04466 -0.388585,-0.06825 -0.36183,-0.06486 -0.723388,-0.125032 -1.085933,-0.187447 -0.126378,-0.02043 -0.254811,-0.04257 -0.383154,-0.06251 -0.478645,-0.07894 -0.957047,-0.155318 -1.439322,-0.226006 -0.01235,-0.0025 -0.01976,-0.0041 -0.03356,-0.0054 -0.467712,-0.07076 -0.937622,-0.135651 -1.408123,-0.200782 -0.134752,-0.01752 -0.270187,-0.03637 -0.405367,-0.0515 -0.367261,-0.04922 -0.73743,-0.09533 -1.107454,-0.141444 -0.128108,-0.01504 -0.259015,-0.03137 -0.389037,-0.0487 -0.486198,-0.05855 -0.974151,-0.113445 -1.464669,-0.165442 -0.03356,-0.0043 -0.07009,-0.0083 -0.101934,-0.01033 -0.455669,-0.04813 -0.912447,-0.0949 -1.369399,-0.137582 -0.13895,-0.01077 -0.279123,-0.02294 -0.418301,-0.03891 -0.377749,-0.03474 -0.758186,-0.06689 -1.137344,-0.09596 -0.12685,-0.01033 -0.256488,-0.02201 -0.383179,-0.02928 -0.497083,-0.03848 -0.995351,-0.07351 -1.495669,-0.106012 -0.05454,-0.005 -0.104151,-0.007 -0.155004,-0.01077 -0.447546,-0.02928 -0.893885,-0.05288 -1.342866,-0.07764 -0.145372,-0.0083 -0.291142,-0.01279 -0.436662,-0.02178 -0.384438,-0.02043 -0.769099,-0.03682 -1.155041,-0.05162 -0.128601,-0.0043 -0.25898,-0.01213 -0.387767,-0.01504 -0.504759,-0.01751 -1.010061,-0.03137 -1.514724,-0.04511 -0.06811,-3e-4 -0.136976,-0.0017 -0.204599,-0.0043 -0.438786,-0.01033 -0.881965,-0.01639 -1.32127,-0.0193 -0.148089,-0.0027 -0.298249,-0.0043 -0.445869,-0.0043 -0.393645,-0.0036 -0.787757,-0.0043 -1.183594,-0.0043 -0.125391,2.83e-4 -0.252295,1.22e-4 -0.379009,0.0014 -0.510732,0.0027 -1.023463,0.0083 -1.535629,0.01504 -0.08442,1.73e-4 -0.167329,0.0043 -0.251452,0.0054 -0.432739,0.0079 -0.867033,0.01707 -1.3016,0.02928 l -0.458947,0.01257 c -0.399914,0.01459 -0.801135,0.02709 -1.204578,0.04358 -0.122674,0.0054 -0.248369,0.01033 -0.371429,0.01504 -0.518385,0.02294 -1.035165,0.04764 -1.553967,0.07708 -0.09699,0.005 -0.192026,0.01257 -0.289489,0.01639 -0.427359,0.02467 -0.856591,0.05341 -1.287037,0.07956 -0.154756,0.01257 -0.309109,0.02043 -0.463836,0.03222 -0.410774,0.02709 -0.822237,0.05844 -1.233183,0.09088 -0.119216,0.0093 -0.240891,0.01752 -0.360174,0.0271 -0.523246,0.04466 -1.046395,0.08929 -1.571145,0.138906 -0.108349,0.0093 -0.212254,0.02178 -0.321673,0.02968 -0.423041,0.04207 -0.848941,0.08305 -1.273709,0.130038 -0.158214,0.01707 -0.317082,0.03222 -0.474795,0.05164 -0.417437,0.04614 -0.836726,0.0927 -1.255248,0.141443 -0.116253,0.01257 -0.232499,0.026 -0.350525,0.04057 -0.527689,0.06392 -1.054933,0.129476 -1.582572,0.197728 -0.118723,0.01459 -0.23546,0.03473 -0.353906,0.0487 -0.419167,0.05538 -0.839046,0.113827 -1.259666,0.174222 -0.160191,0.02467 -0.320859,0.04764 -0.478646,0.07067 -0.429014,0.06201 -0.856742,0.127478 -1.285828,0.193845 -0.108597,0.01751 -0.218676,0.03473 -0.327547,0.05152 -0.532527,0.08565 -1.063671,0.170203 -1.597109,0.262745 -0.125391,0.02043 -0.249776,0.0441 -0.37691,0.06513 -0.415808,0.07133 -0.832454,0.145463 -1.248263,0.220921 -0.16266,0.02968 -0.32503,0.05968 -0.488395,0.08969 -0.436021,0.08008 -0.872661,0.163222 -1.309301,0.250059 -0.105141,0.02043 -0.206821,0.04017 -0.311206,0.05968 -0.534179,0.10357 -1.069322,0.214208 -1.604168,0.324648 -0.131789,0.02709 -0.264857,0.05727 -0.398212,0.08525 -0.412451,0.08716 -0.826973,0.174986 -1.239401,0.266514 -0.164389,0.03513 -0.327547,0.07154 -0.491111,0.108553 -0.447522,0.100202 -0.892528,0.201769 -1.339655,0.306283 -0.09748,0.02043 -0.190791,0.04257 -0.285713,0.06619 -0.536353,0.123954 -1.073147,0.254501 -1.609253,0.3871 -0.141915,0.03473 -0.283613,0.07175 -0.424718,0.105432 -0.407834,0.102397 -0.815968,0.207562 -1.226714,0.311263 -0.165129,0.04207 -0.328386,0.08675 -0.493309,0.128848 -0.458999,0.120294 -0.919751,0.244124 -1.378332,0.36874 -0.08318,0.02294 -0.165601,0.04466 -0.248123,0.06755 -0.537462,0.146112 -1.074332,0.297958 -1.6124366,0.450795 -0.147347,0.04257 -0.2957567,0.08442 -0.4420667,0.128825 -0.404479,0.118252 -0.809798,0.234129 -1.214079,0.356776 -0.166117,0.0487 -0.331323,0.09962 -0.497675,0.148381 -0.467717,0.1416 -0.938117,0.284741 -1.405687,0.430671 -0.07476,0.02294 -0.149077,0.04511 -0.222718,0.06877 -0.536855,0.167576 -1.074294,0.339707 -1.60978,0.515198 -0.156037,0.0487 -0.309177,0.100115 -0.462743,0.152129 -0.40116,0.129904 -0.800029,0.264921 -1.199506,0.398437 -0.166812,0.05543 -0.33421,0.112481 -0.500417,0.171797 -0.484566,0.16623 -0.965675,0.330798 -1.45010606,0.50138 -0.05658,0.02043 -0.115624,0.04017 -0.175345,0.05912 -0.53528397,0.18839 -1.07128497,0.383713 -1.60733294,0.579006 -0.159629,0.05912 -0.319572,0.117712 -0.479649,0.176758 -0.394896,0.144363 -0.789366,0.293358 -1.185541,0.44263 -0.165915,0.0643 -0.335894,0.126963 -0.504234,0.191914 -0.496578,0.188748 -0.994008,0.382793 -1.491215,0.578399 -0.037716,0.01594 -0.085094,0.03222 -0.1264004,0.0487 -0.533645,0.209314 -1.0660106,0.424849 -1.5978585,0.64218 -0.1650175,0.06787 -0.3321226,0.136032 -0.4982398,0.204554 -0.3886097,0.158775 -0.7769719,0.32059 -1.1652222,0.483694 -0.1686094,0.07166 -0.3396657,0.141713 -0.5080049,0.213445 -0.5127427,0.217755 -1.0259127,0.437165 -1.5381389,0.661116 -0.02515,0.01033 -0.03772,0.01752 -0.06286,0.0271 -0.02515,0.01033 -0.04199,0.01886 -0.06534,0.02709 -0.512159,0.223885 -1.01994,0.450141 -1.526822,0.678167 -0.170855,0.07663 -0.338813,0.154375 -0.507445,0.230525 -0.382323,0.173392 -0.761458,0.347823 -1.138527,0.523497 -0.164793,0.07648 -0.331336,0.153882 -0.496466,0.230523 -0.518535,0.243828 -1.036352,0.487548 -1.55161,0.73437 -0.04715,0.02294 -0.09699,0.04664 -0.14728,0.07077 -0.47224,0.227932 -0.94163,0.45668 -1.411962,0.688272 -0.164119,0.0826 -0.332144,0.166836 -0.495926,0.249528 -0.3702,0.183314 -0.739232,0.368656 -1.106198,0.555083 -0.158955,0.08237 -0.318315,0.163199 -0.477562,0.243581 -0.502729,0.258554 -1.002113,0.515763 -1.500824,0.779184 -0.06848,0.03682 -0.137177,0.07266 -0.207001,0.109943 -0.435335,0.231415 -0.870936,0.463193 -1.304672,0.698343 -0.161649,0.08801 -0.325859,0.177119 -0.490156,0.265876 -0.358907,0.195842 -0.716444,0.390783 -1.073936,0.590388 -0.15222,0.08404 -0.304126,0.167375 -0.454123,0.250646 -0.485576,0.2709315 -0.970637,0.5458252 -1.451274,0.8208648 -0.08487,0.049662 -0.167487,0.098943 -0.253408,0.1472356 -0.405313,0.2334126 -0.810896,0.4696496 -1.212931,0.7059518 -0.158955,0.095395 -0.320874,0.1874908 -0.480548,0.2835262 -0.34676,0.2059457 -0.695317,0.4142511 -1.040213,0.6213329 -0.146157,0.087426 -0.287781,0.1715503 -0.432861,0.2608459 -0.468873,0.2850753 -0.936826,0.5721219 -1.401769,0.8619277 -0.09272,0.057857 -0.183652,0.1152874 -0.274938,0.1724035 -0.382324,0.2385944 -0.763928,0.476394 -1.142547,0.7198425 -0.154016,0.100065 -0.311624,0.1993226 -0.465753,0.2993004 -0.33715,0.2165877 -0.675109,0.435847 -1.010487,0.6560651 -0.135831,0.089513 -0.271009,0.1769835 -0.406571,0.2664609 -0.451563,0.2990468 -0.903529,0.5983944 -1.350422,0.8997985 -0.09857,0.06906 -0.200266,0.1348875 -0.29784,0.2039477 -0.358479,0.2432103 -0.716802,0.4862232 -1.072027,0.7324823 -0.148403,0.104129 -0.299522,0.207809 -0.450036,0.311889 -0.329225,0.2279319 -0.655353,0.4591089 -0.981346,0.6882759 -0.12685,0.09227 -0.255069,0.181204 -0.381897,0.270904 -0.434904,0.31142398 -0.867293,0.62145595 -1.297662,0.93517498 -0.106196,0.07662 -0.20992,0.154308 -0.315823,0.231118 -0.335894,0.24860603 -0.670687,0.49479106 -1.004157,0.74447209 -0.145933,0.109023 -0.291552,0.218226 -0.436879,0.32715803 -0.317911,0.238644 -0.634003,0.478877 -0.948882,0.720484 -0.117869,0.09072 -0.237422,0.179072 -0.354304,0.270935 -0.419704,0.321888 -0.834514,0.646367 -1.247708,0.969885 -0.106195,0.08525 -0.211267,0.167959 -0.317103,0.253119 -0.31791,0.25161 -0.63564,0.503209 -0.949061,0.757105 -0.138973,0.11302 -0.279406,0.226178 -0.418649,0.339079 -0.309131,0.25002 -0.61503,0.50037 -0.919672,0.752685 -0.10844,0.0909 -0.221145,0.180665 -0.329204,0.27349 -0.40071,0.33113 -0.797672,0.665185 -1.190479,1.00147 -0.107767,0.0927 -0.215308,0.18502 -0.324153,0.275957 -0.299545,0.256423 -0.595542,0.511616 -0.892394,0.769088 -0.132686,0.116431 -0.265149,0.232745 -0.398218,0.349165 -0.299501,0.263151 -0.598641,0.525759 -0.893741,0.7911852 -0.09946,0.08863 -0.19847,0.1750978 -0.297861,0.2639528 -0.382324,0.3426758 -0.761391,0.6862866 -1.138573,1.0330334 -0.106863,0.09638 -0.20992,0.1953038 -0.316653,0.2918098 -0.283179,0.260141 -0.564605,0.52372 -0.84354,0.784256 -0.12685,0.118768 -0.252286,0.240619 -0.380617,0.359369 -0.28951,0.273908 -0.575921,0.550933 -0.863275,0.825934 -0.08778,0.08396 -0.178264,0.171146 -0.266833,0.255168 -0.363106,0.353594 -0.722192,0.707393 -1.081458,1.061465 -0.105291,0.102537 -0.209245,0.208304 -0.311196,0.31193 -0.266565,0.263659 -0.53039,0.53021 -0.792239,0.79624 -0.121238,0.122202 -0.238905,0.242914 -0.358503,0.364386 -0.283177,0.290221 -0.561911,0.579444 -0.840374,0.870123 -0.07701,0.07919 -0.151771,0.157675 -0.230508,0.236794 -0.344694,0.362754 -0.68692,0.724901 -1.025036,1.089229 -0.102601,0.107272 -0.20049,0.217441 -0.299478,0.32586 -0.250915,0.270018 -0.499249,0.541056 -0.747359,0.813939 -0.113603,0.1231 -0.224603,0.245828 -0.334232,0.371874 -0.274916,0.303981 -0.54514,0.608573 -0.815678,0.913074 -0.06534,0.07391 -0.127524,0.144002 -0.192857,0.217822 -0.326284,0.369993 -0.648169,0.742813 -0.969896,1.115127 -0.09699,0.111381 -0.190386,0.224019 -0.285266,0.337198 -0.23547,0.276167 -0.469367,0.551249 -0.700795,0.827824 -0.103495,0.123347 -0.208123,0.249142 -0.312027,0.372584 -0.266565,0.322264 -0.532546,0.641616 -0.79408,0.966097 -0.04558,0.06284 -0.102602,0.122742 -0.152221,0.185673 -0.307874,0.379236 -0.610652,0.760882 -0.912173,1.141639 -0.09183,0.113604 -0.179386,0.230523 -0.271571,0.344181 -0.219574,0.282232 -0.437486,0.563244 -0.655893,0.844866 -0.0952,0.126199 -0.191958,0.249017 -0.285266,0.374467 -0.26012,0.33933 -0.516828,0.678322 -0.771268,1.019148 -0.02941,0.05069 -0.07566,0.09952 -0.114503,0.150918 -0.285669,0.385134 -0.570172,0.773221 -0.850544,1.159946 -0.08509,0.119486 -0.171079,0.239657 -0.256753,0.359953 -0.206777,0.284741 -0.40702,0.569713 -0.609036,0.854954 -0.08913,0.125234 -0.176018,0.249979 -0.261805,0.374469 -0.253408,0.359828 -0.502752,0.722237 -0.748459,1.087326 -0.02021,0.03474 -0.04558,0.06634 -0.06983,0.09986 -0.26598,0.393625 -0.530411,0.788178 -0.78914,1.182681 -0.07903,0.121079 -0.160752,0.24316 -0.237176,0.36372 -0.191959,0.291684 -0.38064,0.581779 -0.568377,0.87391 -0.07791,0.122988 -0.158281,0.246344 -0.236681,0.369364 -0.24683,0.391575 -0.491661,0.779998 -0.732563,1.173199 -0.0023,0.01572 -0.02515,0.02968 -0.02515,0.04764 -0.243102,0.394631 -0.48158,0.790946 -0.719249,1.187106 -0.07206,0.120293 -0.146383,0.243506 -0.21688,0.365518 -0.176018,0.29792 -0.35015,0.594589 -0.521701,0.892848 -0.06983,0.121438 -0.14032,0.243506 -0.211266,0.364928 -0.230529,0.403873 -0.457131,0.803702 -0.68124,1.209209 -0.01796,0.02717 -0.02515,0.05611 -0.04199,0.08271 -0.210145,0.379779 -0.416629,0.76023 -0.621745,1.139745 -0.06489,0.123773 -0.133585,0.248809 -0.19847,0.372585 -0.160077,0.301474 -0.317079,0.604072 -0.473924,0.904226 -0.06309,0.120564 -0.125278,0.241286 -0.186121,0.361165 -0.209246,0.40739 -0.41454,0.813448 -0.615907,1.219954 -0.02515,0.04257 -0.04199,0.08379 -0.06286,0.126918 -0.182306,0.370032 -0.360995,0.739577 -0.538113,1.109446 -0.05815,0.125323 -0.116972,0.250985 -0.176917,0.376978 -0.146157,0.305907 -0.289038,0.615078 -0.426754,0.922555 -0.05478,0.114658 -0.106195,0.230747 -0.160526,0.34728 -0.186122,0.410147 -0.367686,0.823203 -0.549272,1.233831 -0.02021,0.05476 -0.04199,0.105905 -0.06623,0.158507 -0.158282,0.363469 -0.311647,0.725273 -0.463215,1.087965 -0.05478,0.126873 -0.103505,0.253134 -0.156485,0.380168 -0.12932,0.312023 -0.255093,0.622712 -0.378978,0.934513 -0.04199,0.113289 -0.09183,0.226082 -0.135382,0.337887 -0.163221,0.413661 -0.323366,0.828088 -0.478975,1.242661 -0.02515,0.06244 -0.04199,0.125885 -0.06982,0.188075 -0.131789,0.356423 -0.263196,0.710873 -0.390698,1.067766 -0.04199,0.125884 -0.08733,0.252072 -0.133585,0.376317 -0.111808,0.317576 -0.22137,0.633647 -0.328822,0.950952 -0.02941,0.109091 -0.07611,0.217194 -0.111807,0.326484 -0.137626,0.415709 -0.275185,0.832799 -0.40702,1.248362 -0.02021,0.06985 -0.04199,0.141667 -0.06489,0.212255 -0.111807,0.34944 -0.217104,0.698953 -0.322917,1.050711 -0.02941,0.124403 -0.07522,0.251233 -0.110011,0.37506 -0.09452,0.323004 -0.187693,0.644505 -0.279114,0.968003 -0.02515,0.103161 -0.05726,0.207316 -0.08689,0.311431 -0.112033,0.412994 -0.224065,0.824904 -0.330507,1.237601 -0.02021,0.07084 -0.02941,0.147843 -0.05523,0.220899 -0.08733,0.34112 -0.172426,0.681972 -0.253409,1.022921 -0.02515,0.130307 -0.06197,0.256686 -0.0916,0.386486 -0.07207,0.306864 -0.143913,0.612864 -0.20992,0.921282 -0.02021,0.114771 -0.05478,0.228055 -0.07656,0.344726 -0.08936,0.411388 -0.176018,0.824012 -0.257337,1.236366 -0.01796,0.0511 -0.02021,0.103903 -0.02515,0.156732 -0.07162,0.360227 -0.137178,0.722845 -0.203634,1.082898 -0.02515,0.126873 -0.04199,0.251971 -0.06712,0.380119 -0.05658,0.303579 -0.105291,0.607137 -0.154689,0.909928 -0.02021,0.121439 -0.03772,0.241632 -0.0577,0.360496 -0.06489,0.411688 -0.127522,0.823126 -0.1841,1.235108 -0.0023,0.01976 -0.0023,0.04147 -0.0023,0.05774 -0.05523,0.392263 -0.103505,0.783784 -0.150873,1.174491 -0.01796,0.12539 -0.02515,0.248317 -0.04199,0.371873 -0.02941,0.302916 -0.06668,0.603337 -0.09946,0.902969 -0.0023,0.124156 -0.02515,0.247086 -0.02941,0.371334 -0.02941,0.388607 -0.07185,0.77613 -0.101934,1.163726 -0.0023,0.02467 -0.0023,0.04813 -0.0023,0.07059 -0.02515,0.409861 -0.05815,0.817993 -0.08195,1.226899 -0.0023,0.119666 -0.01796,0.237198 -0.02021,0.356773 -0.01796,0.301499 -0.02515,0.600977 -0.03771,0.902295 -0.0023,0.127524 -0.0023,0.251343 -0.01796,0.378866 -0.01796,0.354327 -0.02515,0.70926 -0.02515,1.06271 -0.0023,0.05478 -0.0023,0.111359 -0.0023,0.166139 -0.0023,0.407603 -0.0023,0.811346 -0.0023,1.217399 0,0.114278 1.79e-4,0.22732 0.0023,0.340991 0.0023,0.301296 0.0023,0.602929 0.01796,0.902947 0.0023,0.128421 0.0023,0.255428 0.0023,0.383266 0.0023,0.333154 0.02515,0.665277 0.03772,0.997039 0.0023,0.07679 0.0023,0.151097 0.0023,0.225344 0.02021,0.402933 0.04199,0.805933 0.07005,1.207318 0.0023,0.106873 0.02021,0.211491 0.02021,0.316362 0.02515,0.304439 0.04199,0.607082 0.07431,0.913049 0.0023,0.12685 0.02021,0.252667 0.02941,0.380796 0.02515,0.316383 0.06466,0.632745 0.097,0.94713 0.0023,0.0907 0.02515,0.179386 0.02515,0.270269 0.04199,0.398242 0.09609,0.798031 0.151321,1.196542 0.0023,0.09452 0.02515,0.189264 0.03772,0.282887 0.03771,0.308524 0.08913,0.619319 0.137626,0.926946 0.02021,0.125278 0.03772,0.250377 0.06152,0.37754 0.04558,0.303358 0.102601,0.607398 0.157158,0.910518 0.01796,0.099 0.02941,0.19891 0.05478,0.29738 0.07229,0.39481 0.151546,0.78951 0.232505,1.18269 0.01796,0.0793 0.02941,0.16076 0.05478,0.24113 0.06691,0.31493 0.135831,0.63367 0.209022,0.94841 0.02515,0.12393 0.05726,0.24735 0.08667,0.36939 0.06982,0.29203 0.142342,0.58701 0.215084,0.88025 0.02515,0.1053 0.05478,0.21037 0.08127,0.31766 0.100137,0.38929 0.205205,0.7785 0.314542,1.16814 0.02021,0.0618 0.02941,0.12483 0.05478,0.18882 0.09497,0.32871 0.190387,0.65526 0.290296,0.98191 0.02941,0.12056 0.07386,0.24263 0.111807,0.36241 0.08913,0.28401 0.181855,0.57044 0.272671,0.85306 0.02941,0.1118 0.07207,0.22159 0.107766,0.33333 0.130442,0.38273 0.260951,0.76736 0.396535,1.14984 0.01796,0.0391 0.02515,0.0768 0.04199,0.11563 0.122584,0.34656 0.252285,0.690399 0.384434,1.033662 0.04199,0.11697 0.0916,0.23521 0.136279,0.349903 0.106647,0.277693 0.220247,0.557803 0.332144,0.833486 0.04199,0.113833 0.0916,0.228293 0.138974,0.341643 0.158057,0.37723 0.317102,0.75574 0.482029,1.13151 l 1.535691,3.48176 c -5.88354,-13.339544 -6.3642,-28.046244 -2.317803,-42.664278 8.233275,-29.704495 35.15386,-59.0389592 73.4235551,-75.765734 C 29.468669,-30.272231 69.379172,-30.148189 96.911159,-16.06932 110.46025,-9.1418864 121.0119,1.1634008 126.89543,14.503136 Z M 25.361599,22.45633 23.776461,18.861547 c -5.235224,1.660236 -10.476543,3.624347 -15.6863433,5.901454 -5.354928,2.340482 -10.4857,4.926732 -15.3749406,7.72629 l 1.5857347,3.594798 C -0.80993733,33.284534 4.3203187,30.697644 9.6751962,28.357143 14.885047,26.080052 20.124787,24.117238 25.361566,22.45633 Z m -3.071307,-6.964145 -1.585705,-3.594172 c -5.235271,1.660241 -10.476617,3.623734 -15.6864143,5.900816 -5.35485903,2.3405 -10.4859448,4.925554 -15.3743557,7.726945 l 1.5858024,3.594159 C -3.8818803,26.318543 1.2490717,23.73411 6.6039517,21.393622 11.813769,19.116538 17.053631,17.153084 22.290358,15.492185 Z M 19.218396,8.528029 17.633259,4.9338568 C 12.397197,6.5922828 7.1560747,8.55632 1.9462737,10.833399 c -5.354926,2.3405 -10.485406,4.926836 -15.3737497,7.728206 l 1.584455,3.592908 C -6.9537334,19.354955 -1.8235453,16.768072 3.5313577,14.427564 8.7411627,12.150489 13.980754,10.187116 19.218396,8.528029 Z M -11.53802,184.607 c -2.136734,-1.32676 -4.31002,-2.93635 -6.433733,-4.89247 -5.32859,-1.57298 -10.367313,-3.56109 -15.049643,-5.95579 -6.793336,-3.47504 -12.830288,-7.80229 -17.905111,-12.93567 -6.51e-4,0.004 6.96e-4,0.0112 0.0013,0.0225 0.02941,0.6547 0.07791,1.30611 0.133585,1.95932 l 0.0023,0.11248 c 5.360157,5.79691 11.89784,10.63303 19.34754,14.44043 6.077498,3.10801 12.75988,5.53353 19.895823,7.25208 z m -10.380357,-9.02461 c -1.053122,-1.25682 -2.080201,-2.61831 -3.068778,-4.09179 -3.883355,-1.33422 -7.59671,-2.90066 -11.106745,-4.69475 -5.502163,-2.81368 -10.506939,-6.18908 -14.909346,-10.09417 -6.96e-4,0.004 -2.69e-4,0.018 0,0.0252 -0.0023,0.67111 -0.0023,1.34017 0.0023,2.01112 -3.37e-4,0.0378 5.16e-4,0.0711 0.0023,0.10663 4.770922,4.52785 10.314328,8.39115 16.485539,11.54909 3.955535,2.01949 8.16769,3.75383 12.591113,5.18986 z m -5.283194,-7.71433 c -0.653827,-1.17367 -1.282148,-2.40633 -1.882631,-3.70087 -3.511248,-1.25434 -6.882063,-2.69992 -10.080992,-4.33546 -4.180633,-2.13759 -8.075798,-4.59962 -11.637023,-7.36955 -6.95e-4,0.006 -0.0023,0.018 -0.0023,0.0252 -0.05478,0.69251 -0.09677,1.38325 -0.128646,2.07492 -9.88e-4,0.0335 -0.0023,0.0686 -0.0023,0.10535 4.014448,3.34272 8.490652,6.27141 13.356635,8.76125 3.29026,1.68002 6.758334,3.16114 10.377842,4.43966 z" />
    <text
       xml:space="preserve"
       style="font-style:normal;font-variant:normal;font-weight:bold;font-stretch:normal;font-size:5.99722px;font-family:'Roboto Slab';-inkscape-font-specification:'Roboto Slab, Bold';font-variant-ligatures:normal;font-variant-caps:normal;font-variant-numeric:normal;font-variant-east-asian:normal;fill:#fbfdff;fill-opacity:1;stroke:none;stroke-width:0.499999;stroke-dasharray:none;paint-order:markers stroke fill;stop-color:#000000"
       x="73.456848"
       y="55.907429"
       id="text18434-2"><tspan
         sodipodi:role="line"
         style="font-style:normal;font-variant:normal;font-weight:bold;font-stretch:normal;font-size:5.99722px;font-family:'Roboto Slab';-inkscape-font-specification:'Roboto Slab, Bold';font-variant-ligatures:normal;font-variant-caps:normal;font-variant-numeric:normal;font-variant-east-asian:normal;fill:#fbfdff;fill-opacity:1;stroke:none;stroke-width:0.5"
         x="73.456848"
         y="55.907429"
         id="tspan19705">HoloDB és AI</tspan></text>
    <path
       id="rect1908"
       style="fill:#8d4264;fill-opacity:0;stroke-linecap:round;paint-order:markers fill stroke;stop-color:#000000"
       d="M 17.268369,62.146568 H 121.0602 l -6.47485,11.211634 -7.73659,10.842841 -89.551129,0.04757 z"
       sodipodi:nodetypes="cccccc" />
    <text
       xml:space="preserve"
       style="font-style:normal;font-variant:normal;font-weight:normal;font-stretch:normal;font-size:3.52778px;font-family:'Roboto Slab';-inkscape-font-specification:'Roboto Slab, Normal';font-variant-ligatures:normal;font-variant-caps:normal;font-variant-numeric:normal;font-variant-east-asian:normal;white-space:pre;shape-inside:url(#rect1908);inline-size:101.763;display:inline;fill:#132225;fill-opacity:1;stroke:none;stroke-width:0.499999;stroke-dasharray:none;paint-order:markers stroke fill;stop-color:#000000"
       x="10.716839"
       y="34.724209"
       id="text19082-3"><tspan
         x="10.716839"
         y="65.390351"
         id="tspan2526">A HoloDB az elterjedt MI megoldásokkal ortogonálisnak </tspan><tspan
         x="10.716839"
         y="69.80008"
         id="tspan2528">tekinthető. Ugyanakkor beilleszthető agent pipeline-okba, </tspan><tspan
         x="10.716839"
         y="74.209809"
         id="tspan2530">a konfiguráció pedig hatékonyan generálható nyelvi </tspan><tspan
         x="10.716839"
         y="78.619538"
         id="tspan2532">modellel.</tspan></text>
    <text
       xml:space="preserve"
       style="font-style:normal;font-variant:normal;font-weight:bold;font-stretch:normal;font-size:5.99722px;font-family:'Roboto Slab';-inkscape-font-specification:'Roboto Slab, Bold';font-variant-ligatures:normal;font-variant-caps:normal;font-variant-numeric:normal;font-variant-east-asian:normal;fill:#fbfdff;fill-opacity:1;stroke:none;stroke-width:0.499999;stroke-dasharray:none;paint-order:markers stroke fill;stop-color:#000000"
       x="16.836014"
       y="92.605576"
       id="text18434-2-6"><tspan
         sodipodi:role="line"
         style="font-style:normal;font-variant:normal;font-weight:bold;font-stretch:normal;font-size:5.99722px;font-family:'Roboto Slab';-inkscape-font-specification:'Roboto Slab, Bold';font-variant-ligatures:normal;font-variant-caps:normal;font-variant-numeric:normal;font-variant-east-asian:normal;fill:#fbfdff;fill-opacity:1;stroke:none;stroke-width:0.5"
         x="16.836014"
         y="92.605576"
         id="tspan19705-3">Egy zöldebb alternatíva</tspan></text>
    <path
       id="rect2172"
       style="fill:#8d4264;fill-opacity:0;stroke-linecap:round;paint-order:markers fill stroke;stop-color:#000000"
       d="M 17.283,97.591217 90.497589,97.575247 79.986031,111.01217 62.439718,120.19422 36.693464,133.13829 17.283,136.29981 Z"
       sodipodi:nodetypes="ccccccc" />
    <text
       xml:space="preserve"
       style="font-style:normal;font-variant:normal;font-weight:normal;font-stretch:normal;font-size:3.52778px;font-family:'Roboto Slab';-inkscape-font-specification:'Roboto Slab, Normal';font-variant-ligatures:normal;font-variant-caps:normal;font-variant-numeric:normal;font-variant-east-asian:normal;white-space:pre;shape-inside:url(#rect2172);inline-size:61.5789;display:inline;fill:#132225;fill-opacity:1;stroke:none;stroke-width:0.499999;stroke-dasharray:none;paint-order:markers stroke fill;stop-color:#000000"
       x="10.716839"
       y="34.724209"
       id="text19082-3-9"><tspan
         x="10.716839"
         y="100.82004"
         id="tspan2534">Nincs előgenerálási processz, nincsenek </tspan><tspan
         x="10.716839"
         y="105.22977"
         id="tspan2536">végeláthatatlan migrációk, nincs </tspan><tspan
         x="10.716839"
         y="109.6395"
         id="tspan2538">adattárhely-igény. A HoloDB egy </tspan><tspan
         x="10.716839"
         y="114.04923"
         id="tspan2540">takarékos megoldás, amely jól </tspan><tspan
         x="10.716839"
         y="118.45895"
         id="tspan2542">illeszkedik a modern </tspan><tspan
         x="10.716839"
         y="122.86868"
         id="tspan2544">szoftvertechnológiai </tspan><tspan
         x="10.716839"
         y="127.27841"
         id="tspan2546">eszköztárhoz.</tspan></text>
    <path
       id="rect64834"
       style="opacity:0.736612;fill:#4c8858;fill-opacity:1;stroke-width:0.538287;paint-order:markers stroke fill;stop-color:#000000"
       d="m 83.762663,112.93469 c 0,0 12.854815,0.23778 15.975095,4.15546 3.120282,3.91768 1.422762,12.25355 1.422762,12.25355 0,0 -6.519742,2.75094 -10.21924,-0.12385 -3.699504,-2.87478 -7.178617,-16.28516 -7.178617,-16.28516 z"
       sodipodi:nodetypes="czczc" />
    <path
       style="opacity:0.736612;fill:none;fill-opacity:1;stroke:#7ecb56;stroke-width:1.07657;stroke-linecap:round;stroke-dasharray:none;stroke-opacity:1;paint-order:markers stroke fill;stop-color:#000000"
       d="m 95.434588,122.41853 c 0,0 3.0818,2.93471 5.185742,5.52863 2.10396,2.59392 3.62168,7.49599 3.62168,7.49599"
       id="path66352"
       sodipodi:nodetypes="czc" />
    <path
       id="rect37207-2"
       style="fill:#ffffff;fill-opacity:1;stroke-width:0.3;stop-color:#000000"
       d="M 3.3333334e-8,182 H 4 L 3.3333334e-8,178 Z"
       sodipodi:nodetypes="cccc" />
    <path
       style="fill:#49910a;fill-opacity:0.996993;stroke:#000000;stroke-width:0.2;stroke-linecap:butt;stroke-dasharray:none;stroke-opacity:1;stop-color:#000000"
       d="M 0.3,179 H 1.9999999"
       id="path36696-9"
       sodipodi:nodetypes="cc" />
    <path
       style="fill:#49910a;fill-opacity:0.996993;stroke:#000000;stroke-width:0.2;stroke-linecap:butt;stroke-dasharray:none;stroke-opacity:1;stop-color:#000000"
       d="M 3,181.7 V 180"
       id="path36696-6-1"
       sodipodi:nodetypes="cc" />
    <path
       id="rect37207-3"
       style="fill:#ffffff;fill-opacity:1;stroke-width:0.3;stop-color:#000000"
       d="m 131,0 h -4 l 4,4 z"
       sodipodi:nodetypes="cccc" />
    <path
       style="fill:#49910a;fill-opacity:0.996993;stroke:#000000;stroke-width:0.2;stroke-linecap:butt;stroke-dasharray:none;stroke-opacity:1;stop-color:#000000"
       d="M 130.7,3 H 129"
       id="path36696-5"
       sodipodi:nodetypes="cc" />
    <path
       style="fill:#49910a;fill-opacity:0.996993;stroke:#000000;stroke-width:0.2;stroke-linecap:butt;stroke-dasharray:none;stroke-opacity:1;stop-color:#000000"
       d="M 128,0.3 V 2"
       id="path36696-6-6"
       sodipodi:nodetypes="cc" />
    <path
       id="rect37207"
       style="fill:#ffffff;fill-opacity:1;stroke-width:0.3;stop-color:#000000"
       d="M 3.3333334e-8,0 H 4 L 3.3333334e-8,4 Z"
       sodipodi:nodetypes="cccc" />
    <path
       style="fill:#49910a;fill-opacity:0.996993;stroke:#000000;stroke-width:0.2;stroke-linecap:butt;stroke-dasharray:none;stroke-opacity:1;stop-color:#000000"
       d="M 0.30000003,3 H 2"
       id="path36696"
       sodipodi:nodetypes="cc" />
    <path
       style="fill:#49910a;fill-opacity:0.996993;stroke:#000000;stroke-width:0.2;stroke-linecap:butt;stroke-dasharray:none;stroke-opacity:1;stop-color:#000000"
       d="M 3,0.3 V 2"
       id="path36696-6"
       sodipodi:nodetypes="cc" />
  </g>
</svg>
